<?xml version="1.0" encoding="utf-8"?>
<!-- Generator: Adobe Illustrator 17.0.2, SVG Export Plug-In . SVG Version: 6.00 Build 0)  -->
<!DOCTYPE svg PUBLIC "-//W3C//DTD SVG 1.1//EN" "http://www.w3.org/Graphics/SVG/1.1/DTD/svg11.dtd">
<svg version="1.1" id="Layer_1" xmlns="http://www.w3.org/2000/svg" xmlns:xlink="http://www.w3.org/1999/xlink" x="0px" y="0px"
	 width="42px" height="42px" viewBox="0 0 42 42" enable-background="new 0 0 42 42" xml:space="preserve">
<path fill-rule="evenodd" clip-rule="evenodd" fill="#FFFFFF" d="M42,36.751v2.624C42,40.825,40.825,42,39.375,42H36.75c0,0,0,0,0,0
	H5.25c0,0,0,0-0.001,0H2.625C1.175,42,0,40.825,0,39.375V31.5c0,0,0-0.001,0-0.001V13.125c0,0,0,0,0-0.001v-10.5
	C0,1.175,1.175,0,2.625,0h10.5c0,0,0,0,0.001,0h15.749c0,0,0,0,0,0h10.5C40.825,0,42,1.175,42,2.625v2.625c0,0,0,0,0,0.001
	L42,36.751C42,36.75,42,36.751,42,36.751z M21,15.75c-4.834,0-5.25,5.25-5.25,5.25s-0.152,5.25,5.25,5.25
	c5.402,0,5.25-5.25,5.25-5.25S25.834,15.75,21,15.75z M36.75,5.25h-7.875v7.875h7.875V5.25z M36.75,21C36.75,21,36.75,21,36.75,21
	v-2.625H31.5v0h-0.371c0.218,0.843,0.371,1.712,0.371,2.624V21h0c0,0,0,0,0,0c0,5.799-4.701,10.5-10.5,10.5
	c-5.799,0-10.5-4.701-10.5-10.5c0-0.912,0.153-1.781,0.371-2.625H10.5v0H5.25V36.75h5.25h2.625l0,0h15.75l0,0h7.875v-7.875l0,0V21z"
	/>
</svg>
