<?xml version="1.0" encoding="utf-8"?>
<!-- Generator: Adobe Illustrator 17.0.0, SVG Export Plug-In . SVG Version: 6.00 Build 0)  -->
<!DOCTYPE svg PUBLIC "-//W3C//DTD SVG 1.1//EN" "http://www.w3.org/Graphics/SVG/1.1/DTD/svg11.dtd">
<svg version="1.1" id="Calque_1" xmlns="http://www.w3.org/2000/svg" xmlns:xlink="http://www.w3.org/1999/xlink" x="0px" y="0px"
	 width="28.99px" height="48.085px" viewBox="6.718 -12.375 28.99 48.085" enable-background="new 6.718 -12.375 28.99 48.085"
	 xml:space="preserve">
<g>
	<polygon fill="#F5DA3F" points="9.546,-7.425 28.638,11.667 9.546,30.758 11.667,32.88 30.759,13.788 32.881,11.667 30.759,9.546 
		11.667,-9.546 	"/>
	<path fill="#F5DA3F" d="M11.667-9.547L30.76,9.547l2.121,2.121l-2.121,2.121L11.667,32.88l-2.121-2.122l19.092-19.091L9.547-7.424
		L11.667-9.547 M11.667-12.375l-1.414,1.415L8.132-8.838L6.718-7.424L8.132-6.01L25.81,11.667L8.132,29.344l-1.414,1.414
		l1.414,1.414l2.121,2.122l1.414,1.415l1.415-1.415l19.092-19.092l2.121-2.121l1.414-1.414l-1.414-1.414l-2.121-2.121L13.082-10.961
		L11.667-12.375L11.667-12.375z"/>
</g>
</svg>
