<?xml version="1.0" encoding="utf-8"?>
<!-- Generator: Adobe Illustrator 17.0.0, SVG Export Plug-In . SVG Version: 6.00 Build 0)  -->
<!DOCTYPE svg PUBLIC "-//W3C//DTD SVG 1.1//EN" "http://www.w3.org/Graphics/SVG/1.1/DTD/svg11.dtd">
<svg version="1.1" id="Layer_1" xmlns="http://www.w3.org/2000/svg" xmlns:xlink="http://www.w3.org/1999/xlink" x="0px" y="0px"
	 width="160.168px" height="200.427px" viewBox="0 0 160.168 200.427" enable-background="new 0 0 160.168 200.427"
	 xml:space="preserve">
<g id="n2QFnU.tif">
</g>
<path fill="#FFFFFF" d="M38.029,0c2.625,1.035,4.659,1.629,6.496,2.596c10.158,5.347,20.356,10.629,30.347,16.276
	c3.561,2.013,6.289,2.223,9.972,0.108c10.649-6.115,21.57-11.755,32.967-17.896c0,14.017,0,27.538,0,41.133
	c11.222,5.809,22.016,11.615,33.013,17.007c6.628,3.25,9.499,8.01,9.338,15.46c-0.338,15.651-0.299,31.318-0.043,46.972
	c0.102,6.27-2.326,10.277-7.738,13.266c-11.337,6.259-22.48,12.87-34.206,19.627c0,14.21,0,29.188,0,44.797
	c-1.532-0.719-2.687-1.148-3.729-1.768c-10.297-6.126-20.647-12.17-30.813-18.508c-2.784-1.736-4.787-1.836-7.641-0.134
	C65.133,185.414,54.1,191.6,43.122,197.88c-1.406,0.804-2.866,1.514-4.834,2.547c-0.105-1.919-0.267-3.326-0.246-4.731
	c0.195-13.157,0.521-26.313,0.515-39.469c-0.001-1.658-1.274-4.004-2.674-4.861c-9.505-5.823-19.138-11.446-28.863-16.895
	c-4.908-2.75-7.01-6.584-6.96-12.188c0.144-16.323,0.142-32.65-0.059-48.972c-0.079-6.399,2.464-10.709,8.095-13.662
	c8.84-4.635,17.48-9.651,26.326-14.275c2.723-1.423,3.734-3.09,3.681-6.184c-0.191-11.158-0.075-22.321-0.075-33.482
	C38.029,4.075,38.029,2.443,38.029,0z M48.344,100.42c3.895,2.136,6.9,3.816,9.934,5.44c7.018,3.758,14.051,10.42,21.076,10.417
	c7.219-0.003,14.451-6.495,21.647-10.207c3.263-1.683,6.451-3.51,10.363-5.649c-10.562-5.642-20.188-10.811-29.857-15.897
	c-0.777-0.409-2.069-0.644-2.766-0.279C68.811,89.44,58.942,94.753,48.344,100.42z"/>
</svg>
