<?xml version="1.0" encoding="utf-8"?>
<!-- Generator: Adobe Illustrator 17.0.0, SVG Export Plug-In . SVG Version: 6.00 Build 0)  -->
<!DOCTYPE svg PUBLIC "-//W3C//DTD SVG 1.1//EN" "http://www.w3.org/Graphics/SVG/1.1/DTD/svg11.dtd">
<svg version="1.1" id="Calque_1" xmlns="http://www.w3.org/2000/svg" xmlns:xlink="http://www.w3.org/1999/xlink" x="0px" y="0px"
	 width="380.489px" height="251.418px" viewBox="-10 19.999 380.489 251.418" enable-background="new -10 19.999 380.489 251.418"
	 xml:space="preserve">
<g id="Calque_1_1_">
	<path fill="#00C4FF" d="M111.667,57.373c0,0-50.5-45-87,27.5c-23.5,10-58,74,11.5,87.5c6.5,29,29,111.5,119,43.5
		c37.5,46,82,68,144-2c46,9.5,101-93.5,20.5-121c-10-70.5-84.5-66.5-105-40C194.667,18.873,145.167,16.873,111.667,57.373z"/>
	<path fill="#EFE1C6" d="M101.167,77.811c0,0,2.071,87.406,14.375,109.75c1.205,2.188,3.625,2.25,5.125,2.25
		c6.625-0.625,6.333-6.334,6.667-9.167c1.5,5.5,2.834,9,5.167,9.167c0.255,0.019,4.237-0.566,5.042-3.125
		c6.53-20.786,24.414-116.932,6.458-116.042c0,0-5.834-1.334-5.667,16.333s-4.333,34.833-4.5,38c-0.167,3.167,0.873-28-7.73-28.833
		c-8.603-0.834-4.603,23.166-2.936,29.166C120.001,111.645,114.334,73.145,101.167,77.811z"/>
	<path fill="#EFE1C6" d="M203.334,153.144c0,0-29.167-28.522-37.334-22.928c-8.166,5.595-19.667,52.429-12.833,58.762
		c6.833,6.333,29.167,24.5,35.667,13c0,0,8-4.668-24.5-22.334c0.333-9.833,0.666-12.166,2.666-10.666s15.334,15.999,22.834,9.166
		c2.333-9-13.333-11.334-18.5-19.5c-2.667-10,3.752-8.334,5.876-8S218.667,171.644,203.334,153.144z"/>
	<path fill="#EFE1C6" d="M206.872,118.978c0,0,8.629,65.168,17.629,69c9,3.833,66.5-17.5,39.5-26.5
		c-11.5,2.5-28.668,11.834-35.334,4c-1.833-9.667-1.334-9.378,9.5-11.772c10.834-2.395,32-12.562,9.667-15.562
		c-21.167,1.667-28.451,5.167-25.892-3.666c5.725-7.5,15.559-5.166,29.059-13.833c8.833-6.334,8.833-19.667-20.667-13.5
		C200.834,113.311,206.245,114.503,206.872,118.978z"/>
	<path fill="#EFE1C6" d="M295.834,98.811c0,0-42.501-4.666-22.667,11.834c8,1.666,9.501,1.999,11.834,2.333
		c2.333,0.333-8.834,80.666,3.166,83.666c11.334-1.166,10.834-73.333,11.667-80.333c8.167-0.5,20,0.833,20-6.833
		S305.004,99.388,295.834,98.811z"/>
	<g>
		<path fill="#00C4FF" d="M27.334,188.434c0,0,0.239,1.362,0.732,3.722c0.488,2.359,1.238,5.714,2.275,9.691
			c0.51,1.99,1.135,4.125,1.797,6.376c0.675,2.249,1.467,4.591,2.315,6.997c0.862,2.401,1.837,4.849,2.91,7.291
			c1.049,2.455,2.264,4.873,3.565,7.236c1.326,2.344,2.694,4.673,4.283,6.781c1.536,2.151,3.215,4.127,4.947,5.939
			c0.894,0.874,1.808,1.699,2.696,2.513c0.95,0.731,1.828,1.534,2.782,2.169c1.884,1.311,3.772,2.396,5.592,3.261
			c0.93,0.394,1.821,0.77,2.669,1.128c0.88,0.283,1.714,0.553,2.499,0.805c0.779,0.296,1.554,0.372,2.25,0.555
			c0.705,0.156,1.351,0.301,1.936,0.431c2.372,0.288,3.753,0.483,3.753,0.483s-1.37,0.06-3.812,0.11
			c-0.607-0.05-1.279-0.105-2.011-0.166c-0.731-0.079-1.541-0.089-2.37-0.293c-0.84-0.17-1.734-0.351-2.676-0.541
			c-0.925-0.258-1.881-0.598-2.894-0.919c-1.015-0.316-1.993-0.838-3.054-1.278c-0.538-0.211-1.041-0.505-1.551-0.805
			c-0.514-0.296-1.035-0.597-1.564-0.901c-1.058-0.612-2.04-1.395-3.103-2.116c-1.008-0.788-1.992-1.657-2.985-2.542
			c-1.893-1.861-3.814-3.847-5.434-6.11c-1.701-2.206-3.168-4.617-4.576-7.051c-1.325-2.479-2.552-5.004-3.603-7.551
			c-0.262-0.636-0.523-1.271-0.783-1.901c-0.232-0.641-0.462-1.278-0.692-1.912c-0.473-1.262-0.865-2.533-1.271-3.774
			c-0.4-1.244-0.75-2.48-1.088-3.689c-0.301-1.22-0.623-2.405-0.886-3.57c-0.548-2.325-0.985-4.54-1.318-6.595
			c-0.362-2.049-0.597-3.941-0.795-5.617c-0.192-1.678-0.311-3.145-0.391-4.353c-0.09-1.207-0.106-2.161-0.127-2.809
			C27.34,188.78,27.334,188.434,27.334,188.434z"/>
	</g>
	<g>
		<path fill="#00C4FF" d="M-9.999,114.478c0,0-0.015-0.674,0.104-1.845c0.122-1.167,0.354-2.839,0.863-4.795
			c0.241-0.983,0.548-2.036,0.932-3.132c0.389-1.094,0.808-2.251,1.347-3.404c1.045-2.32,2.403-4.703,4.047-6.896
			c0.814-1.101,1.708-2.147,2.643-3.123c0.928-0.984,1.927-1.87,2.922-2.687c0.511-0.393,1.016-0.776,1.521-1.134
			c0.521-0.335,1.03-0.662,1.527-0.98c1.012-0.604,1.997-1.119,2.941-1.518c0.917-0.446,1.826-0.71,2.599-0.984
			c0.796-0.227,1.487-0.415,2.064-0.534c1.163-0.215,1.824-0.3,1.824-0.3s-0.591,0.337-1.619,0.86
			c-0.511,0.268-1.105,0.649-1.803,1.022c-0.335,0.213-0.691,0.44-1.067,0.68c-0.376,0.233-0.772,0.475-1.163,0.763
			C8.88,87.01,8.059,87.657,7.187,88.32c-0.418,0.354-0.847,0.718-1.286,1.091c-0.422,0.389-0.852,0.786-1.291,1.19
			c-0.414,0.431-0.858,0.838-1.279,1.284c-0.407,0.46-0.85,0.89-1.253,1.369C1.263,94.2,0.44,95.168-0.303,96.201
			c-0.777,1.008-1.478,2.074-2.175,3.122c-0.666,1.068-1.324,2.122-1.909,3.178c-1.206,2.092-2.193,4.136-3.028,5.909
			c-0.82,1.778-1.461,3.295-1.904,4.369C-9.752,113.859-9.999,114.478-9.999,114.478z"/>
	</g>
	<g>
		<path fill="#00C4FF" d="M45.001,46.144c0,0,0.59-0.485,1.681-1.258c1.098-0.76,2.674-1.845,4.665-2.988
			c1.992-1.136,4.356-2.409,7.002-3.539c2.643-1.13,5.547-2.152,8.525-2.928c1.493-0.372,3.008-0.654,4.507-0.881
			c1.503-0.201,2.989-0.353,4.435-0.39c1.444-0.057,2.845-0.001,4.162,0.148c0.659,0.067,1.299,0.132,1.911,0.254
			c0.613,0.112,1.21,0.189,1.768,0.344c0.559,0.145,1.102,0.252,1.604,0.41c0.497,0.168,0.97,0.328,1.413,0.477
			c0.88,0.315,1.617,0.67,2.236,0.919c1.181,0.628,1.855,0.986,1.855,0.986s-0.703-0.294-1.932-0.807
			c-0.634-0.203-1.385-0.499-2.274-0.744c-0.447-0.115-0.921-0.237-1.422-0.367c-0.502-0.118-1.039-0.21-1.593-0.323
			c-0.552-0.128-1.142-0.176-1.745-0.259c-0.603-0.093-1.233-0.128-1.879-0.165c-0.645-0.056-1.311-0.056-1.99-0.053
			c-0.679-0.013-1.373,0.014-2.078,0.045c-1.411,0.057-2.863,0.228-4.33,0.446c-1.464,0.243-2.943,0.545-4.404,0.927
			c-2.932,0.718-5.809,1.681-8.435,2.759c-1.308,0.552-2.58,1.071-3.761,1.623c-1.187,0.539-2.291,1.089-3.306,1.608
			c-2.018,1.055-3.689,1.968-4.828,2.659C45.642,45.731,45.001,46.144,45.001,46.144z"/>
	</g>
	<g>
		<path fill="#00C4FF" d="M132.667,31.811c0,0,0.981-0.854,2.891-2.09c1.901-1.246,4.736-2.868,8.337-4.421
			c1.807-0.754,3.782-1.558,5.94-2.205c2.147-0.677,4.445-1.323,6.869-1.776c0.606-0.117,1.216-0.234,1.831-0.353
			c0.619-0.096,1.243-0.192,1.871-0.289c1.253-0.22,2.538-0.317,3.829-0.453c2.588-0.201,5.23-0.285,7.869-0.18l1.978,0.093
			l1.967,0.177c1.312,0.094,2.607,0.3,3.89,0.499c2.569,0.38,5.055,0.995,7.432,1.649c1.196,0.3,2.344,0.695,3.466,1.079
			c1.128,0.363,2.2,0.807,3.244,1.229c2.112,0.785,4.002,1.782,5.756,2.642c1.713,0.953,3.301,1.776,4.613,2.675
			c1.331,0.861,2.498,1.59,3.394,2.295c1.819,1.359,2.823,2.169,2.823,2.169s-1.196-0.518-3.225-1.481
			c-0.998-0.512-2.288-0.983-3.701-1.626c-0.709-0.318-1.47-0.642-2.293-0.934c-0.808-0.317-1.658-0.651-2.545-0.999
			c-0.891-0.331-1.838-0.628-2.805-0.96c-0.961-0.349-1.967-0.664-3.009-0.965c-1.038-0.312-2.098-0.644-3.208-0.89
			c-1.107-0.247-2.208-0.609-3.368-0.817c-2.294-0.52-4.691-0.902-7.129-1.225c-1.22-0.16-2.451-0.303-3.693-0.39l-1.862-0.151
			l-1.871-0.072c-2.496-0.123-4.995-0.054-7.455,0.048c-2.454,0.178-4.881,0.322-7.205,0.692c-2.327,0.34-4.577,0.72-6.693,1.188
			c-2.118,0.46-4.104,0.983-5.939,1.483c-1.816,0.552-3.496,1.052-4.96,1.569c-1.462,0.521-2.744,0.98-3.782,1.402
			C133.836,31.251,132.667,31.811,132.667,31.811z"/>
	</g>
	<g>
		<path fill="#00C4FF" d="M313.667,49.145c1.689,2.638,3.304,5.323,4.881,8.03c1.554,2.72,3.098,5.45,4.544,8.234
			c0.73,1.389,1.443,2.788,2.141,4.197c0.7,1.408,1.377,2.829,2.013,4.273c0.653,1.436,1.252,2.903,1.842,4.378l0.812,2.26
			c0.25,0.768,0.461,1.562,0.684,2.345l-0.627-0.838c1.556,0.807,3.296,1.544,4.994,2.315c1.712,0.763,3.422,1.568,5.116,2.408
			c1.687,0.858,3.355,1.766,4.986,2.742c1.639,0.967,3.232,2.015,4.796,3.109c1.546,1.122,3.073,2.278,4.503,3.555
			c1.436,1.269,2.821,2.601,4.11,4.027c0.643,0.715,1.3,1.416,1.885,2.183c0.6,0.752,1.217,1.49,1.752,2.293
			c0.552,0.789,1.129,1.561,1.601,2.402c0.485,0.832,1.021,1.634,1.435,2.505c0.916,1.694,1.68,3.463,2.381,5.25l0.941,2.722
			l0.724,2.782c0.246,0.926,0.367,1.878,0.556,2.814c0.198,0.936,0.3,1.885,0.399,2.832c0.273,1.889,0.286,3.795,0.353,5.69
			l-0.085,2.841c-0.018,0.473-0.023,0.945-0.055,1.417l-0.136,1.41c-0.093,0.94-0.188,1.879-0.3,2.814l-0.466,2.786
			c-0.253,1.864-0.792,3.675-1.191,5.503c-0.456,1.817-1.065,3.595-1.589,5.385c0.329-1.843,0.694-3.672,0.992-5.509l0.381-2.764
			l0.189-1.379l0.121-1.387l0.243-2.767l0.087-2.771l0.049-1.382c0.002-0.461-0.022-0.922-0.032-1.382l-0.086-2.756
			c-0.19-1.828-0.297-3.658-0.63-5.457c-0.135-0.903-0.271-1.806-0.502-2.689c-0.22-0.884-0.372-1.785-0.646-2.652l-0.796-2.605
			l-0.957-2.545c-0.708-1.667-1.469-3.31-2.371-4.876c-0.886-1.575-1.879-3.088-2.948-4.543c-0.507-0.748-1.095-1.437-1.665-2.139
			c-0.553-0.715-1.181-1.369-1.79-2.038c-1.225-1.331-2.546-2.579-3.916-3.769c-1.374-1.186-2.802-2.314-4.27-3.394
			c-1.485-1.058-3.002-2.076-4.57-3.02c-1.561-0.956-3.171-1.839-4.796-2.7c-1.627-0.861-3.272-1.691-4.949-2.493
			c-1.677-0.817-3.361-1.575-5.095-2.533l-0.482-0.267l-0.145-0.572l-0.555-2.177l-0.679-2.186
			c-0.509-1.452-1.027-2.904-1.606-4.343c-0.274-0.724-0.577-1.439-0.875-2.156l-0.893-2.153c-0.605-1.434-1.227-2.862-1.866-4.283
			l-1.933-4.262l-1.979-4.246L313.667,49.145z"/>
	</g>
	<g>
		<path fill="#00C4FF" d="M197.667,260.145c0,0,0.941,0.826,2.755,2.021c1.804,1.206,4.526,2.707,7.962,4.058
			c1.725,0.653,3.614,1.304,5.662,1.802c2.043,0.514,4.23,0.917,6.51,1.162c2.275,0.292,4.651,0.316,7.056,0.299
			c1.202-0.071,2.417-0.065,3.628-0.221l1.822-0.183c0.607-0.076,1.21-0.186,1.816-0.276c1.215-0.154,2.416-0.399,3.611-0.651
			c1.203-0.215,2.374-0.56,3.545-0.857c2.327-0.647,4.611-1.337,6.769-2.166c0.542-0.198,1.079-0.396,1.612-0.592
			c0.523-0.22,1.042-0.436,1.556-0.651c1.022-0.439,2.052-0.807,3.002-1.283c1.923-0.901,3.75-1.744,5.386-2.629
			c1.662-0.835,3.149-1.672,4.469-2.416c0.661-0.37,1.28-0.717,1.853-1.037c0.558-0.344,1.07-0.66,1.534-0.946
			c1.857-1.137,2.939-1.767,2.939-1.767s-0.978,0.773-2.723,2.09c-0.438,0.328-0.923,0.691-1.45,1.086
			c-0.544,0.373-1.132,0.775-1.76,1.206c-0.63,0.431-1.3,0.89-2.006,1.373c-0.708,0.483-1.496,0.918-2.296,1.413
			c-0.81,0.477-1.633,1.012-2.524,1.496c-0.896,0.477-1.823,0.97-2.776,1.475c-0.942,0.529-1.971,0.952-2.991,1.449
			c-0.516,0.238-1.036,0.479-1.562,0.724c-0.539,0.215-1.082,0.433-1.63,0.652c-1.099,0.434-2.206,0.903-3.367,1.27
			c-1.155,0.385-2.31,0.82-3.521,1.114c-1.202,0.318-2.403,0.683-3.644,0.917c-1.23,0.27-2.468,0.539-3.725,0.707
			c-0.628,0.088-1.252,0.193-1.881,0.267l-1.89,0.173c-1.255,0.146-2.518,0.133-3.764,0.192c-2.497,0.011-4.959-0.13-7.311-0.485
			c-2.36-0.303-4.603-0.846-6.685-1.472c-2.094-0.599-3.997-1.397-5.717-2.185c-1.727-0.781-3.22-1.674-4.516-2.489
			c-1.294-0.824-2.361-1.628-3.223-2.306C198.486,261.098,197.667,260.145,197.667,260.145z"/>
	</g>
	<path fill="#EFE1C6" d="M63.667,119.311c0,0,29-4.609,27-15.555s-78.5,8.555-67.5,19.555c22,4.5,17.5,4.5,24.5,0
		c5,29,15,97.5,27,95.5S65.167,122.811,63.667,119.311z"/>
</g>
</svg>
