<?xml version="1.0" encoding="utf-8"?>
<!-- Generator: Adobe Illustrator 17.1.0, SVG Export Plug-In . SVG Version: 6.00 Build 0)  -->
<!DOCTYPE svg PUBLIC "-//W3C//DTD SVG 1.1//EN" "http://www.w3.org/Graphics/SVG/1.1/DTD/svg11.dtd">
<svg version="1.1" id="Calque_1" xmlns="http://www.w3.org/2000/svg" xmlns:xlink="http://www.w3.org/1999/xlink" x="0px" y="0px"
	 viewBox="0 0 258.591 104.047" enable-background="new 0 0 258.591 104.047" xml:space="preserve">
<g>
	<g>
		<path fill="#2D1013" d="M36.67,69.065c-2.742,2.388-6.06,4.298-9.93,5.556c-4.191,1.362-8.167,1.69-11.837,1.018
			c-4.221-0.773-7.43-3.073-9.578-6.812c-1.952-3.397-2.527-6.989-1.747-10.756c0.249-1.204,0.374-1.806,0.623-3.009
			c0.848-4.096,3.277-8.736,7.176-13.924c4.075-5.421,8.514-9.744,13.278-12.987c5.493-3.739,10.43-5.268,14.969-4.557
			c1.036,0.162,2.242,0.718,3.621,1.663c1.64,1.124,2.395,2.184,2.249,3.184c-0.101,0.695-0.471,1.244-1.109,1.646
			c-0.639,0.403-1.286,0.555-1.939,0.457c-0.142-0.021-0.876-0.456-2.193-1.314c-1.318-0.856-2.454-1.364-3.414-1.518
			c-4.663-0.749-10.325,2.67-17.281,10.16C13.062,44.868,9.135,50.981,8.065,56.321c-0.755,3.772-0.741,7.024,0.068,9.759
			c1.017,3.433,3.216,5.479,6.566,6.097c2.833,0.523,6.293,0.124,10.329-1.214c5.982-1.983,11.475-6.119,16.305-12.363
			c0.786-1.016,1.532-1.48,2.244-1.379c0.682,0.097,1.321,1.001,1.226,1.958c-0.069,0.695-1.515,2.584-3.754,5.21
			C39.094,66.682,37.614,68.243,36.67,69.065z"/>
		<path fill="#2D1013" d="M48.431,63.666c0.112-1.163,0.281-2.469,0.469-3.888c0.961-7.264,2.374-14.562,4.209-21.872
			c2.034-8.105,3.631-12.099,4.811-11.952c1.461,0.182,2.17,1.165,1.904,2.652c-0.042,0.236-0.202,0.725-0.431,1.432
			c-0.348,1.163-0.522,1.744-0.871,2.906c-0.901,2.888-1.56,5.114-1.953,6.675c-1.639,6.512-2.991,13.999-4.051,22.41
			c-1.281,10.167,0.036,15.504,3.957,15.961c0.704,0.082,1.269-0.107,1.694-0.568c0.422,0.048,0.633,0.072,1.056,0.119
			c0.297,0.338,0.445,0.507,0.743,0.845c0.013,0.051,0.019,0.076,0.032,0.127c0.037,0.222,0.094,0.611,0.007,0.781
			c-0.463,0.898-2.562,1.48-4.161,1.292c-2.368-0.277-4.266-1.758-5.666-4.424C48.555,73.072,47.934,68.845,48.431,63.666z"/>
		<path fill="#2D1013" d="M70.063,81.117c-2.923-0.276-4.941-2.587-6.036-6.865c-0.757-2.955-0.992-5.795-0.7-8.502
			c0.268-2.485,0.919-5.519,1.964-9.065c1.511-5.132,3.113-7.632,4.778-7.467c1.314,0.131,1.902,0.92,1.763,2.372
			c-0.065,0.671-0.621,1.897-1.602,3.652c-1.062,1.9-2.309,5.503-2.898,10.078c-0.279,2.163-0.395,3.735-0.416,4.106
			c-0.083,1.467,0.359,3.652,0.661,5.314c0.412,2.267,1.633,3.631,3.196,3.778c0.368,0.034,0.635,0.002,0.751-0.1
			c0.475-0.419,1.526-1.22,1.909-1.136c0.39,0.085,0.877,1.063,0.837,1.512c-0.067,0.755-0.682,1.357-1.788,1.827
			C71.584,81.003,70.77,81.184,70.063,81.117z M71.389,39.448c-0.633-0.063-1.145-0.382-1.535-0.958
			c-0.391-0.576-0.561-1.102-0.512-1.577c0.057-0.558,0.336-1.093,0.836-1.607c0.499-0.514,1.089-0.737,1.774-0.669
			c1.482,0.146,2.148,1.011,1.997,2.605C73.794,38.863,72.94,39.602,71.389,39.448z"/>
		<path fill="#2D1013" d="M105.059,53.656c-0.677-0.028-1.494-0.569-2.445-1.623c-0.951-1.055-1.921-1.606-2.915-1.656
			c-3.597-0.18-7.43,2.788-11.658,8.885C84.3,64.656,82.242,68.918,82,72.08c-0.27,3.527,1.214,5.421,4.456,5.644
			c3.211,0.221,6.465-0.549,9.7-2.316c2.988-1.632,5.766-3.927,7.746-6.755c0.197-0.282,0.44-0.445,0.742-0.433
			c0.361,0.015,0.698,0.253,1.012,0.715c0.314,0.462,0.412,0.836,0.32,1.108c-0.291,0.86-2.034,2.711-5.334,5.421
			c-3.013,2.474-4.886,3.828-5.54,4.104c-3.105,1.313-5.079,1.979-5.847,1.929c-0.093-0.006-0.495,0.004-1.207,0.027
			c-0.712,0.023-1.099,0.032-1.161,0.028c-3.199-0.216-5.537-1.457-6.993-3.681c-1.205-1.841-1.697-4.067-1.482-6.669
			c0.34-4.113,2.759-8.945,7.091-14.569c4.988-6.476,9.857-9.619,14.79-9.389c0.841,0.039,2.064,0.46,3.664,1.223
			c2.08,0.993,3.139,2.146,3.2,3.416c0.027,0.555-0.207,1.004-0.734,1.321C105.895,53.521,105.44,53.672,105.059,53.656z"/>
		<path fill="#2D1013" d="M119.836,84.907c-3.66-0.82-6.088-3.712-7.279-8.581c-0.648-2.65-0.962-6.624-0.887-11.862
			c0.033-2.297,0.97-8.235,2.705-17.786c2.09-11.509,3.904-17.262,5.569-17.234c0.282,0.005,0.71,0.237,1.26,0.694
			c0.641,0.533,0.961,1.095,0.953,1.656c-0.002,0.141-0.041,0.285-0.09,0.42c-3.611,9.979-6.107,20.753-6.393,31.934
			c-0.144,5.626,0.407,10.553,1.67,14.693c0.594,1.947,1.363,3.042,2.273,3.283c1.337,0.354,2.006,0.857,1.997,1.504
			c-0.004,0.336-0.201,0.657-0.592,0.96C120.632,84.891,120.236,84.996,119.836,84.907z M142.518,85.237
			c-0.317-0.061-0.475-0.091-0.792-0.153c0.063,0.055,0.189,0.164,0.189,0.164c-0.005,0.008-0.845-0.535-0.852-0.958
			c-0.005-0.255,0.128-0.674,0.394-1.256c0.266-0.584,0.395-1.089,0.387-1.511c-0.075-3.924-2.95-6.81-8.536-8.747
			c-3.854-1.337-7.764-2.025-11.753-2.078c-0.061-0.001-0.559,0.008-1.497,0.02c-0.937,0.014-1.497,0.017-1.678,0.013
			c-1.331-0.024-1.975-0.952-1.936-2.777c0.004-0.168,0.976-1.11,2.892-2.808c2.207-1.956,4.262-4.081,6.111-6.369
			c2.184-2.701,4.154-6.268,5.931-10.598c0.598-1.458,1.3-2.195,2.084-2.199c1.508-0.009,2.272,0.825,2.288,2.509
			c0.032,3.257-13.559,18.3-13.559,18.3c0.208,0.703,11.271,2.417,14.184,3.675c5.398,2.331,8.201,5.658,8.305,10.092
			c0.013,0.533-0.152,1.325-0.499,2.371C143.724,84.313,143.165,85.084,142.518,85.237z"/>
		<path fill="#2D1013" d="M219.105,73.97c-2.619,0.374-5.01-1.082-7.134-4.332c-1.65-2.525-2.905-7.137-2.905-7.137
			s-0.157-0.862-0.523-4.051c-0.24-2.09-0.463-3.767-0.724-4.916c-0.361-1.586-0.75-2.366-1.189-2.31
			c-0.088,0.011-0.69,1.178-1.843,3.457c-3.874,7.656-6.169,11.749-6.503,12.294c-3.488,5.696-6.494,8.644-8.834,8.866
			c-2.341,0.223-3.823-2.007-4.453-6.652c-0.174-1.279-0.369-5.392-0.686-12.241c-0.071-1.536-0.28-2.299-0.604-2.271
			c-0.943,0.084-3.081,3.773-6.635,10.985c-3.618,7.341-5.632,12.313-5.714,14.887c-0.033,1.032-0.698,1.608-2.022,1.69
			c-0.616,0.038-1.256-0.84-1.823-2.589c-0.431-1.33-0.648-2.366-0.688-3.038c-0.302-5.129-0.419-9.556-0.377-13.265
			c0.039-3.428,0.33-6.369,0.842-8.784c0.552-2.605,1.256-3.96,2.157-4.02c0.639-0.042,1.242,0.142,1.812,0.553
			c0.569,0.411,0.812,0.832,0.723,1.259c-1.276,6.061-1.482,18.585-1.482,18.585c0.217,0.046,4.85-9.448,5.957-11.355
			c3.194-5.504,5.761-8.367,7.778-8.549c2.425-0.219,3.906,2.471,4.256,7.934c0.037,0.583,0.092,1.929,0.162,4.004
			c0.065,1.908,0.142,3.427,0.249,4.545c0.205,2.151,0.824,4.717,1.149,4.839c0.355,0.133,2.817-2.422,5.101-6.018
			c1.9-2.993,3.469-5.832,4.683-8.396c3.195-6.752,5.543-10.336,7.289-10.561c1.745-0.225,3.203,1.31,3.962,4.362
			c0.465,1.87,1.043,4.96,1.894,9.007c1.547,7.353,3.497,10.894,5.803,10.629c0.88-0.101,1.604-0.622,2.161-1.569
			c0.556-0.946,1.044-1.452,1.467-1.515c0.845-0.126,1.331,0.226,1.457,1.059c0.172,1.138-0.438,2.239-1.838,3.255
			C220.944,73.396,219.958,73.849,219.105,73.97z"/>
		<path fill="#2D1013" d="M232.886,58.015c-0.459,0.533-0.806,1.972-1.046,4.317c-0.24,2.345-0.229,4.349,0.045,6.011
			c0.356,2.16,2.098,2.989,5.223,2.45c3.003-0.518,6.255-2.738,9.64-6.668c3.289-3.818,5.307-7.542,6.117-11.116
			c0.567-0.115,0.85-0.173,1.416-0.29c0.661,0.379,0.944,0.812,0.865,1.283c-0.818,4.889-2.906,9.408-6.394,13.255
			c-3.328,3.671-7.014,5.898-10.977,6.582c-2.927,0.505-5.295-0.068-7.078-1.634c-1.72-1.511-2.742-3.773-3.036-6.763
			c-0.412-4.191,1.174-9.726,4.574-16.628c3.645-7.399,7.271-11.464,11.116-12.206c1.292-0.249,2.393,0.14,3.313,1.154
			c0.681,0.751,1.125,1.593,1.312,2.529c0.539,2.699-0.065,6.049-1.799,10.009c-2.076,4.742-5.026,7.513-8.802,8.179
			c-1.785,0.315-3.217,0.189-4.289-0.371C233.006,58.071,232.966,58.052,232.886,58.015z M243.391,39.602
			c-1.022,0.469-1.922,1.29-2.63,2.469c-4.708,7.846-7.214,12.3-7.024,13.406c0.052,0.305,0.776,0.391,2.142,0.228
			c2.315-0.276,4.573-2.299,6.674-6.001c2.049-3.611,2.81-6.653,2.333-9.106C244.682,39.553,244.177,39.242,243.391,39.602z"/>
	</g>
</g>
<g>
	<g>
		<path fill="#FFFFFF" d="M36.149,65.552c-2.742,2.388-6.06,4.298-9.93,5.556c-4.191,1.362-8.167,1.69-11.837,1.018
			c-4.221-0.773-7.43-3.073-9.578-6.812c-1.952-3.397-2.527-6.989-1.747-10.756c0.249-1.204,0.374-1.806,0.623-3.009
			c0.848-4.096,3.277-8.736,7.176-13.924c4.075-5.421,8.514-9.744,13.278-12.987c5.493-3.739,10.43-5.268,14.969-4.557
			c1.036,0.162,2.242,0.718,3.621,1.663c1.64,1.124,2.395,2.184,2.249,3.184c-0.101,0.695-0.47,1.244-1.109,1.646
			c-0.639,0.404-1.286,0.555-1.939,0.457c-0.142-0.021-0.876-0.456-2.193-1.314c-1.318-0.856-2.454-1.364-3.414-1.518
			c-4.663-0.749-10.325,2.67-17.281,10.16C12.541,41.355,8.614,47.468,7.545,52.808c-0.755,3.772-0.741,7.024,0.068,9.759
			c1.017,3.433,3.216,5.479,6.566,6.097c2.833,0.523,6.293,0.124,10.329-1.214c5.981-1.983,11.475-6.119,16.305-12.362
			c0.786-1.016,1.532-1.48,2.244-1.379c0.682,0.097,1.321,1.001,1.226,1.958c-0.069,0.695-1.515,2.584-3.754,5.21
			C38.573,63.169,37.093,64.73,36.149,65.552z"/>
		<path fill="#FFFFFF" d="M47.911,60.153c0.112-1.163,0.281-2.469,0.469-3.888c0.962-7.264,2.374-14.562,4.209-21.872
			c2.034-8.105,3.631-12.099,4.811-11.952c1.46,0.182,2.167,1.161,1.904,2.652c-0.042,0.237-0.203,0.725-0.43,1.432
			c-0.348,1.163-0.522,1.744-0.872,2.906c-0.9,2.888-1.56,5.115-1.954,6.675c-1.641,6.508-2.99,13.999-4.05,22.41
			c-1.281,10.167,0.035,15.504,3.956,15.961c0.705,0.082,1.271-0.107,1.695-0.568c0.422,0.048,0.633,0.072,1.056,0.119
			c0.297,0.338,0.445,0.507,0.742,0.845c0.013,0.051,0.02,0.076,0.033,0.127c0.036,0.222,0.094,0.611,0.006,0.781
			c-0.463,0.898-2.563,1.48-4.161,1.293c-2.368-0.277-4.267-1.758-5.667-4.424C48.034,69.558,47.414,65.332,47.911,60.153z"/>
		<path fill="#FFFFFF" d="M69.542,77.604c-2.922-0.276-4.94-2.587-6.036-6.865c-0.757-2.955-0.993-5.795-0.701-8.502
			c0.268-2.485,0.92-5.519,1.964-9.065c1.512-5.133,3.112-7.632,4.778-7.467c1.314,0.131,1.902,0.92,1.762,2.372
			c-0.065,0.671-0.621,1.897-1.602,3.652c-1.061,1.9-2.309,5.503-2.898,10.078c-0.279,2.163-0.395,3.735-0.416,4.106
			c-0.083,1.467,0.359,3.652,0.661,5.314c0.412,2.267,1.633,3.631,3.196,3.778c0.368,0.034,0.635,0.002,0.751-0.1
			c0.474-0.419,1.526-1.22,1.909-1.136c0.39,0.085,0.876,1.063,0.837,1.512c-0.067,0.755-0.681,1.357-1.787,1.827
			C71.063,77.49,70.25,77.671,69.542,77.604z M70.868,35.935c-0.633-0.063-1.145-0.382-1.535-0.958
			c-0.391-0.576-0.56-1.102-0.512-1.577c0.057-0.558,0.336-1.093,0.835-1.607c0.499-0.514,1.089-0.737,1.774-0.669
			c1.481,0.146,2.148,1.011,1.997,2.605C73.273,35.35,72.419,36.089,70.868,35.935z"/>
		<path fill="#FFFFFF" d="M104.539,50.143c-0.677-0.028-1.494-0.568-2.445-1.623c-0.952-1.055-1.921-1.606-2.915-1.656
			c-3.597-0.18-7.43,2.788-11.658,8.885c-3.741,5.394-5.799,9.656-6.041,12.819c-0.27,3.527,1.214,5.421,4.456,5.644
			c3.21,0.221,6.465-0.549,9.7-2.316c2.988-1.633,5.763-3.927,7.746-6.755c0.198-0.282,0.441-0.445,0.742-0.433
			c0.361,0.015,0.698,0.253,1.013,0.715c0.314,0.462,0.412,0.836,0.32,1.108c-0.29,0.86-2.034,2.712-5.334,5.421
			c-3.013,2.474-4.886,3.828-5.54,4.104c-3.106,1.314-5.079,1.979-5.848,1.929c-0.092-0.006-0.495,0.004-1.206,0.027
			c-0.712,0.023-1.1,0.032-1.161,0.028c-3.2-0.217-5.538-1.458-6.993-3.681c-1.205-1.841-1.696-4.067-1.482-6.669
			c0.339-4.113,2.758-8.946,7.09-14.569c4.989-6.476,9.858-9.618,14.79-9.389c0.841,0.039,2.064,0.459,3.664,1.223
			c2.079,0.993,3.138,2.147,3.2,3.416c0.027,0.555-0.206,1.004-0.733,1.321C105.376,50.008,104.92,50.159,104.539,50.143z"/>
		<path fill="#FFFFFF" d="M119.316,81.394c-3.66-0.82-6.089-3.711-7.28-8.581c-0.648-2.65-0.963-6.624-0.886-11.862
			c0.034-2.297,0.97-8.235,2.705-17.786c2.09-11.509,3.904-17.262,5.569-17.234c0.282,0.005,0.71,0.237,1.259,0.694
			c0.641,0.533,0.961,1.095,0.953,1.656c-0.002,0.141-0.041,0.285-0.09,0.42c-3.62,9.958-6.106,20.753-6.392,31.934
			c-0.144,5.626,0.408,10.552,1.67,14.693c0.593,1.947,1.362,3.042,2.272,3.283c1.337,0.354,2.006,0.857,1.998,1.504
			c-0.004,0.336-0.202,0.657-0.592,0.96C120.111,81.378,119.715,81.483,119.316,81.394z M141.997,81.724
			c-0.317-0.061-0.475-0.091-0.792-0.153c0.063,0.055,0.189,0.164,0.189,0.164c-0.005,0.008-0.845-0.535-0.852-0.958
			c-0.005-0.255,0.128-0.674,0.394-1.256c0.266-0.584,0.395-1.089,0.387-1.511c-0.075-3.924-2.95-6.809-8.536-8.747
			c-3.853-1.336-7.764-2.025-11.753-2.078c-0.061-0.001-0.56,0.008-1.497,0.02c-0.938,0.014-1.497,0.017-1.679,0.013
			c-1.33-0.024-1.975-0.952-1.935-2.776c0.004-0.168,0.977-1.11,2.893-2.808c2.207-1.957,4.262-4.081,6.111-6.369
			c2.183-2.701,4.153-6.268,5.93-10.598c0.598-1.458,1.3-2.195,2.084-2.199c1.508-0.009,2.272,0.825,2.288,2.509
			c0.032,3.257-13.559,18.3-13.559,18.3c0.208,0.703,11.271,2.417,14.184,3.675c5.398,2.331,8.201,5.658,8.305,10.092
			c0.013,0.533-0.152,1.325-0.499,2.371C143.203,80.8,142.644,81.571,141.997,81.724z"/>
		<path fill="#FFFFFF" d="M218.584,70.457c-2.619,0.374-5.01-1.082-7.134-4.332c-1.65-2.525-2.905-7.137-2.905-7.137
			s-0.157-0.861-0.523-4.051c-0.24-2.09-0.463-3.767-0.724-4.916c-0.361-1.586-0.75-2.366-1.189-2.31
			c-0.088,0.011-0.69,1.178-1.843,3.457c-3.874,7.656-6.169,11.749-6.503,12.294c-3.488,5.696-6.494,8.644-8.834,8.866
			c-2.341,0.223-3.823-2.007-4.453-6.652c-0.174-1.279-0.369-5.391-0.686-12.241c-0.071-1.536-0.28-2.299-0.604-2.271
			c-0.943,0.084-3.081,3.773-6.635,10.985c-3.618,7.341-5.632,12.313-5.714,14.887c-0.033,1.032-0.698,1.608-2.022,1.69
			c-0.616,0.038-1.256-0.84-1.823-2.589c-0.431-1.33-0.648-2.366-0.688-3.038c-0.302-5.129-0.419-9.556-0.377-13.265
			c0.039-3.428,0.33-6.369,0.842-8.784c0.552-2.605,1.256-3.96,2.157-4.02c0.639-0.042,1.242,0.142,1.812,0.553
			c0.569,0.411,0.812,0.832,0.723,1.259c-1.276,6.061-1.482,18.585-1.482,18.585c0.217,0.046,4.85-9.448,5.957-11.355
			c3.195-5.504,5.761-8.367,7.778-8.549c2.425-0.219,3.906,2.471,4.256,7.934c0.037,0.583,0.092,1.929,0.162,4.004
			c0.065,1.908,0.142,3.427,0.249,4.545c0.205,2.151,0.824,4.717,1.149,4.839c0.355,0.133,2.817-2.422,5.101-6.018
			c1.9-2.993,3.469-5.832,4.683-8.396c3.195-6.752,5.543-10.336,7.289-10.561c1.745-0.225,3.203,1.31,3.962,4.362
			c0.465,1.871,1.043,4.96,1.894,9.007c1.547,7.353,3.497,10.894,5.803,10.629c0.88-0.101,1.605-0.621,2.161-1.569
			c0.556-0.946,1.044-1.452,1.467-1.515c0.845-0.126,1.33,0.226,1.456,1.059c0.172,1.138-0.438,2.239-1.838,3.255
			C220.424,69.883,219.437,70.336,218.584,70.457z"/>
		<path fill="#FFFFFF" d="M232.366,54.502c-0.459,0.533-0.806,1.972-1.046,4.317c-0.24,2.345-0.229,4.349,0.045,6.011
			c0.356,2.16,2.098,2.989,5.223,2.45c3.003-0.518,6.255-2.738,9.64-6.668c3.289-3.818,5.307-7.542,6.117-11.116
			c0.567-0.115,0.85-0.173,1.416-0.29c0.661,0.379,0.944,0.812,0.865,1.283c-0.818,4.89-2.906,9.408-6.394,13.255
			c-3.328,3.671-7.014,5.898-10.977,6.582c-2.927,0.505-5.295-0.068-7.078-1.634c-1.72-1.511-2.742-3.773-3.036-6.763
			c-0.412-4.191,1.174-9.726,4.574-16.628c3.645-7.399,7.272-11.464,11.116-12.206c1.292-0.249,2.393,0.14,3.313,1.154
			c0.681,0.751,1.125,1.593,1.312,2.529c0.539,2.699-0.065,6.049-1.799,10.009c-2.076,4.742-5.026,7.513-8.802,8.179
			c-1.785,0.315-3.217,0.189-4.289-0.371C232.486,54.558,232.446,54.539,232.366,54.502z M242.87,36.089
			c-1.022,0.469-1.922,1.29-2.63,2.469c-4.708,7.846-7.214,12.3-7.024,13.406c0.052,0.305,0.776,0.391,2.142,0.228
			c2.315-0.276,4.573-2.299,6.674-6.001c2.049-3.611,2.81-6.653,2.333-9.106C244.161,36.04,243.656,35.729,242.87,36.089z"/>
	</g>
</g>
</svg>
