<?xml version="1.0" encoding="utf-8"?>
<!-- Generator: Adobe Illustrator 17.0.0, SVG Export Plug-In . SVG Version: 6.00 Build 0)  -->
<!DOCTYPE svg PUBLIC "-//W3C//DTD SVG 1.1//EN" "http://www.w3.org/Graphics/SVG/1.1/DTD/svg11.dtd">
<svg version="1.1" id="Calque_1" xmlns="http://www.w3.org/2000/svg" xmlns:xlink="http://www.w3.org/1999/xlink" x="0px" y="0px"
	 width="395.658px" height="251.513px" viewBox="5.033 7.178 395.658 251.513" enable-background="new 5.033 7.178 395.658 251.513"
	 xml:space="preserve">
<path opacity="0.2" d="M151.667,57.373c0,0-50.5-45-87,27.5c-23.5,10-58,74,11.5,87.5c6.5,29,29,111.5,119,43.5c37.5,46,82,68,144-2
	c46,9.5,101-93.5,20.5-121c-10-70.5-84.5-66.5-105-40C234.667,18.873,185.167,16.873,151.667,57.373z"/>
<path fill="#F0E2C7" d="M121.667,37.373c0,0-50.5-45-87,27.5c-23.5,10-58,74,11.5,87.5c6.5,29,29,111.5,119,43.5
	c37.5,46,82,68,144-2c46,9.5,101-93.5,20.5-121c-10-70.5-84.5-66.5-105-40C204.667-1.127,155.167-3.127,121.667,37.373z"/>
</svg>
