<?xml version="1.0" encoding="utf-8"?>
<!-- Generator: Adobe Illustrator 17.0.0, SVG Export Plug-In . SVG Version: 6.00 Build 0)  -->
<!DOCTYPE svg PUBLIC "-//W3C//DTD SVG 1.1//EN" "http://www.w3.org/Graphics/SVG/1.1/DTD/svg11.dtd">
<svg version="1.1" id="Calque_1" xmlns="http://www.w3.org/2000/svg" xmlns:xlink="http://www.w3.org/1999/xlink" x="0px" y="0px"
	 width="316.08px" height="224.855px" viewBox="49.206 19.597 316.08 224.855"
	 enable-background="new 49.206 19.597 316.08 224.855" xml:space="preserve">
<path opacity="0.2" d="M287.329,206.256c0,0,63,5,52-43c23.5-10,40.726-57.65,7.388-74.368c-6-41.659-41.753-49.292-90.388-28.632
	c-46.141-56.599-121,19-120,38c-46-9.5-94.5,66.5-14,94c10,70.5,55.5,57.5,76,31C218.329,257.256,293.329,241.256,287.329,206.256z"
	/>
<path fill="#F0E2C7" d="M257.329,186.256c0,0,63,5,52-43c23.5-10,40.726-57.65,7.388-74.368c-6-41.659-41.753-49.292-90.388-28.632
	c-46.141-56.599-121,19-120,38c-46-9.5-94.5,66.5-14,94c10,70.5,55.5,57.5,76,31C188.329,237.256,263.329,221.256,257.329,186.256z"
	/>
</svg>
