<?xml version="1.0" encoding="utf-8"?>
<!-- Generator: Adobe Illustrator 17.0.0, SVG Export Plug-In . SVG Version: 6.00 Build 0)  -->
<!DOCTYPE svg PUBLIC "-//W3C//DTD SVG 1.1//EN" "http://www.w3.org/Graphics/SVG/1.1/DTD/svg11.dtd">
<svg version="1.1" id="Calque_1" xmlns="http://www.w3.org/2000/svg" xmlns:xlink="http://www.w3.org/1999/xlink" x="0px" y="0px"
	 width="328.997px" height="213.919px" viewBox="50.79 16.316 328.997 213.919"
	 enable-background="new 50.79 16.316 328.997 213.919" xml:space="preserve">
<path opacity="0.3" enable-background="new    " d="M151.329,66.256c0,0-62.71,4.606-48.71,59.606
	c-23.5,10-33.29,41.394-2.29,60.394c-2.8,30,2.9,37.664,90,20c39.96,34,101,32,131-7c46,9.5,96.5-82.5,16-110
	c-10-70.5-76.088-53.5-96.588-27C220.741,28.256,184.829,25.756,151.329,66.256z"/>
<path fill="#F0E2C7" d="M121.329,46.256c0,0-62.71,4.606-48.71,59.606c-23.5,10-33.29,41.394-2.29,60.394c-2.8,30,2.9,37.664,90,20
	c39.96,34,101,32,131-7c46,9.5,96.5-82.5,16-110c-10-70.5-76.088-53.5-96.588-27C190.741,8.256,154.829,5.756,121.329,46.256z"/>
</svg>
