<?xml version="1.0" encoding="utf-8"?>
<!-- Generator: Adobe Illustrator 17.0.0, SVG Export Plug-In . SVG Version: 6.00 Build 0)  -->
<!DOCTYPE svg PUBLIC "-//W3C//DTD SVG 1.1//EN" "http://www.w3.org/Graphics/SVG/1.1/DTD/svg11.dtd">
<svg version="1.1" id="Calque_1" xmlns="http://www.w3.org/2000/svg" xmlns:xlink="http://www.w3.org/1999/xlink" x="0px" y="0px"
	 width="384.581px" height="209.886px" viewBox="5.033 25.268 384.581 209.886"
	 enable-background="new 5.033 25.268 384.581 209.886" xml:space="preserve">
<path opacity="0.2" enable-background="new    " d="M153.744,75.208c0,0-42.577-62.835-79.077,9.665c-23.5,10-58,74,11.5,87.5
	c6.5,29,18.577,102.835,108.577,34.835c53,27,90,43,133-10c46,9.5,101.5-55.5,21-83c-10-70.5-58.5-69.5-79-43
	C249.744,37.208,187.244,34.708,153.744,75.208z"/>
<path fill="#F0E2C7" d="M113.744,55.208c0,0-42.577-62.835-79.077,9.665c-23.5,10-58,74,11.5,87.5
	c6.5,29,18.577,102.835,108.577,34.835c53,27,90,43,133-10c46,9.5,101.5-55.5,21-83c-10-70.5-58.5-69.5-79-43
	C209.744,17.208,147.244,14.708,113.744,55.208z"/>
</svg>
