<?xml version="1.0" encoding="utf-8"?>
<!-- Generator: Adobe Illustrator 17.0.0, SVG Export Plug-In . SVG Version: 6.00 Build 0)  -->
<!DOCTYPE svg PUBLIC "-//W3C//DTD SVG 1.1//EN" "http://www.w3.org/Graphics/SVG/1.1/DTD/svg11.dtd">
<svg version="1.1" id="Calque_1" xmlns="http://www.w3.org/2000/svg" xmlns:xlink="http://www.w3.org/1999/xlink" x="0px" y="0px"
	 width="523.763px" height="174.958px" viewBox="0.001 0 523.763 174.958" enable-background="new 0.001 0 523.763 174.958"
	 xml:space="preserve">
<g id="coca_1_" opacity="0.2">
	<g id="g3_1_">
		<path id="path5_1_" d="M213.452,153.894c-18.746-12.075-44.186-14.193-85.212-2.812c-43.738,10.278-58.321,16.867-77.473,3.641
			c-7.356-6.498-9.995-16.958-8.024-32.027C47.311,98.13,59.657,74.49,81.587,48.268c12.241-13.641,23.595-25.347,38.588-30.047
			c11.491-2.949,10.417,6.081,9.026,7.373c-1.468,0-3.934,0.231-5.838,1.474c-1.546,1.199-5.788,5.071-6.017,10.278
			c-0.329,7.972,7.922,6.313,11.479,1.936c3.836-4.933,9.505-14.378,5.046-23.182c-1.869-3.133-5.099-5.299-9.107-6.036
			c-13.728-0.785-26.514,5.76-38.314,12.995C60.643,40.986,40,65.827,28.319,93.017c-6.734,16.406-12.825,39.906-3.695,59.033
			c7.062,13.271,21.724,20.32,39.217,18.849c12.268-1.29,27.104-5.255,37.082-7.647c9.977-2.397,61.052-19.955,77.833,10.602
			c0,0,5.581-10.832,19.527-11.062c11.465-1.059,28.005,3.318,40.051,12.166C234.321,168.917,222.943,160.024,213.452,153.894
			L213.452,153.894z"/>
		<path id="path7_1_" d="M133.448,51.355c-9.553-6.267-28.752,5.714-44.13,26.268c-14.062,18.436-20.135,39.863-13.526,49.771
			c9.831,11.658,28.079-5.299,35.84-14.376l1.001-1.062c5.277-5.668,9.354-12.49,13.301-19.034c0,0,3.626-5.991,3.8-6.268
			c2.242-0.413,4.942-1.059,7.984-1.934c-0.043,0.137-11.641,19.631-10.458,29.308c0.368,2.952,0.086,13.736,10.615,17.008
			c14.031,2.353,25.236-8.527,35.122-18.205c0,0,1.685-1.61,2.637-2.531c-0.241,0.965-0.556,2.252-0.556,2.252
			c-4.107,14.289,1.43,17.287,4.894,18.392c10.469,3.046,22.975-12.165,23.016-12.165c-0.324,4.791-1.272,8.754,3.777,11.936
			c4.767,1.707,9.59-0.896,13.257-3.338c13.208-9.31,23.85-23.877,32.444-36.473h-5.482c-0.064,0-13.527,19.514-22.271,23.754
			c-0.013,0-1.604,0.816-2.521,0.17c-1.135-0.968-0.687-2.98,0.015-4.406c0.044-0.094,33.754-58.561,33.754-58.561h-15.917
			c0,0-1.738,2.813-1.879,2.997c-0.107-0.092-0.362-0.575-0.54-0.807c-9.861-13.641-32.192,7.341-49.005,31.672
			c-6.473,9.356-14.714,19.892-23.259,27.493c0,0-12.658,11.605-18.067,3.269c-1.978-3.503-1.369-8.625-0.253-11.987
			c6.298-17.928,17.148-34.198,29.498-44.015c3.485-2.717,7.274-3.503,9.154-2.351c1.792,1.062,2.081,3.686,0.947,5.484
			c-2.876-0.092-5.18,0.782-7.053,2.718c-3.691,3.872-4.972,7.605-3.799,11.108c5.699,8.11,17.065-7.928,16.517-17.698
			c-0.197-3.502-2.065-6.82-4.854-8.435c-4.157-2.487-10.498-1.843-14.603,0.14c-5.494,2.073-14.189,9.308-19.266,14.931
			c-6.392,7.052-17.351,14.886-20.777,14.008C133.929,77.392,143.187,58.451,133.448,51.355L133.448,51.355z M210.184,79.375
			c3.097-4.285,12.108-15.761,14.305-17.696c7.39-6.5,10.344-3.64,10.599-1.614c-6.896,12.351-15.035,26.5-22.688,39.22
			c0.017-0.045-2.395,3.641-2.395,3.641c-3.379,5.16-6.782,9.584-12.333,12.671c-0.792,0.231-2.097,0.325-2.965-0.322
			c-1.045-0.692-1.458-1.844-1.34-3.042C193.7,108.269,197.735,96.15,210.184,79.375L210.184,79.375z M123.597,86.794
			c0,0-0.138,0.417-0.207,0.552c-0.017,0-6.938,11.29-6.938,11.29c-4.179,5.576-9.395,12.584-15.914,15.945
			c-1.934,0.646-4.604,1.062-5.966-0.642c-2.886-3.458-1.397-8.25-0.189-12.121l0.428-1.383c3.464-9.4,8.962-17.697,14.312-25.393
			c0.066-0.046,0.217-0.092,0.271-0.092c0.012,0.046,0.034,0.046,0.042,0.139c3.357,6.451,9.653,9.445,14.362,10.83
			c0.028,0,0.059,0.046,0.059,0.139C123.857,86.195,123.78,86.381,123.597,86.794L123.597,86.794z M130.155,73.477
			c-0.029,0.092-3.083,7.096-3.083,7.096c-0.44,0.369-1.14,0.185-1.938,0l-1.371-0.231c-4.303-1.336-7.548-4.193-8.548-7.604
			c-1.381-6.636,4.289-11.844,6.787-13.732c2.396-1.661,6.123-2.536,8.287-0.831c1.334,1.568,1.84,3.595,1.84,5.808
			C132.127,66.979,131.203,70.342,130.155,73.477L130.155,73.477z"/>
		<path id="path9_1_" d="M331.371,94.858c-1.535-3.316-5.18-5.437-9.062-5.207c-12.607,1.153-24.939,11.521-31.417,26.406
			c-3.396,7.649-5.252,13.964-6.468,24.01c3.92-4.517,11.918-11.937,20.992-15.989c0,0,1.234-9.633,7.533-18.205
			c2.381-3.549,7.149-9.264,12.506-7.744c4.678,1.568,3.033,14.519-3.186,27.051c-4.602,9.218-11.641,18.438-18.764,24.796
			c-6.299,5.346-15.616,11.798-23.769,6.819c-5.135-3.041-7.754-9.4-7.198-17.604c2.453-23.271,13.045-43.089,28.207-65.67
			c15.631-20.968,32.861-42.49,56.074-53.967c4.734-2.396,9.119-2.949,12.909-1.474c0,0-21.79,11.981-32.177,34.149
			c-2.645,5.623-6.317,13.225-2.617,19.954c1.934,3.502,5.367,3.778,8.132,3.594c12.731-2.95,20.957-14.84,27.679-25.714
			c3.896-8.25,7.359-16.453,7.359-25.578c0-1.106-0.059-2.58-0.15-3.687c6.082-3.225,18.558,2.489,18.558,2.489
			c9.747,3.227,30.501,19.127,37.501,22.167c3.416-3.962,9.027-9.953,12.189-12.949l-4.574-2.812
			c-7.322-4.47-15.062-8.71-22.684-12.903c-17.306-9.447-31.39-6.129-38.559-3.548c-2.816,1.013-5.393,1.889-5.393,1.889
			c-5.32-5.806-14.045-5.254-20.475-3.687c-23.119,6.635-44.583,22.811-67.596,50.877c-16.919,21.983-27.415,40.969-33.008,59.725
			c-4.312,12.627-5.622,31.199,4.901,42.213c8.948,9.355,20.812,7.326,29.189,3.966c18.152-8.94,34.469-28.206,42.598-50.374
			C332.572,111.266,334.748,101.957,331.371,94.858L331.371,94.858z M373.111,25.41c-2.4,27.559-23.824,43.736-29.125,45.024
			c-3.212,0.644-8.691-0.784-3.8-12.35c7.206-15.578,19.507-28.803,32.706-35.578C373.214,23.659,373.205,24.395,373.111,25.41
			L373.111,25.41z"/>
		<path id="path11_1_" d="M500.185,28.911c-11.521,6.545-23.469,10.784-37.928,9.31c-4.01,4.518-7.908,9.171-11.508,13.964
			c20.297,5.161,41.812-6.314,53.812-17.235c12.693-11.015,19.203-24.885,19.203-24.885S514.25,20.939,500.185,28.911
			L500.185,28.911z"/>
		<polygon id="polygon13_1_" points="282.417,51.86 267.301,51.86 258.775,65.714 273.887,65.714 		"/>
		<path id="path15_1_" d="M462.197,155.175c-1.625,1.105-3.908,0.257-3.055-2.277c2.127-6.452,10.58-19.602,10.58-19.602
			l23.549-41.764h-16.129c-0.77,1.26-2.406,4.151-2.406,4.151c-0.746-1.242-2.979-4.007-3.896-4.604
			c-3.939-2.491-9.723-1.313-13.711,0.945c-17.342,10.14-29.994,30.175-39.973,45.8c0,0-10.505,17.365-16.336,18.657
			c-4.553,0.368-4.082-5.765-3.885-7.192c1.76-10.324,5.848-20.141,9.965-29.035c8.376-5.805,17.936-13.41,26.621-21.75
			c18.854-18.021,34.746-38.437,37.068-42.999c0,0-2.516,0.507-5.482,0.598c-14.504,20.231-44.184,49.635-53.182,54.012
			c3.984-9.587,29.738-55.349,51.654-77.238l3.447-3.319c5.334-5.208,10.857-10.554,15.164-11.429c0.455-0.047,1.041,0,1.547,1.061
			c0.191,4.055-1.316,7.051-3.049,10.461l-2.428,4.978c0,0,3.438-0.645,5.693-1.384c2.619-4.929,5.521-10.461,4.451-17.05
			c-0.355-2.12-1.893-3.733-3.896-4.102c-6.539-1.244-13.662,3.593-19.395,7.511l-0.232,0.137
			c-29.471,23.089-54.354,56.363-76.112,101.803c-1.576,1.197-7.669,2.625-8.704,1.935c2.148-4.424,4.854-10.37,6.206-16.821
			c0.235-1.844,0.453-3.732,0.453-5.576c0-3.965-0.952-7.697-4.507-10.276c-4.166-2.075-9.313-1.106-12.785,0.46
			c-15.553,6.451-27.178,22.398-35.564,35.529c-4.511,8.346-9.009,17.281-10.255,27.515c-0.877,8.021,0.909,13.181,5.468,15.761
			c4.688,2.396,10.59-0.094,12.907-1.291c15.755-8.295,26.765-24.931,35.44-40.14c0.346-0.046,5.082-0.185,8.668-1.104
			c0.048,0,0.066,0,0.146,0.047c-0.205,0.688-2.058,6.221-2.058,6.221c-5.5,16.129-8.044,27.099-2.849,33.595
			c7.424,9.172,19.715-0.319,29.711-12.858c-2.146,15.023,5.641,17.375,11.574,16.224c6.818-1.843,14.416-9.125,17.941-12.856
			c-1.133,4.379-0.824,12.215,5.377,12.996c4.252,0.785,7.434-1.525,11.113-3.51c13.205-7.188,29.012-31.146,33.115-38.075h-5.383
			C478.957,138.128,471.535,149.69,462.197,155.175L462.197,155.175z M343.675,153.574c-0.838-1.246-1.115-2.605-1.145-4.076
			c-0.16-9.037,9.562-25.221,16.424-34.037c0.016,0,0.016,0,0.016,0c2.876,6.297,9.389,10.346,13.318,12.052
			C367.408,138.388,350.662,161.683,343.675,153.574L343.675,153.574z M375.044,122.649c-0.465,0.324-8.678-2.442-10.266-10.046
			c-1.346-6.546,3.162-11.661,7.523-14.24c1.873-1.476,4.691-1.98,6.762-1.246c1.92,1.291,2.439,3.598,2.439,6.082
			c0,1.523-0.203,3.09-0.383,4.518c0,0-0.031,0.277-0.037,0.324C379.716,113.154,377.623,118.177,375.044,122.649L375.044,122.649z
			 M440.91,150.667c-0.008,0-1.559,1.383-1.559,1.383c-2.215,1.98-4.494,4.102-7.246,3.039c-0.762-0.274-1.295-1.289-1.424-2.073
			c-0.125-5.668,2.428-10.923,4.902-16.036l0.635-1.337c7.121-11.89,15.398-25.899,27.555-35.622
			c2.049-1.479,4.271-2.721,6.617-1.751c0.539,0.506,1.168,1.383,1.168,2.257c0,0.278-0.246,1.016-0.389,1.244
			c-3.395,5.486-6.629,11.247-9.771,16.775C455.253,129.468,448.878,140.757,440.91,150.667L440.91,150.667z"/>
	</g>
</g>
<g id="coca">
	<g id="g3">
		<path id="path5" fill="#F0E2C7" d="M193.452,143.894c-18.746-12.075-44.186-14.193-85.212-2.812
			c-43.738,10.278-58.321,16.867-77.473,3.641c-7.356-6.498-9.995-16.958-8.024-32.027C27.311,88.13,39.657,64.49,61.587,38.268
			c12.241-13.641,23.595-25.347,38.588-30.047c11.491-2.949,10.417,6.081,9.026,7.373c-1.468,0-3.934,0.231-5.838,1.474
			c-1.546,1.199-5.788,5.071-6.017,10.278c-0.329,7.972,7.922,6.313,11.479,1.936c3.836-4.933,9.505-14.378,5.046-23.182
			c-1.869-3.133-5.099-5.299-9.107-6.036C91.036-0.721,78.25,5.824,66.45,13.059C40.643,30.986,20,55.827,8.319,83.017
			C1.585,99.423-4.506,122.923,4.624,142.05c7.062,13.271,21.724,20.32,39.217,18.849c12.268-1.29,27.104-5.255,37.082-7.647
			c9.977-2.397,61.052-19.955,77.833,10.602c0,0,5.581-10.832,19.527-11.062c11.465-1.059,28.005,3.318,40.051,12.166
			C214.321,158.917,202.943,150.024,193.452,143.894L193.452,143.894z"/>
		<path id="path7" fill="#F0E2C7" d="M113.448,41.355c-9.553-6.267-28.752,5.714-44.13,26.268
			c-14.062,18.436-20.135,39.863-13.526,49.771c9.831,11.658,28.079-5.299,35.84-14.376l1.001-1.062
			c5.277-5.668,9.354-12.49,13.301-19.034c0,0,3.626-5.991,3.8-6.268c2.242-0.413,4.942-1.059,7.984-1.934
			c-0.043,0.137-11.641,19.631-10.458,29.308c0.368,2.952,0.086,13.736,10.615,17.008c14.031,2.353,25.236-8.527,35.122-18.205
			c0,0,1.685-1.61,2.637-2.531c-0.241,0.965-0.556,2.252-0.556,2.252c-4.107,14.289,1.43,17.287,4.894,18.392
			c10.469,3.046,22.975-12.165,23.016-12.165c-0.324,4.791-1.272,8.754,3.777,11.936c4.767,1.707,9.59-0.896,13.257-3.338
			c13.208-9.31,23.85-23.877,32.444-36.473h-5.482c-0.064,0-13.527,19.514-22.271,23.754c-0.013,0-1.604,0.816-2.521,0.17
			c-1.135-0.968-0.687-2.98,0.015-4.406c0.044-0.094,33.754-58.561,33.754-58.561h-15.917c0,0-1.738,2.813-1.879,2.997
			c-0.107-0.092-0.362-0.575-0.54-0.807c-9.861-13.641-32.192,7.341-49.005,31.672c-6.473,9.356-14.714,19.892-23.259,27.493
			c0,0-12.658,11.605-18.067,3.269c-1.978-3.503-1.369-8.625-0.253-11.987c6.298-17.928,17.148-34.198,29.498-44.015
			c3.485-2.717,7.274-3.503,9.154-2.351c1.792,1.062,2.081,3.686,0.947,5.484c-2.876-0.092-5.18,0.782-7.053,2.718
			c-3.691,3.872-4.972,7.605-3.799,11.108c5.699,8.11,17.065-7.928,16.517-17.698c-0.197-3.502-2.065-6.82-4.854-8.435
			c-4.157-2.487-10.498-1.843-14.603,0.14c-5.494,2.073-14.189,9.308-19.266,14.931c-6.392,7.052-17.351,14.886-20.777,14.008
			C113.929,67.392,123.187,48.451,113.448,41.355L113.448,41.355z M190.184,69.375c3.097-4.285,12.108-15.761,14.305-17.696
			c7.39-6.5,10.344-3.64,10.599-1.614c-6.896,12.351-15.035,26.5-22.688,39.22c0.017-0.045-2.395,3.641-2.395,3.641
			c-3.379,5.16-6.782,9.584-12.333,12.671c-0.792,0.231-2.097,0.325-2.965-0.322c-1.045-0.692-1.458-1.844-1.34-3.042
			C173.7,98.269,177.735,86.15,190.184,69.375L190.184,69.375z M103.597,76.794c0,0-0.138,0.417-0.207,0.552
			c-0.017,0-6.938,11.29-6.938,11.29c-4.179,5.576-9.395,12.584-15.914,15.945c-1.934,0.646-4.604,1.062-5.966-0.642
			c-2.886-3.458-1.397-8.25-0.189-12.121l0.428-1.383c3.464-9.4,8.962-17.697,14.312-25.393c0.066-0.046,0.217-0.092,0.271-0.092
			c0.012,0.046,0.034,0.046,0.042,0.139c3.357,6.451,9.653,9.445,14.362,10.83c0.028,0,0.059,0.046,0.059,0.139
			C103.857,76.195,103.78,76.381,103.597,76.794L103.597,76.794z M110.155,63.477c-0.029,0.092-3.083,7.096-3.083,7.096
			c-0.44,0.369-1.14,0.185-1.938,0l-1.371-0.231c-4.303-1.336-7.548-4.193-8.548-7.604c-1.381-6.636,4.289-11.844,6.787-13.732
			c2.396-1.661,6.123-2.536,8.287-0.831c1.334,1.568,1.84,3.595,1.84,5.808C112.127,56.979,111.203,60.342,110.155,63.477
			L110.155,63.477z"/>
		<path id="path9" fill="#F0E2C7" d="M311.371,84.858c-1.535-3.316-5.18-5.437-9.062-5.207
			c-12.607,1.153-24.939,11.521-31.417,26.406c-3.396,7.649-5.252,13.964-6.468,24.01c3.92-4.517,11.918-11.937,20.992-15.989
			c0,0,1.234-9.633,7.533-18.205c2.381-3.549,7.149-9.264,12.506-7.744c4.678,1.568,3.033,14.519-3.186,27.051
			c-4.602,9.218-11.641,18.438-18.764,24.796c-6.299,5.346-15.616,11.798-23.769,6.819c-5.135-3.041-7.754-9.4-7.198-17.604
			c2.453-23.271,13.045-43.089,28.207-65.67c15.631-20.968,32.861-42.49,56.074-53.967c4.734-2.396,9.119-2.949,12.909-1.474
			c0,0-21.79,11.981-32.177,34.149c-2.645,5.623-6.317,13.225-2.617,19.954c1.934,3.502,5.367,3.778,8.132,3.594
			c12.731-2.95,20.957-14.84,27.679-25.714c3.896-8.25,7.359-16.453,7.359-25.578c0-1.106-0.059-2.58-0.15-3.687
			c6.082-3.225,18.558,2.489,18.558,2.489c9.747,3.227,30.501,19.127,37.501,22.167c3.416-3.962,9.027-9.953,12.189-12.949
			l-4.574-2.812c-7.322-4.47-15.062-8.71-22.684-12.903c-17.306-9.447-31.39-6.129-38.559-3.548
			c-2.816,1.013-5.393,1.889-5.393,1.889c-5.32-5.806-14.045-5.254-20.475-3.687c-23.119,6.635-44.583,22.811-67.596,50.877
			c-16.919,21.983-27.415,40.969-33.008,59.725c-4.312,12.627-5.622,31.199,4.901,42.213c8.948,9.355,20.812,7.326,29.189,3.966
			c18.152-8.94,34.469-28.206,42.598-50.374C312.572,101.266,314.748,91.957,311.371,84.858L311.371,84.858z M353.111,15.41
			c-2.4,27.559-23.824,43.736-29.125,45.024c-3.212,0.644-8.691-0.784-3.8-12.35c7.206-15.578,19.507-28.803,32.706-35.578
			C353.214,13.659,353.205,14.395,353.111,15.41L353.111,15.41z"/>
		<path id="path11" fill="#F0E2C7" d="M480.185,18.911c-11.521,6.545-23.469,10.784-37.928,9.31
			c-4.01,4.518-7.908,9.171-11.508,13.964c20.297,5.161,41.812-6.314,53.812-17.235c12.693-11.015,19.203-24.885,19.203-24.885
			S494.25,10.939,480.185,18.911L480.185,18.911z"/>
		<polygon id="polygon13" fill="#F0E2C7" points="262.417,41.86 247.301,41.86 238.775,55.714 253.887,55.714 		"/>
		<path id="path15" fill="#F0E2C7" d="M442.197,145.175c-1.625,1.105-3.908,0.257-3.055-2.277
			c2.127-6.452,10.58-19.602,10.58-19.602l23.549-41.764h-16.129c-0.77,1.26-2.406,4.151-2.406,4.151
			c-0.746-1.242-2.979-4.007-3.896-4.604c-3.939-2.491-9.723-1.313-13.711,0.945c-17.342,10.14-29.994,30.175-39.973,45.8
			c0,0-10.505,17.365-16.336,18.657c-4.553,0.368-4.082-5.765-3.885-7.192c1.76-10.324,5.848-20.141,9.965-29.035
			c8.376-5.805,17.936-13.41,26.621-21.75c18.854-18.021,34.746-38.437,37.068-42.999c0,0-2.516,0.507-5.482,0.598
			c-14.504,20.231-44.184,49.635-53.182,54.012c3.984-9.587,29.738-55.349,51.654-77.238l3.447-3.319
			c5.334-5.208,10.857-10.554,15.164-11.429c0.455-0.047,1.041,0,1.547,1.061c0.191,4.055-1.316,7.051-3.049,10.461l-2.428,4.978
			c0,0,3.438-0.645,5.693-1.384c2.619-4.929,5.521-10.461,4.451-17.05c-0.355-2.12-1.893-3.733-3.896-4.102
			c-6.539-1.244-13.662,3.593-19.395,7.511l-0.232,0.137c-29.471,23.089-54.354,56.363-76.112,101.803
			c-1.576,1.197-7.669,2.625-8.704,1.935c2.148-4.424,4.854-10.37,6.206-16.821c0.235-1.844,0.453-3.732,0.453-5.576
			c0-3.965-0.952-7.697-4.507-10.276c-4.166-2.075-9.313-1.106-12.785,0.46c-15.553,6.451-27.178,22.398-35.564,35.529
			c-4.511,8.346-9.009,17.281-10.255,27.515c-0.877,8.021,0.909,13.181,5.468,15.761c4.688,2.396,10.59-0.094,12.907-1.291
			c15.755-8.295,26.765-24.931,35.44-40.14c0.346-0.046,5.082-0.185,8.668-1.104c0.048,0,0.066,0,0.146,0.047
			c-0.205,0.688-2.058,6.221-2.058,6.221c-5.5,16.129-8.044,27.099-2.849,33.595c7.424,9.172,19.715-0.319,29.711-12.858
			c-2.146,15.023,5.641,17.375,11.574,16.224c6.818-1.843,14.416-9.125,17.941-12.856c-1.133,4.379-0.824,12.215,5.377,12.996
			c4.252,0.785,7.434-1.525,11.113-3.51c13.205-7.188,29.012-31.146,33.115-38.075h-5.383
			C458.957,128.128,451.535,139.69,442.197,145.175L442.197,145.175z M323.675,143.574c-0.838-1.246-1.115-2.605-1.145-4.076
			c-0.16-9.037,9.562-25.221,16.424-34.037c0.016,0,0.016,0,0.016,0c2.876,6.297,9.389,10.346,13.318,12.052
			C347.408,128.388,330.662,151.683,323.675,143.574L323.675,143.574z M355.044,112.649c-0.465,0.324-8.678-2.442-10.266-10.046
			c-1.346-6.546,3.162-11.661,7.523-14.24c1.873-1.476,4.691-1.98,6.762-1.246c1.92,1.291,2.439,3.598,2.439,6.082
			c0,1.523-0.203,3.09-0.383,4.518c0,0-0.031,0.277-0.037,0.324C359.716,103.154,357.623,108.177,355.044,112.649L355.044,112.649z
			 M420.91,140.667c-0.008,0-1.559,1.383-1.559,1.383c-2.215,1.98-4.494,4.102-7.246,3.039c-0.762-0.274-1.295-1.289-1.424-2.073
			c-0.125-5.668,2.428-10.923,4.902-16.036l0.635-1.337c7.121-11.89,15.398-25.899,27.555-35.622
			c2.049-1.479,4.271-2.721,6.617-1.751c0.539,0.506,1.168,1.383,1.168,2.257c0,0.278-0.246,1.016-0.389,1.244
			c-3.395,5.486-6.629,11.247-9.771,16.775C435.253,119.468,428.878,130.757,420.91,140.667L420.91,140.667z"/>
	</g>
</g>
</svg>
