<?xml version="1.0" encoding="utf-8"?>
<!-- Generator: Adobe Illustrator 17.0.2, SVG Export Plug-In . SVG Version: 6.00 Build 0)  -->
<!DOCTYPE svg PUBLIC "-//W3C//DTD SVG 1.1//EN" "http://www.w3.org/Graphics/SVG/1.1/DTD/svg11.dtd">
<svg version="1.1" id="Calque_1" xmlns="http://www.w3.org/2000/svg" xmlns:xlink="http://www.w3.org/1999/xlink" x="0px" y="0px"
	 width="760.063px" height="457.198px" viewBox="788.156 0 760.063 457.198" enable-background="new 788.156 0 760.063 457.198"
	 xml:space="preserve">
<path fill="#76746B" d="M1299.794,75.211c0,0-0.526-20.778-9.894-21.112c0-4,0-8.333,0-8.333s32.631,3.667,44.631-3.667
	c0,11.333-1.333,13.833-1.333,13.833l-20.982,6.167c0,0-0.309,2.796-0.309,9.898C1311.907,79.099,1299.794,75.211,1299.794,75.211z"
	/>
<ellipse opacity="0.1" enable-background="new    " cx="939.781" cy="446.535" rx="151.625" ry="10.663"/>
<ellipse opacity="0.1" enable-background="new    " cx="1396.594" cy="446.535" rx="151.625" ry="10.663"/>
<g>
	
		<rect x="975.156" y="105.652" transform="matrix(0.3025 0.9532 -0.9532 0.3025 847.8177 -939.2391)" fill="#76746B" width="180.976" height="8"/>
	<path d="M1130.353,315.726c-2.745,0-5.296-1.752-6.185-4.505l-74.489-230.725c-1.103-3.417,0.772-7.08,4.188-8.183
		c3.417-1.103,7.08,0.773,8.183,4.188l74.489,230.725c1.103,3.416-0.772,7.08-4.188,8.183
		C1131.688,315.623,1131.014,315.726,1130.353,315.726z"/>
	<rect x="1217.885" y="81.129" transform="matrix(0.7096 0.7046 -0.7046 0.7096 506.7209 -800.404)" width="13" height="266.814"/>
	<g>
		<polygon points="946.493,294.576 1130.6,305.733 1130.108,312.715 946.257,297.916 		"/>
	</g>
	<g>
		<path d="M1313.173,70.959c0,0,1.136,3.531,3.125,9.711c1.943,6.194,4.719,15.043,8.051,25.662
			c1.64,5.318,3.416,11.078,5.295,17.171c0.933,3.049,1.892,6.18,2.872,9.381c0.484,1.602,0.974,3.222,1.468,4.857
			c0.483,1.671,0.97,3.358,1.461,5.06c1.943,6.659,3.952,13.54,5.992,20.532c2.05,6.988,4.15,14.083,6.309,21.147
			c2.156,7.063,4.286,14.14,6.529,21.009c1.122,3.429,2.243,6.836,3.42,10.112c0.568,1.673,1.188,3.228,1.786,4.805l0.225,0.589
			l0.224,0.57l0.495,1.221c0.324,0.779,0.647,1.556,0.969,2.329c2.657,6.258,5.526,12.276,8.218,17.99
			c2.733,5.698,5.394,11.06,7.875,15.996c2.52,4.913,4.825,9.425,6.971,13.356c2.126,3.942,4.037,7.341,5.676,10.079
			c1.63,2.744,3,4.814,3.955,6.176c0.486,0.667,0.861,1.18,1.125,1.492c0.261,0.326,0.395,0.494,0.395,0.494l-2.617,2.67
			c0,0-0.187-0.166-0.55-0.487c-0.376-0.32-0.882-0.808-1.539-1.451c-1.3-1.286-3.063-3.247-5.157-5.821
			c-4.172-5.158-9.655-12.787-15.684-22.27c-1.507-2.371-3.063-4.849-4.642-7.433c-1.561-2.594-3.153-5.289-4.769-8.076
			c-3.252-5.567-6.481-11.54-9.681-17.901c-0.397-0.81-0.796-1.624-1.197-2.44l-0.57-1.188l-0.143-0.298l-0.154-0.347l-0.278-0.635
			c-0.737-1.693-1.51-3.412-2.173-5.101c-1.403-3.401-2.707-6.823-4.019-10.28c-2.605-6.91-5.119-13.927-7.574-20.968
			c-2.444-7.042-4.822-14.094-7.146-21.043c-2.336-6.944-4.535-13.805-6.668-20.449c-0.52-1.626-1.035-3.239-1.546-4.836
			c-0.541-1.62-1.076-3.225-1.606-4.813c-1.049-3.179-2.075-6.289-3.074-9.317c-1.985-6.059-3.862-11.788-5.595-17.076
			c-3.413-10.593-6.258-19.42-8.249-25.599c-1.945-6.194-3.057-9.733-3.057-9.733L1313.173,70.959z"/>
	</g>
	<rect x="1061.89" y="89.158" width="253.797" height="16"/>
	<g>
		<circle fill="#010202" cx="939.687" cy="295.891" r="6.958"/>
	</g>
	<g>
		<path fill="#010202" d="M939.687,301.349c-3.01,0-5.458-2.449-5.458-5.459s2.449-5.458,5.458-5.458
			c3.009,0,5.458,2.448,5.458,5.458S942.697,301.349,939.687,301.349z"/>
		<g>
			<path fill="#FFFFFF" d="M939.687,291.932c2.183,0,3.958,1.776,3.958,3.958c0,2.183-1.776,3.958-3.958,3.958
				s-3.958-1.776-3.958-3.958S937.505,291.932,939.687,291.932 M939.687,288.932c-3.843,0-6.958,3.115-6.958,6.958
				c0,3.843,3.115,6.958,6.958,6.958s6.958-3.115,6.958-6.958C946.646,292.048,943.53,288.932,939.687,288.932L939.687,288.932z"/>
		</g>
	</g>
	<g>
		<path fill="#010202" d="M1396.595,301.349c-3.01,0-5.458-2.449-5.458-5.459s2.448-5.458,5.458-5.458s5.458,2.448,5.458,5.458
			S1399.605,301.349,1396.595,301.349z"/>
		<path d="M1396.595,291.932c2.183,0,3.958,1.776,3.958,3.958c0,2.183-1.776,3.958-3.958,3.958s-3.958-1.776-3.958-3.958
			S1394.413,291.932,1396.595,291.932 M1396.595,288.932c-3.843,0-6.958,3.115-6.958,6.958c0,3.843,3.115,6.958,6.958,6.958
			s6.958-3.115,6.958-6.958C1403.554,292.048,1400.438,288.932,1396.595,288.932L1396.595,288.932z"/>
	</g>
</g>
<path fill="#A57C5A" d="M1083.021,16.224c2.581,0.289,21.521,4.083,17.583-3.979s-16.25-7.354-16.25-7.354s-45,0.667-64.333,0
	s-35.542-4.667-35.542-4.667c-7.045-1.469-7.184,4.426,2.5,13.833c0,0,18.375,14.333,35.042,15.833
	C1038.688,31.39,1072.021,14.991,1083.021,16.224z"/>
<g>
	<path fill="#010202" d="M1129.662,349.042l-190.215-38.677c-1.655-0.069-14.512-1.05-14.512-14.683
		c0-14.497,14.538-14.688,14.686-14.688l190.146-11.697l0.081,0.004c0.398,0.019,39.798,2.301,39.798,39.866
		c0,37.564-39.399,39.847-39.798,39.865L1129.662,349.042z M1129.781,272.303l-190.066,11.689
		c-0.563,0.006-11.779,0.211-11.779,11.69s11.216,11.685,11.693,11.688l0.293,0.03l189.961,38.625
		c1.33-0.094,9.974-0.862,18.471-5.336c12.139-6.39,18.293-16.995,18.293-31.521s-6.154-25.133-18.293-31.522
		C1139.595,273.035,1130.682,272.36,1129.781,272.303z"/>
</g>
<rect x="999.716" y="84.377" transform="matrix(0.843 0.538 -0.538 0.843 263.1725 -508.8715)" width="7" height="223.933"/>
<polyline fill="none" stroke="#A47C5A" stroke-width="12" stroke-linecap="round" stroke-miterlimit="10" points="1337.531,61.432 
	1391.198,61.432 1410.887,45.099 "/>
<line fill="none" stroke="#A47C5A" stroke-width="16" stroke-linecap="round" stroke-miterlimit="10" x1="1339.531" y1="42.766" x2="1339.531" y2="51.099"/>
<line fill="none" stroke="#A47C5A" stroke-width="16" stroke-miterlimit="10" x1="1339.531" y1="42.766" x2="1339.531" y2="61.099"/>
</svg>
