<?xml version="1.0" encoding="utf-8"?>
<!-- Generator: Adobe Illustrator 16.0.0, SVG Export Plug-In . SVG Version: 6.00 Build 0)  -->
<!DOCTYPE svg PUBLIC "-//W3C//DTD SVG 1.1//EN" "http://www.w3.org/Graphics/SVG/1.1/DTD/svg11.dtd">
<svg version="1.1" id="Calque_1" xmlns="http://www.w3.org/2000/svg" xmlns:xlink="http://www.w3.org/1999/xlink" x="0px" y="0px"
	 width="318.657px" height="258.492px" viewBox="0 0 318.657 258.492" enable-background="new 0 0 318.657 258.492"
	 xml:space="preserve">
<g>
	<path fill="#B49663" d="M20.988,78.413l-0.014-0.124c0,0,6.973-26.858,34.374-38.571C29.959,48.092,17.182,66.405,20.988,78.413z"
		/>
	<path fill="#B49663" d="M154.259,42.829c-0.194,2.187-4.622,15.176-4.622,15.176l0.628-0.072
		c1.021-1.359,13.528-20.21,13.528-20.21l-0.479-0.55c0,0-5.318,3.031-7.584,4.087C155.371,41.428,154.463,41.851,154.259,42.829z"
		/>
	<path fill="#B49663" d="M212.895,20.455l-0.477-0.549c0,0-4.793,1.792-7.061,2.85c-0.361,0.169-1.27,0.592-1.475,1.569
		c-0.193,2.188-0.232,8.495-0.232,8.495l0.629-0.072C205.303,31.388,212.895,20.455,212.895,20.455z"/>
	<path fill="#B49663" d="M216.522,183.857c-3.12-5.461-9.264-8.926-18.145-9.002c0.431-0.975,0.768-1.902,1.238-2.785
		c9.563-20.9,15.704-44.176,19.521-52.796l-0.308-0.187c-2.188,1.461-3.959,2.397-5.682,3.2c-1.902,0.887-3.484,1.516-4.938,2.192
		c-16.617,7.748-24.362,19.769-26.705,28.892c-4.01,6.523-7.562,12.484-10.336,16.848c-2.241,3.473-4.129,5.346-5.308,5.895
		c-0.725,0.339-1.124,0.193-1.378-0.35c-0.549-1.179-0.111-4.031,1.532-8.55c4.349-11.737,8.188-22.905,10.433-28.034l-0.31-0.188
		c-2.459,1.588-4.772,2.775-6.769,3.705c-1.724,0.805-3.216,1.391-4.483,1.98c-24.835,11.578-29.35,34.318-25.926,41.66
		c0.972,2.084,2.561,2.891,4.465,2.001c5.618-2.62,13.399-15.517,18.531-24.86l-1.271,3.901c-1.421,4.524-1.506,7.655-0.704,9.376
		c0.848,1.812,2.628,2.086,4.805,1.072c2.176-1.016,4.793-3.449,7.033-6.922c2.707-4.188,5.727-9.354,9.151-14.977
		c-0.521,3.332-0.269,6.114,0.565,7.905c0.891,1.901,2.387,2.75,4.381,1.817c6.799-3.17,17.867-21.793,22.902-30.869
		c-4.529,13.479-8.595,26.297-13.371,37.354l-1.287,2.916c-6.592,0.535-14.481,2.78-23.639,7.051
		c-16.065,7.49-26.956,16.047-33.33,23.767c-8.965-2.572-17.961-5.414-28.491-5.867c19.312-19.258,17.568-39.257,22.613-59.794
		c6.299,0.443,13.237-1.163,20.175-4.398c12.191-5.683,24.477-16.435,33.161-29.723c29.263-6.975,58.074-16.015,81.341-26.863
		c47.584-22.186,57.688-49.739,50.633-64.875c-4.817-10.333-17.533-14.887-31.765-8.251c-9.517,4.438-17.62,11.195-23.007,19.996
		l-2.062,3.388l0.057,0.015c-8.12,13.292-14.141,23.765-17.389,25.279c-0.904,0.423-1.568,0.181-2.033-0.816
		c-1.605-3.444,13.517-24.73,9.46-33.431c-0.72-1.541-1.88-1.663-3.238-1.029c-4.353,2.029-13.303,16.906-19.415,27.7
		c4.102-12.504,5.096-17.712,4.164-19.706c-0.465-0.998-1.299-1.602-2.566-1.01c-3.082,1.437-7.979,10.34-13.095,19.014
		l-3.796,6.294l0.05,0.014c-4.071,6.624-7.684,12.685-10.491,17.104c-1.59,2.507-4.287,6.191-6.371,7.164
		c-0.996,0.464-1.936,0.35-2.524-0.919c-1.479-3.173,9.229-29.903,13.044-36.868l-0.525-0.417c0,0-3.957,2.398-8.037,4.299
		c-2.83,7.969-4.766,14.052-6.06,18.718l-2.247,3.693c-3.561,5.853-7.585,9.053-10.576,10.447c-0.996,0.466-1.764,0.714-2.48,0.828
		c4.673-8.91,8.705-18.956,10.896-23.727c1.236-2.786,4.666-7.032,4.666-7.032l-0.482-0.326c-1.01,0.912-7.904,4.347-9.084,4.896
		c0.641,2.791-1.012,9.189-3.568,16.009c-3.717,1.732-6.48,7.876-5.508,9.961c0.211,0.453,0.471,0.773,0.779,0.959
		c-3.325,7.068-7.02,12.873-9.375,13.972c-0.996,0.464-1.936,0.35-2.525-0.919c-1.48-3.173,9.229-29.904,13.043-36.868l-0.523-0.417
		c0,0-3.959,2.397-8.037,4.299c-2.869,8.076-4.815,14.211-6.109,18.901c-5.196,8.454-9.674,16.105-12.817,20.488
		c-1.723,2.458-5.119,5.587-8.02,6.939c-2.084,0.972-3.92,1.056-4.808-0.847c-1.056-2.266,0.516-9.068,3.171-16.154
		c11.209-7.434,16.59-17.667,15.238-20.567c-0.423-0.906-1.401-1.112-3.124-0.308c-17.583,8.198-23.337,30.411-19.914,37.752
		c1.606,3.444,5.05,3.494,8.585,1.846c3.443-1.606,7.112-4.862,9.572-8.105c3.348-4.471,7.027-10.972,11.333-18.067
		c-1.933,7.771-1.676,10.626-1.058,11.952c1.184,2.539,3.056,2.769,4.958,1.881c3.987-1.859,8.321-8.184,12.145-15.373
		c0.942-0.108,2.023-0.392,3.201-0.941c3.536-1.648,7.937-5.464,11.267-11.101l0.594-0.99c-1.952,7.83-1.696,10.699-1.075,12.03
		c1.183,2.538,3.056,2.767,4.959,1.88c3.172-1.479,6.517-5.906,8.058-8.281c3.271-5.055,6.981-11.531,11.334-18.525l-0.054-0.042
		l2.867-4.803c3.282-5.502,9.305-16.254,10.481-16.804c0.361-0.169,0.629-0.072,0.756,0.2c1.815,3.897-11.024,31.733-14.84,38.697
		l0.525,0.417c0,0,3.957-2.396,8.036-4.298c1.789-4.918,3.296-9.261,4.519-13.03c6.117-11.018,16.354-28.59,20.793-30.661
		c0.271-0.127,0.495-0.12,0.579,0.061c1.185,2.538-13.571,26.741-10.739,32.814c1.312,2.81,3.479,3.675,5.383,2.787
		c4.713-2.198,11.211-14.055,19.548-27.652l-0.031-0.025l1.339-2.129c5.52-8.753,13.219-15.432,22.555-19.785
		c13.324-6.212,25.604-2.118,30.084,7.49c6.722,14.411-3.987,41.141-54.655,64.765c-22.854,10.658-49.862,19.306-74.959,25.438
		c1.321-2.126,2.559-4.309,3.682-6.547c4.173-9.216-5.86-11.84-21.083-4.743c-12.171,5.675-20.848,12.926-27.447,21.146
		c-7.919,1.854-15.57,3.827-22.988,6.018c-5.016-13.365-3.685-31.538-7.767-40.294c-0.168-0.363-0.296-0.635-0.555-0.956
		l1.722-0.803c38.067-17.75,31.386-54.799,68.638-72.168c8.793-4.1,16.684-4.688,17.801-4.658l0.4-1.508
		c-1.971,0.036-10.302,0.39-24.621,7.066c-35.259,16.44-40.771,55.974-65.104,70.52c-1.087-1.148-2.458-1.723-3.757-1.668
		c1.659-9.931,1.094-18.717-1.695-24.699c-3.465-7.432-10.315-10.527-20.456-6.241c-4.788-8.14-13.551-11.203-30.242-5.26
		c-3.75,1.195-12.833,7.174-16.745,10.194c-0.895,0.69,2.359,1.129,2.094,1.59c5.183-5.068,8.113-6.368,14.094-9.156
		c14.864-6.931,23.11-4.155,26.66,3.459c0.169,0.363,0.206,0.676,0.332,0.949c-22.792,12.172-50.155,47.44-41.534,65.929
		c2.113,4.533,7.314,5.749,16.288,1.565c25.833-12.044,38.272-49.734,29.904-67.68l-0.253-0.544c8.368-3.35,13.6-1.597,16.051,3.661
		c8.748,18.762-18.823,81.271-64.958,102.782l-1.359,0.634l0.283,1.082c5.813-1.496,11.191-3.451,16.267-5.818
		c30.726-14.325,48.467-43.01,54.179-66.969c1.263-0.37,2.979-0.948,5.015-1.788c1.994,4.277-3.32,29.743,1.082,43.339
		c-8.312,2.727-16.323,5.808-24.064,9.417C52.544,147.742,24.66,172.661,0,220.352l0.617,0.373
		c24.417-43.715,55.153-69.853,92.225-87.138c5.847-2.726,11.862-5.232,18.038-7.557c3.715,7.471,9.246,11.76,15.75,13.431
		c-8.45,20.409-13.368,42.699-28.668,60.919c-8.211,0.849-17.407,3.371-28.103,8.356c-14.593,6.805-20.92,14.059-19.357,17.412
		c1.437,3.08,9.63,2.904,24.132-3.859c14.502-6.76,24.847-13.68,32.329-20.59c10.775,0.312,19.784,3.25,28.885,5.892
		c-5.223,6.949-6.699,13.078-4.91,16.916c2.24,4.804,9.453,6.073,20.873,0.75c8.702-4.058,15.9-9.139,21.963-14.813
		c5.697-1.223,11.918-3.301,18.854-6.531c10.018-4.671,17.652-10.54,23.047-16.977c4.223,15.106-11.227,41.916-47.375,58.771
		c-11.964,5.58-24.326,9.357-34.7,10.773c-24.337,3.182-49.62,0.074-70.048-13.686l-0.374,0.616
		c20.603,13.896,45.879,17.229,70.355,13.872c13.25-1.875,27.1-6.018,39.606-11.85c37.434-17.455,50.993-45.401,44.021-60.356
		c-0.004-0.007-0.007-0.013-0.011-0.019c4.483-5.904,7.164-12.217,8.108-18.479C223.57,172.734,220.706,178.523,216.522,183.857z
		 M143.96,186.876c-0.635,0.294-1.124,0.192-1.376-0.353c-2.071-4.44,9.001-34.65,21.872-40.651l3.534-1.647
		c0.453-0.211,0.63-0.072,0.714,0.108c0.084,0.183,0.036,0.313,0.036,0.313c-1.694,4.65-3.478,9.346-5.079,13.955
		C158.57,168.038,149.127,184.467,143.96,186.876z M186.092,164.363c-0.633,0.296-1.164,0.103-1.377-0.352
		c-1.901-4.078,10.189-32.339,23.062-38.34l3.988-1.859c0.452-0.211,0.629-0.073,0.713,0.109c0.084,0.181,0.035,0.314,0.035,0.314
		l-2.377,6.735C205.809,138.729,192.982,161.15,186.092,164.363z M149.871,65.84c1.087-0.507,1.667-0.446,1.92,0.097
		c1.1,2.357-5.055,13.061-13.986,18.99C141.215,76.386,146.063,67.615,149.871,65.84z M52.61,113.285
		c-7.795,3.635-12.417,2.479-14.319-1.6C30.009,93.92,57.081,59.45,79.053,47.881C85.172,66.214,69.378,105.467,52.61,113.285z
		 M104.9,79.416l-1.088,0.507l0.672-3.293c1.076-0.06,2.139,0.327,3.093,1.427C106.712,78.57,105.806,78.993,104.9,79.416z
		 M153.112,132.411c-7.061,3.292-14.24,4.618-20.469,2.972c1.937-6.363,4.73-12.776,9.194-19.232
		c8.831-2.392,17.934-4.557,27.317-6.558c3.916-0.834,7.841-1.712,11.761-2.622C174.577,117.613,163.993,127.338,153.112,132.411z
		 M146.052,110.647c3.747-4.506,13.664-12.109,23.633-16.757c10.242-4.775,17.604-2.989,16.153,1.743
		c-0.869,3.268-2.256,6.57-4.043,9.805c-4.416,1.042-8.771,2.013-13.01,2.891c-8.695,1.78-17.083,3.545-25.206,5.408
		C144.361,112.708,145.181,111.678,146.052,110.647z M118.99,123.116c6.446-2.214,13.057-4.254,19.839-6.146
		c-3.94,5.365-7.096,11.097-9.827,17.043C124.987,132.016,121.531,128.497,118.99,123.116z M69.452,222.148
		c-9.971,4.648-15.257,4.908-16.187,2.914c-1.225-2.629,4.861-9.217,17.188-14.965c10.332-4.818,19.305-7.348,27.117-8.343
		C90.602,209.529,81.597,216.488,69.452,222.148z M170.868,182.828c8.975-4.186,16.644-6.436,22.967-7.066
		c-4.979,11.473-10.838,23.309-20.526,33.334c-13.563,2.658-24.449,0.096-35.305-2.996
		C144.326,198.57,155.078,190.189,170.868,182.828z M151.473,224.533c-10.876,5.068-17.739,4.078-19.81-0.364
		c-1.708-3.664-0.201-9.593,4.966-16.353c10.486,3.019,21.168,5.523,34.879,3.066C166.109,216.09,159.583,220.751,151.473,224.533z
		 M190.674,203.275c-5.379,2.508-10.332,4.207-14.975,5.306c10.102-10.065,16.896-21.791,22.256-32.978
		c8.633,0.059,14.312,3.479,16.846,8.918c0.146,0.311,0.268,0.637,0.392,0.961C209.415,192.273,201.381,198.283,190.674,203.275z"/>
	<path fill="#B49663" d="M225.26,166.57c-0.002,0.004-0.002,0.008-0.004,0.012c0.008-0.025,0.018-0.051,0.022-0.076L225.26,166.57z"
		/>
	<path fill="#B49663" d="M236.905,96.093c-0.193,2.188-0.232,8.495-0.232,8.495l0.63-0.073c1.021-1.358,8.612-12.292,8.612-12.292
		l-0.478-0.55c0,0-4.792,1.792-7.06,2.85C238.017,94.692,237.11,95.115,236.905,96.093z"/>
	<path fill="#B49663" d="M287.54,120.925c-0.906,0.423-1.571,0.181-2.035-0.816c-2.536-5.438,14.229-24.621,10.174-33.322
		c-1.27-2.719-3.354-5.057-4.62-7.777c-0.168-0.362-0.198-0.9,0.219-1.426c1.154-1.312,3.167-4.566,2.238-6.56
		c-0.511-1.089-1.577-1.251-2.665-0.744c-1.903,0.887-3.641,3.793-1.905,7.509l0.804,1.722c-0.738,3.042-3.594,11.291-14.479,29.045
		l-0.004-0.003c-5.338,8.667-9.938,16.55-13.146,21.025c-1.726,2.458-5.119,5.587-8.021,6.939c-2.085,0.971-3.921,1.055-4.811-0.851
		c-1.058-2.267,0.519-9.067,3.172-16.153c11.209-7.434,16.59-17.666,15.236-20.566c-0.423-0.908-1.4-1.113-3.124-0.31
		c-11.337,5.287-17.749,16.396-19.961,25.591c-3.907,6.369-7.373,12.173-10.09,16.449c-1.59,2.506-4.285,6.189-6.37,7.162
		c-0.997,0.467-1.934,0.352-2.523-0.92c-1.479-3.173,9.229-29.903,13.043-36.867l-0.524-0.417c0,0-3.957,2.397-8.037,4.299
		c-9.016,25.39-8.963,31.655-7.948,33.831c1.185,2.539,3.057,2.77,4.959,1.881c3.172-1.479,6.517-5.906,8.058-8.279
		c2.646-4.094,5.592-9.127,8.925-14.603c-0.652,4.005-0.448,7.464,0.561,9.628c1.606,3.442,5.051,3.494,8.586,1.846
		c3.444-1.605,7.111-4.861,9.572-8.105c3.663-4.894,7.729-12.225,12.577-20.103l0.005,0.001
		c10.766-17.377,13.965-26.372,14.86-29.66c0.981,1.638,2.063,3.01,2.36,3.645c1.942,4.169-14.703,27.158-10.604,35.951
		c1.312,2.81,2.948,3.48,4.853,2.592c4.713-2.198,11.211-14.055,19.547-27.652l-0.698-0.556
		C297.191,108.259,290.893,119.361,287.54,120.925z M264.911,99.365c1.088-0.507,1.668-0.446,1.922,0.099
		c1.101,2.356-5.056,13.06-13.985,18.989C256.256,109.912,261.104,101.141,264.911,99.365z"/>
</g>
</svg>
