<?xml version="1.0" encoding="utf-8"?>
<!-- Generator: Adobe Illustrator 17.0.0, SVG Export Plug-In . SVG Version: 6.00 Build 0)  -->
<!DOCTYPE svg PUBLIC "-//W3C//DTD SVG 1.1//EN" "http://www.w3.org/Graphics/SVG/1.1/DTD/svg11.dtd">
<svg version="1.1" id="Calque_1" xmlns="http://www.w3.org/2000/svg" xmlns:xlink="http://www.w3.org/1999/xlink" x="0px" y="0px"
	 width="145.282px" height="121.058px" viewBox="0 12.109 145.282 121.058" enable-background="new 0 12.109 145.282 121.058"
	 xml:space="preserve">
<g id="Calque_1_3_">
	<rect x="55.305" y="29.075" fill="#51BA6E" width="34.669" height="101.375"/>
	<g id="Calque_1_1_">
		<path fill="#51BA6E" d="M79.516,31.442c9.043,0,16.375-7.331,16.375-16.374v-2.959h10.391c0,0,3.335-0.027,8.435,4.579
			c0.063,0.046,0.139,0.07,0.193,0.129l11.916,11.915c0,0.001,0.002,0.001,0.002,0.002l18.038,18.039
			c0.554,0.554,0.554,1.45,0,2.005l-18.038,18.04c-0.556,0.555-1.451,0.555-2.007,0l-11.914-11.916c-0.002,0-0.002,0-0.002-0.001
			l-6.623-6.624v79.832h-33.64V31.442H79.516z"/>
		<path fill="#34B45D" d="M65.765,31.442c-9.042,0-16.373-7.331-16.373-16.374v-2.959H39.001c0,0-3.334-0.027-8.435,4.579
			c-0.063,0.046-0.137,0.07-0.194,0.129L18.457,28.732c-0.001,0.001-0.001,0.001-0.001,0.002L0.416,46.773
			c-0.555,0.554-0.555,1.45,0,2.005l18.04,18.04c0.553,0.555,1.45,0.555,2.004,0l11.916-11.916c0,0,0.001,0,0.002-0.001l6.623-6.624
			v79.832h33.643V31.442H65.765z"/>
		<path fill="#1CA055" d="M72.642,127.734H39.001v2.388c0,1.681,1.271,3.045,2.834,3.045h8.496h14.184h8.129h8.128h14.18h8.495
			c1.566,0,2.836-1.364,2.836-3.045v-2.388C106.283,127.734,72.642,127.734,72.642,127.734z"/>
	</g>
	<g id="Calque_1_2_" display="none">
		<g id="Calque_3" display="inline">
			<circle fill="#E64C3B" cx="72.643" cy="64.051" r="6.079"/>
			<circle fill="#E64C3B" cx="48.326" cy="64.051" r="6.079"/>
			<path fill="#E64C3B" d="M27.98,59.322c-1.043-0.844-2.369-1.35-3.815-1.35c-3.355,0-6.079,2.721-6.079,6.078
				c0,1.135,0.317,2.193,0.858,3.104c0.508,0.197,1.106,0.098,1.518-0.312L27.98,59.322z"/>
			<circle fill="#E64C3B" cx="96.957" cy="64.051" r="6.079"/>
			<path fill="#E64C3B" d="M48.326,21.499c0.781,0,1.526-0.152,2.212-0.422c-0.729-1.855-1.146-3.871-1.146-5.988V12.13h-6.175
				c-0.611,0.949-0.972,2.078-0.972,3.291C42.247,18.777,44.969,21.499,48.326,21.499z"/>
			<path fill="#E64C3B" d="M95.892,15.068c0,2.123-0.416,4.146-1.152,6.008c0.688,0.271,1.434,0.424,2.219,0.424
				c3.357,0,6.078-2.723,6.078-6.078c0-1.225-0.363-2.359-0.984-3.312h-6.16v2.958H95.892z"/>
			<path fill="#E64C3B" d="M121.275,57.972c-1.48,0-2.836,0.529-3.893,1.408l7.439,7.438c0.49,0.488,1.236,0.521,1.789,0.146
				c0.473-0.865,0.742-1.857,0.742-2.912C127.353,60.693,124.631,57.972,121.275,57.972z"/>
			<circle fill="#E64C3B" cx="72.643" cy="112.682" r="6.079"/>
			<circle fill="#E64C3B" cx="48.326" cy="112.682" r="6.079"/>
			<circle fill="#E64C3B" cx="96.957" cy="112.682" r="6.079"/>
			<circle fill="#E64C3B" cx="84.801" cy="88.367" r="6.079"/>
			<circle fill="#E64C3B" cx="60.486" cy="88.367" r="6.079"/>
			<path fill="#E64C3B" d="M42.247,88.368c0-2.336-1.314-4.357-3.246-5.379v10.754C40.932,92.724,42.247,90.698,42.247,88.368z"/>
			<path fill="#E64C3B" d="M106.283,82.99c-1.93,1.021-3.246,3.043-3.246,5.379c0,2.33,1.316,4.355,3.246,5.375V82.99z"/>
			<circle fill="#E64C3B" cx="84.801" cy="39.735" r="6.079"/>
			<circle fill="#E64C3B" cx="60.486" cy="39.735" r="6.079"/>
			<circle fill="#E64C3B" cx="36.168" cy="39.735" r="6.079"/>
			<path fill="#E64C3B" d="M11.853,45.814c3.355,0,6.079-2.721,6.079-6.078c0-2.836-1.945-5.211-4.572-5.883l-7.393,7.389
				C6.641,43.868,9.016,45.814,11.853,45.814z"/>
			<path fill="#E64C3B" d="M131.943,33.849c-2.637,0.666-4.59,3.045-4.59,5.887c0,3.357,2.723,6.08,6.08,6.08
				c2.842,0,5.221-1.955,5.887-4.59L131.943,33.849z"/>
			<circle fill="#E64C3B" cx="109.117" cy="39.735" r="6.079"/>
		</g>
	</g>
	<path fill="#1CA055" d="M92.023,12.109v1.755c0,7.538-6.111,13.649-13.65,13.649h-5.731H72.64h-5.732
		c-7.539,0-13.651-6.112-13.651-13.649v-1.755h-4.229v3.006c0,9.186,7.447,16.633,16.631,16.633h6.984h0.001h6.98
		c9.188,0,16.633-7.447,16.633-16.633v-3.006C96.257,12.109,92.023,12.109,92.023,12.109z"/>
</g>
</svg>
