<?xml version="1.0" encoding="utf-8"?>
<!-- Generator: Adobe Illustrator 17.0.0, SVG Export Plug-In . SVG Version: 6.00 Build 0)  -->
<!DOCTYPE svg PUBLIC "-//W3C//DTD SVG 1.1//EN" "http://www.w3.org/Graphics/SVG/1.1/DTD/svg11.dtd">
<svg version="1.1" id="Calque_1" xmlns="http://www.w3.org/2000/svg" xmlns:xlink="http://www.w3.org/1999/xlink" x="0px" y="0px"
	 width="831.715px" height="895.292px" viewBox="0 0 831.715 895.292" enable-background="new 0 0 831.715 895.292"
	 xml:space="preserve">
<path fill="#FFFFFF" stroke="#12100B" stroke-miterlimit="10" d="M365.097,45.37c0,0-10.613-3.164-13.568,8.364
	c-6.502,0.689-19.309,7.586-7.881,16.058c1.576,5.319,0.984,11.821,8.669,13.003c8.473,3.351,13.645,7.684,21.304,7.29
	c6.281,7.881,21.848,16.749,38.987,7.488c1.379-2.956,2.609-5.714,5.639-5.517c3.031,0.197,8.258,4.531,14.512,1.379
	c6.253-3.153,6.451-5.91,6.843-7.29c0.395-1.38,1.972-1.774,4.335-2.562c2.365-0.789,4.138-3.546,3.35-7.093
	c4.336,0.591,8.67,0.396,8.473-2.264c-0.198-2.661-1.182-3.253-1.182-3.253s4.135-4.729-3.746-7.093
	c-7.88-2.364-18.471,2.856-18.471,2.856"/>
<path fill="#383432" d="M369.377,42.11c0,0-8.956,3.447-5.521,13.495c3.237,3.744,4.651,5.517,5.521,8.275
	c0.869,2.759,2.103-0.394,4.244,1.773c2.143,2.168,3.719,3.547,4.311,5.714c0.591,2.167,1.971,0.395,4.729,0
	c2.758-0.394,10.444,2.365,12.018,4.138c1.576,1.773,3.743,1.773,4.335,1.971c0.592,0.196-0.118-1.379,1.223-1.379
	c1.338,0,2.915,0.821,3.505,1.396c0.592,0.574,1.972,0,1.972,0l3.152-1.003l1.873,1.256h3.249l2.561,1.306l1.699-1.577l3.72,1.577
	l2.069-1.577l2.561,1.577l2.485-2.168l2.442,0.788l1.234-3.446h0.798c0,0,0.772-4.536-0.798-6.809
	C431.187,65.145,369.377,42.11,369.377,42.11z"/>
<path fill="#12100B" d="M429.947,63.88c0,0-16.944-14.955-36.253-14.768c-13.202-5.132-27.979-13.98-26.796,0
	c1.182,13.98,19.308,19.104,27.78,21.664c8.472,2.562,30.542,4.729,36.253,2.562C436.645,71.17,431.469,65.127,429.947,63.88z"/>
<path fill="#201E1A" stroke="#201E1A" stroke-miterlimit="10" d="M421.966,19.549c0,0,6.997-3.35,8.572-2.956
	c1.576,0.394-1.457,3.941-1.457,3.941s2.049,0.592,5.004,0.789c2.954,0.198-4.632,6.502-6.061,6.699
	C426.596,28.218,421.966,19.549,421.966,19.549z"/>
<path fill="#201E1A" stroke="#201E1A" stroke-miterlimit="10" d="M366.473,7.537c0,0-8.64,2.75-9.231,3.341
	c-0.591,0.591,4.615,0.788,4.615,0.788s-2.052,2.365-2.842,2.758c-0.788,0.394,8.605,0,10.115,0
	C370.641,14.425,372.156,12.667,366.473,7.537z"/>
<path fill="#383432" d="M392.51,22.701c0,0-21.672-33.495-26.6-19.112c0.395,15.369,23.84,39.604,46.499,41.574
	c16.946-2.956,22.458-15.959,9.556-26.796C421.966,18.366,399.802,9.697,392.51,22.701z"/>
<path fill="#282522" d="M418.246,43.595c0,0,9.73,5.312,12.094,5.508c2.365,0.197-2.165-2.753-2.165-2.753s3.743-0.382,4.531,0.004
	c0.789,0.385-7.741-6.73-8.026-6.487"/>
<polyline fill="none" stroke="#3D3937" stroke-miterlimit="10" points="400.236,42.11 395.861,58.166 390.935,59.939 "/>
<polyline fill="none" stroke="#3D3937" stroke-miterlimit="10" points="395.586,62.304 395.861,58.166 398.223,60.235 "/>
<polyline fill="none" stroke="#3D3937" stroke-miterlimit="10" points="410.639,45.162 408.865,58.166 405.713,62.304 "/>
<polyline fill="none" stroke="#3D3937" stroke-miterlimit="10" points="408.865,63.88 408.865,58.166 412.608,62.304 "/>
<ellipse fill="#201E1A" stroke="#201E1A" stroke-miterlimit="10" cx="373.621" cy="9.303" rx="2.142" ry="1.765"/>
<path fill="none" stroke="#3D3937" stroke-miterlimit="10" d="M348.426,70.284c0,0,10.049,4.285,16.844,0
	c6.799-4.286,5.246-3.695,5.246-3.695"/>
<path fill="none" stroke="#3D3937" stroke-miterlimit="10" d="M379.456,75.013c0,0,5.025,4.286,5.32,6.208
	c0.296,1.92-0.739,5.171-2.659,6.648"/>
<path fill="none" stroke="#3D3937" stroke-miterlimit="10" d="M384.777,81.22c0,0,0,4.285,4.729,4.432
	c4.729,0.148,6.945-1.33,11.97,0c5.024,1.329,12.115,5.615,16.771,2.216c4.655-3.398,2.884-4.138,1.997-5.468"/>
<path fill="none" stroke="#3D3937" stroke-miterlimit="10" d="M421.324,84.471c0,0-0.761,2.216,4.177,2.807"/>
<path fill="none" stroke="#3D3937" stroke-miterlimit="10" d="M351.707,71.348c0,0-2.156,10.158,5.983,13.837"/>
<path fill="none" stroke="#3D3937" stroke-miterlimit="10" d="M454.577,70.973c0,0-11.134-4.385-15.124-3.646"/>
<path fill="none" stroke="#3D3937" stroke-miterlimit="10" d="M447.286,76.49c0,0-1.624-4.374-4.433-5.142"/>
<path fill="none" stroke="#3D3937" stroke-miterlimit="10" d="M430.292,87.278c3.546,0,3.428-1.103,6.502-1.404
	c3.075-0.302,3.075-0.302,3.075-0.302"/>
<path fill="#383432" d="M734.406,570.607c0,0-1.65,6.434,4.35,7.082C744.754,578.338,737.771,567.792,734.406,570.607z"/>
<path fill="#383432" d="M819.237,515.565c-8.928-1.273-28.621,0.57-39.989,15.598c0,0-16.52,16.948-26.875,19.05
	c-10.358,2.098-9.171,2.523-19.795,3.393c-10.626,0.871-6.157,9.476-10.041,10.611c-3.887,1.13-11.708,1.489-13.443,1.552
	c-1.733,0.06-4.667-0.124-6.396,5.129c0,0-5.473-11.789-6.104-10.097c-0.626,1.692,4.399,15.012,5.533,18.895
	c1.136,3.886,1.173,24.676,20.052,22.088c11.316-6.198,12.206-9.256,14.548-10.666c2.347-1.405,6.051-5.148,7.995-5.719
	c1.944-0.565,11.102-8.288,16.363-11.928c5.262-3.646,37.381-28.763,40.685-31.667c3.306-2.903,12.273-10.292,16.203-6.744
	c3.925,3.546-7.646,2.967-10.56,5.205c-2.917,2.233-2.052,10.261,8.665,10.609C825.426,548.362,844.287,530.008,819.237,515.565z
	 M729.554,592.214c-3.789,2.352-4.375,3.355-11.128,0.665c-16.888-14.781,0.278-23.021,0.278-23.021s2.574,1.704,3.129,3.167
	c0.555,1.466-0.687,2.555-1.512,3.28c-0.827,0.727-2.315,1.604-2.285,6.501c2.547,8.826,6.76,5.286,10.368,3.096
	c3.604-2.189,0.174-5.359-1.219-5.273c-1.39,0.082-1.959,3.508-3.327,3.245c-1.369-0.26-3.04-1.232-1.523-5.292
	c4.876-5.057,8.502-0.838,9.948,3.589C733.73,586.594,733.345,589.862,729.554,592.214z M730.829,576.531
	c-6.655-11.606,3.277-12.455,3.277-12.455c6.818,0.051,10.59,8.025,11.021,13.383C745.561,582.815,737.482,588.138,730.829,576.531z
	 M746.103,563.233c0,0,5.79-4.13,12.575-8.933c6.654-5.027,14.191-11.284,17.873-16.296c7.409-10.086,8.682-8.357,9.268-8.061
	c0.588,0.297-1.568,6.828-6.717,10.133c-2.805,1.795-12.325,8.493-20.425,14.224C751.94,559.396,746.103,563.233,746.103,563.233z
	 M771.964,551.828c4.762-3.81,13.221-10.717,14.203-12.507c1.373-2.509,10.9-18.523,15.616-15.1
	c4.713,3.424-11.028,16.436-12.82,17.36C787.593,542.288,777.374,548.149,771.964,551.828c-1.913,1.527-3.232,2.559-3.232,2.559
	C769.093,553.884,770.303,552.959,771.964,551.828z M813.484,530.784c-3.066,1.88-9.494,6.229-11.568,6.785
	c-1.865,0.503-19.523,12.807-24.873,17.11c-0.819,0.699-1.298,1.116-1.298,1.116c0.252-0.252,0.699-0.639,1.298-1.116
	c4.227-3.622,17.646-14.952,22.583-17.173c5.886-2.65,11.071-13.14,16.182-13.156C820.92,524.336,816.551,528.906,813.484,530.784z"
	/>
<path fill="#282522" d="M639.511,540.817c0,0-8.08,9.697,17.888,9.992c3.783,0.422,8.594,1.077,10.646,4.157
	c2.05,3.077,2.56,5.885,5.959,6.968c3.394,1.088,9.183,2.604,14.432-0.83c5.243-3.44,11.455-0.332,15.179,0.981
	c3.73,1.317,9.422,1.615,12.424,0.806c2.994-0.811,7.685-3.625,5.986-6.855c-1.695-3.227-8.531,0.662-18.022-2.552
	c-9.495-3.214-16.913-3.692-22.451-3.792c-5.536-0.101-15.992-1.82-23.839-3.711C649.865,544.087,639.511,540.817,639.511,540.817z"
	/>
<path fill="#12100B" d="M642.219,556.499c0,0-15.883,3.386-5.29,8.881c5.522-0.423,9.087-3.311,14.849-2.026
	c5.765,1.282,8.354,7.427,9.789,9.341c1.436,1.909,6.073,4.549,18.038,0.387c11.96-4.158,11.757-7.03,11.711-8.335
	c0,0,0.44-2.79-2.018-0.957c-2.456,1.836-6.875,7.84-14.03,5.987c-7.153-1.858-12.716-6.245-17.712-11.374
	C652.562,553.27,643.809,556.093,642.219,556.499z"/>
<path fill="#282522" d="M657.521,576.978c0,0-5.5-9.321-14.112-6.764c-8.611,2.565,5.169,6.444,6.733,8.365
	c1.566,1.922,5.998,5.714,7.836,7.396c1.842,1.677,8.732,1.604,18.412-1.406c9.679-3.013,17.936-7.95,12.605-12.055
	c0,0-5.987,4.166-11.207,4.478c-5.216,0.313-10.221,3.367-14.086,2.856C659.839,579.336,657.521,576.978,657.521,576.978z"/>
<g>
	<path fill="#484442" d="M671.635,590.45c0,0,0.827-0.376,2.275-1.033c1.451-0.647,3.506-1.615,5.967-2.773
		c1.229-0.581,2.554-1.227,3.931-1.945c1.357-0.726,2.856-1.496,4.12-2.477c0.302-0.229,0.62-0.563,0.964-0.841
		c0.359-0.298,0.726-0.56,1.111-0.805c0.771-0.487,1.609-0.894,2.518-1.164c0.902-0.253,1.909-0.45,2.969-0.048
		c0.528,0.226,0.974,0.66,1.185,1.255l0.098,0.325c0.024,0.129,0.04,0.275,0.058,0.413c0.045,0.294,0.018,0.525,0.016,0.777
		c-0.171,1.954-0.978,3.743-2.164,5.203c-0.574,0.747-1.317,1.343-2.084,1.857c-0.412,0.216-0.798,0.478-1.237,0.616l-0.641,0.242
		l-0.661,0.15c-0.873,0.197-1.785,0.207-2.583,0.188c-0.82-0.018-1.623-0.034-2.404-0.051c-1.561-0.055-3.038-0.107-4.401-0.154
		c-1.359-0.04-2.605-0.077-3.71-0.109c-1.101,0.008-2.068-0.019-2.854,0.061c-0.396,0.027-0.748,0.052-1.056,0.073
		c-0.303,0.051-0.56,0.095-0.769,0.13C671.86,590.411,671.635,590.45,671.635,590.45z M671.635,590.45c0,0,0.22-0.057,0.633-0.162
		c0.207-0.053,0.463-0.118,0.764-0.194c0.307-0.043,0.659-0.093,1.054-0.148c0.791-0.131,1.759-0.162,2.868-0.24
		c1.108-0.047,2.361-0.087,3.725-0.08c1.361-0.004,2.835-0.009,4.395-0.013c0.779-0.014,1.58-0.026,2.398-0.04
		c0.835-0.023,1.617-0.022,2.402-0.216l0.588-0.14l0.565-0.224c0.39-0.124,0.727-0.367,1.09-0.558
		c0.674-0.47,1.331-1.002,1.841-1.685c1.053-1.312,1.768-3.006,1.892-4.672c0.006-0.202,0.027-0.426,0-0.582l-0.018-0.263
		l-0.095-0.327c-0.097-0.259-0.319-0.525-0.626-0.655c-0.65-0.271-1.534-0.173-2.329,0.056c-0.809,0.229-1.587,0.593-2.301,1.031
		c-0.738,0.431-1.294,0.965-1.999,1.55c-1.435,1.103-2.935,1.765-4.347,2.461c-1.417,0.673-2.77,1.271-4.025,1.807
		c-2.507,1.079-4.64,1.869-6.123,2.441C672.49,590.139,671.635,590.45,671.635,590.45z"/>
</g>
<g>
	<path fill="#484442" d="M662.784,596.029c0,0-0.529,0.785-1.5,2.128c-0.471,0.683-1.114,1.457-1.8,2.387
		c-0.342,0.467-0.788,0.896-1.214,1.388c-0.44,0.479-0.908,0.976-1.191,1.604c-0.588,1.277-1.022,2.755-1.422,4.322
		c-0.393,1.571-0.738,3.248-1.006,4.99c-0.14,0.87-0.24,1.76-0.315,2.653c-0.021,0.445-0.057,0.895-0.039,1.327
		c-0.011,0.229,0.045,0.403,0.058,0.607l0.039,0.136c0.011,0.047,0.01,0.006,0.006,0.003c-0.018-0.028,0.018,0.025-0.06-0.069
		c-0.075-0.064-0.153-0.078-0.266-0.083c-0.053,0.002-0.111,0.027-0.141,0.05l-0.019,0.004c-0.033,0.034,0.002-0.009,0.018-0.035
		c0.186-0.305,0.38-0.775,0.567-1.192c0.193-0.429,0.396-0.862,0.61-1.292c0.428-0.86,0.916-1.707,1.496-2.504
		c1.153-1.557,2.846-2.981,4.889-3.237c0.248-0.043,0.497-0.06,0.747-0.063l0.324-0.017l0.346-0.025l0.689-0.053l0.592-0.157
		c0.405-0.059,0.772-0.306,1.159-0.46c0.335-0.248,0.721-0.438,1.002-0.753c1.241-1.148,1.956-2.74,2.373-4.275
		c0.418-1.539,0.608-3.092,0.471-4.472c-0.237-1.371-0.854-2.577-1.613-3.423c-0.376-0.433-0.845-0.729-1.312-0.882
		c-0.12-0.031-0.237-0.062-0.352-0.091c-0.118-0.004-0.234-0.007-0.348-0.01c-0.229-0.028-0.438,0.054-0.641,0.088
		c-0.787,0.243-1.319,0.656-1.645,0.948C662.959,595.869,662.784,596.029,662.784,596.029z M662.784,596.029
		c0,0,0.173-0.161,0.498-0.464c0.324-0.295,0.852-0.715,1.644-0.968c0.793-0.264,1.923-0.012,2.718,0.864
		c0.804,0.843,1.444,2.033,1.775,3.44c0.214,1.438,0.095,3.004-0.255,4.618c-0.357,1.603-1.002,3.314-2.32,4.669
		c-0.299,0.362-0.72,0.61-1.095,0.908c-0.435,0.207-0.831,0.496-1.335,0.607l-0.732,0.207l-0.688,0.072l-0.345,0.036l-0.369,0.029
		c-0.215,0.01-0.429,0.03-0.64,0.074c-1.712,0.274-3.169,1.463-4.23,2.925c-0.542,0.729-1.013,1.523-1.433,2.347
		c-0.445,0.838-0.736,1.642-1.293,2.569c-0.054,0.066-0.08,0.125-0.208,0.229l-0.084,0.062c-0.057,0.031-0.145,0.061-0.226,0.069
		c-0.173,0.025-0.295-0.039-0.417-0.135c-0.135-0.12-0.106-0.136-0.155-0.211c-0.028-0.055-0.064-0.145-0.063-0.156l-0.05-0.2
		c-0.02-0.258-0.076-0.541-0.058-0.775c-0.001-0.491,0.041-0.959,0.091-1.424c0.122-0.922,0.27-1.822,0.454-2.697
		c0.357-1.752,0.787-3.422,1.262-4.987c0.481-1.562,0.99-3.028,1.654-4.304c0.34-0.662,0.852-1.135,1.292-1.601
		c0.435-0.474,0.892-0.887,1.246-1.342c0.717-0.902,1.364-1.674,1.841-2.352C662.247,596.809,662.784,596.029,662.784,596.029z"/>
</g>
<g>
	<path fill="#484442" d="M668.752,617.549c0,0-0.15-0.931-0.226-2.579c-0.055-1.645-0.107-4.019,0.322-6.834
		c0.217-1.404,0.525-2.924,1.04-4.483c0.511-1.557,1.208-3.172,2.249-4.66c1.006-1.498,2.399-2.862,3.985-3.882
		c0.812-0.529,1.671-0.99,2.646-1.267c0.957-0.272,2.083-0.355,3.098,0.13c1.002,0.496,1.671,1.484,1.912,2.481
		c0.264,1.003,0.231,2.034,0.011,2.992c-0.423,1.93-1.614,3.598-3.053,4.716c-1.387,1.139-2.842,2.051-4.188,2.941
		c-1.352,0.884-2.619,1.721-3.706,2.592c-1.084,0.871-2.006,1.76-2.655,2.679c-0.662,0.91-1.033,1.837-1.227,2.624
		c-0.19,0.791-0.221,1.438-0.23,1.876C668.744,617.315,668.752,617.549,668.752,617.549z M668.752,617.549
		c0,0-0.025-0.234-0.074-0.673c-0.018-0.439-0.057-1.097,0.099-1.917c0.15-0.817,0.479-1.801,1.111-2.786
		c0.62-0.992,1.516-1.979,2.604-2.901c2.161-1.869,5.026-3.558,7.697-5.771c1.322-1.056,2.338-2.544,2.695-4.252
		c0.185-0.841,0.192-1.733-0.032-2.539c-0.21-0.813-0.722-1.5-1.419-1.84c-0.707-0.334-1.575-0.32-2.406-0.091
		c-0.833,0.222-1.646,0.642-2.385,1.111c-1.536,0.965-2.811,2.188-3.791,3.601c-1.972,2.816-2.927,6.009-3.444,8.739
		c-0.506,2.751-0.658,5.098-0.684,6.737C668.692,616.609,668.752,617.549,668.752,617.549z"/>
</g>
<g>
	<path fill="#484442" d="M684.865,610.8c0,0,0.164-0.764,0.528-2.082c0.378-1.313,0.904-3.199,1.735-5.397
		c0.847-2.188,1.848-4.765,3.477-7.271c0.829-1.231,1.776-2.515,3.232-3.386c0.367-0.208,0.772-0.38,1.212-0.469
		c0.117-0.019,0.204-0.038,0.349-0.052l0.29-0.021c0.181-0.021,0.418-0.01,0.638-0.006c0.854,0.039,1.778,0.332,2.438,0.992
		c0.662,0.653,0.982,1.534,1.09,2.372c0.103,0.846,0.025,1.681-0.165,2.47c-0.38,1.579-1.176,3.011-2.258,4.116
		c-1.114,1.126-2.455,1.72-3.666,2.313c-1.229,0.567-2.406,1.039-3.471,1.51c-1.063,0.473-2.027,0.92-2.825,1.411
		c-0.797,0.489-1.424,1.024-1.825,1.56c-0.402,0.534-0.6,1.037-0.681,1.391C684.876,610.603,684.865,610.8,684.865,610.8z
		 M684.865,610.8c0,0-0.009-0.196,0.046-0.561c0.052-0.361,0.19-0.905,0.577-1.489c0.759-1.195,2.461-2.352,4.571-3.363
		c1.055-0.521,2.211-1.042,3.391-1.65c1.163-0.616,2.415-1.299,3.362-2.272c0.948-0.995,1.656-2.312,1.972-3.724
		c0.316-1.377,0.23-3.013-0.719-3.923c-0.452-0.454-1.105-0.692-1.791-0.735c-0.169-0.003-0.32-0.023-0.525-0.003l-0.29,0.017
		l-0.225,0.031c-0.321,0.06-0.638,0.185-0.94,0.351c-1.215,0.693-2.165,1.886-2.967,3.054c-1.589,2.389-2.761,4.858-3.674,6.997
		c-0.905,2.147-1.619,3.962-2.073,5.248C685.125,610.065,684.865,610.8,684.865,610.8z"/>
</g>
<path fill="#282522" d="M710.307,605.867c0,0-30.562,33.185-55.817,37.959c-6.111-1.955-12.357-9.808-4.686-15.896
	c3.309-0.306,4.129,0.613,8.296,0.365c4.169-0.252,5.982-1.521,7.323-3.513c1.343-1.988,5.5-4.665,8.043-3.812
	c2.544,0.861,4.134,0.403,6.502-1.416c2.372-1.817,0.812-4.518,4.631-4.616c3.818-0.096,2.967-0.327,5.069-0.711
	c2.104-0.381,3.097-1.879,4.788-2.808c1.692-0.93,3.041-2.055,4.085-1.295C699.585,610.889,708.167,606.768,710.307,605.867z"/>
<g>
	<path fill="#484442" d="M583.382,580.229c0.533-0.598,1.128-1.142,1.769-1.626c0.31-0.257,0.651-0.47,0.986-0.694
		c0.329-0.232,0.699-0.398,1.049-0.599c0.356-0.189,0.74-0.32,1.11-0.483c0.376-0.149,0.775-0.23,1.162-0.35
		c0.39-0.112,0.801-0.124,1.202-0.191c0.402-0.086,0.812-0.008,1.218-0.018c0.411-0.018,0.81,0.078,1.21,0.159
		c0.402,0.073,0.805,0.148,1.178,0.322c0.376,0.154,0.77,0.28,1.134,0.461l1.051,0.628c0.365,0.189,0.671,0.459,0.982,0.721
		l0.941,0.779c0.565,0.581,1.099,1.193,1.65,1.79l-0.367-0.049c0.761-0.553,1.599-0.921,2.447-1.239
		c0.849-0.323,1.72-0.569,2.6-0.77c1.762-0.397,3.564-0.611,5.373-0.631l1.357,0.025l1.355,0.113c0.9,0.112,1.799,0.266,2.681,0.502
		c0.88,0.237,1.752,0.527,2.58,0.925c0.419,0.19,0.829,0.397,1.217,0.647c0.403,0.225,0.781,0.487,1.144,0.774
		c0.382,0.262,0.718,0.58,1.054,0.898c0.354,0.3,0.639,0.666,0.943,1.015c0.59,0.71,1.097,1.491,1.505,2.318
		c0.233,0.4,0.384,0.836,0.554,1.264c0.185,0.423,0.318,0.862,0.43,1.307c0.278,0.878,0.396,1.787,0.54,2.688
		c0.073,0.907,0.172,1.815,0.141,2.723c0.027,0.909-0.06,1.81-0.127,2.713c-0.065,0.903-0.235,1.79-0.349,2.685l-0.531,2.65
		l-0.535-0.595l1.38-0.095c0.459-0.043,0.923,0.034,1.385,0.047c0.465,0.002,0.918,0.125,1.376,0.209
		c0.462,0.065,0.902,0.227,1.342,0.389c0.45,0.133,0.863,0.357,1.276,0.582c0.429,0.195,0.797,0.494,1.175,0.774
		c0.398,0.256,0.697,0.633,1.036,0.96c0.343,0.327,0.569,0.755,0.855,1.129c0.244,0.403,0.432,0.844,0.637,1.269
		c0.123,0.456,0.299,0.903,0.372,1.369c0.035,0.471,0.164,0.938,0.115,1.411c-0.035,0.469-0.003,0.948-0.132,1.402
		c-0.105,0.457-0.164,0.93-0.358,1.357c-0.179,0.43-0.299,0.89-0.553,1.28c-0.239,0.396-0.426,0.83-0.711,1.192l-0.837,1.101
		l-0.483-0.73c0.825-0.214,1.685-0.363,2.529-0.259c0.851,0.047,1.66,0.304,2.44,0.595c0.76,0.341,1.494,0.732,2.156,1.223
		c0.335,0.24,0.665,0.486,0.966,0.766c0.316,0.263,0.61,0.548,0.89,0.848c0.575,0.583,1.085,1.227,1.55,1.898
		c0.465,0.672,0.862,1.389,1.214,2.126c0.177,0.368,0.312,0.756,0.47,1.133c0.135,0.387,0.245,0.782,0.368,1.172
		c0.081,0.402,0.179,0.801,0.244,1.206c0.037,0.409,0.114,0.815,0.114,1.228c0.019,0.821-0.021,1.654-0.223,2.457l-0.143,0.604
		l-0.218,0.581c-0.127,0.396-0.33,0.758-0.53,1.12c-0.4,0.722-0.925,1.37-1.512,1.943c-0.591,0.565-1.242,1.071-1.948,1.476
		c-0.34,0.227-0.701,0.411-1.073,0.573c-0.37,0.163-0.725,0.366-1.112,0.482l-1.142,0.399c-0.387,0.114-0.779,0.202-1.169,0.301
		c-0.775,0.222-1.577,0.296-2.364,0.44c-0.794,0.106-1.593,0.153-2.388,0.232l0.139-0.083c-0.531,0.819-1.036,1.674-1.678,2.44
		c-0.315,0.387-0.686,0.732-1.094,1.028c-0.22,0.125-0.419,0.284-0.66,0.368c-0.229,0.108-0.466,0.193-0.715,0.24
		c-0.241,0.076-0.493,0.087-0.742,0.109c-0.249,0.038-0.498-0.003-0.747-0.01c-0.25,0-0.491-0.065-0.735-0.104
		c-0.245-0.036-0.484-0.098-0.72-0.174c-0.479-0.123-0.935-0.31-1.393-0.49c-0.457-0.183-0.892-0.414-1.338-0.618
		c0.453,0.188,0.896,0.402,1.357,0.568c0.462,0.164,0.922,0.332,1.4,0.437c0.234,0.067,0.473,0.119,0.715,0.146
		c0.241,0.031,0.481,0.085,0.724,0.078c0.241-0.001,0.484,0.033,0.723-0.011c0.239-0.028,0.481-0.044,0.708-0.123
		c0.234-0.052,0.457-0.138,0.67-0.247c0.225-0.083,0.41-0.241,0.614-0.363c0.378-0.292,0.722-0.628,1.017-1.012
		c0.601-0.757,1.077-1.613,1.59-2.453l0.044-0.072l0.096-0.012c0.784-0.1,1.572-0.168,2.351-0.293
		c0.771-0.163,1.558-0.256,2.308-0.494c0.378-0.108,0.761-0.199,1.134-0.316l1.102-0.406c0.375-0.118,0.711-0.32,1.064-0.482
		c0.356-0.162,0.698-0.344,1.018-0.565c0.667-0.396,1.272-0.885,1.817-1.423c0.54-0.545,1.016-1.153,1.373-1.826
		c0.179-0.337,0.362-0.671,0.471-1.039l0.192-0.537l0.121-0.559c0.175-0.742,0.199-1.514,0.169-2.277
		c-0.006-0.382-0.087-0.762-0.125-1.142c-0.067-0.378-0.167-0.751-0.248-1.126c-0.123-0.365-0.232-0.735-0.364-1.097
		c-0.156-0.354-0.288-0.717-0.462-1.062c-0.343-0.691-0.73-1.361-1.178-1.99c-0.443-0.632-0.928-1.237-1.472-1.782
		c-0.265-0.28-0.541-0.548-0.84-0.79c-0.282-0.263-0.592-0.488-0.904-0.71c-0.618-0.454-1.296-0.807-1.987-1.114
		c-0.706-0.257-1.432-0.485-2.174-0.518c-0.742-0.092-1.474,0.051-2.182,0.231l-1.274,0.324l0.791-1.055l0.768-1.025
		c0.265-0.336,0.427-0.733,0.646-1.096c0.235-0.358,0.333-0.773,0.495-1.162c0.178-0.387,0.22-0.807,0.314-1.215
		c0.118-0.406,0.078-0.827,0.11-1.241c0.046-0.418-0.08-0.825-0.107-1.238c-0.064-0.408-0.226-0.795-0.33-1.195
		c-0.186-0.369-0.348-0.753-0.562-1.104c-0.259-0.324-0.449-0.701-0.757-0.984c-0.303-0.284-0.56-0.619-0.918-0.841
		c-0.337-0.245-0.66-0.512-1.047-0.682c-0.369-0.197-0.736-0.399-1.145-0.514c-0.396-0.14-0.788-0.293-1.21-0.352
		c-0.415-0.076-0.823-0.195-1.252-0.196c-0.424-0.012-0.847-0.09-1.273-0.05l-1.279,0.08l-0.666,0.041l0.131-0.636l0.533-2.59
		c0.113-0.872,0.287-1.739,0.354-2.614c0.069-0.874,0.16-1.749,0.138-2.624c0.035-0.877-0.057-1.744-0.12-2.614
		c-0.134-0.857-0.24-1.726-0.499-2.552c-0.102-0.421-0.226-0.835-0.396-1.232c-0.158-0.401-0.295-0.812-0.512-1.185
		c-0.376-0.773-0.842-1.501-1.386-2.161c-0.281-0.324-0.542-0.667-0.87-0.945c-0.31-0.297-0.618-0.596-0.974-0.84
		c-0.336-0.27-0.686-0.517-1.063-0.728c-0.36-0.237-0.745-0.432-1.137-0.615c-0.772-0.387-1.596-0.675-2.431-0.916
		c-0.837-0.239-1.696-0.4-2.562-0.523l-1.307-0.13l-1.314-0.047c-1.756-0.01-3.517,0.17-5.239,0.528
		c-0.859,0.181-1.712,0.407-2.535,0.705c-0.821,0.291-1.637,0.64-2.329,1.128l-0.198,0.14l-0.169-0.19
		c-0.525-0.588-1.039-1.189-1.574-1.769l-0.889-0.776c-0.296-0.262-0.585-0.532-0.931-0.722l-0.995-0.633
		c-0.346-0.183-0.718-0.312-1.077-0.471c-0.354-0.179-0.737-0.26-1.122-0.341c-0.383-0.088-0.764-0.191-1.16-0.184
		c-0.392,0-0.787-0.088-1.178-0.015c-0.389,0.056-0.79,0.056-1.172,0.155c-0.38,0.105-0.773,0.174-1.146,0.311
		c-0.366,0.15-0.748,0.268-1.103,0.445c-0.349,0.19-0.721,0.34-1.055,0.559c-0.338,0.209-0.685,0.409-1.002,0.652
		C584.549,579.131,583.936,579.651,583.382,580.229z"/>
</g>
<path fill="#282522" d="M584.401,590.562c0,0-6.673,6.752,0.73,10.787c4.869-0.942,6.259-2.326,5.911-4.989
	C590.695,593.696,587.59,589.466,584.401,590.562z"/>
<path fill="#282522" d="M606.281,595.745c0,0-6.674,6.755,0.732,10.789c4.867-0.94,6.255-2.327,5.907-4.988
	C612.573,598.882,609.472,594.653,606.281,595.745z"/>
<g>
	<path fill="#484442" d="M591.042,596.36c0,0,0.188-0.17,0.556-0.416c0.368-0.245,0.908-0.581,1.604-0.901
		c0.355-0.141,0.734-0.321,1.163-0.435c0.424-0.131,0.877-0.257,1.365-0.312c0.48-0.101,0.998-0.081,1.517-0.098
		c0.518,0.087,1.062,0.083,1.569,0.282c0.255,0.09,0.517,0.16,0.761,0.271l0.699,0.393c0.114,0.067,0.232,0.129,0.342,0.2
		l0.29,0.262c0.19,0.174,0.379,0.345,0.564,0.514c0.349,0.354,0.589,0.775,0.857,1.133c0.261,0.365,0.385,0.777,0.555,1.122
		c0.166,0.348,0.294,0.674,0.348,0.983c0.072,0.301,0.136,0.563,0.188,0.779c0.099,0.43,0.141,0.676,0.141,0.676
		s-0.128-0.223-0.325-0.612c-0.096-0.194-0.213-0.431-0.347-0.701c-0.117-0.277-0.311-0.556-0.513-0.859
		c-0.215-0.294-0.386-0.654-0.658-0.96c-0.284-0.293-0.541-0.641-0.863-0.933c-0.17-0.134-0.344-0.271-0.519-0.408
		c-0.168-0.147-0.351-0.276-0.558-0.368l-0.598-0.322c-0.209-0.089-0.436-0.138-0.65-0.212c-0.422-0.187-0.899-0.184-1.344-0.276
		c-0.46,0.016-0.914-0.062-1.358,0.008c-0.444,0.027-0.875,0.084-1.283,0.161c-0.409,0.065-0.79,0.175-1.149,0.251
		c-0.348,0.113-0.684,0.181-0.968,0.28c-0.288,0.09-0.538,0.175-0.74,0.255C591.277,596.271,591.042,596.36,591.042,596.36z"/>
</g>
<path fill="#12100B" d="M624.857,600.892c0,0,11.586-8.346,12.867-10.082c1.28-1.736-7.3-19.703-15.296-24.638
	c-1.47,0.651-3.444,1.562-5.322,0.465c-1.879-1.096-6.675-9.127,2.556-11.212c9.747,0.633,12.159,19.584,23.284,25.677
	c8.34,8.941,0.863,11.318-12.223,21.12C630.723,602.222,629.417,601.099,624.857,600.892z"/>
<path fill="#383432" d="M606.649,534.503c1.449,6.575-1.932,12.906-7.551,14.147c-5.619,1.236-11.349-3.087-12.797-9.659
	c-1.448-6.573,1.932-12.91,7.552-14.148C599.472,523.605,605.2,527.932,606.649,534.503z"/>
<path fill="#282522" d="M584.519,545.72c1.861,3.791,0.86,8.097-2.233,9.613c-3.096,1.521-7.111-0.327-8.972-4.118
	c-1.861-3.794-0.86-8.1,2.233-9.616C578.641,540.082,582.66,541.926,584.519,545.72z"/>
<path fill="#383432" d="M584.832,568.656c1.565,3.029,0.562,6.661-2.242,8.116c-2.802,1.447-6.347,0.167-7.916-2.86
	c-1.568-3.03-0.565-6.661,2.24-8.113C579.72,564.349,583.263,565.628,584.832,568.656z"/>
<ellipse transform="matrix(0.9979 0.0647 -0.0647 0.9979 37.5104 -37.5898)" fill="#12100B" cx="598.736" cy="559.96" rx="5.219" ry="5.056"/>
<path fill="#282522" d="M630.929,542.288c-0.314,4.826-4.565,8.482-9.495,8.164c-4.935-0.319-8.676-4.492-8.363-9.321
	c0.314-4.833,4.561-8.489,9.496-8.167C627.495,533.28,631.24,537.455,630.929,542.288z"/>
<ellipse transform="matrix(0.9979 0.0642 -0.0642 0.9979 37.8676 -37.8239)" fill="#282522" cx="607.065" cy="569.898" rx="3.032" ry="3.058"/>
<path fill="#12100B" d="M581.115,526.309c-0.454,7.013-5.572,12.389-11.432,12.01c-5.858-0.381-10.243-6.371-9.785-13.386
	c0.455-7.01,5.571-12.389,11.43-12.007C577.189,513.307,581.569,519.296,581.115,526.309z"/>
<ellipse transform="matrix(0.9273 -0.3744 0.3744 0.9273 -158.0181 245.4222)" fill="#383432" cx="552.677" cy="529.43" rx="2.335" ry="3.501"/>
<path fill="#383432" d="M527.265,604.745c0,0-9.353-2.686-4.697,8.355c6.396,8.21,6.737,5.636,10.303,12.101
	c3.564,6.466,5.968,25.51,6.217,29.683c0.249,4.173,8.221,4.169,13.611,3.826c4.619-1.778,6.52-7.027,5.719-10.717
	c-0.801-3.69-1.017-8.383,0.028-8.486c1.048-0.104,4.77,9.316,1.526,16.554c-0.062,9.007,14.763,9.794,17.824,5.486
	c3.064-4.305,1.769-9.76,1.409-16.885c-0.361-7.127,2.547-15.599,14.477-6.683c6.498,7.177,6.108,8.364,8.295,10.411
	c2.191,2.047,10.134-0.211,12.369-2.663c2.239-2.454-9.251-49.717-51.639-39.86c0,0-2.028-12.815-10.445-5.911
	C548.495,595.291,533.468,587.906,527.265,604.745z"/>
<path fill="#12100B" d="M544.676,613.68c0.925,2.328,0.221,4.794-1.577,5.512c-1.797,0.714-4.003-0.593-4.929-2.925
	c-0.928-2.327-0.223-4.794,1.577-5.508C541.542,610.04,543.749,611.352,544.676,613.68z"/>
<path fill="#282522" d="M536.117,609.142c0.349,0.812,0.136,1.685-0.479,1.947c-0.613,0.265-1.393-0.179-1.744-0.99
	c-0.349-0.81-0.135-1.682,0.479-1.95C534.986,607.887,535.768,608.33,536.117,609.142z"/>
<path fill="#282522" d="M546.156,607.305c-0.053,0.828-0.462,1.477-0.915,1.447c-0.455-0.027-0.777-0.725-0.723-1.558
	c0.053-0.824,0.464-1.476,0.914-1.444C545.886,605.778,546.209,606.473,546.156,607.305z"/>
<path fill="#383432" d="M530.961,651.934c0,0-47.969,7.801-35.414,30.616c7.205,3.76,20.519-3.866,24.736-18.145
	C529.145,652.268,530.961,651.934,530.961,651.934z"/>
<path fill="#282522" d="M537.044,657.001c0,0-23.047,10.982-20.829,28.797c2.218,17.812,16.443,1.755,17.676-12.022
	C535.12,659.997,534.688,657.967,537.044,657.001z"/>
<path fill="#383432" d="M548.703,661.57c0,0-13.896,8.828-11.879,24.364c1.814,5.3,6.553,7.02,8.188,0.53
	c1.633-6.49,1.201-15.874,3.423-20.753C550.657,660.83,548.703,661.57,548.703,661.57z"/>
<path fill="#282522" d="M560.534,663.453c0,0-16.842,13.959-9.427,27.84c2.817,1.972,5.701,0.254,6.397-2.475
	C558.199,686.093,552.937,681.747,560.534,663.453z"/>
<ellipse transform="matrix(0.8979 -0.4403 0.4403 0.8979 -237.5473 323.0417)" fill="#282522" cx="577.447" cy="673.484" rx="6.239" ry="7.648"/>
<path fill="#383432" d="M615.573,654.462c1.568,3.025,0.565,6.657-2.24,8.109c-2.806,1.453-6.349,0.173-7.917-2.858
	c-1.565-3.031-0.564-6.66,2.242-8.112C610.461,650.149,614.004,651.431,615.573,654.462z"/>
<path fill="#383432" d="M590.933,654.806c0.724,1.792,0.34,3.637-0.855,4.121c-1.194,0.481-2.75-0.582-3.472-2.377
	c-0.723-1.792-0.341-3.636,0.853-4.116C588.653,651.95,590.211,653.013,590.933,654.806z"/>
<path fill="#12100B" d="M605.716,671.45c-0.183,2.786-2.659,4.894-5.535,4.709c-2.879-0.19-5.063-2.597-4.881-5.383
	c0.18-2.789,2.657-4.896,5.535-4.71C603.711,666.249,605.897,668.661,605.716,671.45z"/>
<path fill="#282522" d="M648.039,646.995c1.865,3.794,0.865,8.1-2.229,9.616c-3.094,1.517-7.11-0.324-8.97-4.118
	c-1.861-3.795-0.863-8.099,2.229-9.616C642.163,641.358,646.179,643.204,648.039,646.995z"/>
<path fill="#383432" d="M629.197,657.285c0.723,1.793,0.339,3.637-0.857,4.118c-1.194,0.481-2.749-0.579-3.474-2.375
	c-0.722-1.793-0.338-3.633,0.857-4.118C626.914,654.43,628.473,655.492,629.197,657.285z"/>
<path fill="#12100B" d="M629.7,648.326c-0.179,2.788-2.658,4.896-5.535,4.711c-2.878-0.188-5.06-2.6-4.883-5.387
	c0.183-2.786,2.661-4.896,5.535-4.709C627.697,643.131,629.881,645.541,629.7,648.326z"/>
<path fill="#12100B" d="M504.182,653.521c0,0,4.306-4.951,4.987-10.104c0.679-5.152-0.587-12.338,0.961-14.836
	c1.547-2.496,7.214-9.755,14.432-6.168c7.218,3.585,6.237,4.056,4.74,5.077c-1.498,1.023-7.778-3.712-11.225,0.047
	c-3.445,3.761-3.267,6.355-4.197,10.026c-0.934,3.673-1.697,12.805-4.476,15.568c-2.777,2.767-3.97,7.775-5.551,5.477
	C502.271,656.309,503.596,654.245,504.182,653.521z"/>
<path fill="#12100B" d="M512.881,652.966c0,0,4.179-5.687,5.321-11.273c1.141-5.586,5.616-10.492,9.525-10.631
	c3.907-0.135,10.153,7.026,5.42,7.24c-4.734,0.211-6.354-3.922-8.945,1.498c-2.591,5.418-3.92,10.011-6.171,12.593
	c-2.25,2.583-2.241,4.489-3.803,4.524C512.663,656.955,510.785,656.268,512.881,652.966z"/>
<path fill="#12100B" d="M525.749,649.524c0,0,0.938-6.428,4.745-7.034c3.806-0.605,4.341,0.339,3.889,1.737
	c-0.454,1.4-3.032,0.076-4.213,1.749C528.99,647.648,525.626,647.45,525.749,649.524z"/>
<path fill="#12100B" d="M501.438,540.774c0,0-11.025,34.949-14.87,42.899c-3.843,7.951-0.663,49.818,0.174,54.009
	c0.837,4.194,0.003,3.522,1.537,3.997c1.537,0.477,0.555,0.084,1.404-1.779c0.85-1.862-0.538-4.6,0.263-5.476
	c0.804-0.876,0.664-1.574,1.419-2.927c0.758-1.344,0.708-3.932,0.738-4.542c0.029-0.611-2.896-0.926-0.611-1.68
	c2.287-0.755,2.294-0.928,2.665-1.432c0.372-0.5-0.566-2.62-0.707-3.319c-0.137-0.698,0.981-2.376,2.018-2.326
	c1.036,0.049,3.329-0.879,3.329-0.879s-0.493-4.182,0.241-5.008c0.732-0.831,0.111-2.25,0.994-2.637
	c0.883-0.387,2.349-1.977,2.349-1.977s-1.245-2.997-1.02-4.062c0.223-1.068-0.63-1.285,0.623-2.174
	c1.253-0.891,0.976-2.288,2.02-2.412c1.043-0.122,1.771-0.868,2.478-1.136c0.705-0.271,1.383,0.021,0.963-2.028
	c-0.42-2.055-1.027-0.268-0.398-2.531c0.628-2.264,1.392-3.783,2.454-4.251c1.06-0.468,2.304-1.914,2.304-1.914l0.143-2.988
	c0,0-6.71-7.075-7.822-12.837c-1.109-5.767,4.621-24.185,5.296-27.44C510.098,540.668,505.413,533.695,501.438,540.774z"/>
<path fill="#12100B" d="M491.648,644.448l-2.603,8.092l-3.537-3.551l-2.664,0.992c0,0,0.309,9.293,3.104,10.23
	c2.8,0.939,13.827-4.844,13.827-4.844l-1.309-3.857c0,0-4.964,2.412-5.111,2.662c-0.145,0.248,2.848-7.816,2.848-7.816
	L491.648,644.448z"/>
<path fill="#12100B" d="M502.869,619.631l-3.187,9.148l-2.546-2.893l-3.15,2.525c0,0,2.59,6.146,5.828,8.302
	c3.24,2.158,8.085-4.413,8.085-4.413l0.279-4.306l-3.521,2.147l2.353-10.244L502.869,619.631z"/>
<path fill="#12100B" d="M520.579,592.984l-10.477,7.271l-0.977-4.958l-4.179,2.328c0,0-1.961,6.385,1.397,8.607
	c3.358,2.224,10.081,2.745,10.081,2.745l0.301-2.663l-2.657-1.088l8.403-7.375L520.579,592.984z"/>
<path fill="#12100B" d="M559.514,503.94c0,0-10.312,0.027-12.499,0.406c-2.194,0.375-5.351-17.672-14.613-13.768
	c-9.262,3.902,5.295,30.57,1.739,37.313c-3.554,6.744,10.003,0.649,10.003,0.649s0.624-12.388,0.846-13.067
	c0.223-0.678,14.135-6.879,15.281-8.54C561.418,505.279,560.255,503.937,559.514,503.94z"/>
<path fill="#282522" d="M535.402,500.982c-0.11,1.685-1.554,2.964-3.224,2.854c-1.672-0.107-2.938-1.562-2.828-3.244
	c0.106-1.689,1.55-2.965,3.223-2.855C534.245,497.844,535.51,499.299,535.402,500.982z"/>
<path fill="none" stroke="#484442" stroke-miterlimit="10" d="M529.668,520.484c0,0-1.944-4.854-7.79-6.422
	c-5.846-1.568-8.125-1.241-8.786-3.899"/>
<path fill="none" stroke="#484442" stroke-miterlimit="10" d="M529.376,525.013c0,0-1.031-4.285-7.049-5.005
	c-6.021-0.719-8.928-1.738-9.581-4.516"/>
<path fill="none" stroke="#484442" stroke-miterlimit="10" d="M527.411,526.485c0,0-2.968-2.312-7.657-3.136
	c-4.689-0.823-8.454-2.887-9.6-5.236"/>
<path fill="none" stroke="#484442" stroke-miterlimit="10" d="M525.831,528.354c0,0-7.153-3.44-11.334-1.331
	c-4.181,2.109-5.634,4.352-5.634,4.352"/>
<path fill="none" stroke="#484442" stroke-miterlimit="10" d="M525.723,530.033c0,0-6.723-0.895-9.636,1.812
	c-2.91,2.704-4.576,2.715-4.576,2.715"/>
<path fill="none" stroke="#484442" stroke-miterlimit="10" d="M526.449,531.342c0,0,0.66,1.138-3.689,2.163
	c-4.348,1.024-6.878,3.361-7.349,5.113"/>
<path fill="none" stroke="#484442" stroke-miterlimit="10" d="M528.564,530.19c0,0,1.646,0.292-0.278,4.297
	c-1.925,4.01-6.991,5.108-6.991,5.108"/>
<path fill="none" stroke="#484442" stroke-miterlimit="10" d="M530.851,531.628c0,0,1.675,1.379,0.315,5.067
	c-1.358,3.688-1.358,3.688-1.358,3.688"/>
<path fill="#383432" d="M487.781,567.021c0,0,5.375-32.221,9.737-39.613c4.364-7.394,2.516-31.366,0.689-37.622
	c-1.828-6.257-2.387-26.63-1.092-29.632c1.295-3.002,11.471-0.452,11.621,8.767c0.148,9.222-8.062,2.52-6.446,23.518
	c3.948,13.059,4.17,14.324,1.324,30.276C500.772,538.665,496.899,537.418,487.781,567.021z"/>
<path fill="#282522" d="M511.149,505.629c0,0-9.116-25.017-0.206-31.544c8.911-6.522,19.786,10.116,21.149,13.151
	c0,0-5.933,1.346-7.129,4.737c-1.193,3.386,2.928,7.29-0.658,10.178c-3.589,2.884-4.895,1.649-7.051,0.182
	C515.098,500.863,513.756,497.484,511.149,505.629z"/>
<path fill="#383432" d="M525.007,550.115c0,0-5.824-15.809-16.018,1.162c0,0-5.614,13.809,2.075,27.124
	c7.692,13.318,16.626,11.646,21.758,10.073c5.128-1.574,16.108-10.736,3.751-23.144c-4.265-0.971-13.337,0.607-8.844,7.178
	c3.219,2.161,5.859,1.377,6.1,0.394c0.243-0.982,5.018,5.395-0.482,7.463c-5.501,2.066-15.154-7.043-13.601-16.124
	C521.296,555.158,525.007,550.115,525.007,550.115z"/>
<path fill="#383432" d="M557.359,541.382c-12.097-11.177-13.243-9.546-17.923-9.489c0,0-17.5,3.045,1.37,35.152
	c9.141,8.505,16.526,14.857,26.337,10.478C571.266,570.004,569.454,552.562,557.359,541.382z M556.989,569.809
	c-5.12-2.547-15.254-19.909-16.149-23.808c-0.896-3.9,5.238-2.88,5.238-2.88C559.484,547.789,562.108,572.357,556.989,569.809z"/>
<path fill="#12100B" d="M523.673,583.96"/>
<path fill="#383432" d="M223.941,388.453c0,0,14.08,11.589,15.861,14.382c0,0,5.89-6.117,8.687-5.298
	c2.795,0.821-6.648,11.523-9.329,11.244c-2.682-0.28-10.886-17.999-17.017-19.323C223.941,388.453,223.941,388.453,223.941,388.453z
	"/>
<path fill="#383432" d="M227.878,386.3c0,0,7.935,9.938,12.482,10.427c4.547,0.486,11.001-7.826,11.238-9.232
	c0.235-1.407-7.887,0.813-10.736,4.596c-2.516-1.122-9.637-5.597-10.115-7.288C229.033,385.688,227.878,386.3,227.878,386.3z"/>
<path fill="none" stroke="#282522" stroke-miterlimit="10" d="M130.817,425.949c0,0-4.746,5.793-3.363,7.938
	c1.384,2.145,1.922,4.703,4.236,5.39c2.314,0.681,7.761-0.614,8.387,0.725c0.626,1.336,3.098,23.859,3.406,25.57
	c0.309,1.71,3.434,1.756,6.125,0.704c2.691-1.055,4.022-3.007,5.651-4.813c1.629-1.805,1.585,21.782,4.388,24.335
	c2.803,2.556,15.186,5.241,24.811,4.135c0,0,3.416,15.139,3.761,21.701c0.346,6.563,1.838,10.101,3.72,9.771
	c1.882-0.328,12.486-4.723,15.09-6.702c2.605-1.984-0.544,34.679,2.937,37.181c3.48,2.499,6.212,1.966,10.714-0.312
	c4.503-2.277,18.625-13.104,20.075-14.087c1.452-0.979-0.342,17.023,2.299,21.323c3.961,1.25,8.673,1.626,10.988,0.2
	c2.314-1.426,4.912-7.525,4.912-7.525"/>
<path fill="none" stroke="#282522" stroke-miterlimit="10" d="M218.275,545.277c0,0-7.059,6.515-6.901,7.03"/>
<line fill="none" stroke="#282522" stroke-miterlimit="10" x1="251.825" y1="551.785" x2="243.054" y2="558.808"/>
<path fill="none" stroke="#484442" stroke-miterlimit="10" d="M127.413,517.909c0,0-5.474,16.32-8.744,17.74
	c0,0-14.302-1.449-15.723-3.126c-1.422-1.678,0.263-14.784,2.323-18.326"/>
<path fill="none" stroke="#484442" stroke-miterlimit="10" d="M250.36,607.019c0,0,5.477-12.347,9.151-14.5"/>
<path fill="none" stroke="#484442" stroke-miterlimit="10" d="M281.442,563.359c0,0,2.71-10.638,5.105-12.406
	c2.397-1.768,0.311-4.87,0.311-4.87"/>
<path fill="none" stroke="#484442" stroke-miterlimit="10" d="M274.107,580.121c0,0,0.148-2.657,1.44-1.835
	c1.29,0.825,4.167,3.383,4.662,4.592c0.495,1.203,1.74,3.521,4.396,2.761c2.657-0.759,5.683-6.641,5.372-10.954
	c-0.311-4.318-1.934-4.541-2.561-5.466"/>
<path fill="none" stroke="#484442" stroke-miterlimit="10" d="M262.857,600.848c0,0,0.113,6.478,9.953,6.901
	c6.41-1.417,10.085-7.718,10.485-12.745c0.4-5.026-1.473-7.148-2.848-7.818"/>
<path fill="none" stroke="#3D3937" stroke-miterlimit="10" d="M151.822,520.665c0,0,13.872,24.138,16.185,27.074
	c2.313,2.94,10.49,24.144,62.75,50.19c6.347,1.319,9.905,0.26,13.047-9.354c3.143-9.611,6.217-13.497-4.293-18.129
	c-10.511-4.633-39.898-21.039-49.573-34.844c-5.497-3.729-8.939-4.498-9.993-4.673c-1.056-0.179-12.341-4.749-16.103-6.271
	C160.081,523.134,153.624,517.142,151.822,520.665z"/>
<path fill="none" stroke="#3D3937" stroke-miterlimit="10" d="M157.053,529.695c0,0,3.68,1.712,6.79-5.035"/>
<path fill="none" stroke="#3D3937" stroke-miterlimit="10" d="M168.924,549.172c0,0-4.202-10.445,10.77-18.305"/>
<path fill="none" stroke="#3D3937" stroke-miterlimit="10" d="M168.531,543.837c0,0,31.874,39.446,71.656,52.024"/>
<path fill="none" stroke="#3D3937" stroke-miterlimit="10" d="M170.875,538.138c0,0,23.823,30.911,72.163,52.58"/>
<path fill="none" stroke="#3D3937" stroke-miterlimit="10" d="M174.977,533.876c0,0,13.424,18.588,70.129,50.914"/>
<path fill="none" stroke="#3D3937" stroke-miterlimit="10" d="M185.882,536.952c0,0,32.207,22.815,44.35,28.87"/>
<path fill="#201E1A" stroke="#201E1A" stroke-miterlimit="10" d="M280.267,562.162c-2.664-3.657,7.442-15.353,6.591-16.08
	c-0.852-0.727-4.649-0.49-6.775,0.99c-7.192,5.416-3.215,14.416-3.532,14.427c-0.318,0.007-1.654-1.853-4.562-2.814
	c-2.908-0.957-3.988,1.118-5.509,5.276c-1.522,4.165,4.744,6.975,4.675,8.686c-0.069,1.714-1.614,2.791-2.449,2.913
	c-0.832,0.12-4.673-3.576-5.464-3.879c-0.79-0.303-1.464-1.281-7.191,1.052c-10.694,9.129-3.835,11.626-3.885,14.933
	c-0.048,3.308-7.449,8.755-8.839,15.77c-1.39,7.017,6.275,11.111,6.275,11.111c3.484-0.936,2.944-1.706,2.701-3.376
	c-0.244-1.665-1.352-3.421-3.207-5.916c2.872-6.666,8.498-16.147,9.968-13.378c1.469,2.767,2.931,12.769,10.195,12.983
	c7.265,0.218,12.188-9.871,12.622-14.191c0.431-4.325-6.842-6.027-8.076-11.551c-1.234-5.523,5.382-1.046,6.883,1.929
	c1.499,2.975,2.29,2.614,4.382,2.306C297.07,570.778,282.931,565.815,280.267,562.162z M275.803,592.789
	c-6.346,9.657-9.359,5.885-10.289,3.896c-0.93-1.987-4.946-9.078-7.641-12.942c-2.694-3.86,2.925-7.663,2.925-7.663
	C272.99,577.916,277.345,588.776,275.803,592.789z M284.923,573.619c-0.703,3.932-4.048,1.441-7.631-1.23
	c-12.089-6.961-5.137-9.043-5.137-9.043C280.932,563.557,285.625,569.682,284.923,573.619z"/>
<path fill="none" stroke="#484442" stroke-miterlimit="10" d="M280.448,587.186"/>
<path fill="#12100B" d="M269.694,612.086c0,0-4.783,2.475,8.431,4.779c13.216,2.301,15.548,4.986,21.486,2.276
	c5.936-2.712,4.258-9.321,3.03-15.387c-1.228-6.065-3.588-24.646-0.555-33.173c3.031-8.532-16.233-53.132-21.211-56.911
	c-4.979-3.777-5.992,3.952-2.708,7.945c3.283,3.995,11.303,18.604,14.553,26.426c3.251,7.826,5.633,14.143,5.403,18.862
	c-0.229,4.725-1.493,16.698-0.399,25.012c1.094,8.315,5.562,20.828,1.2,22.637c-4.361,1.815-19.999-1.431-22.524-1.841
	C273.872,612.3,269.694,612.086,269.694,612.086z"/>
<ellipse transform="matrix(0.9969 -0.0788 0.0788 0.9969 -41.5428 22.8759)" fill="#12100B" cx="269.096" cy="537.839" rx="5.955" ry="7.55"/>
<path fill="#12100B" d="M277.032,523.77c0.227,2.871-1.812,5.376-4.556,5.592c-2.742,0.22-5.15-1.937-5.377-4.808
	c-0.226-2.872,1.814-5.376,4.555-5.592C274.398,518.745,276.806,520.898,277.032,523.77z"/>
<path fill="#383432" d="M121.8,372.885l-7.668-11.98c0,0,1.479-0.023-0.621,0.182c-2.101,0.206-0.923,4.724,2.06,10.339
	c2.983,5.612,6.533,10.388,7.906,10.932C124.849,382.903,127.472,380.314,121.8,372.885z"/>
<path fill="#12100B" d="M114.791,375.972c0,0-5-10.028-6.287-7.491c-1.288,2.537,1.244,7.067,2.678,9.216
	c1.435,2.148,3.159,4.887,5.419,4.501C118.861,381.809,115.194,376.751,114.791,375.972z"/>
<path fill="#282522" d="M236.996,514.2c0,0,24.531-17.415,31.015-17.666c6.483-0.252,10.874,12.539,7.123,16.085
	c-3.752,3.547-13.539,5.881-13.539,5.881s-2.221,31.305-2.186,33.38c0.034,2.08-9.142,3.24-10.996,2.822
	c0,0-2.484-31.451-4.769-35.694c-2.746-0.173-6.259,3.095-6.667,2.866C236.976,521.873,235.088,516.69,236.996,514.2z"/>
<path fill="#282522" d="M211.976,501.74c0,0,16.944-13.566,19.749-13.008c2.809,0.562,4.863,8.461,2.482,11.251
	c-2.381,2.792-11.613,6.121-11.705,9.898c-0.091,3.781,3.463,1.026,7.029-1.593c3.564-2.626,3.091,9.508,2.428,10.99
	c-0.663,1.484-7.255,3.655-8.026,5.427c-0.771,1.771-0.786,6.515,0.742,6.104c1.529-0.41,15.121-11.107,16.849-12.285
	c1.727-1.177,2.933,12.426,2.933,12.426s-26.855,18.985-29.522,18.156C212.269,548.275,211.976,501.74,211.976,501.74z"/>
<path fill="#282522" d="M187.569,475.961c0,0,21.803-17.067,24.548-16.893c2.745,0.173,4.77,7.686,2.248,10.357
	c-2.52,2.671-12.851,7.388-14.093,10.35c-1.242,2.958-1.695,5.464-0.403,5.361c1.293-0.103,8.169-6.891,9.732-6.882
	c1.562,0.005,1.898,9.213,1.504,10.806c-0.395,1.594-9.515,5.173-9.536,7.126c-0.022,1.952,10.879-1.639,16.709-5.222
	c5.829-3.581,3.388,8.318,1.742,10.529c-1.645,2.211-23.259,15.103-25.418,14.103C192.442,514.594,187.404,487.031,187.569,475.961z
	"/>
<path fill="#282522" d="M155.501,451.962c0,0,8.741-6.282,12.508-6.32c3.768-0.037,4.936,17.691,6.546,20.163
	c1.613,2.474,1.143,1.469,1.143,1.469s-1.075-8.692,0.169-11.034c1.246-2.344,4.889-5.621,6.98-3.837
	c2.093,1.785,2.017,9.076,1.763,10.787c-0.256,1.711,6.105-25.322,16.074-22.339c9.972,2.982-7.462,39.359-12.702,42.888
	c-5.243,3.532-21.395,1.554-22.803-1.455C163.77,479.272,155.501,451.962,155.501,451.962z"/>
<path fill="#282522" d="M130.817,425.949c0,0-0.511,8.361,3.18,8.981c3.69,0.618,6.561-0.909,8.064,0.013
	c1.504,0.922,3.729,19.217,4.246,24.12c0.517,4.9,3.38,2.463,5.281,1.402c1.899-1.06,3.798-1.73,5.127-3.006
	c1.331-1.277-0.003-21.461,0.66-22.946c0.663-1.481,7.778-3.605,10.361-5.497c2.581-1.896,2.326-10.067-2.327-9.703
	C160.755,419.681,136.01,427.488,130.817,425.949z"/>
<line fill="none" stroke="#282522" stroke-miterlimit="10" x1="147.156" y1="461.576" x2="143.483" y2="465.572"/>
<line fill="none" stroke="#282522" stroke-miterlimit="10" x1="141.041" y1="434.652" x2="140.076" y2="440.001"/>
<line fill="none" stroke="#282522" stroke-miterlimit="10" x1="132.809" y1="434.374" x2="130.686" y2="438.795"/>
<line fill="none" stroke="#282522" stroke-miterlimit="10" x1="165.179" y1="482.284" x2="159.647" y2="485.797"/>
<path fill="none" stroke="#282522" stroke-miterlimit="10" d="M194.602,515.598c0,0-3.749,4.251-3.682,5.584"/>
<path fill="none" stroke="#282522" stroke-miterlimit="10" d="M119.568,425.147c0,0-9.456,25.198-0.156,30.966
	c4.198,0.449,5.688-0.448,6.272-6.22C126.268,444.125,120.513,430.534,119.568,425.147z"/>
<path fill="none" stroke="#282522" stroke-miterlimit="10" d="M128.578,450.446c0,0-0.092,8.579-5.259,15.627
	c-5.165,7.047-1.734,17.701,4.504,15.909C134.058,480.189,134.227,456.245,128.578,450.446z"/>
<path fill="none" stroke="#282522" stroke-miterlimit="10" d="M134.33,453.633c0,0-3.823,30.296,3.075,38.946
	c6.75,3.458,9.681,1.06,11.728-5.952C151.181,479.618,137.975,468.473,134.33,453.633z"/>
<path fill="#12100B" d="M135.478,503.159c0.167,2.106-1.752,3.975-4.285,4.176c-2.534,0.199-4.721-1.345-4.888-3.448
	c-0.165-2.107,1.753-3.973,4.286-4.176C133.124,499.513,135.313,501.057,135.478,503.159z"/>
<ellipse transform="matrix(0.9969 -0.0793 0.0793 0.9969 -40.3911 12.081)" fill="#282522" cx="131.98" cy="514.819" rx="1.675" ry="2.723"/>
<ellipse transform="matrix(0.9969 -0.0789 0.0789 0.9969 -39.7711 12.9263)" fill="#282522" cx="143.614" cy="509.513" rx="3.328" ry="3.149"/>
<ellipse transform="matrix(0.9969 -0.0784 0.0784 0.9969 -38.9732 13.4712)" fill="#282522" cx="151.969" cy="502.769" rx="1.556" ry="2.916"/>
<path fill="#383432" d="M157.59,490.976c0.155,1.964-0.83,3.642-2.199,3.75c-1.37,0.106-2.607-1.396-2.761-3.355
	c-0.155-1.963,0.829-3.643,2.2-3.748C156.198,487.511,157.435,489.016,157.59,490.976z"/>
<path fill="#383432" d="M177.128,498.358c0.232,2.935-2.366,5.535-5.804,5.807c-3.437,0.271-6.411-1.888-6.643-4.822
	c-0.232-2.939,2.366-5.535,5.803-5.809C173.921,493.264,176.895,495.424,177.128,498.358z"/>
<path fill="#12100B" d="M180.897,516.617c0.244,3.108-2.786,5.88-6.77,6.192c-3.982,0.314-7.409-1.949-7.655-5.054
	c-0.245-3.106,2.785-5.879,6.768-6.194C177.222,511.246,180.65,513.51,180.897,516.617z"/>
<path fill="#12100B" d="M159.303,512.663c0.117,1.495-1.512,2.851-3.639,3.016c-2.129,0.167-3.949-0.912-4.068-2.41
	c-0.119-1.5,1.51-2.851,3.638-3.018C157.363,510.084,159.184,511.163,159.303,512.663z"/>
<path fill="#383432" d="M147.797,528.983c0.305,3.862-2.944,7.272-7.257,7.613c-4.313,0.341-8.057-2.518-8.363-6.379
	c-0.305-3.867,2.943-7.274,7.257-7.616C143.747,522.258,147.491,525.117,147.797,528.983z"/>
<path fill="#282522" d="M105.142,532.35c0.096,1.212-0.811,2.275-2.023,2.372c-1.214,0.095-2.276-0.811-2.371-2.026
	c-0.097-1.211,0.81-2.273,2.023-2.371C103.986,530.23,105.047,531.136,105.142,532.35z"/>
<path fill="#282522" d="M120.866,535.477c0.096,1.211-0.81,2.276-2.024,2.368c-1.213,0.098-2.275-0.808-2.371-2.023
	c-0.096-1.215,0.81-2.277,2.024-2.369C119.709,533.357,120.771,534.262,120.866,535.477z"/>
<path fill="#383432" stroke="#2D2A27" stroke-miterlimit="10" d="M104.634,509.432c0,0-5.52-7.307-4.33-10.357
	c1.19-3.047,5.788-10.695,8.003-12.302c2.213-1.603,4.498,4.275,4.9,7.718C113.61,497.931,110.188,507.299,104.634,509.432z"/>
<path fill="none" stroke="#282522" stroke-miterlimit="10" d="M108.307,486.773c0,0-4.385,20.242-3.674,22.659"/>
<path fill="none" stroke="#282522" stroke-miterlimit="10" d="M100.052,500.086c0,0,10.611-6.525,13.156-5.596"/>
<line fill="none" stroke="#282522" stroke-miterlimit="10" x1="93.523" y1="477.447" x2="91.759" y2="481.449"/>
<line fill="none" stroke="#282522" stroke-miterlimit="10" x1="89.952" y1="488.223" x2="92.634" y2="492.531"/>
<line fill="none" stroke="#282522" stroke-miterlimit="10" x1="94.971" y1="495.781" x2="97.999" y2="497.893"/>
<line fill="none" stroke="#282522" stroke-miterlimit="10" x1="97.904" y1="472.899" x2="101.611" y2="471.565"/>
<line fill="none" stroke="#282522" stroke-miterlimit="10" x1="106.953" y1="469.642" x2="109.406" y2="467.751"/>
<line fill="none" stroke="#282522" stroke-miterlimit="10" x1="110.107" y1="464.501" x2="110.416" y2="460.987"/>
<line fill="none" stroke="#282522" stroke-miterlimit="10" x1="112.33" y1="455.372" x2="112.044" y2="451.75"/>
<ellipse transform="matrix(0.9969 -0.079 0.079 0.9969 -33.8715 9.5685)" fill="#282522" cx="103.983" cy="432.824" rx="4.345" ry="4.742"/>
<ellipse transform="matrix(0.9968 -0.0796 0.0796 0.9968 -34.8795 10.2087)" fill="#282522" cx="110.536" cy="442.352" rx="2.06" ry="1.961"/>
<path fill="none" stroke="#3D3937" stroke-miterlimit="10" d="M220.958,435.602l-7.061,8.107c0,0,25.819,39.893,28.02,41.645
	c2.199,1.754,15.566-20.029,16.535-20.928c0.97-0.9-9.339-16.809-9.339-16.809s-11.129,9.554-11.617,12.444
	C237.006,462.955,220.958,435.602,220.958,435.602z"/>
<path fill="none" stroke="#3D3937" stroke-miterlimit="10" d="M240.788,429.414l18.443,26.506l6.002-12.623
	c0,0-15.449-20.741-18.182-21.771C244.319,420.498,240.788,429.414,240.788,429.414z"/>
<path fill="none" stroke="#3D3937" stroke-miterlimit="10" d="M249.682,412.66c0,0,15.869,15.215,16.382,17.408
	c0.514,2.196,4.286-7.727,5.384-7.812c1.096-0.086-6.678-8.576-6.678-8.576l2.63-7.231c0,0-3.154-3.651-5.009-2.464
	c-1.855,1.186-1.8,5.864-1.8,5.864l-1.898-1.671l4.874-9.75c0,0-6.205-6.533-7.801-5.627
	C254.169,393.708,249.842,408.095,249.682,412.66z"/>
<path fill="none" stroke="#3D3937" stroke-miterlimit="10" d="M260.987,389.528c0,0,15.42,15.69,15.883,18.254
	c0.462,2.565,9.536-15.179,9.322-17.442c-0.213-2.267-3.64-5.896-4.883-5.277c-1.242,0.618-1.816,8.987-3.271,9.103
	c-1.454,0.115-3.128-1.313-3.128-1.313l2.311-9.027c0,0-3.627-3.096-4.211-1.229c-0.583,1.867-1.659,5.594-1.659,5.594l-2.289-0.6
	c0,0,3.137-8.052,3.56-9.906c0.423-1.854-2.518-5.522-6.132-5.497C262.876,372.21,260.987,389.528,260.987,389.528z"/>
<path fill="#383432" d="M143.173,391.374c0,0-15.852,26.648-14.104,30.611c1.748,3.964,35.366-5.058,35.366-5.058
	S149.023,392.994,143.173,391.374z"/>
<path fill="#12100B" d="M117.226,388.914c0,0,10.088,19.318,8.439,24.652c-1.648,5.334,11.303-21.703,11.303-21.703
	S122.057,387.491,117.226,388.914z"/>
<path fill="#12100B" d="M137.408,363.389c-1.538-9.589-5.125-23.18-7.396-26.121c-2.269-2.941-7.301,6.47-7.041,8.533
	c0,0,4.021,36.1,14.198,39.806c10.177,3.705,18.376-13.245,18.971-17.8C156.733,363.25,147.562,345.941,137.408,363.389z
	 M149.226,372.513c-3.696,4.802-6.888,6.094-9.046,0.716c-2.159-5.38,5.015-9.067,5.015-9.067
	C147.897,365.336,152.923,367.713,149.226,372.513z"/>
<path fill="#12100B" d="M161.961,369.064c-5.822-1.257-9.866,0.13-10.122,3.592c0,0-3.895,28.265,17.343,25.096
	C174.43,394.109,177.149,373.228,161.961,369.064z M166.634,389.522c-13.011-0.359-8.455-12.165-8.455-12.165
	C158.463,369.999,179.645,389.882,166.634,389.522z"/>
<path fill="#12100B" d="M173.453,379.53c0,0,8.018-10.949,8.842,6.328c3.491-1.663,16.11,3.93,0.517,6.549
	c-1.615,3.94-2.535,8.878-1.164,11.367c1.371,2.489,2.934,0.987,4.417-0.349c1.481-1.335,8.552,8.165-3.668,9.823
	C170.176,414.906,172.076,390.647,173.453,379.53z"/>
<path fill="#12100B" d="M201.141,386.862c0,0-15.333,5.914-16.018,34.8c5.254,3.094,8.669,6.292,14.127,1.008
	c1.404-3.926-3.107-4.921-5.124-5.821c-2.019-0.898,2.033-11.622,3.708-12.102c1.675-0.48,10.702,4.008,10.61-1.532
	c-0.09-5.542-3.791-5.544-6.504-6.223C199.229,396.312,208.141,389.149,201.141,386.862z"/>
<path fill="#12100B" d="M195.947,424.998c0,0,6.117,7.22,10.728-0.284c4.61-7.504,13.956-36.671,5.534-35.323
	C203.786,390.738,195.947,424.998,195.947,424.998z"/>
<path fill="#12100B" d="M232.68,409.293c2.895-5.101-9.703-19.682-20.624-4.268c-10.923,15.413-3.901,12.093-3.901,12.093
	s1.217,21.607,20.882,10.584c3.926-3.881,6.637-13.459-4.356-7.736c-10.994,5.725-8.854,0.007-7.23-2.551
	C219.075,414.861,229.786,414.393,232.68,409.293z M219.81,404.413c0,0,7.434-2.867,7.529,1.812
	c0.094,4.681-5.195,6.157-8.197,6.385C216.142,412.837,216.769,407.617,219.81,404.413z"/>
<path fill="#383432" d="M261.86,470.059c0,0,20.324,38.018,30.808,40.495C303.154,513.031,259.588,461.843,261.86,470.059z"/>
<path fill="#282522" d="M264.198,455.53c0,0,18.637,36.842,30.904,40.276C307.369,499.242,267.608,456.513,264.198,455.53z"/>
<path fill="#383432" d="M268.447,446.064c0,0,17.275,29.692,26.061,32.473C303.292,481.314,272.549,443.997,268.447,446.064z"/>
<path fill="#282522" d="M270.275,430.074c0,0-3.123,8.254,18.119,20.663C309.636,463.15,273.581,430.071,270.275,430.074z"/>
<path fill="#383432" d="M274.424,419.365c0,0,3.062,12.519,12.475,14.309C296.311,435.466,274.424,419.365,274.424,419.365z"/>
<path fill="#282522" d="M275.318,411.815c0,0,6.889,6.667,13.061,6.212C294.551,417.57,277.064,408.217,275.318,411.815z"/>
<path fill="#282522" d="M263.943,362.542c0,0,17.646,0.47,16.368-24.054C279.033,313.966,298.702,357.241,263.943,362.542z"/>
<path fill="#282522" d="M275.734,361.11c0,0,11.621,2.565,13.906-13.83C291.927,330.884,299.418,362.04,275.734,361.11z"/>
<path fill="#282522" d="M267.445,367.933c0,0,12.078,10.028,24.664-7.819C304.694,342.267,294.659,383.332,267.445,367.933z"/>
<path fill="#282522" d="M275.115,320.953c0,0,17.591,20.548,32.745,1.621c15.151-18.929-2.853-18.548-4.113-12.552
	C302.486,316.018,300.877,335.567,275.115,320.953z"/>
<path fill="#12100B" d="M259.805,301.007c0,0,21.345,8.719,28.043-16.435c5.339-2.85,30.089,12.885,2.989,27.163
	C275.723,314.317,270.741,310.548,259.805,301.007z"/>
<path fill="#282522" d="M251.119,289.9c0,0,8.201-13.48,5.166-24.34c-3.035-10.856,9.898-9.798,10.597-0.836
	C267.581,273.686,266.502,278.975,251.119,289.9z"/>
<path fill="#383432" d="M197.154,346.966c0,0-11.652,4.382-8.68,17.113c5.753,1.846,7.186-0.348,8.612-1.76
	c1.428-1.414,14.749,1.935,19.927-13.94C217.013,348.379,207.973,342.34,197.154,346.966z"/>
<path fill="none" stroke="#2D2A27" stroke-width="0.5" stroke-miterlimit="10" d="M188.295,361.819c0,0,1.925,13.138,3.802,14.421
	c-2.311,0.962-2.554,2.153-2.649,2.94c-0.093,0.787,2.069,1.843,4.09,1.07c2.02-0.773,17.068,10.264,27.721,1.879
	c10.653-8.385,3.131-29.27-5.26-33.669"/>
<ellipse transform="matrix(0.9345 -0.356 0.356 0.9345 -115.6121 99.2554)" fill="#12100B" cx="211.906" cy="363.787" rx="1.584" ry="0.525"/>
<ellipse transform="matrix(0.9345 -0.3559 0.3559 0.9345 -113.4508 102.8218)" fill="#12100B" cx="222.745" cy="359.771" rx="1.585" ry="0.527"/>
<path fill="none" stroke="#3D3937" stroke-miterlimit="10" d="M217.443,361.79c0,0,6.79,13.528,3.085,14.378
	c-3.705,0.85-2.294,0.602-2.483-0.16"/>
<path fill="none" stroke="#2D2A27" stroke-width="0.5" stroke-miterlimit="10" d="M209.18,377.403c0,0,3.11,5.436,10.795,1.968"/>
<path fill="#12100B" d="M87.557,348.077c0,0,17.923-13.554,23.859-15.757c-0.867-2.707-1.76-5.236-1.76-5.236
	s11.174,2.064,12.115,3.551c0.942,1.487-3.262,7.542-3.738,8.099c-0.476,0.559-2.278-2.508-2.278-2.508
	s-22.201,15.331-22.354,17.788C91.66,351.742,90.395,348.893,87.557,348.077z"/>
<path fill="#383432" d="M99.929,357.625c0,0,8.203-9.785,12.629-10.829l-1.7-2.288c0,0,7.702-3.215,9.227-1.601
	c1.526,1.613-0.704,6.319-0.704,6.319s-2.744,0.368-3.33-0.451c-0.585-0.821-7.804,8.072-7.709,9.625
	C108.437,359.953,101.254,359.027,99.929,357.625z"/>
<path fill="#282522" d="M172.647,345.174c1.021-0.256,4.444,0.003,6.506,0.443c2.061,0.439,3.553-2.626,3.072-4.321
	c-0.48-1.697-7.546-1.129-8.29-1.77c-0.745-0.639,6.003-14.005-2.455-13.511c-8.458,0.494-7.205,9.76-8.159,10.875
	c-0.952,1.117-3.888-0.924-3.888-0.914c0.002,0.009,5.052-8.372,0.15-9.023c-4.902-0.65-9.244,5.848-9.07,8.046
	c0,0-11.986-4.647-11.106,4.301c4.036,2.803,7.935,2.378,9.208,2.77c1.273,0.392,0.049,3.436,0.049,3.436s-12.944-2.38-11.966,3.406
	c3.529,2.982,8.963,1.514,10.813,1.888c1.851,0.374-0.807,5.966,2.38,7.441c3.475-0.275,5.356-2.785,6.046-5.04
	c0.689-2.255,3.442-0.271,3.442-0.271s-2.88,9.011,5.03,8.442c7.909-0.567,6.42-5.834,6.555-6.533
	c0.135-0.699,6.565-0.52,6.565-0.52s2.46-2.271,1.974-3.793c-0.487-1.522-7.644-1.305-7.824-1.81
	C171.499,348.211,171.626,345.427,172.647,345.174z M161.232,347.809c-1.875,0.494-2.436-0.154-3.68-0.544
	c-1.245-0.388,1.017-4.622,1.017-4.622s3.942-0.658,4.404,0.519C163.435,344.34,163.105,347.314,161.232,347.809z"/>
<path fill="none" stroke="#282522" stroke-miterlimit="10" d="M225.741,375.4c0,0,13.033,5.64,7.345,8.263
	c-5.689,2.622-17.276,9.432-17.276,9.432s-8.165,2.195-6.508-7.555"/>
<path fill="#383432" d="M226.469,368.559c0,0,7.617,3.983,11.392-5.487c3.775-9.474-0.443-14.212-1.21-15.322
	c-0.767-1.11,1.221-8.89,9.529-5.8c2.032,7.618,3.503,20.638,1.235,23.549c0,0-9.438,15.152-21.504,9.292
	C226.644,369.61,226.469,368.559,226.469,368.559z"/>
<ellipse transform="matrix(0.9969 -0.0786 0.0786 0.9969 -26.4221 22.3039)" fill="#383432" cx="270.017" cy="346.675" rx="5.521" ry="5.186"/>
<ellipse transform="matrix(0.9969 -0.0788 0.0788 0.9969 -29.2288 20.1813)" fill="#12100B" cx="241.205" cy="380.595" rx="2.815" ry="2.419"/>
<ellipse transform="matrix(0.9969 -0.0788 0.0788 0.9969 -28.839 21.0799)" fill="#282522" cx="252.808" cy="376.127" rx="4.538" ry="4.668"/>
<ellipse transform="matrix(0.9969 -0.0786 0.0786 0.9969 -26.7203 21.0467)" fill="#282522" cx="254.135" cy="350.127" rx="1.734" ry="1.851"/>
<ellipse transform="matrix(0.9969 -0.0786 0.0786 0.9969 -27.4973 21.2152)" fill="#12100B" cx="255.896" cy="360.097" rx="2.76" ry="2.884"/>
<path fill="#12100B" d="M213.49,341.018c0,0,9.762-0.539,12.074-3.711c2.31-3.171,5.114-9.116,8.556-10.687
	c3.442-1.573,5.271-11.345,7.918-10.772c2.646,0.572,33.062,14.158,35.704,16.024c2.643,1.867,0.636,5.347-1.435,4.186
	c-2.071-1.161-11.449-7.334-13.066-5.052c-1.617,2.285-1.147,12.912-7.876,12.664c-6.728-0.25-6.843-2.409-9.122-6.218
	c-2.279-3.808-7.226-1.288-10.263,1.789c-3.037,3.077-8.917,4.374-14.488,4.657C215.922,344.184,211.091,344.872,213.49,341.018z"/>
<path fill="#282522" d="M132.345,299.28c0,0,10.92-5.545,14.397-7.641c3.476-2.094,11.865,5.827,6.728,8.053
	c-5.136,2.228-18.96,2.538-18.399,4.314c0.562,1.776-1.894,6.912,4.188,4.872c6.081-2.041,12.572,1.088,8.64,3.999
	c-3.933,2.914-13.792,2.13-15.761,9.049c5.379,1.136,9.194,0.022,12.888-2.595c3.695-2.617,5.412-4.053,7.129-3.669
	c1.716,0.386,8.701,3.903-5.022,7.633c-6.187,3.658-19.232,12.342-22.598,6.309c-1.018-5.957,0.034-5.812,1.621-8.783
	c1.587-2.97,1.388-12.058-0.109-14.54C124.552,303.796,128.016,299.361,132.345,299.28z"/>
<path fill="#282522" d="M170.607,300.681c0,0-12.333-22.802-11.476-6.17c4.007,10.4,4.424,14.01,1.434,18.147
	c-2.99,4.138-5.637,13.45,2.947,10.172c5.579-5.122,7.382-8.646,7.993-10.776c0.613-2.129,6.463,22.536,11.109,22.092
	c4.164-3.268,2.265-14.168-2.956-25.919c2.569-5.343,10.033-13.477,11.774-17.516C193.172,286.672,186.915,281.036,170.607,300.681z
	"/>
<path fill="#282522" d="M199.632,291.313c-10.413,1.81-15.234,31.421-15.234,31.421c0.584,2.721-0.365,9.569,4.086,7.75
	c4.45-1.82,8.559-17.844,10.777-16.979c2.218,0.865,3.156,1.31,11.177-1.402C227.454,301.394,210.042,289.502,199.632,291.313z
	 M214.035,302.453c-0.53,2.903-7.122,6.355-15.419,2.881c0,0,0.624-7.696,4.203-8.499
	C206.398,296.033,214.563,299.55,214.035,302.453z"/>
<path fill="#282522" d="M231.204,308.041c0,0-13.248-12.304-30.918,18.436c-3.861,14.564,3.993,13.418,13.416,11.767
	C223.126,336.591,241.977,313.615,231.204,308.041z M226.718,317.839c-2.167,5.504-19.729,20.287-21.968,15.389
	c-2.241-4.898,17.207-21.905,17.207-21.905C228.122,308.104,228.884,312.335,226.718,317.839z"/>
<path fill="none" stroke="#484442" stroke-miterlimit="10" d="M176.467,283.742c0,0,0.251,3.189-0.223,4.874
	c-0.473,1.685,1.685,3.77,3.842,1.431C182.242,287.709,177.376,284.278,176.467,283.742z"/>
<path fill="none" stroke="#484442" stroke-miterlimit="10" d="M182.976,277.246c0,0,9.74,0.357,8.575,4.266
	c-1.165,3.906-4.061,4.568-5.185,2.404C185.24,281.749,187.6,278.701,182.976,277.246z"/>
<path fill="none" stroke="#484442" stroke-miterlimit="10" d="M193.051,275.757c0,0,9.854,3.99,10.84,9.908
	c0.637,3.821-4.486,6.237-6.423,3.443C195.532,286.314,199.949,280.76,193.051,275.757z"/>
<path fill="none" stroke="#484442" stroke-miterlimit="10" d="M208.816,284.93c0,0,5.506,12.645,13.763,10.692
	c8.258-1.952-1.494-6.861-5.15-7.028C213.774,288.426,212.011,288.071,208.816,284.93z"/>
<path fill="#12100B" d="M196.795,273.25c0,0,39.254-14.155,42.782-7.021c3.529,7.136,6.874,39.618,1.265,41.05
	c-5.611,1.434-4.542-6.455-4.859-10.462c-0.316-4.006-1.275-6.272-5.955,5.284c-4.888,2.336-5.395-2.436,0.096-11.975
	c5.489-9.537,7.27-20.213-4.354-19.034C214.145,272.27,202.886,276.281,196.795,273.25z"/>
<path fill="#12100B" d="M149.163,289.351c0,0,1.185-7.36,6.488-12.202c5.302-4.839,6.037-10.361,7.554-12.561
	c1.517-2.2,13.918-11.114,16.539-11.061c2.622,0.054,2.846,2.897,0.788,3.189c-2.059,0.292-10.82,6.276-12.355,8.239
	c-1.536,1.963-4.026,5.022-4.757,7.289c-0.731,2.269-3.422,6.643-5.322,7.833c-1.899,1.19-2.953,7.614-4.54,8.927
	C151.971,290.316,150.696,290.645,149.163,289.351z"/>
<path fill="#12100B" d="M160.138,285.033c0,0,7.022-21.407,24.444-26.425c3.123,0.014,6.193,2.371,1.447,4.178
	c-4.746,1.806-12.076,6.156-14.632,10c-2.56,3.844-5.76,9.428-6.919,11.212C163.317,285.778,163.203,288.766,160.138,285.033z"/>
<path fill="#12100B" d="M167.117,284.481c0,0,12.151-18.17,21.782-18.541c3.814,0.089,4.25,2.312-0.552,4.098
	c-4.801,1.788-13.974,9.146-14.825,11.554c-0.85,2.409-2.308,5.352-3.807,6.136C168.216,288.512,164.76,287.731,167.117,284.481z"/>
<path fill="none" stroke="#484442" stroke-miterlimit="10" d="M93.813,323.001c0,0-13.27,11.476-12.123,16.12
	c1.147,4.646,9.953,2.514,10.954-4.585C93.644,327.437,91.245,326.715,93.813,323.001z"/>
<path fill="none" stroke="#484442" stroke-miterlimit="10" d="M102.419,324.923c0,0-6.371,6.609-5.123,9.245
	c1.249,2.635,3.156,2.088,4.911-0.388C103.964,331.304,101.984,330.941,102.419,324.923z"/>
<path fill="#12100B" stroke="#2D2A27" stroke-miterlimit="10" d="M38.294,254.032c0,0,24.184-39.627,72.317-42.777
	c48.134-3.15,69.555,33.786,67.969,37.813c-1.585,4.027-8.351,7.292-12.338-2.018c-3.987-9.309-6.712-9.225-12.225-11.52
	c-5.513-2.296-9.844,0.518-12.014-0.612c-2.17-1.129-10.746-12.547-36.909-7.88c-26.164,4.667-39.954,21.103-42.514,23.256
	c-2.561,2.152-8.776,2.514-12.416,2.541C46.526,252.862,29.654,265.074,38.294,254.032z"/>
<path fill="#383432" stroke="#2D2A27" stroke-miterlimit="10" d="M66.206,253.389c0,0,15.038-13.804,20.932-14.919
	c5.896-1.116,8.032-1.618,9.393-2.729c1.361-1.111,13.574-9.49,29.644-0.354c7.822,3.543,11.016,4.463,17.262,4.49
	c6.244,0.026,14.363,2.376,19.392,10.043c5.691,6.184,5.829,11.246-4.776,8.701c-7.667-4.857-14.412-11.216-19.964-12.339
	c-5.551-1.123-18.241-2.072-21.666-4.272c-3.426-2.201-14.985,1.313-17.286,3.446c-2.303,2.131-14.752,7.537-24.056,10.353
	C75.08,255.809,56.482,263.651,66.206,253.389z"/>
<path fill="none" stroke="#3D3937" stroke-miterlimit="10" d="M122.759,258.02c0,0,10.293-12.382,17.913-8.128
	c7.62,4.255-1.79,9.507-5.154,10.12C132.154,260.623,120.346,267.006,122.759,258.02z"/>
<path fill="none" stroke="#3D3937" stroke-miterlimit="10" d="M124.615,272.75c0,0,12.731-12.178,28.673-7.9
	c15.943,4.277-6.127,14.531-9.654,13.768C140.105,277.858,115.716,280.822,124.615,272.75z"/>
<path fill="#383432" stroke="#1D1A17" stroke-miterlimit="10" d="M35.675,263.438c0,0-5.24,31.056,9.686,48.78
	c5.124,3.409,8.903,2.938,10.792,0.535c1.893-2.405,1.861-5.004-2.375-8.137c-4.236-3.134-8.19-8.544-7.824-13.082
	c0.364-4.538,0.671-9.417-3.2-12.319C43.427,274.567,41.576,251.129,35.675,263.438z"/>
<path fill="#12100B" stroke="#484442" stroke-miterlimit="10" d="M51.055,256.969c0,0-7.162,14.72-3.121,21.978
	c4.041,7.257,9.012,6.517,10.105,9.378c1.093,2.863-4.773,12.69-1.018,17.075c3.754,4.387,3.165,12.3,4.904,14.559
	c1.739,2.258,7.024,5.497,10.288,0.724c3.265-4.773,1.85-9.519-1.116-14.138c-2.966-4.622-5.987-9.933-3.377-14.214
	c2.609-4.281,4.814-9.312-0.494-15.049c-5.309-5.735-7.7-7.456-7.124-11.143C60.679,262.453,60.468,249.12,51.055,256.969z"/>
<ellipse transform="matrix(0.9969 -0.0787 0.0787 0.9969 -20.7541 7.1675)" fill="#12100B" cx="80.534" cy="266.824" rx="10.719" ry="9.298"/>
<path fill="#12100B" d="M73.097,282.454c0,0,0.011,12.221,18.319,1.412c18.31-10.808,21.393-26.659,7.235-31.35
	c-6.299-0.716-8.505-0.108-8.308,2.39c0.197,2.5,8.064,5.508,7.689,9.532c-0.376,4.024-6.224,15.607-13.704,15.319
	C76.849,279.471,72.444,277.477,73.097,282.454z"/>
<path fill="#383432" d="M72.872,292.791c0,0,13.332-0.26,23.492-6.662c10.16-6.4,16.905-17.598,14.707-25.662
	c-2.197-8.062-1.644-11.403,3.579-8.173c5.222,3.23,24.799,39.228-31.304,50.161C72.763,304.592,64.324,291.037,72.872,292.791z"/>
<path fill="#383432" d="M78.212,306.61c0,0-5.15,17.12,5.55,17.576C94.463,324.641,80.607,305.641,78.212,306.61z"/>
<path fill="#383432" d="M89.357,302.804c0,0,4.309,20.795,15.983,17.922C117.012,317.853,90.565,297.506,89.357,302.804z"/>
<path fill="#383432" d="M105.601,300.156c0,0,14.157,16.225,19.03,9.575c4.873-6.651-12.729-12.915-15.518-13.69
	C106.586,295.339,103.272,297.024,105.601,300.156z"/>
<path fill="#383432" d="M144.196,286.574c0,0-14.125-7.586-23.406-1.593c-9.282,5.995,9.368,9.919,11.59,10.069
	C134.603,295.201,151.846,293.886,144.196,286.574z"/>
<path fill="#12100B" d="M35.163,263.254c0,0-36.559,17.973-35.122,19.68c1.435,1.708,35.536,6.858,35.471,6.043
	C35.261,285.789,34.375,266.438,35.163,263.254z"/>
<path fill="#12100B" d="M36.366,292.428c0,0-32.799-6.565-34.819-5.799c-2.02,0.768,11.368,8.901,13.764,10.706
	c2.398,1.807,25.432,13.57,29.471,14.176C41.581,306.1,37.668,301.553,36.366,292.428z"/>
<path fill="#FFFFFF" stroke="#3D3937" stroke-miterlimit="10" d="M293.97,747.885c0,0,1.995-46.159-23.575-25.931
	c-10.529,17.63-5.242,23.337-4.774,28.005c-6.273-0.52-35.426,12.964-15.403,40.971c0,0-8.11,10.891,2.844,22.3
	c-5.123,5.187-13.315,31.12,36.938,34.752c3.059,2.59,0.719,12.963,33.785,8.812c1.948,7.264,55.018,75.201,96.421,9.854
	c6.139,3.631,14.438,3.113,21.699,5.187c7.261,2.074,11.409,17.634,48.232,9.854c23.337-15.557,29.175-27.485,24.7-37.858
	c14.197-3.112,14.197-2.591,18.865-7.261c10.89,2.073,33.538-15.041,32.068-48.753c2.161-12.966-0.822-29.561-13.334-32.672
	c-3.697-9.853-10.955-11.498-12.944-11.668c-2.162-8.213-9.249-30.342-38.206-22.734c-4.755,4.148-15.471,12.099-3.716,31.117
	c-4.496,2.768-5.879,5.878-5.534,8.646c-3.803,0.688-7.953,6.223-8.299,11.409c0,0-12.446-2.077-14.521,5.876
	c-7.952,0.347-7.608,1.384-8.297,3.805c0,0-42.527-4.148-49.441,4.841c0,0-32.849-8.989-44.95,6.915
	c-9.681-13.832-19.36-20.4-40.452-12.794c-4.149-14.175-10.026-34.23-29.389-23.51C298.072,750.132,300.933,747.365,293.97,747.885z
	"/>
<path fill="#FFFFFF" stroke="#3D3937" stroke-miterlimit="10" d="M264.156,733.19c0,0-11.857,7.672-8.679,20.26"/>
<g>
	<path fill="#2D2A27" d="M272.487,764.654c-1.358,1.884-2.596,3.851-3.679,5.884c-0.534,1.019-1.028,2.06-1.429,3.128
		c-0.197,0.534-0.388,1.07-0.533,1.615c-0.152,0.542-0.286,1.088-0.362,1.635c-0.089,0.544-0.132,1.094-0.1,1.625
		c0.007,0.268,0.027,0.531,0.088,0.784c0.033,0.261,0.104,0.506,0.2,0.74c0.158,0.482,0.435,0.901,0.761,1.27
		c0.336,0.361,0.739,0.664,1.191,0.907c0.206,0.147,0.475,0.211,0.71,0.318c0.236,0.11,0.492,0.186,0.756,0.244
		c0.51,0.157,1.055,0.227,1.598,0.303c0.541,0.078,1.106,0.071,1.657,0.112l1.683-0.034l2.251-0.046l-1.707,1.53
		c-0.986,0.885-1.938,2.025-2.603,3.236c-0.675,1.222-1.129,2.54-1.316,3.893c-0.088,1.354-0.066,2.737,0.394,4.048l0.303,0.988
		l0.464,0.941l0.463,0.94l0.605,0.877c0.733,1.214,1.79,2.226,2.739,3.301l1.615,1.466l0.782,0.707l0.895,0.68l1.79,1.359
		c0.604,0.422,1.219,0.793,1.828,1.192c1.19,0.822,2.518,1.478,3.793,2.205c0.64,0.361,1.326,0.635,1.986,0.956
		c0.669,0.305,1.324,0.645,2.02,0.889l2.061,0.797c0.69,0.256,1.401,0.458,2.1,0.693c1.393,0.494,2.842,0.799,4.27,1.181
		c1.45,0.285,2.896,0.61,4.366,0.808c1.462,0.254,2.942,0.372,4.421,0.511l2.226,0.139l2.232,0.052
		c2.979,0.01,5.965-0.209,8.925-0.702c-1.449,0.38-2.918,0.729-4.409,0.94c-1.488,0.231-2.989,0.383-4.494,0.49l-2.263,0.111
		l-2.268,0.007c-1.509-0.062-3.026-0.105-4.531-0.285c-1.514-0.115-3.006-0.393-4.506-0.633c-1.48-0.336-2.983-0.596-4.437-1.049
		c-0.73-0.215-1.471-0.396-2.19-0.648l-2.15-0.776c-0.726-0.237-1.413-0.572-2.114-0.872c-0.693-0.318-1.411-0.588-2.085-0.947
		c-1.349-0.721-2.726-1.372-4.01-2.25c-0.647-0.418-1.317-0.821-1.944-1.253l-1.8-1.347l-0.9-0.673
		c-0.353-0.292-0.594-0.523-0.896-0.789l-1.724-1.544c-1.032-1.165-2.144-2.261-2.967-3.624l-0.66-0.981l-0.526-1.077l-0.517-1.082
		l-0.352-1.161c-0.516-1.535-0.564-3.218-0.394-4.832c0.255-1.617,0.833-3.154,1.64-4.537c0.828-1.388,1.825-2.583,3.109-3.651
		l0.544,1.484l-1.799-0.03c-0.604-0.065-1.206-0.083-1.81-0.191c-0.604-0.106-1.207-0.208-1.804-0.413
		c-0.3-0.081-0.597-0.181-0.886-0.324c-0.288-0.142-0.59-0.232-0.858-0.427c-0.559-0.326-1.081-0.747-1.504-1.262
		c-0.417-0.518-0.753-1.113-0.928-1.743c-0.105-0.312-0.177-0.628-0.204-0.947c-0.056-0.318-0.064-0.634-0.057-0.947
		c-0.003-0.628,0.079-1.242,0.207-1.835c0.116-0.598,0.286-1.177,0.493-1.736c0.195-0.565,0.434-1.109,0.678-1.647
		c0.494-1.075,1.074-2.099,1.69-3.094C269.538,768.261,270.936,766.387,272.487,764.654z"/>
</g>
<g>
	<path fill="#3D3937" d="M288.273,829.653c0,0-0.197,0.877-0.259,2.43c-0.068,1.548,0.064,3.789,0.828,6.315
		c0.37,1.264,0.963,2.57,1.737,3.854c0.766,1.291,1.774,2.524,2.949,3.659c0.565,0.593,1.233,1.093,1.881,1.631
		c0.695,0.477,1.371,1.003,2.127,1.419c0.743,0.439,1.498,0.868,2.299,1.222c0.777,0.4,1.6,0.713,2.419,1.029
		c1.634,0.646,3.323,1.166,5.01,1.585c0.835,0.242,1.688,0.385,2.523,0.56c0.419,0.085,0.834,0.169,1.247,0.253
		c0.417,0.061,0.831,0.122,1.241,0.184c1.64,0.264,3.237,0.442,4.754,0.603c1.517,0.169,2.961,0.215,4.292,0.319
		c1.333,0.047,2.557,0.09,3.64,0.129c1.085,0.059,2.032,0.017,2.811,0.029c1.562,0.014,2.454,0.021,2.454,0.021
		s-0.89,0.063-2.448,0.175c-0.78,0.036-1.727,0.138-2.815,0.147c-1.088,0.024-2.317,0.073-3.659,0.062
		c-1.34-0.053-2.797-0.043-4.332-0.154c-0.768-0.056-1.558-0.113-2.364-0.172c-0.808-0.051-1.624-0.202-2.459-0.302
		c-0.418-0.056-0.838-0.113-1.261-0.17c-0.42-0.079-0.844-0.159-1.27-0.24c-0.851-0.166-1.72-0.301-2.576-0.537
		c-1.724-0.406-3.46-0.912-5.148-1.56c-0.84-0.336-1.68-0.669-2.48-1.092c-0.821-0.376-1.599-0.83-2.363-1.295
		c-0.776-0.441-1.476-0.998-2.19-1.503c-0.669-0.568-1.357-1.1-1.941-1.727c-1.227-1.19-2.22-2.536-2.968-3.91
		c-0.755-1.368-1.316-2.746-1.648-4.064c-0.699-2.638-0.631-4.93-0.482-6.482C287.99,830.506,288.273,829.653,288.273,829.653z"/>
</g>
<g>
	<path fill="#2D2A27" d="M323.784,822.394c0,0,0.474,0.242,1.307,0.635c0.832,0.396,2.024,0.938,3.466,1.519
		c1.446,0.571,3.142,1.19,4.989,1.644c0.918,0.251,1.884,0.39,2.852,0.532c0.972,0.117,1.959,0.157,2.929,0.087
		c0.963-0.078,1.93-0.202,2.812-0.527c0.458-0.121,0.865-0.349,1.299-0.511c0.404-0.218,0.814-0.426,1.186-0.68
		c0.736-0.521,1.429-1.079,2.001-1.709c0.592-0.612,1.069-1.278,1.526-1.89c0.388-0.654,0.812-1.228,1.086-1.798
		c0.288-0.56,0.583-1.037,0.757-1.46c0.388-0.832,0.63-1.311,0.63-1.311s-0.079,0.521-0.254,1.439
		c-0.073,0.464-0.238,1.006-0.43,1.633c-0.162,0.638-0.475,1.314-0.793,2.066c-0.375,0.725-0.782,1.526-1.378,2.278
		c-0.561,0.773-1.272,1.521-2.114,2.178c-0.851,0.636-1.81,1.234-2.884,1.588c-1.057,0.408-2.191,0.589-3.314,0.696
		c-2.259,0.114-4.469-0.27-6.4-0.926c-0.977-0.298-1.876-0.698-2.717-1.083c-0.838-0.394-1.607-0.807-2.293-1.224
		c-1.383-0.815-2.449-1.621-3.17-2.209C324.159,822.772,323.784,822.394,323.784,822.394z"/>
</g>
<path fill="none" stroke="#3D3937" stroke-miterlimit="10" d="M326.078,780.557c0,0,11.756,6.914,4.149,20.055"/>
<g>
	<path fill="#3D3937" d="M402.491,784.691c0,0,0.499,0.28,1.29,0.892c0.784,0.617,1.897,1.531,3.033,2.832
		c1.129,1.296,2.358,2.927,3.3,4.891c0.488,0.973,0.879,2.033,1.215,3.128c0.287,1.108,0.554,2.247,0.649,3.41
		c0.126,1.16,0.101,2.328,0.038,3.47c-0.061,0.568-0.122,1.134-0.208,1.687c-0.113,0.548-0.208,1.093-0.332,1.621
		c-0.146,0.521-0.289,1.035-0.429,1.538c-0.179,0.488-0.354,0.967-0.524,1.433c-0.387,0.909-0.735,1.778-1.151,2.532
		c-0.385,0.77-0.772,1.455-1.16,2.036c-0.368,0.592-0.691,1.104-0.993,1.503c-0.589,0.804-0.925,1.264-0.925,1.264
		s0.276-0.497,0.76-1.367c0.258-0.424,0.528-0.963,0.833-1.582c0.322-0.609,0.634-1.32,0.976-2.093
		c0.363-0.763,0.651-1.634,0.974-2.54c0.138-0.461,0.28-0.935,0.424-1.418c0.117-0.49,0.236-0.991,0.357-1.5
		c0.103-0.512,0.178-1.038,0.271-1.566c0.055-0.532,0.11-1.072,0.166-1.615c0.048-1.091,0.061-2.202-0.069-3.303
		c-0.078-1.106-0.323-2.19-0.583-3.248c-0.317-1.043-0.637-2.073-1.082-3.018c-0.846-1.907-1.897-3.578-2.936-4.904
		c-1.04-1.326-2.001-2.368-2.727-3.042C402.939,785.043,402.491,784.691,402.491,784.691z"/>
</g>
<g>
	<path fill="#12100B" d="M335.759,827.843c0.188,2.482,0.694,4.928,1.388,7.302c0.359,1.184,0.764,2.354,1.262,3.482
		c0.481,1.136,1.062,2.223,1.695,3.273c0.666,1.029,1.376,2.03,2.21,2.919c0.413,0.448,0.826,0.894,1.298,1.277l0.683,0.6
		l0.74,0.525c0.479,0.372,1.006,0.666,1.537,0.951c0.511,0.322,1.075,0.541,1.629,0.776c0.542,0.264,1.129,0.413,1.706,0.585
		c0.57,0.197,1.166,0.298,1.762,0.396l0.89,0.158l0.905,0.063c0.604,0.026,1.204,0.117,1.812,0.065l1.818-0.065l1.81-0.236
		c0.605-0.056,1.201-0.199,1.796-0.33c0.595-0.137,1.195-0.246,1.785-0.402c1.166-0.376,2.358-0.65,3.5-1.107
		c1.143-0.447,2.31-0.823,3.419-1.36c1.116-0.517,2.257-0.97,3.339-1.564c1.085-0.582,2.204-1.096,3.272-1.714l3.213-1.831
		l0.793-0.452l0.436,0.834c1.167,2.234,2.839,4.381,4.628,6.288l1.387,1.412c0.482,0.45,0.997,0.866,1.493,1.302
		c0.968,0.902,2.073,1.635,3.144,2.408c2.179,1.491,4.499,2.785,6.937,3.819c0.61,0.255,1.186,0.594,1.825,0.779l1.884,0.633
		l1.883,0.636c0.625,0.221,1.289,0.312,1.932,0.475c1.297,0.281,2.584,0.608,3.888,0.857l3.957,0.513
		c0.662,0.066,1.315,0.214,1.984,0.215l1.999,0.062l4,0.126l4.003-0.241l2.002-0.122c0.668-0.038,1.336-0.066,1.997-0.188
		c2.639-0.417,5.329-0.737,7.928-1.23c2.673-0.55,5.237-1.186,7.75-2.04l1.884-0.658c0.628-0.219,1.224-0.511,1.84-0.757
		c1.244-0.477,2.402-1.113,3.579-1.719c2.288-1.31,4.457-2.845,6.255-4.751c1.797-1.896,3.185-4.186,3.869-6.696
		c0.695-2.504,0.68-5.193,0.014-7.728c-0.644-2.546-1.984-4.908-3.737-6.888c-1.746-1.996-4.047-3.506-6.579-4.33
		c-2.539-0.806-5.365-0.713-7.879,0.305c2.45-1.133,5.337-1.427,7.987-0.678c2.639,0.747,5.083,2.221,6.979,4.228
		c1.903,1.99,3.409,4.411,4.195,7.092c0.772,2.678,0.862,5.576,0.171,8.306c-0.677,2.736-2.127,5.248-4,7.318
		c-1.874,2.083-4.128,3.755-6.496,5.184c-1.212,0.662-2.415,1.355-3.689,1.88c-0.632,0.273-1.251,0.588-1.899,0.816l-1.942,0.695
		c-2.602,0.908-5.295,1.593-7.917,2.151c-2.71,0.538-5.398,0.876-8.1,1.322c-0.671,0.129-1.355,0.164-2.038,0.21l-2.047,0.141
		l-4.096,0.276l-4.113-0.097l-2.057-0.049c-0.687,0.002-1.366-0.142-2.049-0.206l-4.095-0.499c-1.355-0.238-2.689-0.604-4.033-0.902
		c-0.666-0.174-1.351-0.276-2.002-0.51l-1.957-0.676l-1.957-0.676c-0.662-0.199-1.264-0.556-1.898-0.826
		c-2.534-1.1-4.952-2.471-7.221-4.05c-1.116-0.818-2.264-1.596-3.274-2.548c-0.518-0.46-1.051-0.902-1.553-1.378l-1.446-1.494
		c-1.88-2.053-3.571-4.212-4.892-6.79l1.228,0.382l-3.285,1.839c-1.088,0.626-2.243,1.136-3.366,1.698
		c-1.115,0.579-2.301,1.02-3.454,1.521c-1.145,0.521-2.361,0.886-3.545,1.317c-1.182,0.439-2.43,0.7-3.64,1.058
		c-0.615,0.148-1.243,0.25-1.864,0.376c-0.622,0.121-1.242,0.255-1.878,0.301l-1.896,0.201l-1.913,0.026
		c-0.637,0.037-1.275-0.069-1.912-0.113l-0.954-0.091l-0.943-0.189c-0.63-0.119-1.258-0.241-1.863-0.465
		c-0.611-0.196-1.229-0.372-1.804-0.665c-0.585-0.264-1.178-0.512-1.715-0.868c-0.554-0.325-1.1-0.659-1.593-1.071l-0.76-0.585
		l-0.695-0.657c-0.48-0.423-0.896-0.905-1.308-1.389c-0.834-0.959-1.529-2.023-2.173-3.107c-0.611-1.104-1.161-2.237-1.607-3.411
		c-0.463-1.167-0.828-2.368-1.146-3.577C336.186,832.816,335.827,830.331,335.759,827.843z"/>
</g>
<g>
	<path fill="#12100B" d="M408.213,790.792c0,0,2.141,0.929,5.438,1.839c0.815,0.251,1.73,0.421,2.668,0.676
		c0.962,0.173,1.957,0.423,3.008,0.57c0.522,0.084,1.054,0.169,1.592,0.256c0.542,0.059,1.089,0.118,1.642,0.178
		c1.099,0.164,2.23,0.179,3.355,0.248c1.124,0.087,2.254,0.03,3.365,0.054c1.111-0.051,2.205-0.102,3.263-0.15
		c1.056-0.09,2.075-0.226,3.048-0.315c0.489-0.039,0.959-0.107,1.411-0.194c0.455-0.074,0.895-0.146,1.317-0.215
		c0.84-0.158,1.637-0.22,2.311-0.4c0.686-0.146,1.285-0.275,1.777-0.381c0.993-0.199,1.572-0.298,1.572-0.298
		s-0.519,0.256-1.447,0.676c-0.468,0.205-1.037,0.453-1.688,0.737c-0.648,0.308-1.423,0.513-2.258,0.782
		c-0.841,0.242-1.738,0.6-2.733,0.763c-0.987,0.194-2.026,0.454-3.119,0.597c-1.096,0.103-2.228,0.286-3.388,0.33
		c-1.159,0-2.34,0.083-3.518,0.013c-1.176-0.096-2.356-0.137-3.503-0.33c-0.575-0.077-1.145-0.162-1.705-0.261
		c-0.555-0.123-1.103-0.246-1.643-0.366c-1.086-0.203-2.092-0.584-3.061-0.86c-0.95-0.347-1.852-0.654-2.65-1.031
		c-0.811-0.34-1.531-0.705-2.157-1.047c-0.634-0.325-1.158-0.668-1.592-0.935C408.659,791.168,408.213,790.792,408.213,790.792z"/>
</g>
<g>
	<path fill="#12100B" d="M487.198,779.174c1.973-1.589,4.117-2.968,6.34-4.213c1.113-0.621,2.259-1.184,3.419-1.724
		c1.164-0.532,2.352-1.02,3.565-1.448l1.838-0.598c0.619-0.184,1.247-0.339,1.872-0.51c1.261-0.3,2.54-0.551,3.84-0.696
		c1.3-0.14,2.614-0.217,3.935-0.176c0.661-0.018,1.32,0.083,1.982,0.134c0.664,0.037,1.318,0.179,1.975,0.299
		c0.662,0.102,1.305,0.289,1.946,0.489l0.964,0.29l0.934,0.38c1.26,0.478,2.439,1.148,3.58,1.855l1.654,1.159l1.516,1.325
		c0.523,0.428,0.922,0.966,1.388,1.445c0.457,0.488,0.905,0.983,1.283,1.528l1.189,1.597l1.034,1.686
		c0.735,1.104,1.231,2.315,1.843,3.477c0.551,1.185,0.98,2.414,1.474,3.619l1.179,3.702l0.143,0.447l-0.174,0.461
		c-0.412,1.089-0.831,2.178-1.305,3.263c-0.233,0.543-0.48,1.085-0.75,1.626c-0.274,0.537-0.56,1.074-0.897,1.605
		c-0.329,0.531-0.688,1.062-1.134,1.568c-0.207,0.258-0.457,0.501-0.713,0.739c-0.252,0.237-0.55,0.454-0.844,0.657
		c-0.31,0.194-0.625,0.377-0.962,0.513c-0.329,0.155-0.671,0.247-1.002,0.344c-0.671,0.175-1.301,0.24-1.913,0.301l0.71-2.283
		c0.711,0.627,1.159,1.393,1.468,2.149c0.312,0.765,0.457,1.539,0.532,2.301c0.088,0.764,0.047,1.515-0.013,2.257
		c-0.088,0.737-0.217,1.466-0.423,2.172c-0.195,0.708-0.449,1.397-0.762,2.059c-0.3,0.666-0.672,1.299-1.084,1.899
		c-0.415,0.601-0.885,1.159-1.387,1.685c-0.257,0.257-0.53,0.498-0.794,0.746l-0.853,0.672l-0.905,0.595
		c-0.312,0.181-0.634,0.342-0.949,0.512c-0.648,0.308-1.314,0.567-1.997,0.762c-0.336,0.118-0.685,0.181-1.029,0.258
		c-0.343,0.083-0.688,0.149-1.038,0.186c-0.693,0.113-1.391,0.138-2.084,0.169c-0.693-0.019-1.387-0.012-2.069-0.108l-1.023-0.118
		l-1.009-0.185c-0.676-0.1-1.327-0.322-1.985-0.482c-0.652-0.188-1.291-0.42-1.933-0.627c0.667,0.119,1.326,0.26,1.991,0.358
		c0.67,0.071,1.33,0.19,1.999,0.22l0.998,0.069l0.997,0.003c0.663,0.023,1.321-0.072,1.974-0.112
		c0.65-0.091,1.298-0.173,1.927-0.339c0.319-0.062,0.629-0.153,0.935-0.258c0.307-0.1,0.617-0.185,0.909-0.32
		c0.6-0.227,1.163-0.527,1.716-0.832l0.797-0.509l0.748-0.573l0.692-0.633l0.633-0.689c0.395-0.482,0.76-0.985,1.075-1.521
		c0.308-0.539,0.591-1.09,0.817-1.666c0.235-0.571,0.417-1.164,0.549-1.765c0.142-0.598,0.213-1.207,0.255-1.811
		c0.013-0.603,0.018-1.208-0.084-1.782c-0.156-1.148-0.634-2.226-1.267-2.756l-2.264-1.894l2.975-0.39
		c0.524-0.069,1.035-0.144,1.47-0.275c0.213-0.073,0.429-0.133,0.612-0.233c0.195-0.083,0.369-0.198,0.542-0.311
		c0.168-0.13,0.337-0.253,0.494-0.415c0.157-0.158,0.316-0.316,0.461-0.513c0.301-0.362,0.576-0.791,0.834-1.242
		c0.263-0.444,0.501-0.928,0.731-1.417c0.237-0.487,0.46-0.989,0.674-1.501c0.433-1.019,0.826-2.072,1.213-3.129l-0.032,0.907
		l-1.156-3.502c-0.474-1.125-0.902-2.275-1.407-3.381c-0.558-1.074-1.006-2.221-1.667-3.227l-0.927-1.553l-1.06-1.449
		c-0.334-0.5-0.731-0.942-1.133-1.38c-0.41-0.427-0.76-0.923-1.218-1.297l-1.301-1.204l-1.415-1.058
		c-0.979-0.647-1.986-1.271-3.077-1.72l-0.807-0.362l-0.841-0.279c-0.558-0.197-1.121-0.378-1.706-0.491
		c-0.578-0.137-1.153-0.298-1.75-0.359c-0.593-0.075-1.181-0.203-1.785-0.215c-1.199-0.102-2.413-0.094-3.627-0.028
		c-1.215,0.083-2.431,0.224-3.645,0.42c-0.604,0.119-1.211,0.223-1.814,0.354l-1.802,0.444c-1.192,0.338-2.384,0.694-3.561,1.106
		c-1.175,0.417-2.343,0.867-3.491,1.368c-1.159,0.478-2.293,1.018-3.42,1.578C489.397,777.933,488.28,778.52,487.198,779.174z"/>
</g>
<g>
	<path fill="#2D2A27" d="M491,772.607c1.083-1.633,2.372-3.129,3.77-4.517c0.347-0.351,0.7-0.696,1.075-1.018
		c0.372-0.325,0.727-0.672,1.124-0.97c0.391-0.305,0.771-0.627,1.174-0.918l1.236-0.843c0.42-0.269,0.869-0.496,1.303-0.746
		c0.429-0.262,0.894-0.456,1.357-0.659c0.464-0.198,0.915-0.429,1.409-0.56c0.485-0.149,0.967-0.315,1.458-0.45l1.514-0.264
		c0.503-0.12,1.024-0.071,1.538-0.106c0.516-0.02,1.034-0.048,1.546,0.044l1.543,0.19l-0.476,0.038
		c1.431-0.54,2.778-0.701,4.154-0.854c1.37-0.14,2.736-0.163,4.103-0.161c1.365,0.033,2.732,0.099,4.088,0.276
		c0.679,0.078,1.357,0.169,2.03,0.294c0.677,0.103,1.347,0.244,2.016,0.396c1.34,0.291,2.662,0.676,3.964,1.128
		c1.301,0.457,2.564,1.027,3.796,1.664c0.613,0.323,1.201,0.699,1.801,1.048c0.579,0.387,1.141,0.803,1.71,1.204
		c0.531,0.455,1.07,0.901,1.589,1.369c0.483,0.509,0.981,1.005,1.436,1.537c0.42,0.562,0.875,1.1,1.261,1.684
		c0.356,0.604,0.751,1.187,1.07,1.809c0.29,0.637,0.608,1.262,0.868,1.908l0.66,1.983l0.43,2.035c0.13,0.68,0.161,1.371,0.244,2.054
		c0.099,0.684,0.075,1.371,0.083,2.056c0.002,0.685,0.025,1.37-0.063,2.048l-0.188,2.033c-0.099,0.672-0.23,1.338-0.344,2.005
		c-0.185,1.345-0.627,2.631-0.949,3.937c-0.372,1.294-0.85,2.554-1.268,3.826c-0.491,1.249-1.037,2.476-1.554,3.707l1.165-3.834
		c0.31-1.297,0.679-2.577,0.94-3.878c0.218-1.31,0.52-2.602,0.629-3.918c0.071-0.655,0.161-1.309,0.218-1.963l0.064-1.967
		c0.049-0.655-0.021-1.306-0.045-1.957c-0.036-0.649-0.039-1.303-0.162-1.94c-0.107-0.638-0.161-1.286-0.31-1.913l-0.478-1.869
		l-0.665-1.799c-0.254-0.585-0.561-1.144-0.836-1.718c-0.304-0.558-0.679-1.074-1.012-1.613c-0.363-0.52-0.791-0.993-1.18-1.493
		c-0.423-0.473-0.894-0.901-1.33-1.362l-1.457-1.233c-0.527-0.361-1.043-0.737-1.577-1.089c-0.559-0.314-1.1-0.657-1.67-0.952
		c-1.146-0.583-2.33-1.095-3.549-1.527c-1.218-0.435-2.462-0.809-3.731-1.096c-0.633-0.149-1.268-0.29-1.912-0.393
		c-0.64-0.125-1.285-0.217-1.933-0.297c-1.294-0.172-2.597-0.27-3.901-0.337c-1.304-0.035-2.612-0.046-3.906,0.053
		c-1.276,0.101-2.608,0.263-3.702,0.616l-0.239,0.077l-0.237-0.039l-1.358-0.222c-0.451-0.106-0.913-0.097-1.374-0.098
		c-0.46,0.015-0.926-0.059-1.384,0.035l-1.383,0.18l-1.363,0.337c-0.462,0.092-0.896,0.285-1.34,0.444
		c-0.444,0.164-0.892,0.319-1.313,0.544c-0.425,0.214-0.864,0.402-1.28,0.636l-1.245,0.72c-0.411,0.248-0.802,0.529-1.206,0.793
		c-0.409,0.257-0.781,0.565-1.169,0.854c-0.391,0.284-0.764,0.594-1.132,0.909c-0.749,0.616-1.459,1.281-2.147,1.969
		C492.304,771.151,491.626,771.855,491,772.607z"/>
</g>
<path fill="none" stroke="#3D3937" stroke-miterlimit="10" d="M534.543,833.803c23.145-15.903,9.516-40.602,9.516-40.602
	s17.359,4.143,21.74-4.601"/>
<path fill="none" stroke="#3D3937" stroke-miterlimit="10" d="M460.921,781.595c0,0,11.062,6.255,11.062,14.019"/>
<path fill="none" stroke="#3D3937" stroke-miterlimit="10" d="M530.677,761.722c0,0,0.561-13.318,21.76-6.577"/>
</svg>
