<?xml version="1.0" encoding="utf-8"?>
<!-- Generator: Adobe Illustrator 17.0.2, SVG Export Plug-In . SVG Version: 6.00 Build 0)  -->
<!DOCTYPE svg PUBLIC "-//W3C//DTD SVG 1.1//EN" "http://www.w3.org/Graphics/SVG/1.1/DTD/svg11.dtd">
<svg version="1.1" id="Calque_1" xmlns="http://www.w3.org/2000/svg" xmlns:xlink="http://www.w3.org/1999/xlink" x="0px" y="0px"
	 width="111.212px" height="118.127px" viewBox="1074.948 249.934 111.212 118.127"
	 enable-background="new 1074.948 249.934 111.212 118.127" xml:space="preserve">
<path fill="#464646" d="M1113.893,361.536c0,2.588-2.098,4.685-4.685,4.685h-29.575c-2.588,0-4.685-2.098-4.685-4.685l0,0
	c0-2.588,2.098-4.685,4.685-4.685h29.575C1111.795,356.851,1113.893,358.949,1113.893,361.536L1113.893,361.536z"/>
<circle fill="#FFFFFF" cx="1094.42" cy="361.536" r="1.901"/>
<g>
	<g>
		<path fill="#76746B" d="M1110.189,343.262c-1.78-1.158,1.317-5.53-0.966-7.032c-0.705-0.464-1.507-0.541-2.23-0.205
			c-5.752,8.346-11.728,16.541-18.024,24.497c-1.292,1.603-0.819,3.968,1.081,5.301c0.672,0.475,1.348,0.948,2.022,1.423
			c1.902,1.336,4.294,0.994,5.346-0.768c5.052-8.278,10.255-16.098,15.647-24.182
			C1111.836,343.23,1110.961,343.765,1110.189,343.262z M1094.385,363.451c-1.024,0-1.855-0.831-1.855-1.855
			c0-1.024,0.831-1.855,1.855-1.855c1.024,0,1.855,0.83,1.855,1.855S1095.41,363.451,1094.385,363.451z"/>
		<path fill="#464646" d="M1162.573,305.053c-0.433-3.201,4.638-4.11,4.239-5.601c-0.406-1.516-5.081,0.147-6.468-2.736
			c-1.387-2.884,3.411-5.169,2.634-6.511c-0.782-1.352-5.189,1.397-6.957-0.963c-1.769-2.36,1.963-5.87,0.864-6.971
			c-0.746-0.746-1.493,0.267-3.347,0.741c-2.221,3.248-4.803,7.165-6.958,10.455c4.084,4.115,5.964,9.652,5.964,15.907
			c0,12.573-10.192,22.764-22.764,22.764c-12.573,0-22.765-10.192-22.765-22.764c0-12.572,10.192-22.764,22.765-22.764
			c3.271,0,5.979,0.524,8.791,1.766c2.645-3.737,4.262-6.04,6.81-9.841c-1.322,0.917-1.919,0.608-2.941,0.274
			c-2.861-0.959-1.221-6.064-2.738-6.469c-1.492-0.398-2.464,4.694-5.6,4.24s-2.742-5.537-4.321-5.537
			c-1.58,0-1.081,5.141-4.322,5.537s-4.108-4.639-5.6-4.24c-1.516,0.405,0.071,5.351-2.738,6.469
			c-2.809,1.118-5.169-3.412-6.512-2.635c-1.352,0.783,1.398,4.995-0.962,6.958s-5.871-1.963-6.971-0.862
			c-1.101,1.101,2.454,4.733,0.863,6.97s-6.176-0.389-6.959,0.964c-0.777,1.343,3.526,3.715,2.635,6.511
			c-0.892,2.796-6.063,1.221-6.469,2.737c-0.398,1.491,4.308,2.504,4.239,5.601c-0.069,3.098-5.537,2.741-5.537,4.321
			c0,1.58,5.22,1.159,5.537,4.321c0.317,3.162-4.638,4.11-4.239,5.601c0.406,1.516,5.313-0.108,6.468,2.736s-3.41,5.168-2.634,6.511
			c0.782,1.352,5.033-1.357,6.957,0.963c1.924,2.32-1.963,5.87-0.863,6.971c0.813,0.813,2.829-1.108,4.861-1.381
			c0.719-0.097,1.44,0.008,2.111,0.52c2.566,1.957-0.391,6.175,0.961,6.958c0.72,0.417,1.77-0.657,2.999-1.59
			c1.066-0.808,2.267-1.511,3.513-1.044c2.684,1.006,1.221,6.064,2.738,6.469c1.492,0.398,2.807-4.732,5.6-4.24
			s2.742,5.537,4.322,5.537s1.347-5.179,4.321-5.537s4.108,4.639,5.6,4.24c1.516-0.405-0.265-5.35,2.737-6.469
			c3.002-1.119,5.167,3.412,6.51,2.635c1.353-0.782-1.475-5.033,0.964-6.958c2.439-1.925,5.869,1.963,6.97,0.862
			s-2.917-4.384-0.862-6.971c2.055-2.586,6.176,0.39,6.959-0.963c0.777-1.343-4.068-3.638-2.635-6.512
			c1.434-2.874,6.063-1.22,6.469-2.737c0.398-1.491-4.772-2.234-4.239-5.602c0.533-3.368,5.537-2.741,5.537-4.321
			C1168.11,307.795,1163.006,308.255,1162.573,305.053z"/>
		<g>
			<path fill="#464646" d="M1144.588,308.95c0-1.033-2.858-0.823-3.245-2.68c-0.387-1.858,2.198-2.921,1.763-3.822
				c-0.442-0.915-2.87,0.506-4.088-1.001c-1.218-1.507,0.72-3.578-0.069-4.209c-0.787-0.628-2.089,1.754-4.119,0.865
				s-0.891-3.534-1.889-3.761c-0.967-0.22-1.211,2.55-3.333,2.573c-2.122,0.022-2.366-2.792-3.333-2.573
				c-0.998,0.227,0.151,2.831-1.889,3.761c-2.04,0.931-3.332-1.494-4.119-0.866c-0.79,0.631,1.095,2.706-0.07,4.209
				c-1.165,1.503-3.647,0.086-4.089,1.001c-0.434,0.901,2.201,1.869,1.764,3.821c-0.438,1.953-3.245,1.647-3.245,2.68
				s2.86,0.908,3.245,2.68s-2.198,2.921-1.764,3.822c0.442,0.915,2.98-0.334,4.088,1.001c1.108,1.335-0.72,3.578,0.07,4.209
				c0.786,0.628,2.242-1.798,4.119-0.865s0.891,3.534,1.889,3.761c0.967,0.22,1.298-2.595,3.333-2.573
				c2.034,0.022,2.366,2.792,3.333,2.573c0.998-0.227,0.001-2.962,1.889-3.761c1.888-0.799,3.332,1.494,4.119,0.866
				c0.79-0.631-1.223-2.642,0.07-4.209c1.292-1.566,3.647-0.086,4.089-1.001c0.434-0.901-2.394-1.566-1.763-3.821
				C1141.974,309.375,1144.588,309.983,1144.588,308.95z M1129.608,311.757c-1.315,0-2.382-1.066-2.382-2.382
				c0-1.316,1.066-2.382,2.382-2.382c1.315,0,2.381,1.066,2.381,2.382C1131.989,310.69,1130.923,311.757,1129.608,311.757z"/>
		</g>
	</g>
	<path fill="#76746B" d="M1170.658,252.172c-0.672-0.474-1.347-0.948-2.022-1.423c-1.903-1.336-4.294-0.994-5.346,0.767
		c-5.29,8.67-10.736,17.267-16.404,25.722c-2.548,3.801-5.143,7.573-7.789,11.31c-4.602,6.502-9.357,12.898-14.304,19.15
		c-1.293,1.602-0.82,3.968,1.08,5.301c0.672,0.475,1.347,0.948,2.022,1.423c1.903,1.336,4.295,0.994,5.346-0.768
		c4.167-6.828,8.431-13.61,12.823-20.314c2.155-3.29,4.342-6.561,6.563-9.809c6.08-8.888,12.421-17.605,19.11-26.059
		C1173.031,255.871,1172.559,253.507,1170.658,252.172z M1129.608,311.757c-1.315,0-2.382-1.066-2.382-2.382
		c0-1.316,1.066-2.382,2.382-2.382c1.315,0,2.381,1.066,2.381,2.382C1131.989,310.69,1130.923,311.757,1129.608,311.757z
		 M1166.848,257.83c-1.024,0-1.855-0.831-1.855-1.855s0.831-1.855,1.855-1.855s1.855,0.83,1.855,1.855
		C1168.703,257,1167.872,257.83,1166.848,257.83z"/>
	<path fill="#464646" d="M1186.16,255.891c0,2.588-2.098,4.685-4.685,4.685H1151.9c-2.588,0-4.685-2.098-4.685-4.685l0,0
		c0-2.588,2.098-4.685,4.685-4.685h29.575C1184.063,251.205,1186.16,253.303,1186.16,255.891L1186.16,255.891z"/>
	<circle fill="#FFFFFF" cx="1166.687" cy="255.891" r="1.901"/>
</g>
</svg>
