<?xml version="1.0" encoding="utf-8"?>
<!-- Generator: Adobe Illustrator 17.0.0, SVG Export Plug-In . SVG Version: 6.00 Build 0)  -->
<!DOCTYPE svg PUBLIC "-//W3C//DTD SVG 1.1//EN" "http://www.w3.org/Graphics/SVG/1.1/DTD/svg11.dtd">
<svg version="1.1" id="Calque_1" xmlns="http://www.w3.org/2000/svg" xmlns:xlink="http://www.w3.org/1999/xlink" x="0px" y="0px"
	 width="205.669px" height="200.724px" viewBox="-331.723 0.008 205.669 200.724"
	 enable-background="new -331.723 0.008 205.669 200.724" xml:space="preserve">
<g>
	<path d="M-126.054,100.37c0-7.095-19.618-5.647-22.274-18.4c-2.657-12.752,15.091-20.053,12.105-26.235
		c-3.033-6.284-19.701,3.475-28.064-6.871c-8.36-10.346,4.947-24.561-0.477-28.892c-5.402-4.311-14.342,12.044-28.275,5.94
		c-13.935-6.104-6.116-24.263-12.971-25.819c-6.639-1.51-8.312,17.508-22.878,17.661c-14.566,0.153-16.24-19.169-22.879-17.661
		c-6.854,1.557,1.038,19.432-12.97,25.82c-14.008,6.39-22.875-10.252-28.272-5.941c-5.423,4.331,7.519,18.574-0.478,28.892
		s-25.033,0.588-28.067,6.872c-2.981,6.184,15.112,12.827,12.106,26.233c-3.006,13.408-22.275,11.307-22.275,18.401
		s19.632,6.235,22.275,18.396c2.643,12.166-15.091,20.055-12.106,26.238c3.034,6.283,20.458-2.291,28.063,6.868
		c7.607,9.163-4.945,24.562,0.481,28.894c5.397,4.312,15.394-12.344,28.272-5.941c12.88,6.408,6.116,24.266,12.97,25.821
		c6.639,1.508,8.912-17.812,22.879-17.661c13.965,0.15,16.239,19.169,22.878,17.661c6.854-1.558,0.007-20.337,12.97-25.821
		s22.875,10.254,28.272,5.941c5.423-4.332-8.394-18.139,0.478-28.894c8.871-10.748,25.035-0.585,28.067-6.87
		c2.981-6.183-16.437-10.753-12.106-26.236C-144,103.288-126.054,107.464-126.054,100.37z M-228.896,161.997
		c-34.134,0-61.806-27.67-61.806-61.804c0-34.135,27.672-61.806,61.806-61.806c34.135,0,61.806,27.67,61.806,61.806
		C-167.09,134.327-194.761,161.997-228.896,161.997z"/>
</g>
<circle fill="#FFFFFF" cx="-228.888" cy="29.705" r="1.717"/>
<circle fill="#FFFFFF" cx="-167.685" cy="65.034" r="1.717"/>
<circle fill="#FFFFFF" cx="-167.685" cy="135.705" r="1.717"/>
<circle fill="#FFFFFF" cx="-228.888" cy="171.041" r="1.717"/>
<circle fill="#FFFFFF" cx="-290.092" cy="135.705" r="1.717"/>
<circle fill="#FFFFFF" cx="-290.092" cy="65.034" r="1.717"/>
</svg>
