<?xml version="1.0" encoding="utf-8"?>
<!-- Generator: Adobe Illustrator 17.0.0, SVG Export Plug-In . SVG Version: 6.00 Build 0)  -->
<!DOCTYPE svg PUBLIC "-//W3C//DTD SVG 1.1//EN" "http://www.w3.org/Graphics/SVG/1.1/DTD/svg11.dtd">
<svg version="1.1" id="Calque_1" xmlns="http://www.w3.org/2000/svg" xmlns:xlink="http://www.w3.org/1999/xlink" x="0px" y="0px"
	 width="195.245px" height="238.78px" viewBox="-107.911 -219.479 195.245 238.78"
	 enable-background="new -107.911 -219.479 195.245 238.78" xml:space="preserve">
<g id="Goutte">
	<g>
		<path fill="#231F20" d="M-9.781-219.479c13.937,47.792,33.093,64.726,57.202,110.971c23.401,44.887-11.275,89.99-57.202,89.99
			c-45.932,0-80.608-45.103-57.206-89.99C-42.881-154.753-23.72-171.687-9.781-219.479z"/>
	</g>
</g>
<g>
	<path fill="#F0E2C7" d="M-33.927-112.554c-0.475-0.237-1.464-0.712-2.929-0.712c-4.512,0-7.679,3.641-7.679,8.352
		c0,6.966,6.214,10.093,12.587,10.173c0.158-12.825,6.61-28.816,16.07-28.816c4.235,0,6.254,3.285,6.254,7.679
		c0,8.272-7.164,20.582-20.068,22.166c0,6.966,1.464,12.824,6.571,13.26c-0.317-1.385-0.436-3.206-0.436-4.236
		c0-5.62,2.336-11.162,6.65-11.162c2.968,0,4.433,2.533,4.433,5.661c0,4.314-2.81,9.737-8.392,10.806
		c0.871,2.454,2.415,4.354,4.631,4.829c-0.237,0.554-0.435,1.188-0.672,1.742c-2.969-0.594-4.908-3.206-5.898-6.452
		c-6.293-0.317-8.985-6.096-9.104-14.29c-10.014,0-14.645-5.581-14.645-11.677c0-5.819,4.196-10.133,9.737-10.133
		c1.9,0,3.206,0.515,3.958,0.871L-33.927-112.554z M-29.652-94.979c11.796-1.702,17.852-13.735,17.852-21.256
		c0-3.602-1.346-6.135-4.076-6.135C-23.319-122.37-29.058-107.091-29.652-94.979z M-21.854-85.242c0,1.583,0.198,3.206,0.594,4.671
		c4.592-1.029,6.888-6.293,6.888-10.054c0-2.177-0.792-3.919-2.415-3.998C-20.073-94.623-21.854-90.269-21.854-85.242z"/>
	<path fill="#F0E2C7" d="M-2.104-97.988c0.198,0,0.673,0.198,0.673,0.396c-2.375,6.413-3.998,9.421-6.175,9.421
		c-1.82,0-2.335-2.454-2.335-6.373c0.079-2.85,0.515-6.412,1.227-10.37c1.702-9.54,4.077-14.922,6.096-14.922
		c1.227,0,1.544,1.267,1.544,2.889c0,5.66-3.444,13.577-6.65,18.326c-0.237,2.058-0.396,3.919-0.396,5.383
		c0,2.296,0.436,3.325,1.188,3.325C-5.588-89.912-4.044-92.921-2.104-97.988z M-2.54-118.333c-1.306,0-3.681,9.697-4.868,17.693
		c1.583-3.008,5.344-10.766,5.344-16.426C-2.065-117.659-2.065-118.333-2.54-118.333z"/>
	<path fill="#F0E2C7" d="M1.695-106.498c-1.267,6.057-2.493,11.677-2.493,14.923c0,1.187,0.316,1.623,0.712,1.623
		c1.227,0,2.692-2.889,4.631-8.035c0.198,0,0.712,0.198,0.712,0.396C3.199-92.129,1.814-88.25-0.72-88.25
		c-1.425,0-2.019-1.702-2.019-4.116c0-3.998,1.504-10.093,2.336-14.131h2.098V-106.498z M0.151-110.654
		c0-0.871,0.554-1.939,1.623-1.939c0.832,0,1.188,0.633,1.188,1.346c0,0.911-0.633,1.86-1.623,1.86
		C0.507-109.387,0.151-109.981,0.151-110.654z"/>
	<path fill="#F0E2C7" d="M10.205-98.462c0.989-1.623,1.504-3.444,1.504-4.75c0-1.267-0.435-2.138-1.267-2.138
		c-2.216,0-4.235,5.74-4.235,10.213c0,2.81,0.792,5.067,2.889,5.106c2.296-0.079,3.998-2.691,6.056-7.956
		c0.198,0,0.792,0.277,0.792,0.396l-0.396,0.911c-1.9,4.631-3.998,8.51-7.441,8.51c-2.732,0-3.84-2.889-3.84-6.452
		c0-5.344,2.613-12.113,6.294-12.113c1.86,0,2.691,1.702,2.691,3.84c0,1.702-0.515,3.681-1.424,5.344L10.205-98.462z"/>
	<path fill="#F0E2C7" d="M13.608-88.448l0.158-1.464c0.119-2.257,0.831-4.71,0.989-5.621c1.267-8.233,2.929-18.643,4.829-22.403
		c0.594-1.385,1.741-1.741,2.533-1.741c1.069,0,1.702,0.594,1.702,1.9c0,2.968-2.85,9.024-5.938,15.556l-0.515,2.415
		c1.663-3.958,3.444-6.927,5.423-6.927c1.187,0,1.702,0.792,1.702,1.94c0,2.573-2.691,7.283-5.541,8.787
		c1.267,1.82,1.306,5.937,2.454,5.937s3.127-3.365,4.868-7.917c0.237,0,0.713,0.396,0.713,0.436
		c-0.119,0.396-0.277,0.792-0.436,1.148c-1.623,4.116-3.523,8.154-5.621,8.154c-2.652,0-2.612-5.264-3.483-7.243
		c-0.158,0-0.317,0.039-0.475,0.039c-0.119,0-0.237-0.039-0.317-0.039l-1.029,7.045h-2.016V-88.448z M17.21-98.066l-0.198,1.029
		c0.356,0,0.713,0.04,1.029,0.237c2.098-1.267,4.631-5.66,4.631-7.481c0-0.475-0.158-0.792-0.554-0.831
		C20.97-105.112,19.308-102.618,17.21-98.066z M22.078-118.333c-1.227,0-2.533,6.214-3.8,13.418
		c1.188-2.81,3.998-9.381,4.196-12.508C22.474-118.055,22.356-118.333,22.078-118.333z"/>
	<path fill="#F0E2C7" d="M-33.65-40.951c0-0.04-0.04-0.119-0.04-0.198c0-0.752,0.237-2.494,0.554-3.919
		c1.424-8.035,3.206-20.741,5.304-25.174c0.672-1.464,1.82-1.939,2.731-1.939c1.029,0,1.623,0.633,1.623,1.9
		c0,3.998-3.364,10.766-5.897,15.912l-0.594,2.533c1.505-3.444,3.761-7.283,5.898-7.283c1.029,0,1.9,0.832,1.9,2.494
		c0,3.325-2.771,9.262-2.771,12.508c0,1.148,0.396,1.663,0.95,1.663c1.188,0,2.929-3.484,4.671-8.035
		c0.238,0,0.713,0.356,0.713,0.436l-0.515,1.346c-1.544,4.037-3.523,7.917-5.7,7.956c-1.306,0-2.256-1.029-2.256-3.008
		c0-3.681,2.81-9.896,2.81-12.429c0-0.95-0.277-1.306-0.713-1.306c-1.425,0-4.473,5.224-6.056,12.072
		c-0.198,1.465-0.396,2.969-0.633,4.473h-1.979V-40.951z M-25.219-70.836c-1.267,0-2.612,7.125-3.919,14.21
		c1.306-2.969,4.196-10.252,4.433-13.3C-24.705-70.559-24.903-70.836-25.219-70.836z"/>
	<path fill="#F0E2C7" d="M-8.833-50.491c0.198,0,0.713,0.277,0.713,0.396c-1.306,3.641-3.642,9.421-7.283,9.421
		c-3.048,0-4.236-2.929-4.236-6.452c0-5.383,2.771-12.152,6.571-12.152c1.504,0,2.256,1.029,2.256,2.454
		c0,3.127-3.602,6.689-6.61,7.244c-0.119,0.792-0.198,1.544-0.198,2.296c0,2.652,0.752,4.75,2.731,4.75
		C-12.316-42.535-10.219-46.81-8.833-50.491z M-17.304-50.609c3.325-1.544,4.829-4.315,4.829-6.175c0-0.95-0.277-1.425-0.792-1.425
		C-14.968-58.209-16.631-54.291-17.304-50.609z"/>
	<path fill="#F0E2C7" d="M-4.084-42.495c1.109,0,2.613-2.85,4.592-7.996c0.158,0,0.713,0.198,0.713,0.396
		c-2.098,5.462-3.444,9.341-5.977,9.341c-1.465,0-2.098-0.989-2.098-2.612c0-2.692,1.861-5.581,1.861-8.075
		c0-1.9-0.832-3.127-1.385-4.433c-0.515,2.058-1.148,4.156-1.742,5.779c0,0-0.712-0.119-0.712-0.396
		c0.712-2.058,1.346-4.552,1.781-6.927c-0.277-0.594-0.396-1.385-0.396-2.415c0-1.425,0.277-3.048,0.712-4.671l1.861,0.515
		c-0.04,2.098-0.356,3.8-0.713,5.541l-0.237,0.792c0.989,1.544,2.81,3.206,2.81,5.858c0,2.929-1.86,6.135-1.86,8.193
		C-4.875-42.851-4.559-42.495-4.084-42.495z"/>
	<path fill="#F0E2C7" d="M10.996-50.491c0.198,0,0.713,0.277,0.713,0.396c-1.306,3.641-3.642,9.421-7.283,9.421
		c-3.048,0-4.235-2.929-4.235-6.452c0-5.383,2.771-12.152,6.571-12.152c1.504,0,2.256,1.029,2.256,2.454
		c0,3.127-3.602,6.689-6.61,7.244c-0.119,0.792-0.198,1.544-0.198,2.296c0,2.652,0.752,4.75,2.731,4.75
		C7.513-42.535,9.611-46.81,10.996-50.491z M2.526-50.609c3.325-1.544,4.829-4.315,4.829-6.175c0-0.95-0.277-1.425-0.792-1.425
		C4.861-58.209,3.199-54.291,2.526-50.609z"/>
</g>
<g>
	<path fill="#231F20" d="M-65.09-19.651c-0.757,0.103-1.681-0.098-2.715-0.695c-1.866,0.369-5.556,1.737-13.019,6.807
		c-13.688,9.233-20.151,7.248-23.628,3.109c-3.258-3.879-2.341-7.491-0.024-9.437c2.161-1.815,5.441-2.084,7.239,0.002l-1.366,1.281
		c-1.093-1.301-3.304-1.132-4.84,0.158c-1.848,1.553-2.625,4.381-0.11,7.375c2.799,3.332,8.045,4.874,21.417-4.049
		c6.352-4.225,10.424-5.826,13.025-6.323c-0.428-0.351-0.874-0.776-1.311-1.296c-3.214-3.827-4.807-9.37-9.333-14.759
		s-11.013-4.602-14.866-1.365c-3.358,2.821-4.776,7.475-1.3,11.614c3.499,4.165,7.665,3.152,10.685,0.616
		c0.442-0.372,0.837-0.748,1.236-1.171l1.48,1.287c-0.425,0.445-0.845,0.843-1.288,1.215c-3.566,2.996-8.564,3.864-12.872-1.264
		c-4.33-5.154-2.836-10.671,0.99-13.885c4.374-3.674,11.888-4.347,17.223,2.004c4.723,5.623,6.375,11.872,9.109,15.125
		c0.678,0.807,1.211,1.336,1.639,1.687c1.602-0.102,2.482,0.312,2.937,0.642L-65.09-19.651z"/>
	<path fill="#231F20" d="M-69.577-1.925c-1.933,1.421-3.736,1.955-5.393,1.449c-2.114,1.263-4.512,1.776-5.996,0.815
		c-3.281-2.125-0.385-6.973,4.173-10.946l0.737,0.801c1.767-1.853,4.224-2.895,6.221-1.601C-66.81-9.448-70.029-4.04-74.12-1.1
		c1.237,0.153,2.468-0.184,4.214-1.442C-69.763-2.451-69.409-2.059-69.577-1.925z M-76.678-1.34
		c-2.325-1.789-1.938-4.576-0.516-6.895c-1.98,2.12-5.489,6.287-3.235,7.747C-79.516,0.103-78.061-0.331-76.678-1.34z
		 M-75.847-1.936c3.904-2.777,7.33-7.565,5.475-8.767C-73.54-12.754-80.356-4.855-75.847-1.936z"/>
	<path fill="#231F20" d="M-58.259,2.329c1.305-0.982,2.293-2.272,2.708-3.315c0.402-1.011,0.331-1.845-0.333-2.108
		c-1.77-0.703-5.202,3.238-6.621,6.81c-0.892,2.244-0.976,4.296,0.687,4.993c1.858,0.665,4.046-0.88,7.359-4.431
		c0.158,0.063,0.544,0.473,0.506,0.567l-0.605,0.601c-2.986,3.095-5.892,5.526-8.641,4.434c-2.181-0.867-2.149-3.525-1.019-6.369
		c1.695-4.266,5.928-8.841,8.867-7.673c1.485,0.59,1.609,2.213,0.931,3.919c-0.54,1.359-1.579,2.775-2.833,3.814L-58.259,2.329z"/>
	<path fill="#231F20" d="M-57.06,12.147c0.009-0.033-0.005-0.107,0.013-0.173c0.174-0.622,0.774-2.008,1.366-3.113
		c3.041-6.317,7.458-16.416,10.22-19.597c0.896-1.056,1.956-1.183,2.709-0.972c0.851,0.238,1.196,0.9,0.902,1.948
		c-0.926,3.307-5.278,8.127-8.566,11.797l-1.078,1.958c2.042-2.5,4.798-5.154,6.566-4.659c0.852,0.239,1.379,1.128,0.994,2.503
		c-0.77,2.75-4.438,7.021-5.19,9.706c-0.266,0.95-0.058,1.467,0.401,1.595c0.982,0.275,3.23-2.203,5.726-5.565
		C-42.8,7.63-42.489,8.034-42.508,8.1l-0.737,0.994c-2.212,2.982-4.749,5.733-6.559,5.261c-1.081-0.303-1.628-1.375-1.169-3.012
		c0.853-3.045,4.617-7.535,5.204-9.631c0.22-0.786,0.074-1.145-0.287-1.246c-1.179-0.33-4.911,3.286-7.807,8.584
		c-0.503,1.166-1.015,2.364-1.56,3.553L-57.06,12.147z M-43.161-10.623c-1.048-0.293-3.812,5.289-6.534,10.848
		c1.769-2.153,5.846-7.509,6.749-9.975C-42.8-10.274-42.9-10.549-43.161-10.623z"/>
	<path fill="#231F20" d="M-33.403,9.331c0.167,0.031,0.559,0.346,0.54,0.446c-1.673,2.872-4.55,7.387-7.625,6.817
		c-2.575-0.477-3.119-3.137-2.568-6.112c0.843-4.546,4.242-9.83,7.452-9.235c1.271,0.235,1.745,1.222,1.521,2.426
		c-0.489,2.641-4.089,5.086-6.717,5.083c-0.224,0.65-0.409,1.273-0.526,1.908c-0.415,2.24-0.108,4.129,1.563,4.439
		C-37.59,15.505-35.149,12.223-33.403,9.331z M-40.538,7.905c3.05-0.784,4.754-2.889,5.045-4.46
		c0.149-0.802-0.011-1.247-0.446-1.327C-37.377,1.851-39.394,4.901-40.538,7.905z"/>
	<path fill="#231F20" d="M-27.956,9.55c1.001-1.29,1.616-2.794,1.742-3.909c0.122-1.081-0.166-1.866-0.875-1.946
		c-1.892-0.213-4.168,4.49-4.599,8.308c-0.271,2.399,0.188,4.401,1.974,4.637c1.967,0.154,3.671-1.912,5.936-6.207
		c0.169,0.019,0.649,0.312,0.638,0.414l-0.426,0.739c-2.068,3.77-4.232,6.878-7.171,6.546c-2.331-0.263-2.999-2.836-2.655-5.876
		c0.515-4.561,3.397-10.086,6.539-9.731c1.588,0.179,2.133,1.712,1.927,3.536c-0.164,1.453-0.794,3.092-1.731,4.423L-27.956,9.55z"
		/>
	<path fill="#231F20" d="M-24.996,18.594l0.198-1.25c0.198-1.931,0.913-4.007,1.088-4.781c1.436-7.011,3.304-15.874,5.094-19.02
		c0.568-1.164,1.568-1.421,2.248-1.387c0.917,0.045,1.436,0.582,1.38,1.703c-0.125,2.547-2.828,7.624-5.754,13.097l-0.544,2.05
		c1.594-3.326,3.249-5.798,4.947-5.714c1.019,0.05,1.427,0.751,1.378,1.736c-0.109,2.208-2.618,6.136-5.127,7.306
		c1.009,1.616,0.869,5.15,1.854,5.199s2.826-2.754,4.514-6.587c0.204,0.01,0.594,0.37,0.593,0.404
		c-0.119,0.335-0.271,0.668-0.422,0.967c-1.567,3.463-3.369,6.848-5.169,6.759c-2.276-0.113-2.019-4.628-2.682-6.364
		c-0.136-0.007-0.273,0.021-0.409,0.014c-0.102-0.005-0.202-0.044-0.27-0.047l-1.182,6.002L-24.996,18.594z M-21.497,10.493
		l-0.214,0.875c0.306,0.015,0.61,0.064,0.873,0.247c1.854-0.998,4.214-4.661,4.292-6.223c0.02-0.408-0.103-0.686-0.44-0.737
		C-17.972,4.607-19.504,6.676-21.497,10.493z M-16.46-6.691c-1.053-0.052-2.438,5.225-3.83,11.354
		c1.138-2.361,3.829-7.881,4.131-10.556C-16.133-6.436-16.222-6.679-16.46-6.691z"/>
	<path fill="#231F20" d="M-6.081,3.589c1.132-6.977,2.12-7.961,3.377-8.003c0.952-0.031,1.353,0.806,1.399,2.2
		c0.043,1.325-0.435,3.348-1.208,5.687l1.223-0.04l-0.168,1.094l-1.427,0.047c-0.653,1.858-1.507,3.825-2.363,5.758
		c-0.146,1.774-0.229,3.375-0.188,4.633c0.064,1.971,0.467,2.842,1.113,2.821c1.155-0.038,2.396-2.664,3.918-7.068
		c0.17-0.005,0.583,0.151,0.589,0.321l0.002,0.068c-1.861,5.504-3.169,8.132-5.039,8.193c-1.563,0.051-2.074-2.041-2.184-5.405
		c-0.012-2.449,0.261-5.52,0.762-8.938C-6.278,4.855-6.246,4.786-6.25,4.684l-1.291,0.042l0.168-1.094L-6.081,3.589z M-3.701,4.6
		l-0.85,0.028l-0.398,3.415L-3.701,4.6z M-2.661-3.122c-0.646,0.021-1.177,2.488-1.755,6.657l1.087-0.036
		c0.71-2.2,1.221-4.258,1.171-5.787C-2.175-2.798-2.254-3.135-2.661-3.122z"/>
	<path fill="#231F20" d="M-0.48,19.029c-0.003-0.034-0.043-0.099-0.049-0.167c-0.057-0.644,0.015-2.152,0.178-3.396
		C0.261,8.483,0.826-2.526,2.286-6.478c0.465-1.304,1.412-1.797,2.19-1.866C5.358-8.422,5.914-7.925,6.01-6.841
		C6.312-3.42,3.944,2.627,2.164,7.222L1.848,9.435c1.027-3.061,2.667-6.517,4.497-6.679c0.88-0.078,1.688,0.568,1.814,1.991
		c0.251,2.845-1.671,8.136-1.426,10.914c0.086,0.982,0.464,1.393,0.938,1.351c1.016-0.09,2.244-3.202,3.39-7.229
		c0.203-0.018,0.637,0.251,0.643,0.319l-0.339,1.19c-1.016,3.572-2.417,7.041-4.277,7.24c-1.118,0.099-2.008-0.71-2.158-2.404
		c-0.278-3.15,1.657-8.681,1.466-10.849C6.325,4.465,6.061,4.181,5.688,4.214c-1.219,0.108-3.433,4.81-4.271,10.79
		c-0.059,1.268-0.115,2.57-0.204,3.875L-0.48,19.029z M4.477-7.183C3.393-7.088,2.78-0.889,2.197,5.274
		c0.894-2.64,2.816-9.091,2.789-11.717C4.938-6.985,4.748-7.207,4.477-7.183z"/>
	<path fill="#231F20" d="M20.535,8.241c0.167-0.027,0.642,0.137,0.658,0.238c-0.608,3.268-1.795,8.489-4.884,8.989
		c-2.585,0.418-3.994-1.903-4.477-4.891C11.093,8.012,12.514,1.891,15.737,1.37c1.275-0.207,2.055,0.563,2.25,1.771
		c0.429,2.652-2.137,6.167-4.612,7.05c0.008,0.688,0.044,1.336,0.147,1.975c0.364,2.249,1.29,3.925,2.968,3.653
		C18.673,15.466,19.865,11.553,20.535,8.241z M13.335,9.303c2.608-1.766,3.503-4.322,3.248-5.9c-0.13-0.806-0.431-1.17-0.867-1.1
		C14.272,2.537,13.4,6.089,13.335,9.303z"/>
	<path fill="#231F20" d="M42.475,5.075c-0.886,0.347-1.726,0.347-2.494,0.063c-0.04,3.63-0.708,6.776-2.132,7.333
		c-1.171,0.458-2.243-0.692-3.036-2.719c-0.148-0.38-0.278-0.804-0.408-1.228c0.06,3.043-0.515,5.496-1.686,5.954
		c-1.361,0.533-2.278-0.97-3.208-3.345c-1.001-2.931-1.751-7.274-2.51-11.358l1.678-0.657c0.953,5.14,1.898,10.356,2.791,12.636
		c0.334,0.855,0.647,1.28,0.963,1.156c0.95-0.372,1.543-3.707,0.913-8.024c-0.533-2.202-0.981-4.655-1.405-7.044l1.646-0.644
		c0.93,4.894,1.833,9.907,2.762,12.282c0.409,1.045,0.847,1.604,1.258,1.443c0.792-0.31,1.136-3.256,1.016-6.641
		c-0.878-0.752-1.583-1.9-2.178-3.419C34.934-3,34.981-5.866,36.279-6.374c0.887-0.347,1.728,0.31,2.298,1.766
		c0.892,2.28,1.371,5.744,1.417,8.938c0.729,0.372,1.487,0.44,2.342,0.106c0.316-0.124,0.615-0.387,0.921-0.726
		c-1.478-4.241-1.226-10.035,1.688-11.175c1.045-0.409,1.83,0.197,2.263,1.305c0.855,2.185,0.252,6.802-2.225,9.523
		c0.981,2.135,2.119,3.735,3.733,3.103c2.058-0.806,2.398-4.882,2.354-8.26c0.19-0.075,0.732,0.005,0.757,0.068l-0.035,1.219
		c-0.056,3.308-0.246,7.581-2.906,8.622c-2.375,0.929-4.059-1.041-5.358-3.708C43.211,4.714,42.823,4.939,42.475,5.075z
		 M36.39-5.249c-0.506,0.198-0.523,2.395,0.753,5.656c0.396,1.013,0.888,1.989,1.395,2.631c-0.175-2.779-0.614-5.674-1.32-7.479
		C36.97-5.075,36.676-5.361,36.39-5.249z M44.661,2.358c1.892-3.004,1.988-6.583,1.418-8.04c-0.198-0.506-0.512-0.749-0.829-0.625
		C43.635-5.675,43.608-1.174,44.661,2.358z"/>
	<path fill="#231F20" d="M58.022-17.799c-0.732-0.98-1.151-2.11-1.503-3.035l1.307-0.637c1.023,1.654,1.728,2.995,2.248,4.431
		c2.218,2.629,6.831,4.148,8.804,6.79c0.163,0.218,0.298,0.456,0.386,0.688c-0.14-1.38-0.511-3.013-1.057-4.938
		c0.136-0.102,0.632-0.176,0.693-0.094c0.728,3.19,2.689,8.089-0.552,10.509C67.204-3.23,65.47-2.996,64.31-4.549
		c-0.061-0.082-0.102-0.136-0.163-0.218l1.212-0.99c0.57,0.763,1.5,1.043,2.291,0.454c1.008-0.752,0.862-2.425-0.115-3.733
		c-1.464-1.961-4.398-3.673-6.99-6.065c0.228,1.782-0.511,3.69-1.669,5.15c2.746,3.677,4.488,9.589,1.737,11.643
		c-1.934,1.444-4.364-0.39-6.703-3.522c-3.743-5.012-7.247-13.341-8.136-17.429c-0.249-1.129,0.093-1.978,0.692-2.425
		c0.735-0.549,1.836-0.438,2.609,0.597c1.708,2.288,2.286,5.845,1.705,10.521c1.55,3.212,3.379,6.514,5.067,8.774
		c1.647,2.206,3.168,3.446,4.176,2.694c1.879-1.403,0-6.364-2.421-9.605l-0.19,0.143c-2.234,1.668-4.313,1.099-5.228-0.126
		c-0.793-1.062-0.763-2.612,0.735-3.731c1.662-1.241,3.692-0.169,5.442,1.833c1.132-1.439,1.843-3.328,1.554-5.021
		C59.358-16.123,58.815-16.736,58.022-17.799z M47.354-20.778c-0.599,0.448,0.759,4.482,2.83,8.96
		c0.136-3.114-0.327-6.29-2.035-8.578C47.843-20.804,47.572-20.941,47.354-20.778z M52.81-9.325c0.692,0.926,2.309,1.5,4.133,0.138
		l0.164-0.122c-1.479-1.696-3.061-2.678-4.177-1.844C52.303-10.685,52.363-9.924,52.81-9.325z"/>
	<path fill="#231F20" d="M62.333-24.763c-0.543-0.514-0.882-1.491-0.251-2.158c0.491-0.519,1.096-0.367,1.541,0.054
		c0.568,0.538,0.786,1.494,0.202,2.111C63.334-24.237,62.753-24.366,62.333-24.763z M65.837-23.271
		c3.03,4.367,5.811,8.452,7.835,10.368c0.741,0.702,1.199,0.761,1.433,0.514c0.725-0.765-0.212-3.385-2.277-7.634
		c0.117-0.124,0.544-0.328,0.668-0.211c2.191,4.51,3.792,7.665,2.296,9.245c-0.841,0.889-2.253,0.254-3.76-1.172
		c-2.494-2.361-5.407-6.899-7.435-9.802L65.837-23.271z"/>
	<path fill="#231F20" d="M68.276-25.965c-4.574-5.39-4.682-6.781-3.897-7.765c0.594-0.744,1.492-0.506,2.582,0.363
		c1.037,0.827,2.266,2.504,3.542,4.611l0.764-0.957l0.724,0.838L71.1-27.758c0.99,1.704,1.933,3.63,2.848,5.536
		c1.255,1.262,2.419,2.365,3.403,3.15c1.542,1.23,2.466,1.489,2.869,0.984c0.721-0.904-0.472-3.552-2.834-7.569
		c0.106-0.133,0.493-0.346,0.626-0.24l0.053,0.042c2.98,4.989,4.131,7.69,2.964,9.152c-0.976,1.223-2.899,0.253-5.531-1.847
		c-1.872-1.58-4.03-3.781-6.307-6.381c-0.08-0.063-0.112-0.133-0.191-0.196l-0.806,1.01l-0.723-0.838L68.276-25.965z M65.388-32.923
		c-0.403,0.505,1.129,2.51,3.927,5.656l0.679-0.851c-1.213-1.969-2.448-3.693-3.644-4.647
		C65.951-33.083,65.643-33.242,65.388-32.923z M70.59-27.12l-0.53,0.665l2.34,2.52L70.59-27.12z"/>
	<path fill="#231F20" d="M82.794-33.901c0.092-0.143,0.531-0.387,0.617-0.332c2.028,2.632,5.125,6.999,3.438,9.632
		c-1.412,2.204-4.081,1.706-6.628,0.073c-3.893-2.494-7.504-7.634-5.743-10.382c0.697-1.088,1.79-1.155,2.82-0.495
		c2.262,1.449,3.169,5.705,2.176,8.137c0.518,0.453,1.024,0.858,1.568,1.207c1.918,1.229,3.784,1.657,4.701,0.226
		C86.934-27.695,84.814-31.193,82.794-33.901z M78.783-27.83c0.424-3.12-0.882-5.492-2.228-6.354
		c-0.687-0.44-1.159-0.46-1.397-0.088C74.369-33.04,76.433-30.022,78.783-27.83z"/>
</g>
</svg>
