<?xml version="1.0" encoding="utf-8"?>
<!-- Generator: Adobe Illustrator 16.0.0, SVG Export Plug-In . SVG Version: 6.00 Build 0)  -->
<!DOCTYPE svg PUBLIC "-//W3C//DTD SVG 1.1//EN" "http://www.w3.org/Graphics/SVG/1.1/DTD/svg11.dtd">
<svg version="1.1" id="Calque_1" xmlns="http://www.w3.org/2000/svg" xmlns:xlink="http://www.w3.org/1999/xlink" x="0px" y="0px"
	 width="1163.036px" height="661.076px" viewBox="0 0 1163.036 661.076" enable-background="new 0 0 1163.036 661.076"
	 xml:space="preserve">
<path fill="#231F20" d="M415.745,179.071c0,0,10.773-0.62,10.273,2.005s-15.06,16.828-15.381,18S415.745,179.071,415.745,179.071z"
	/>
<path fill="#231F20" d="M1072.852,171.202c-8.667,1.333-52.333,1.036-86.333,54.685c0,0-14.501,27.565-8.751,58.065
	c-8.25,7.5-14.5,14.75-16.75,18.75c-4.5-4.75-51-53-47.75-91.25c0,0,101.75-113.25,82.25-195.75c-6.5-12-16-32.5-50.5,9.5
	s-66,111-61.5,199.5c0,0-31.999,37.167-33.499,2.167c7-23.334,18.332-46.334,15.666-53.5c-3-0.833-16.666,4.833-20.333,9
	s-7.667,34.333-28.5,41.833c-5,0-33.5,2.333-9.5-46.333c8.667-14.833,30.833-45.167,38.333-18.667c1.5,7.333,3.334,16,18.167,7.333
	s-0.833-36.5-4.833-41.167s-37.333-19.833-79.5,35.333c-5.001,8.167-18.168,37.833-17.001,55c-9.666,11-29.833,33.5-38.166,13.834
	s-0.5-33.5,11.167-57.667s24.833-36.834,18-42.667s-24.834-7.333-36.667,6.833s-27.832,59.166-27.166,74.333
	c-5.043,5.709-34.418,35.959-53.918,16.459c-3.25-3.625-18.875-25.375-0.125-63.625c2.312-4.5,14.25-17.188,8.125,3.5
	c-1.25,6.167,10.917,12.417,20.417,3.333s19.916-45.083,3.583-48s-47.5,13.083-63.25,48c1.25-18.584,12.5-107.084-93.25-92.334
	c0.5-13.75,1-51.375-35.25-54.75c-11.125-1.25-45,13.5-70.5,77.25c0,0-63-85-168.5-29.5c-62,33-78.5,97-71.5,132
	c-8,4.5-211.083,90.25-156.083,177.25c7-12,48.083-72.25,166.083-129.75c2.875,6.592,13,28,24.5,36s83.5,71.667,162.833,5.667
	c12.667-11.333,35.333-26.667,58.667-138.667c2.667,3.333,43.667,46.333,86.333-48c8-1,43.333-16.667,72,27.333
	s-19.333,97.333-32.333,99c-15.341,1.967-42.333-45.167,19.666-94.833c0,0-16-15-32-5.833s-63.333,56.333-23.667,111.333
	s80.999-27,82.666-30.333s-0.999,38.85,41.001,44.925c14.333-2.591,29.666-2.925,53.333-32.591c1.334,7,6.333,37.667,47,25
	c11.667-8.667,27.333-24,27.333-24s6.334,26.667,36.667,27.667c8-1.667,14.667-4,22.667-11c2.666,5,19,24,41,11.333
	c13.333-9,20.666-15,20.666-15s7.666,50,54.333,91.667c-3.666,4-57.999,66.667-159.666,6.333c-7.334,0.667-38,22.333-43.667,31.333
	s128.332,80.001,218.333-22.333c8.334,4.667,147.002,95,189.002-75.667C1142.186,269.535,1150.852,180.536,1072.852,171.202z
	 M970.518,38.952c10,1,4.5,18.25-6.5,62.25s-40.25,78.25-50.5,88.75C908.297,138.69,970.518,38.952,970.518,38.952z
	 M212.018,185.452c2.75-26.75,25.25-66.75,38-81.75c68-66.5,146-6.25,134,9.25c-21.5,17.25-171,72.5-171,72.5H212.018z
	 M256.852,274.035c0,0,41-39.833,108.167-43.5C365.018,230.535,329.519,304.036,256.852,274.035z M386.518,180.952
	c-8.25,1.5-99.25,18.25-155,70.5c-10.25-13-8.25-9.25-13-19.25c0,0,144.25-62.25,175-85.5
	C391.768,160.202,386.768,175.952,386.518,180.952z M448.143,137.202c2.75-13,28.125-22.25,28.125-22.25
	C468.893,127.952,452.268,137.702,448.143,137.202z M490.852,80.369c-57.37,17.591-62.146,36.537-62.477,38.356
	c-0.007,0.049-0.016,0.095-0.023,0.144c0,0,0.006-0.05,0.023-0.144c7.701-53.887,38.144-72.356,38.144-72.356
	C504.685,31.369,490.852,80.369,490.852,80.369z M1054.518,339.452c-16.75,4.5-34.5,14.5-80.75-23.75c6-7,9-11.25,11.5-11.25
	s34.5,51,78,10.25c6.5-11.25,15.5-31-9.25-48.75c-27.75-12.5-49.5,0-53.5,2.5c0,0,6.25-50.25,56.25-60.25s54,27.5,55,36.25
	S1123.768,308.202,1054.518,339.452z M1004.185,289.036c13-13,49.666-11.5,48.166,4.666
	C1036.351,323.702,1004.185,289.036,1004.185,289.036z"/>
<path fill="#231F20" d="M479.018,270.702c-98.333,12.667-142.5,79.167-175.833,124.167c-118.333-6.333-69.924-87.142-69.924-87.142
	l-33.242-21.525c-13.833,17.334-15.5,41-16.167,56.667c-3,79.001,92.667,90.999,101.667,92.333c-1.667,7-3,17.667-0.667,44.334
	c3.333,42.667,60.667,76.666,60.667,76.666c-4,22-7.333,33-1,75.667s15,29.002,23.741,18.335s24.926-40.666,23.259-46
	s-3.667-34.333-4.333-48.001c7,0,33.583-4.251,64.667-41.668c44.333-64.001-6.667-83.333-28-73.333
	c-31.833,13.167-42.879,41.533-61,74.334c-39.667-24.245-31.333-84.668-28.333-85.001s94.333-10,147.667-69.667
	S509.685,268.701,479.018,270.702z M436.185,472.869c20.833,9.834-22.667,52-44.833,50.667
	C391.352,523.536,410.852,467.869,436.185,472.869z M493.518,304.952c-6.25,24.25-33.75,65.25-143.5,87.75
	c0,0,31.25-63.5,108.25-101.75C477.768,283.952,499.768,280.702,493.518,304.952z"/>
<path fill="#231F20" d="M1017.018,415.036c-8-12.584-77.367,3.416-91.684,8.916s-42.566,19.75-65.816,43s-44.25,33-57.75,37.5
	s-47.5,1.5-38.5-34.75c1.75-2.25,4.75-2.814,10-3.907s72.244-21.89,54.997-65.991l-40.373-5.587c0,0-43.374,12.7-52.874,56.093
	s-1.199,79.725,45.65,86.059s46.8-19.364,46.8-19.364s56.05-57.802,128.55-53.802c17,0,19.741-0.5,19.741-0.5
	S1025.018,427.62,1017.018,415.036z M806.602,420.202c0,0,0.519,11.273-14.417,19.583c-13.333,7.418-16.832,6.166-20.416,6.25
	C771.769,446.035,782.852,417.035,806.602,420.202z"/>
<path fill="#231F20" d="M739.685,563.536c0,0-28.667-25.666-37.501-61.166c-5.167-13.334-11.333-23.167-16.5-25.167
	c0,0,47.834-22.999,57.501-61.333c4.333-18.334-32.999-44.334-89.333,2.333c7.333-28.666,10.333-41.666,10.333-41.666
	s100.333-30.668,109-93.001c3.333-29.667-62.374-71.992-121,33.334c-13,32.667-13,37.333-13,37.333s-67.667,15.333-76.333,14
	c-8.667-1.333-22.667-31.999-61.667-17.666c-6.417,4.665-15.792,15.29-1.542,30.415s52.5,13.875,61.625,14.375
	s28.803,73.912-23.377,107.111c0,0-3.123,2.264-8.748,2.014s-11.792-7.417-11.792-7.417c-2.667-2.834-3.5-4.416-5.667-10.249
	s-2.417-15-0.667-26.084c6.167-27.5,22.167-33.833,28.5-44s-5-8.834-5-8.834s-59,4.667-51.667,74.667
	c4.417,26.917,16.417,52.167,49.417,51.667c32.25-5.25,40.75-26.081,46-36.143c6.694-12.829,13.917-31.857,15.25-44.19
	s4-39.001-11-61.167c0,0,40-5,50.875-7.75c-4,11.25-37.375,137.25-38.375,140s8.75,14.906,24.75,13.828
	c4-3.328,9-17.113,14.5-40.721s5.75-25.508,5.75-25.508s17-5.385,31,25.508s7.5,33.393,45.25,81.893
	c-3.25,4.5-48.25,50.25-191.75,2.75c-26.75-8.25-55.25-19-58-23s-10.75,3.25-6.75,15s11.5,37.75,14,43s130.75,79.5,263.25-12
	c0,0,112.5,87,178,14.5C947.851,585.203,905.685,437.536,739.685,563.536z M732.268,279.327c4-0.25,8.625,0,5,8.25
	s-16.25,34.625-60.75,52.125C676.518,339.702,692.643,288.952,732.268,279.327z M644.018,456.203c0,0,2.666-11.333,3.333-12.5
	s33.667-28.667,58.167-28.667S668.685,462.87,644.018,456.203z M887.351,595.369c-16,13.334-69.333,25.832-123.333-10.917
	c0,0,43.75-47.844,88.75-45.672c0,0,25-3.578,35.75,12.172S903.351,582.035,887.351,595.369z"/>
<ellipse fill="#231F20" cx="755.852" cy="93.076" rx="19.667" ry="19.875"/>
</svg>
