<?xml version="1.0" encoding="utf-8"?>
<!-- Generator: Adobe Illustrator 17.1.0, SVG Export Plug-In . SVG Version: 6.00 Build 0)  -->
<!DOCTYPE svg PUBLIC "-//W3C//DTD SVG 1.1//EN" "http://www.w3.org/Graphics/SVG/1.1/DTD/svg11.dtd">
<svg version="1.1" id="Calque_1" xmlns="http://www.w3.org/2000/svg" xmlns:xlink="http://www.w3.org/1999/xlink" x="0px" y="0px"
	 viewBox="0 0 396.337 232.897" enable-background="new 0 0 396.337 232.897" xml:space="preserve">
<line fill="none" stroke="#FFFFFF" stroke-width="0.337" stroke-miterlimit="2" x1="233.448" y1="145.008" x2="210.048" y2="131.569"/>
<line fill="none" stroke="#FFFFFF" stroke-width="0.337" stroke-miterlimit="2" x1="226.728" y1="154.249" x2="205.488" y2="142.008"/>
<line fill="none" stroke="#010202" stroke-width="3.9031" stroke-miterlimit="2" x1="92.329" y1="160.249" x2="96.769" y2="157.609"/>
<line fill="none" stroke="#010202" stroke-width="3.9031" stroke-miterlimit="2" x1="96.769" y1="157.609" x2="99.769" y2="162.888"/>
<line fill="none" stroke="#010202" stroke-width="3.9031" stroke-miterlimit="2" x1="99.769" y1="162.888" x2="95.329" y2="165.528"/>
<line fill="none" stroke="#010202" stroke-width="3.9031" stroke-miterlimit="2" x1="95.329" y1="165.528" x2="92.329" y2="160.249"/>
<line fill="none" stroke="#FFFFFF" stroke-width="0.337" stroke-miterlimit="2" x1="105.648" y1="183.289" x2="110.089" y2="180.769"/>
<line fill="none" stroke="#FFFFFF" stroke-width="0.337" stroke-miterlimit="2" x1="139.969" y1="130.488" x2="143.328" y2="124.729"/>
<line fill="none" stroke="#FFFFFF" stroke-width="0.337" stroke-miterlimit="2" x1="133.369" y1="119.089" x2="136.728" y2="113.328"/>
<line fill="none" stroke="#FFFFFF" stroke-width="0.337" stroke-miterlimit="2" x1="97.368" y1="158.809" x2="100.729" y2="153.049"/>
<line fill="none" stroke="#FFFFFF" stroke-width="0.337" stroke-miterlimit="2" x1="126.888" y1="107.809" x2="130.129" y2="102.169"/>
<line fill="none" stroke="#FFFFFF" stroke-width="0.337" stroke-miterlimit="2" x1="90.768" y1="147.529" x2="94.128" y2="141.768"/>
<line fill="none" stroke="#FFFFFF" stroke-width="0.337" stroke-miterlimit="2" x1="119.088" y1="98.569" x2="121.849" y2="93.769"/>
<line fill="none" stroke="#FFFFFF" stroke-width="0.337" stroke-miterlimit="2" x1="84.289" y1="136.129" x2="87.528" y2="130.488"/>
<line fill="none" stroke="#FFFFFF" stroke-width="0.337" stroke-miterlimit="2" x1="108.168" y1="94.729" x2="111.169" y2="89.569"/>
<line fill="none" stroke="#FFFFFF" stroke-width="0.337" stroke-miterlimit="2" x1="78.529" y1="123.529" x2="83.688" y2="114.409"/>
<line fill="none" stroke="#FFFFFF" stroke-width="0.337" stroke-miterlimit="2" x1="92.449" y1="99.409" x2="97.488" y2="90.528"/>
<line fill="none" stroke="#FFFFFF" stroke-width="0.337" stroke-miterlimit="2" x1="142.728" y1="193.729" x2="147.768" y2="185.088"/>
<line fill="none" stroke="#FFFFFF" stroke-width="0.337" stroke-miterlimit="2" x1="157.128" y1="168.649" x2="162.168" y2="160.01"/>
<line fill="none" stroke="#FFFFFF" stroke-width="0.337" stroke-miterlimit="2" x1="129.289" y1="194.329" x2="132.288" y2="189.169"/>
<line fill="none" stroke="#FFFFFF" stroke-width="0.337" stroke-miterlimit="2" x1="118.608" y1="190.009" x2="121.489" y2="185.088"/>
<line fill="none" stroke="#FFFFFF" stroke-width="0.337" stroke-miterlimit="2" x1="110.449" y1="181.489" x2="113.449" y2="176.329"/>
<line fill="none" stroke="#FFFFFF" stroke-width="0.337" stroke-miterlimit="2" x1="171.408" y1="122.328" x2="163.968" y2="118.009"/>
<line fill="none" stroke="#FFFFFF" stroke-width="0.337" stroke-miterlimit="2" x1="160.128" y1="128.929" x2="153.169" y2="124.849"/>
<line fill="none" stroke="#FFFFFF" stroke-width="0.337" stroke-miterlimit="2" x1="182.449" y1="141.768" x2="177.049" y2="138.649"/>
<line fill="none" stroke="#FFFFFF" stroke-width="0.337" stroke-miterlimit="2" x1="174.168" y1="150.17" x2="165.769" y2="145.249"/>
<line fill="none" stroke="#FFFFFF" stroke-width="0.337" stroke-miterlimit="2" x1="393.169" y1="198.648" x2="396.169" y2="195.648"/>
<line fill="none" stroke="#FFFFFF" stroke-width="0.337" stroke-miterlimit="2" x1="389.088" y1="198.648" x2="394.848" y2="193.009"/>
<line fill="none" stroke="#FFFFFF" stroke-width="0.337" stroke-miterlimit="2" x1="385.128" y1="198.648" x2="390.769" y2="193.009"/>
<line fill="none" stroke="#FFFFFF" stroke-width="0.337" stroke-miterlimit="2" x1="381.168" y1="198.648" x2="386.808" y2="193.009"/>
<line fill="none" stroke="#FFFFFF" stroke-width="0.337" stroke-miterlimit="2" x1="377.089" y1="198.648" x2="382.728" y2="193.009"/>
<line fill="none" stroke="#FFFFFF" stroke-width="0.337" stroke-miterlimit="2" x1="373.128" y1="198.648" x2="378.769" y2="193.009"/>
<line fill="none" stroke="#FFFFFF" stroke-width="0.337" stroke-miterlimit="2" x1="369.048" y1="198.648" x2="374.809" y2="193.009"/>
<line fill="none" stroke="#FFFFFF" stroke-width="0.337" stroke-miterlimit="2" x1="365.089" y1="198.648" x2="370.728" y2="193.009"/>
<line fill="none" stroke="#FFFFFF" stroke-width="0.337" stroke-miterlimit="2" x1="361.008" y1="198.648" x2="366.767" y2="193.009"/>
<line fill="none" stroke="#FFFFFF" stroke-width="0.337" stroke-miterlimit="2" x1="357.048" y1="198.648" x2="362.688" y2="193.009"/>
<line fill="none" stroke="#FFFFFF" stroke-width="0.337" stroke-miterlimit="2" x1="353.089" y1="198.648" x2="358.728" y2="193.009"/>
<line fill="none" stroke="#FFFFFF" stroke-width="0.337" stroke-miterlimit="2" x1="349.008" y1="198.648" x2="354.768" y2="193.009"/>
<line fill="none" stroke="#FFFFFF" stroke-width="0.337" stroke-miterlimit="2" x1="345.048" y1="198.648" x2="350.689" y2="193.009"/>
<line fill="none" stroke="#FFFFFF" stroke-width="0.337" stroke-miterlimit="2" x1="340.967" y1="198.648" x2="346.728" y2="193.009"/>
<line fill="none" stroke="#FFFFFF" stroke-width="0.337" stroke-miterlimit="2" x1="337.008" y1="198.648" x2="342.648" y2="193.009"/>
<line fill="none" stroke="#FFFFFF" stroke-width="0.337" stroke-miterlimit="2" x1="333.048" y1="198.648" x2="338.689" y2="193.009"/>
<line fill="none" stroke="#FFFFFF" stroke-width="0.337" stroke-miterlimit="2" x1="328.967" y1="198.648" x2="334.728" y2="193.009"/>
<line fill="none" stroke="#FFFFFF" stroke-width="0.337" stroke-miterlimit="2" x1="325.009" y1="198.648" x2="330.648" y2="193.009"/>
<line fill="none" stroke="#FFFFFF" stroke-width="0.337" stroke-miterlimit="2" x1="320.928" y1="198.648" x2="326.687" y2="193.009"/>
<line fill="none" stroke="#FFFFFF" stroke-width="0.337" stroke-miterlimit="2" x1="316.969" y1="198.648" x2="322.608" y2="193.009"/>
<line fill="none" stroke="#FFFFFF" stroke-width="0.337" stroke-miterlimit="2" x1="313.009" y1="198.648" x2="318.648" y2="193.009"/>
<line fill="none" stroke="#FFFFFF" stroke-width="0.337" stroke-miterlimit="2" x1="308.928" y1="198.648" x2="314.688" y2="193.009"/>
<line fill="none" stroke="#FFFFFF" stroke-width="0.337" stroke-miterlimit="2" x1="304.968" y1="198.648" x2="310.609" y2="193.009"/>
<line fill="none" stroke="#FFFFFF" stroke-width="0.337" stroke-miterlimit="2" x1="300.889" y1="198.648" x2="306.648" y2="193.009"/>
<line fill="none" stroke="#FFFFFF" stroke-width="0.337" stroke-miterlimit="2" x1="296.928" y1="198.648" x2="302.569" y2="193.009"/>
<line fill="none" stroke="#FFFFFF" stroke-width="0.337" stroke-miterlimit="2" x1="292.968" y1="198.648" x2="298.609" y2="193.009"/>
<line fill="none" stroke="#FFFFFF" stroke-width="0.337" stroke-miterlimit="2" x1="288.889" y1="198.648" x2="294.528" y2="193.009"/>
<line fill="none" stroke="#FFFFFF" stroke-width="0.337" stroke-miterlimit="2" x1="284.929" y1="198.648" x2="290.568" y2="193.009"/>
<line fill="none" stroke="#FFFFFF" stroke-width="0.337" stroke-miterlimit="2" x1="280.848" y1="198.648" x2="286.607" y2="193.009"/>
<line fill="none" stroke="#FFFFFF" stroke-width="0.337" stroke-miterlimit="2" x1="276.889" y1="198.648" x2="282.528" y2="193.009"/>
<line fill="none" stroke="#FFFFFF" stroke-width="0.337" stroke-miterlimit="2" x1="272.929" y1="198.648" x2="278.568" y2="193.009"/>
<line fill="none" stroke="#FFFFFF" stroke-width="0.337" stroke-miterlimit="2" x1="268.848" y1="198.648" x2="274.489" y2="193.009"/>
<line fill="none" stroke="#FFFFFF" stroke-width="0.337" stroke-miterlimit="2" x1="264.888" y1="198.648" x2="270.528" y2="193.009"/>
<line fill="none" stroke="#FFFFFF" stroke-width="0.337" stroke-miterlimit="2" x1="260.809" y1="198.648" x2="266.568" y2="193.009"/>
<line fill="none" stroke="#FFFFFF" stroke-width="0.337" stroke-miterlimit="2" x1="256.848" y1="198.648" x2="262.489" y2="193.009"/>
<line fill="none" stroke="#FFFFFF" stroke-width="0.337" stroke-miterlimit="2" x1="252.888" y1="198.648" x2="258.529" y2="193.009"/>
<line fill="none" stroke="#FFFFFF" stroke-width="0.337" stroke-miterlimit="2" x1="248.809" y1="198.648" x2="254.448" y2="193.009"/>
<line fill="none" stroke="#FFFFFF" stroke-width="0.337" stroke-miterlimit="2" x1="244.848" y1="198.648" x2="250.488" y2="193.009"/>
<line fill="none" stroke="#FFFFFF" stroke-width="0.337" stroke-miterlimit="2" x1="240.768" y1="198.648" x2="246.529" y2="193.009"/>
<line fill="none" stroke="#FFFFFF" stroke-width="0.337" stroke-miterlimit="2" x1="236.809" y1="198.648" x2="242.448" y2="193.009"/>
<line fill="none" stroke="#FFFFFF" stroke-width="0.337" stroke-miterlimit="2" x1="232.849" y1="198.648" x2="238.488" y2="193.009"/>
<line fill="none" stroke="#FFFFFF" stroke-width="0.337" stroke-miterlimit="2" x1="228.768" y1="198.648" x2="234.409" y2="193.009"/>
<line fill="none" stroke="#FFFFFF" stroke-width="0.337" stroke-miterlimit="2" x1="224.808" y1="198.648" x2="230.448" y2="193.009"/>
<line fill="none" stroke="#FFFFFF" stroke-width="0.337" stroke-miterlimit="2" x1="220.729" y1="198.648" x2="226.488" y2="193.009"/>
<line fill="none" stroke="#FFFFFF" stroke-width="0.337" stroke-miterlimit="2" x1="216.768" y1="198.648" x2="222.409" y2="193.009"/>
<line fill="none" stroke="#FFFFFF" stroke-width="0.337" stroke-miterlimit="2" x1="212.808" y1="198.648" x2="218.449" y2="193.009"/>
<line fill="none" stroke="#FFFFFF" stroke-width="0.337" stroke-miterlimit="2" x1="208.729" y1="198.648" x2="214.368" y2="193.009"/>
<line fill="none" stroke="#FFFFFF" stroke-width="0.337" stroke-miterlimit="2" x1="204.768" y1="198.648" x2="210.408" y2="193.009"/>
<line fill="none" stroke="#FFFFFF" stroke-width="0.337" stroke-miterlimit="2" x1="200.689" y1="198.648" x2="206.449" y2="193.009"/>
<line fill="none" stroke="#FFFFFF" stroke-width="0.337" stroke-miterlimit="2" x1="196.729" y1="198.648" x2="202.368" y2="193.009"/>
<line fill="none" stroke="#FFFFFF" stroke-width="0.337" stroke-miterlimit="2" x1="192.648" y1="198.648" x2="198.408" y2="193.009"/>
<line fill="none" stroke="#FFFFFF" stroke-width="0.337" stroke-miterlimit="2" x1="188.688" y1="198.648" x2="194.329" y2="193.009"/>
<line fill="none" stroke="#FFFFFF" stroke-width="0.337" stroke-miterlimit="2" x1="184.728" y1="198.648" x2="190.368" y2="193.009"/>
<line fill="none" stroke="#FFFFFF" stroke-width="0.337" stroke-miterlimit="2" x1="180.648" y1="198.648" x2="186.408" y2="193.009"/>
<line fill="none" stroke="#FFFFFF" stroke-width="0.337" stroke-miterlimit="2" x1="176.688" y1="198.648" x2="182.329" y2="193.009"/>
<line fill="none" stroke="#FFFFFF" stroke-width="0.337" stroke-miterlimit="2" x1="172.609" y1="198.648" x2="178.368" y2="193.009"/>
<line fill="none" stroke="#FFFFFF" stroke-width="0.337" stroke-miterlimit="2" x1="168.649" y1="198.648" x2="174.288" y2="193.009"/>
<line fill="none" stroke="#FFFFFF" stroke-width="0.337" stroke-miterlimit="2" x1="164.688" y1="198.648" x2="170.329" y2="193.009"/>
<line fill="none" stroke="#FFFFFF" stroke-width="0.337" stroke-miterlimit="2" x1="160.609" y1="198.648" x2="166.248" y2="193.009"/>
<line fill="none" stroke="#FFFFFF" stroke-width="0.337" stroke-miterlimit="2" x1="156.649" y1="198.648" x2="162.288" y2="193.009"/>
<line fill="none" stroke="#FFFFFF" stroke-width="0.337" stroke-miterlimit="2" x1="152.927" y1="198.409" x2="158.329" y2="193.009"/>
<line fill="none" stroke="#FFFFFF" stroke-width="0.337" stroke-miterlimit="2" x1="151.489" y1="195.769" x2="154.249" y2="193.009"/>
<line fill="none" stroke="#FFFFFF" stroke-width="0.337" stroke-miterlimit="2" x1="150.049" y1="193.25" x2="150.288" y2="193.009"/>
<line fill="none" stroke="#FFFFFF" stroke-width="0.337" stroke-miterlimit="2" x1="392.568" y1="91.009" x2="396.169" y2="87.408"/>
<line fill="none" stroke="#FFFFFF" stroke-width="0.337" stroke-miterlimit="2" x1="388.607" y1="91.009" x2="394.248" y2="85.248"/>
<line fill="none" stroke="#FFFFFF" stroke-width="0.337" stroke-miterlimit="2" x1="384.649" y1="91.009" x2="390.288" y2="85.248"/>
<line fill="none" stroke="#FFFFFF" stroke-width="0.337" stroke-miterlimit="2" x1="380.568" y1="91.009" x2="386.209" y2="85.248"/>
<line fill="none" stroke="#FFFFFF" stroke-width="0.337" stroke-miterlimit="2" x1="376.608" y1="91.009" x2="382.248" y2="85.248"/>
<line fill="none" stroke="#FFFFFF" stroke-width="0.337" stroke-miterlimit="2" x1="372.529" y1="91.009" x2="378.288" y2="85.248"/>
<line fill="none" stroke="#FFFFFF" stroke-width="0.337" stroke-miterlimit="2" x1="368.568" y1="91.009" x2="374.207" y2="85.248"/>
<line fill="none" stroke="#FFFFFF" stroke-width="0.337" stroke-miterlimit="2" x1="364.608" y1="91.009" x2="370.248" y2="85.248"/>
<line fill="none" stroke="#FFFFFF" stroke-width="0.337" stroke-miterlimit="2" x1="360.529" y1="91.009" x2="366.168" y2="85.248"/>
<line fill="none" stroke="#FFFFFF" stroke-width="0.337" stroke-miterlimit="2" x1="356.568" y1="91.009" x2="362.207" y2="85.248"/>
<line fill="none" stroke="#FFFFFF" stroke-width="0.337" stroke-miterlimit="2" x1="352.488" y1="91.009" x2="358.249" y2="85.248"/>
<line fill="none" stroke="#FFFFFF" stroke-width="0.337" stroke-miterlimit="2" x1="348.527" y1="91.009" x2="354.168" y2="85.248"/>
<line fill="none" stroke="#FFFFFF" stroke-width="0.337" stroke-miterlimit="2" x1="344.568" y1="91.009" x2="350.208" y2="85.248"/>
<line fill="none" stroke="#FFFFFF" stroke-width="0.337" stroke-miterlimit="2" x1="340.488" y1="91.009" x2="346.129" y2="85.248"/>
<line fill="none" stroke="#FFFFFF" stroke-width="0.337" stroke-miterlimit="2" x1="336.527" y1="91.009" x2="342.168" y2="85.248"/>
<line fill="none" stroke="#FFFFFF" stroke-width="0.337" stroke-miterlimit="2" x1="332.448" y1="91.009" x2="338.208" y2="85.248"/>
<line fill="none" stroke="#FFFFFF" stroke-width="0.337" stroke-miterlimit="2" x1="328.488" y1="91.009" x2="334.127" y2="85.248"/>
<line fill="none" stroke="#FFFFFF" stroke-width="0.337" stroke-miterlimit="2" x1="324.409" y1="91.009" x2="330.168" y2="85.248"/>
<line fill="none" stroke="#FFFFFF" stroke-width="0.337" stroke-miterlimit="2" x1="320.449" y1="91.009" x2="326.088" y2="85.248"/>
<line fill="none" stroke="#FFFFFF" stroke-width="0.337" stroke-miterlimit="2" x1="316.488" y1="91.009" x2="322.129" y2="85.248"/>
<line fill="none" stroke="#FFFFFF" stroke-width="0.337" stroke-miterlimit="2" x1="312.408" y1="91.009" x2="318.169" y2="85.248"/>
<line fill="none" stroke="#FFFFFF" stroke-width="0.337" stroke-miterlimit="2" x1="308.449" y1="91.009" x2="314.088" y2="85.248"/>
<line fill="none" stroke="#FFFFFF" stroke-width="0.337" stroke-miterlimit="2" x1="304.368" y1="91.009" x2="310.129" y2="85.248"/>
<line fill="none" stroke="#FFFFFF" stroke-width="0.337" stroke-miterlimit="2" x1="300.408" y1="91.009" x2="306.048" y2="85.248"/>
<line fill="none" stroke="#FFFFFF" stroke-width="0.337" stroke-miterlimit="2" x1="296.449" y1="91.009" x2="302.088" y2="85.248"/>
<line fill="none" stroke="#FFFFFF" stroke-width="0.337" stroke-miterlimit="2" x1="292.368" y1="91.009" x2="298.128" y2="85.248"/>
<line fill="none" stroke="#FFFFFF" stroke-width="0.337" stroke-miterlimit="2" x1="288.408" y1="91.009" x2="294.049" y2="85.248"/>
<line fill="none" stroke="#FFFFFF" stroke-width="0.337" stroke-miterlimit="2" x1="284.329" y1="91.009" x2="290.088" y2="85.248"/>
<line fill="none" stroke="#FFFFFF" stroke-width="0.337" stroke-miterlimit="2" x1="280.368" y1="91.009" x2="286.008" y2="85.248"/>
<line fill="none" stroke="#FFFFFF" stroke-width="0.337" stroke-miterlimit="2" x1="276.408" y1="91.009" x2="282.049" y2="85.248"/>
<line fill="none" stroke="#FFFFFF" stroke-width="0.337" stroke-miterlimit="2" x1="272.327" y1="91.009" x2="278.088" y2="85.248"/>
<line fill="none" stroke="#FFFFFF" stroke-width="0.337" stroke-miterlimit="2" x1="268.369" y1="91.009" x2="274.008" y2="85.248"/>
<line fill="none" stroke="#FFFFFF" stroke-width="0.337" stroke-miterlimit="2" x1="264.288" y1="91.009" x2="270.049" y2="85.248"/>
<line fill="none" stroke="#FFFFFF" stroke-width="0.337" stroke-miterlimit="2" x1="260.328" y1="91.009" x2="265.968" y2="85.248"/>
<line fill="none" stroke="#FFFFFF" stroke-width="0.337" stroke-miterlimit="2" x1="256.369" y1="91.009" x2="262.008" y2="85.248"/>
<line fill="none" stroke="#FFFFFF" stroke-width="0.337" stroke-miterlimit="2" x1="252.288" y1="91.009" x2="258.048" y2="85.248"/>
<line fill="none" stroke="#FFFFFF" stroke-width="0.337" stroke-miterlimit="2" x1="248.328" y1="91.009" x2="253.969" y2="85.248"/>
<line fill="none" stroke="#FFFFFF" stroke-width="0.337" stroke-miterlimit="2" x1="244.249" y1="91.009" x2="250.008" y2="85.248"/>
<line fill="none" stroke="#FFFFFF" stroke-width="0.337" stroke-miterlimit="2" x1="240.288" y1="91.009" x2="245.928" y2="85.248"/>
<line fill="none" stroke="#FFFFFF" stroke-width="0.337" stroke-miterlimit="2" x1="236.328" y1="91.009" x2="241.969" y2="85.248"/>
<line fill="none" stroke="#FFFFFF" stroke-width="0.337" stroke-miterlimit="2" x1="232.247" y1="91.009" x2="238.008" y2="85.248"/>
<line fill="none" stroke="#FFFFFF" stroke-width="0.337" stroke-miterlimit="2" x1="228.289" y1="91.009" x2="233.928" y2="85.248"/>
<line fill="none" stroke="#FFFFFF" stroke-width="0.337" stroke-miterlimit="2" x1="224.208" y1="91.009" x2="229.969" y2="85.248"/>
<line fill="none" stroke="#FFFFFF" stroke-width="0.337" stroke-miterlimit="2" x1="220.248" y1="91.009" x2="225.888" y2="85.248"/>
<line fill="none" stroke="#FFFFFF" stroke-width="0.337" stroke-miterlimit="2" x1="216.289" y1="91.009" x2="221.928" y2="85.248"/>
<line fill="none" stroke="#FFFFFF" stroke-width="0.337" stroke-miterlimit="2" x1="212.208" y1="91.009" x2="217.849" y2="85.248"/>
<line fill="none" stroke="#FFFFFF" stroke-width="0.337" stroke-miterlimit="2" x1="208.249" y1="91.009" x2="213.888" y2="85.248"/>
<line fill="none" stroke="#FFFFFF" stroke-width="0.337" stroke-miterlimit="2" x1="204.169" y1="91.009" x2="209.928" y2="85.248"/>
<line fill="none" stroke="#FFFFFF" stroke-width="0.337" stroke-miterlimit="2" x1="200.208" y1="91.009" x2="205.849" y2="85.248"/>
<line fill="none" stroke="#FFFFFF" stroke-width="0.337" stroke-miterlimit="2" x1="196.248" y1="91.009" x2="201.889" y2="85.248"/>
<line fill="none" stroke="#FFFFFF" stroke-width="0.337" stroke-miterlimit="2" x1="192.169" y1="91.009" x2="197.808" y2="85.248"/>
<line fill="none" stroke="#FFFFFF" stroke-width="0.337" stroke-miterlimit="2" x1="188.209" y1="91.009" x2="193.849" y2="85.248"/>
<line fill="none" stroke="#FFFFFF" stroke-width="0.337" stroke-miterlimit="2" x1="184.128" y1="91.009" x2="189.889" y2="85.248"/>
<line fill="none" stroke="#FFFFFF" stroke-width="0.337" stroke-miterlimit="2" x1="180.169" y1="91.009" x2="185.808" y2="85.248"/>
<line fill="none" stroke="#FFFFFF" stroke-width="0.337" stroke-miterlimit="2" x1="176.209" y1="91.009" x2="181.848" y2="85.248"/>
<line fill="none" stroke="#FFFFFF" stroke-width="0.337" stroke-miterlimit="2" x1="172.128" y1="91.009" x2="177.769" y2="85.248"/>
<line fill="none" stroke="#FFFFFF" stroke-width="0.337" stroke-miterlimit="2" x1="168.169" y1="91.009" x2="173.808" y2="85.248"/>
<line fill="none" stroke="#FFFFFF" stroke-width="0.337" stroke-miterlimit="2" x1="164.089" y1="91.009" x2="169.728" y2="85.248"/>
<line fill="none" stroke="#FFFFFF" stroke-width="0.337" stroke-miterlimit="2" x1="160.128" y1="91.009" x2="165.769" y2="85.248"/>
<line fill="none" stroke="#FFFFFF" stroke-width="0.337" stroke-miterlimit="2" x1="156.168" y1="91.009" x2="161.809" y2="85.248"/>
<line fill="none" stroke="#FFFFFF" stroke-width="0.337" stroke-miterlimit="2" x1="152.089" y1="91.009" x2="157.728" y2="85.248"/>
<line fill="none" stroke="#FFFFFF" stroke-width="0.337" stroke-miterlimit="2" x1="148.128" y1="91.009" x2="153.769" y2="85.248"/>
<line fill="none" stroke="#FFFFFF" stroke-width="0.337" stroke-miterlimit="2" x1="144.048" y1="91.009" x2="149.689" y2="85.248"/>
<line fill="none" stroke="#FFFFFF" stroke-width="0.337" stroke-miterlimit="2" x1="140.089" y1="91.009" x2="145.728" y2="85.248"/>
<line fill="none" stroke="#FFFFFF" stroke-width="0.337" stroke-miterlimit="2" x1="136.008" y1="91.009" x2="141.768" y2="85.248"/>
<line fill="none" stroke="#FFFFFF" stroke-width="0.337" stroke-miterlimit="2" x1="132.048" y1="91.009" x2="137.689" y2="85.248"/>
<line fill="none" stroke="#FFFFFF" stroke-width="0.337" stroke-miterlimit="2" x1="128.089" y1="91.009" x2="133.728" y2="85.248"/>
<line fill="none" stroke="#FFFFFF" stroke-width="0.337" stroke-miterlimit="2" x1="124.008" y1="91.009" x2="129.648" y2="85.248"/>
<line fill="none" stroke="#FFFFFF" stroke-width="0.337" stroke-miterlimit="2" x1="123.648" y1="87.408" x2="125.689" y2="85.248"/>
<path fill="none" stroke="#FFFFFF" stroke-width="0.337" stroke-miterlimit="2" d="M396.169,177.408v-7.079 M396.169,193.009
	L396.169,193.009 M396.169,185.929v7.081 M396.169,180.289v2.759"/>
<path fill="none" stroke="#FFFFFF" stroke-width="0.337" stroke-miterlimit="2" d="M396.169,115.009v-1.32 M396.169,137.689v-19.8
	 M396.169,168.889v1.44 M396.169,146.209v19.919 M396.169,140.568v2.88"/>
<path fill="none" stroke="#FFFFFF" stroke-width="0.337" stroke-miterlimit="2" d="M396.169,98.088v-7.079 M396.169,113.689
	L396.169,113.689 M396.169,106.609v7.081 M396.169,100.849v2.88"/>
<line fill="none" stroke="#FFFFFF" stroke-width="0.337" stroke-miterlimit="2" x1="396.169" y1="85.248" x2="396.169" y2="91.009"/>
<line fill="none" stroke="#FFFFFF" stroke-width="0.337" stroke-miterlimit="2" x1="396.169" y1="193.009" x2="396.169" y2="198.648"/>
<line fill="none" stroke="#FFFFFF" stroke-width="0.9547" stroke-miterlimit="2" x1="121.489" y1="91.009" x2="396.169" y2="91.009"/>
<line fill="none" stroke="#FFFFFF" stroke-width="0.9547" stroke-miterlimit="2" x1="121.489" y1="91.009" x2="124.849" y2="85.248"/>
<line fill="none" stroke="#FFFFFF" stroke-width="0.9547" stroke-miterlimit="2" x1="124.849" y1="85.248" x2="396.169" y2="85.248"/>
<line fill="none" stroke="#FFFFFF" stroke-width="0.9547" stroke-miterlimit="2" x1="153.169" y1="198.648" x2="396.169" y2="198.648"/>
<line fill="none" stroke="#FFFFFF" stroke-width="0.9547" stroke-miterlimit="2" x1="149.929" y1="193.009" x2="153.169" y2="198.648"/>
<line fill="none" stroke="#FFFFFF" stroke-width="0.9547" stroke-miterlimit="2" x1="149.929" y1="193.009" x2="396.169" y2="193.009"/>
<line fill="none" stroke="#FFFFFF" stroke-width="0.9547" stroke-miterlimit="2" x1="136.008" y1="112.249" x2="136.008" y2="112.249"/>
<line fill="none" stroke="#FFFFFF" stroke-width="0.9547" stroke-miterlimit="2" x1="136.008" y1="112.249" x2="130.849" y2="103.249"/>
<path fill="none" stroke="#FFFFFF" stroke-width="0.9547" stroke-miterlimit="2" d="M121.609,93.528c-0.36-0.239-0.6-0.72-0.6-1.199
	c0-0.241,0-0.479,0.12-0.6"/>
<line fill="none" stroke="#FFFFFF" stroke-width="0.9547" stroke-miterlimit="2" x1="121.129" y1="91.729" x2="121.489" y2="91.009"/>
<line fill="none" stroke="#FFFFFF" stroke-width="0.9547" stroke-miterlimit="2" x1="143.328" y1="167.57" x2="157.249" y2="167.57"/>
<path fill="none" stroke="#FFFFFF" stroke-width="0.9547" stroke-miterlimit="2" d="M143.328,167.449L143.328,167.449
	c-0.959,0-1.919-0.481-2.399-1.321"/>
<line fill="none" stroke="#FFFFFF" stroke-width="0.9547" stroke-miterlimit="2" x1="140.929" y1="166.128" x2="138.048" y2="161.209"/>
<line fill="none" stroke="#FFFFFF" stroke-width="0.9547" stroke-miterlimit="2" x1="129.529" y1="146.568" x2="114.649" y2="120.77"/>
<path fill="none" stroke="#FFFFFF" stroke-width="0.9547" stroke-miterlimit="2" d="M114.649,120.77
	c-0.24-0.481-0.36-0.961-0.36-1.442c0-1.56,1.32-2.88,2.88-2.88"/>
<line fill="none" stroke="#FFFFFF" stroke-width="0.9547" stroke-miterlimit="2" x1="131.929" y1="116.449" x2="117.169" y2="116.449"/>
<path fill="none" stroke="#FFFFFF" stroke-width="0.9547" stroke-miterlimit="2" d="M150.049,130.969
	c-0.12-0.24-0.12-0.481-0.12-0.72c0-0.12,0-0.241,0-0.361"/>
<line fill="none" stroke="#FFFFFF" stroke-width="0.9547" stroke-miterlimit="2" x1="150.049" y1="130.969" x2="151.608" y2="133.728"/>
<line fill="none" stroke="#FFFFFF" stroke-width="0.9547" stroke-miterlimit="2" x1="160.128" y1="148.489" x2="161.809" y2="151.249"/>
<path fill="none" stroke="#FFFFFF" stroke-width="0.9547" stroke-miterlimit="2" d="M162.649,151.969
	c-0.361-0.12-0.6-0.361-0.84-0.72"/>
<path fill="none" stroke="#FFFFFF" stroke-width="0.9547" stroke-miterlimit="2" d="M149.929,129.888
	c2.16-7.68,9.12-12.84,17.039-12.84c3.24,0,6.479,0.84,9.24,2.521"/>
<path fill="none" stroke="#FFFFFF" stroke-width="0.9547" stroke-miterlimit="2" d="M184.728,134.328c0,0,0,0.12,0,0.361
	c0,9.84-7.919,17.759-17.759,17.759c-1.44,0-2.88-0.12-4.32-0.479"/>
<line fill="none" stroke="#FFFFFF" stroke-width="0.9547" stroke-miterlimit="2" x1="149.929" y1="193.009" x2="149.448" y2="192.289"/>
<path fill="none" stroke="#FFFFFF" stroke-width="0.9547" stroke-miterlimit="2" d="M149.448,192.289
	c-0.12-0.24-0.12-0.481-0.12-0.72c0-0.481,0.241-0.96,0.601-1.201"/>
<path fill="none" stroke="#FFFFFF" stroke-width="0.9547" stroke-miterlimit="2" d="M162.649,170.688
	c-1.201,8.161-5.88,15.24-12.72,19.68"/>
<line fill="none" stroke="#FFFFFF" stroke-width="0.9547" stroke-miterlimit="2" x1="163.489" y1="151.369" x2="162.049" y2="148.969"/>
<line fill="none" stroke="#FFFFFF" stroke-width="0.9547" stroke-miterlimit="2" x1="162.049" y1="148.969" x2="161.448" y2="147.769"/>
<line fill="none" stroke="#FFFFFF" stroke-width="0.9547" stroke-miterlimit="2" x1="152.927" y1="133.008" x2="152.209" y2="131.929"/>
<line fill="none" stroke="#FFFFFF" stroke-width="0.9547" stroke-miterlimit="2" x1="152.209" y1="131.929" x2="150.769" y2="129.409"/>
<path fill="none" stroke="#FFFFFF" stroke-width="0.9547" stroke-miterlimit="2" d="M150.888,129.409
	c2.282-6.96,8.761-11.641,16.08-11.641c3,0,6,0.72,8.52,2.28"/>
<path fill="none" stroke="#FFFFFF" stroke-width="0.9547" stroke-miterlimit="2" d="M184.008,134.689
	c0,9.479-7.558,17.039-17.039,17.039c-1.199,0-2.28-0.12-3.479-0.359"/>
<line fill="none" stroke="#FFFFFF" stroke-width="0.9547" stroke-miterlimit="2" x1="162.049" y1="148.969" x2="162.529" y2="147.168"/>
<path fill="none" stroke="#FFFFFF" stroke-width="0.9547" stroke-miterlimit="2" d="M154.249,155.209c2.04,3.359,3,7.319,3,11.28
	c0,12.599-10.081,22.68-22.68,22.68c-8.04,0-15.48-4.321-19.56-11.28"/>
<line fill="none" stroke="#FFFFFF" stroke-width="0.9547" stroke-miterlimit="2" x1="154.249" y1="155.209" x2="153.169" y2="153.408"/>
<line fill="none" stroke="#FFFFFF" stroke-width="0.9547" stroke-miterlimit="2" x1="152.809" y1="152.689" x2="153.169" y2="153.408"/>
<line fill="none" stroke="#FFFFFF" stroke-width="0.9547" stroke-miterlimit="2" x1="143.929" y1="137.448" x2="144.288" y2="138.048"/>
<line fill="none" stroke="#FFFFFF" stroke-width="0.9547" stroke-miterlimit="2" x1="143.929" y1="137.448" x2="125.928" y2="106.129"/>
<line fill="none" stroke="#FFFFFF" stroke-width="0.9547" stroke-miterlimit="2" x1="159.168" y1="152.328" x2="158.089" y2="150.529"/>
<line fill="none" stroke="#FFFFFF" stroke-width="0.9547" stroke-miterlimit="2" x1="157.728" y1="149.929" x2="158.089" y2="150.529"/>
<line fill="none" stroke="#FFFFFF" stroke-width="0.9547" stroke-miterlimit="2" x1="148.848" y1="134.569" x2="149.207" y2="135.168"/>
<line fill="none" stroke="#FFFFFF" stroke-width="0.9547" stroke-miterlimit="2" x1="148.848" y1="134.569" x2="130.849" y2="103.249"/>
<path fill="none" stroke="#FFFFFF" stroke-width="0.9547" stroke-miterlimit="2" d="M159.168,152.328
	c2.521,4.321,3.84,9.24,3.84,14.161c0,15.72-12.72,28.319-28.439,28.319c-10.08,0.12-19.44-5.399-24.48-14.16"/>
<line fill="none" stroke="#FFFFFF" stroke-width="0.9547" stroke-miterlimit="2" x1="86.568" y1="128.809" x2="104.688" y2="160.128"/>
<line fill="none" stroke="#FFFFFF" stroke-width="0.9547" stroke-miterlimit="2" x1="105.048" y1="160.73" x2="104.688" y2="160.128"/>
<line fill="none" stroke="#FFFFFF" stroke-width="0.9547" stroke-miterlimit="2" x1="113.929" y1="176.088" x2="113.569" y2="175.369"/>
<line fill="none" stroke="#FFFFFF" stroke-width="0.9547" stroke-miterlimit="2" x1="113.929" y1="176.088" x2="115.009" y2="177.889"/>
<path fill="none" stroke="#FFFFFF" stroke-width="0.9547" stroke-miterlimit="2" d="M86.688,128.809
	c-2.04-3.481-3.12-7.44-3.12-11.4c0-12.481,10.2-22.68,22.681-22.68c8.16,0,15.6,4.32,19.68,11.4"/>
<line fill="none" stroke="#FFFFFF" stroke-width="0.9547" stroke-miterlimit="2" x1="153.169" y1="153.408" x2="158.089" y2="150.529"/>
<line fill="none" stroke="#FFFFFF" stroke-width="0.9547" stroke-miterlimit="2" x1="143.929" y1="137.448" x2="148.848" y2="134.569"/>
<path fill="none" stroke="#FFFFFF" stroke-width="0.9547" stroke-miterlimit="2" d="M81.769,131.569
	c-2.52-4.32-3.84-9.12-3.84-14.16c0-15.601,12.72-28.321,28.32-28.321c10.199,0,19.56,5.4,24.6,14.161"/>
<line fill="none" stroke="#FFFFFF" stroke-width="0.9547" stroke-miterlimit="2" x1="81.649" y1="131.569" x2="99.769" y2="162.888"/>
<line fill="none" stroke="#FFFFFF" stroke-width="0.9547" stroke-miterlimit="2" x1="100.129" y1="163.489" x2="99.769" y2="162.888"/>
<line fill="none" stroke="#FFFFFF" stroke-width="0.9547" stroke-miterlimit="2" x1="109.008" y1="178.85" x2="108.648" y2="178.248"/>
<line fill="none" stroke="#FFFFFF" stroke-width="0.9547" stroke-miterlimit="2" x1="109.008" y1="178.85" x2="110.089" y2="180.769"/>
<line fill="none" stroke="#FFFFFF" stroke-width="0.9547" stroke-miterlimit="2" x1="99.769" y1="162.888" x2="104.688" y2="160.128"/>
<line fill="none" stroke="#FFFFFF" stroke-width="0.9547" stroke-miterlimit="2" x1="109.008" y1="178.85" x2="113.929" y2="176.088"/>
<path fill="none" stroke="#FFFFFF" stroke-width="0.9547" stroke-miterlimit="2" d="M91.489,125.929
	c-1.44-2.641-2.28-5.521-2.28-8.52c0-9.361,7.68-17.041,17.04-17.041c6.12,0,11.76,3.24,14.76,8.52"/>
<line fill="none" stroke="#FFFFFF" stroke-width="0.9547" stroke-miterlimit="2" x1="119.808" y1="175.009" x2="118.489" y2="172.609"/>
<line fill="none" stroke="#FFFFFF" stroke-width="0.9547" stroke-miterlimit="2" x1="109.969" y1="157.848" x2="91.489" y2="125.929"/>
<path fill="none" stroke="#FFFFFF" stroke-width="0.9547" stroke-miterlimit="2" d="M86.688,128.809
	c-2.04-3.481-3.12-7.44-3.12-11.4c0-12.481,10.2-22.68,22.681-22.68c8.16,0,15.6,4.32,19.68,11.4"/>
<line fill="none" stroke="#FFFFFF" stroke-width="0.9547" stroke-miterlimit="2" x1="121.009" y1="108.889" x2="125.329" y2="116.449"/>
<line fill="none" stroke="#FFFFFF" stroke-width="0.9547" stroke-miterlimit="2" x1="115.009" y1="177.889" x2="113.569" y2="175.369"/>
<line fill="none" stroke="#FFFFFF" stroke-width="0.9547" stroke-miterlimit="2" x1="105.048" y1="160.73" x2="86.568" y2="128.809"/>
<path fill="none" stroke="#FFFFFF" stroke-width="0.9547" stroke-miterlimit="2" d="M151.608,167.449
	c-0.479,9-7.919,16.079-17.039,16.079c-6,0-11.64-3.239-14.64-8.519"/>
<path fill="none" stroke="#FFFFFF" stroke-width="0.9547" stroke-miterlimit="2" d="M149.929,190.368
	c-4.56,2.881-9.84,4.56-15.361,4.56c-10.08,0-19.44-5.519-24.48-14.28"/>
<line fill="none" stroke="#FFFFFF" stroke-width="0.9547" stroke-miterlimit="2" x1="109.008" y1="178.85" x2="112.008" y2="184.128"/>
<line fill="none" stroke="#FFFFFF" stroke-width="0.9547" stroke-miterlimit="2" x1="108.648" y1="178.248" x2="109.008" y2="178.85"/>
<line fill="none" stroke="#FFFFFF" stroke-width="0.9547" stroke-miterlimit="2" x1="99.769" y1="162.888" x2="100.129" y2="163.489"/>
<line fill="none" stroke="#FFFFFF" stroke-width="0.9547" stroke-miterlimit="2" x1="96.769" y1="157.609" x2="99.769" y2="162.888"/>
<line fill="none" stroke="#FFFFFF" stroke-width="0.9547" stroke-miterlimit="2" x1="96.769" y1="157.609" x2="92.329" y2="160.249"/>
<line fill="none" stroke="#FFFFFF" stroke-width="0.9547" stroke-miterlimit="2" x1="112.008" y1="184.128" x2="107.569" y2="186.648"/>
<line fill="none" stroke="#FFFFFF" stroke-width="0.9547" stroke-miterlimit="2" x1="104.209" y1="180.769" x2="104.568" y2="181.489"/>
<line fill="none" stroke="#FFFFFF" stroke-width="0.9547" stroke-miterlimit="2" x1="109.008" y1="178.85" x2="104.568" y2="181.489"/>
<line fill="none" stroke="#FFFFFF" stroke-width="0.9547" stroke-miterlimit="2" x1="95.329" y1="165.528" x2="95.689" y2="166.128"/>
<line fill="none" stroke="#FFFFFF" stroke-width="0.9547" stroke-miterlimit="2" x1="99.769" y1="162.888" x2="95.329" y2="165.528"/>
<line fill="none" stroke="#FFFFFF" stroke-width="0.9547" stroke-miterlimit="2" x1="92.329" y1="160.249" x2="95.329" y2="165.528"/>
<line fill="none" stroke="#FFFFFF" stroke-width="0.9547" stroke-miterlimit="2" x1="104.568" y1="181.489" x2="107.569" y2="186.648"/>
<line fill="none" stroke="#FFFFFF" stroke-width="0.9547" stroke-miterlimit="2" x1="188.088" y1="131.209" x2="188.568" y2="132.05"/>
<line fill="none" stroke="#FFFFFF" stroke-width="0.9547" stroke-miterlimit="2" x1="188.808" y1="128.929" x2="189.288" y2="129.649"/>
<line fill="none" stroke="#FFFFFF" stroke-width="0.9547" stroke-miterlimit="2" x1="180.169" y1="117.289" x2="188.088" y2="131.209"/>
<line fill="none" stroke="#FFFFFF" stroke-width="0.9547" stroke-miterlimit="2" x1="182.449" y1="118.009" x2="188.808" y2="128.929"/>
<line fill="none" stroke="#FFFFFF" stroke-width="0.9547" stroke-miterlimit="2" x1="106.369" y1="188.329" x2="107.449" y2="190.248"/>
<line fill="none" stroke="#FFFFFF" stroke-width="0.9547" stroke-miterlimit="2" x1="108.048" y1="187.368" x2="109.128" y2="189.289"/>
<line fill="none" stroke="#FFFFFF" stroke-width="0.9547" stroke-miterlimit="2" x1="89.209" y1="158.448" x2="106.369" y2="188.329"/>
<line fill="none" stroke="#FFFFFF" stroke-width="0.9547" stroke-miterlimit="2" x1="90.768" y1="157.609" x2="108.048" y2="187.368"/>
<line fill="none" stroke="#FFFFFF" stroke-width="0.9547" stroke-miterlimit="2" x1="95.569" y1="184.609" x2="96.049" y2="185.449"/>
<line fill="none" stroke="#FFFFFF" stroke-width="0.9547" stroke-miterlimit="2" x1="87.648" y1="170.809" x2="95.569" y2="184.609"/>
<line fill="none" stroke="#FFFFFF" stroke-width="0.9547" stroke-miterlimit="2" x1="189.288" y1="129.649" x2="188.568" y2="132.05"/>
<line fill="none" stroke="#FFFFFF" stroke-width="0.9547" stroke-miterlimit="2" x1="182.449" y1="118.009" x2="180.169" y2="117.289"/>
<line fill="none" stroke="#FFFFFF" stroke-width="0.9547" stroke-miterlimit="2" x1="188.568" y1="132.05" x2="104.209" y2="180.769"/>
<line fill="none" stroke="#FFFFFF" stroke-width="0.9547" stroke-miterlimit="2" x1="180.169" y1="117.289" x2="95.689" y2="166.128"/>
<path fill="none" stroke="#FFFFFF" stroke-width="0.9547" stroke-miterlimit="2" d="M109.128,189.289
	c0.12,0.12,0.12,0.359,0.12,0.479c0,0.479-0.36,0.96-0.96,0.96c-0.24,0-0.6-0.24-0.72-0.481"/>
<path fill="none" stroke="#FFFFFF" stroke-width="0.9547" stroke-miterlimit="2" d="M89.209,158.448
	c-0.12-0.119-0.12-0.239-0.12-0.479c0-0.479,0.36-0.84,0.96-0.84c0.24,0,0.6,0.12,0.72,0.361"/>
<path fill="none" stroke="#FFFFFF" stroke-width="0.9547" stroke-miterlimit="2" d="M106.849,189.049c0.24,0,0.12,0-0.12,0
	c-3.84,0-7.56-1.201-10.56-3.6"/>
<path fill="none" stroke="#FFFFFF" stroke-width="0.9547" stroke-miterlimit="2" d="M87.648,170.688c-0.12-0.72-0.12-1.44-0.12-2.16
	c0-3.12,0.84-6.24,2.4-8.88"/>
<path fill="none" stroke="#FFFFFF" stroke-width="0.9547" stroke-miterlimit="2" d="M207.768,134.208
	c2.639-3.959,7.081-6.359,11.88-6.359c7.801,0,14.161,6.24,14.161,14.16c0,7.801-6.361,14.16-14.161,14.16
	c-7.799,0-14.16-6.359-14.16-14.16C205.488,139.249,206.328,136.489,207.768,134.208"/>
<path fill="#FFFFFF" d="M75.013,188.114l-0.169-0.291l10.32-5.999l0.169,0.291L75.013,188.114z M87.732,180.675l-0.167-0.293
	l2.52-1.44l0.167,0.293L87.732,180.675z M92.652,177.795l-0.167-0.293l17.28-9.84l0.167,0.293L92.652,177.795z M112.335,166.513
	l-0.173-0.289l2.4-1.44l0.173,0.289L112.335,166.513z M117.252,163.635l-0.167-0.292l17.159-9.84l0.167,0.292L117.252,163.635z
	 M136.935,152.354l-0.173-0.289l2.4-1.44l0.173,0.289L136.935,152.354z M141.852,149.475l-0.169-0.291l17.161-9.96l0.169,0.291
	L141.852,149.475z M161.413,138.194l-0.167-0.293l2.519-1.44l0.167,0.293L161.413,138.194z M166.333,135.314l-0.169-0.291
	l17.16-9.959l0.169,0.291L166.333,135.314z M186.01,123.917l-0.163-0.295l2.4-1.321l0.163,0.295L186.01,123.917z M190.932,121.154
	l-0.169-0.291l10.321-6l0.169,0.291L190.932,121.154z"/>
<path fill-rule="evenodd" clip-rule="evenodd" fill="#FFFFFF" d="M135.409,9.888l1.44-4.32l1.56,4.32H135.409 M132.529,13.969h1.32
	l1.081-2.88h3.959l0.96,2.88h1.32l-3.6-9.84h-1.44L132.529,13.969z M126.528,10.729h3.48V9.65h-3.48V10.729z M118.129,9.888
	l1.56-4.32l1.44,4.32H118.129z M115.368,13.969h1.2l1.08-2.88h3.96l1.08,2.88h1.32l-3.6-9.84h-1.44L115.368,13.969z M100.609,9.529
	l0.12-1.081l0.36-0.72l0.6-0.361l0.84-0.239l0.72,0.239l0.6,0.361l0.36,0.72l0.12,1.081H100.609z M100.609,10.488h5.04v-0.6
	l-0.24-1.56l-0.6-1.199l-1.08-0.84l-1.32-0.24l-1.32,0.24l-0.96,0.84l-0.6,1.32l-0.24,1.68l0.24,1.801l0.6,1.32l0.96,0.72
	l1.32,0.359l1.08-0.239l0.96-0.481l0.72-0.72l0.36-1.079h-1.32l-0.24,0.6l-0.36,0.359l-1.08,0.361l-0.84-0.12l-0.6-0.479l-0.36-0.84
	l-0.12-1.081V10.488z M94.008,13.129l-0.84-0.12l-0.6-0.6l-0.36-0.96l-0.12-1.32l0.12-1.199l0.36-0.96l0.6-0.601l0.84-0.119
	l0.84,0.119l0.601,0.601l0.36,0.96l0.12,1.199l-0.12,1.32l-0.36,0.96l-0.601,0.6L94.008,13.129z M92.089,7.488V6.289h-1.32v10.68
	h1.32v-4.081l0.48,0.6l0.48,0.481l1.2,0.359l1.2-0.359l0.96-0.72l0.6-1.32l0.24-1.801l-0.24-1.68l-0.6-1.32l-0.96-0.84l-1.2-0.24
	l-0.72,0.12l-0.48,0.24l-0.6,0.479L92.089,7.488z M88.249,6.289h-1.32v4.44l-0.12,1.081l-0.48,0.72l-0.6,0.479l-0.84,0.12
	l-0.72-0.12l-0.36-0.359l-0.24-0.6l-0.12-0.72V6.289h-1.2v6.12l0.24,0.84l0.84,0.72l1.32,0.359l0.72-0.12l0.72-0.239l0.48-0.481
	l0.48-0.6v1.081h1.2V6.289z M74.569,10.129l0.12-1.199l0.48-0.96l0.6-0.601l0.84-0.119l0.841,0.119l0.72,0.601l0.36,0.96l0.12,1.199
	l-0.12,1.32l-0.36,0.96l-0.72,0.6l-0.841,0.12l-0.84-0.12l-0.6-0.6l-0.48-0.96L74.569,10.129z M73.249,10.129l0.24,1.801l0.72,1.32
	l1.08,0.72l1.32,0.359l1.44-0.359l0.96-0.72l0.72-1.32l0.24-1.801l-0.24-1.68l-0.72-1.32l-0.96-0.84l-1.44-0.24l-1.32,0.24
	l-1.08,0.84l-0.72,1.32L73.249,10.129z M70.369,10.369l-0.36,1.199l-0.36,0.84l-0.721,0.479l-0.84,0.241l-0.84-0.241l-0.72-0.839
	l-0.48-1.201l-0.241-1.801l0.241-1.68l0.48-1.32l0.72-0.839l0.84-0.24l0.72,0.24l0.6,0.359l0.481,0.6l0.24,0.96h1.44l-0.48-1.44
	l-0.72-0.96l-0.96-0.72l-1.32-0.241l-1.44,0.481l-1.2,0.96l-0.72,1.559l-0.24,2.28l0.24,2.282l0.72,1.558l1.2,1.081l1.44,0.359
	l1.44-0.359l1.08-0.72l0.72-1.199l0.36-1.68H70.369z"/>
<path fill-rule="evenodd" clip-rule="evenodd" fill="#FFFFFF" d="M135.888,25.608h1.921v-2.16h-1.921V25.608 M135.888,31.129h1.921
	v-2.16h-1.921V31.129z M117.769,26.569l0.24-0.96l0.36-0.72l0.6-0.479l0.72-0.12l0.841,0.12l0.48,0.479l0.36,0.72l0.12,0.96H117.769
	z M117.769,27.649h5.04v-0.6l-0.12-1.562l-0.72-1.199l-0.96-0.84l-1.32-0.239l-1.32,0.239l-0.96,0.84l-0.72,1.32l-0.24,1.68
	l0.24,1.801l0.72,1.32l0.96,0.72l1.2,0.361l1.2-0.241l0.84-0.479l0.72-0.84l0.36-0.961h-1.2l-0.24,0.6l-0.36,0.361l-1.081,0.359
	l-0.84-0.119l-0.6-0.481l-0.36-0.84l-0.24-1.079V27.649z M110.569,22.009v8.041h-2.52v1.079h6.36V30.05h-2.52v-9.12h-3.24v1.079
	H110.569z M102.048,22.009v8.041h-2.64v1.079h6.36V30.05h-2.52v-9.12h-3.24v1.079H102.048z M91.969,26.569l0.12-0.96l0.48-0.72
	l0.6-0.479l0.72-0.12l0.72,0.12l0.6,0.479l0.36,0.72l0.12,0.96H91.969z M91.969,27.649h5.04v-0.6l-0.24-1.562l-0.6-1.199l-0.96-0.84
	l-1.32-0.239l-1.32,0.239l-1.08,0.84l-0.6,1.32l-0.24,1.68l0.24,1.801l0.6,1.32l1.08,0.72l1.2,0.361l1.08-0.241l0.96-0.479
	l0.72-0.84l0.36-0.961h-1.2l-0.24,0.6l-0.481,0.361l-0.96,0.359l-0.84-0.119l-0.6-0.481l-0.48-0.84l-0.12-1.079V27.649z
	 M82.249,31.129h1.32v-4.44l0.12-0.96l0.36-0.72l0.721-0.479l0.84-0.24l0.6,0.24l0.48,0.359l0.24,0.6v5.641h1.32v-6l-0.36-0.84
	l-0.841-0.84l-1.32-0.239l-0.72,0.12l-0.6,0.239l-0.481,0.481l-0.36,0.6v-3.72h-1.32V31.129z M78.529,25.969h1.32l-0.36-1.081
	l-0.6-0.959l-0.96-0.481l-1.2-0.239l-1.44,0.239l-0.96,0.84l-0.72,1.32l-0.24,1.801l0.24,1.68l0.72,1.32l0.96,0.72l1.44,0.361
	l1.2-0.241l0.96-0.6l0.6-0.96l0.36-1.32h-1.2l-0.24,0.84l-0.36,0.6l-0.6,0.361l-0.721,0.119l-0.84-0.239l-0.6-0.481l-0.48-0.96
	l-0.12-1.32l0.12-1.32l0.48-0.84l0.6-0.6l0.84-0.24l0.721,0.12l0.6,0.359l0.36,0.601L78.529,25.969z M65.088,31.129h6.24v-1.199
	h-5.04v-3.361h4.44v-1.199h-4.44v-2.88h4.92v-1.321h-6.12V31.129z"/>
<path fill-rule="evenodd" clip-rule="evenodd" fill="#FFFFFF" d="M188.209,31.129h1.32v-9.96h-0.96l-0.239,0.84l-0.481,0.601
	l-0.839,0.359l-1.081,0.12v0.96h2.28V31.129 M178.968,25.608h1.921v-2.16h-1.921V25.608z M178.968,31.129h1.921v-2.16h-1.921V31.129
	z M171.047,31.129h1.321v-9.96h-0.96l-0.361,0.84l-0.479,0.601l-0.72,0.359l-1.079,0.12v0.96h2.278V31.129z"/>
<polyline fill-rule="evenodd" clip-rule="evenodd" fill="#FFFFFF" points="245.809,26.089 248.689,26.089 249.649,21.409 
	251.328,17.089 253.608,12.888 256.728,9.048 256.728,6.768 243.048,6.768 243.048,9.289 253.969,9.289 250.848,13.129 
	248.448,17.21 246.768,21.529 245.809,26.089 "/>
<path fill="#FFFFFF" d="M249.768,32.378c-8.892,0-16.127-7.235-16.127-16.129c0-8.96,7.235-16.249,16.127-16.249
	c8.782,0,16.036,7.145,16.246,15.961h0.003v0.288C265.895,25.144,258.605,32.378,249.768,32.378z M249.768,0.337
	c-8.707,0-15.79,7.138-15.79,15.912c0,8.708,7.083,15.792,15.79,15.792c8.654,0,15.792-7.085,15.912-15.794v-0.118
	C265.56,7.422,258.422,0.337,249.768,0.337z"/>
<rect x="198.42" y="12.887" transform="matrix(0.75 0.6615 -0.6615 0.75 98.7812 -112.7918)" fill="#FFFFFF" width="0.337" height="122.764"/>
<polygon fill="#FFFFFF" points="158.06,120.43 157.818,120.213 160.338,115.174 160.64,115.324 158.396,119.81 162.677,117.027 
	162.861,117.31 "/>
<path fill-rule="evenodd" clip-rule="evenodd" fill="#FFFFFF" d="M61.608,218.449l-0.24,1.32l-0.6,0.96l-0.84,0.72l-1.2,0.12
	l-1.2-0.12l-0.96-0.72l-0.6-0.96l-0.12-1.199l0.24-1.321l0.48-0.959l0.96-0.6l1.32-0.241l1.08,0.241l0.84,0.6l0.6,0.959
	L61.608,218.449 M63.409,212.449l-0.36-1.68l-0.84-1.199l-1.44-0.84l-1.8-0.24l-1.2,0.24l-1.08,0.359l-0.84,0.601l-0.841,0.959
	l-0.6,1.081l-0.48,1.32l-0.24,1.68l-0.12,1.801l0.36,2.88l0.96,2.16l1.68,1.199l2.16,0.481l2.04-0.361l1.44-0.959l0.96-1.562
	l0.36-1.919l-0.36-1.919l-0.84-1.56l-1.44-0.84l-1.8-0.361l-2.04,0.361l-1.44,1.199l0.36-2.28l0.6-1.56l1.08-0.96l1.32-0.359
	l1.08,0.12l0.72,0.479l0.6,0.72l0.24,0.96H63.409z M45.889,222.768h1.8v-14.28h-1.32l-0.36,1.32l-0.72,0.84l-1.2,0.481l-1.56,0.12
	v1.44h3.36V222.768z"/>
<path fill="#FFFFFF" d="M52.489,232.897c-9.489,0-17.208-7.719-17.208-17.208c0-9.489,7.72-17.209,17.208-17.209
	c9.422,0,17.088,7.72,17.088,17.209C69.577,225.178,61.911,232.897,52.489,232.897z M52.489,198.817
	c-9.303,0-16.872,7.569-16.872,16.872c0,9.303,7.569,16.871,16.872,16.871c9.237,0,16.751-7.568,16.751-16.871
	C69.24,206.386,61.725,198.817,52.489,198.817z"/>
<rect x="79.2" y="170.622" transform="matrix(0.6828 0.7306 -0.7306 0.6828 164.352 2.4379)" fill="#FFFFFF" width="0.337" height="39.734"/>
<polyline fill-rule="evenodd" clip-rule="evenodd" fill="#FFFFFF" points="98.088,176.929 97.848,175.609 97.248,174.528 
	96.409,173.568 95.209,172.968 93.888,172.729 92.569,172.968 91.368,173.568 90.408,174.528 89.809,175.609 89.569,176.929 
	89.809,178.248 90.408,179.449 91.368,180.408 92.569,181.008 93.888,181.248 95.209,181.008 96.409,180.408 97.248,179.449 
	97.848,178.248 98.088,176.929 "/>
<path fill-rule="evenodd" clip-rule="evenodd" fill="#FFFFFF" d="M20.449,222.768h2.04l0.72-3.359l1.2-3.12l1.68-2.88l2.16-2.761
	v-1.679h-9.72v1.799h7.801l-2.28,2.759l-1.68,2.881l-1.2,3.12L20.449,222.768 M10.609,222.768h1.92v-14.28h-1.44l-0.36,1.32
	l-0.72,0.84l-1.08,0.481l-1.56,0.12v1.44h3.24V222.768z"/>
<path fill="#FFFFFF" d="M17.208,232.897C7.72,232.897,0,225.178,0,215.689c0-9.489,7.72-17.209,17.208-17.209
	c9.489,0,17.209,7.72,17.209,17.209C34.417,225.178,26.698,232.897,17.208,232.897z M17.208,198.817
	c-9.303,0-16.872,7.569-16.872,16.872c0,9.303,7.569,16.871,16.872,16.871c9.303,0,16.872-7.568,16.872-16.871
	C34.08,206.386,26.512,198.817,17.208,198.817z"/>
</svg>
