<?xml version="1.0" encoding="utf-8"?>
<!-- Generator: Adobe Illustrator 17.0.0, SVG Export Plug-In . SVG Version: 6.00 Build 0)  -->
<!DOCTYPE svg PUBLIC "-//W3C//DTD SVG 1.1//EN" "http://www.w3.org/Graphics/SVG/1.1/DTD/svg11.dtd">
<svg version="1.1" id="Calque_1" xmlns="http://www.w3.org/2000/svg" xmlns:xlink="http://www.w3.org/1999/xlink" x="0px" y="0px"
	 width="282.627px" height="59.062px" viewBox="-650.236 -931.424 282.627 59.062"
	 enable-background="new -650.236 -931.424 282.627 59.062" xml:space="preserve">
<g>
	<path fill="#F9F9F9" d="M-650.236-914.138c0-1.641,0.337-3.071,1.011-4.292c0.674-1.22,1.621-2.26,2.842-3.12
		c1.22-0.859,2.685-1.567,4.395-2.124c1.709-0.557,3.589-0.991,5.64-1.304c2.051-0.312,4.248-0.527,6.592-0.645
		s4.765-0.176,7.266-0.176c3.398,0,6.958,0.137,10.679,0.41c3.721,0.274,7.603,0.772,11.646,1.494
		c0.938,0.195,1.597,0.547,1.978,1.055c0.381,0.508,0.571,1.074,0.571,1.699c0,0.391-0.088,0.772-0.264,1.143
		c-0.176,0.371-0.41,0.713-0.703,1.025c-0.293,0.312-0.635,0.562-1.025,0.747c-0.391,0.186-0.801,0.278-1.23,0.278
		c-1.504,0-3.072-0.078-4.702-0.234c-1.631-0.156-3.33-0.332-5.098-0.527c-1.768-0.195-3.589-0.391-5.464-0.586
		c-1.875-0.195-3.809-0.341-5.801-0.439c-0.352,2.188-0.801,4.541-1.348,7.061c-0.547,2.52-1.147,5.093-1.802,7.72
		c-0.655,2.627-1.338,5.244-2.051,7.852c-0.713,2.607-1.402,5.098-2.065,7.471c-0.664,2.373-1.285,4.566-1.86,6.577
		c-0.576,2.012-1.05,3.74-1.421,5.186c-0.157,0.664-0.396,1.274-0.718,1.831s-0.684,1.04-1.084,1.45
		c-0.4,0.41-0.816,0.728-1.245,0.952c-0.43,0.224-0.831,0.337-1.201,0.337c-1.113,0-2.032-0.264-2.754-0.791
		c-0.723-0.527-1.084-1.377-1.084-2.549c0-0.371,0.059-0.781,0.176-1.23c0.253-1.777,0.59-3.525,1.011-5.244
		c0.42-1.718,0.913-3.511,1.479-5.376c0.566-1.865,1.211-3.842,1.934-5.933c0.722-2.09,1.523-4.39,2.402-6.899
		c0.879-2.509,1.831-5.278,2.856-8.306c1.025-3.027,2.134-6.396,3.325-10.107c-1.036,0.078-2.085,0.166-3.149,0.264
		c-1.065,0.098-2.1,0.23-3.105,0.396c-1.006,0.166-1.944,0.376-2.812,0.63c-0.869,0.254-1.631,0.576-2.285,0.967
		c-0.655,0.391-1.172,0.86-1.553,1.406c-0.381,0.547-0.571,1.191-0.571,1.934c0,0.04-0.025,0.254-0.073,0.645
		c-0.049,0.391-0.22,0.816-0.513,1.274c-0.293,0.459-0.757,0.879-1.392,1.26c-0.635,0.381-1.538,0.571-2.71,0.571
		s-2.08-0.195-2.725-0.586c-0.645-0.391-1.113-0.82-1.406-1.289C-650.001-912.81-650.197-913.435-650.236-914.138z"/>
	<path fill="#F9F9F9" d="M-597.208-893.396c0.801-1.055,1.699-2.187,2.695-3.398c0.996-1.211,2.031-2.339,3.105-3.384
		c1.074-1.044,2.143-1.914,3.208-2.607c1.064-0.693,2.065-1.04,3.003-1.04c0.234,0,0.498,0.044,0.791,0.132s0.571,0.249,0.835,0.483
		s0.483,0.562,0.659,0.981c0.176,0.42,0.264,0.962,0.264,1.626c0,1.329-0.186,2.622-0.557,3.882c-0.371,1.26-0.776,2.52-1.216,3.779
		s-0.84,2.544-1.201,3.853c-0.362,1.309-0.542,2.676-0.542,4.102c0,0.781,0.117,1.406,0.352,1.875s0.537,0.703,0.908,0.703
		c0.469,0,0.967-0.098,1.494-0.293c0.527-0.195,1.055-0.449,1.582-0.762c0.527-0.312,1.044-0.669,1.553-1.069
		c0.508-0.4,0.986-0.815,1.436-1.245c1.074-0.996,2.128-2.128,3.164-3.398l0.498,7.793c-0.352,0.274-0.796,0.615-1.333,1.025
		c-0.538,0.41-1.133,0.845-1.787,1.304c-0.655,0.459-1.362,0.923-2.124,1.392s-1.528,0.884-2.3,1.245
		c-0.772,0.362-1.543,0.659-2.314,0.894c-0.772,0.234-1.509,0.352-2.212,0.352c-1.074,0-2.007-0.288-2.798-0.864
		c-0.791-0.576-1.44-1.308-1.948-2.197c-0.508-0.889-0.889-1.86-1.143-2.915c-0.254-1.055-0.381-2.051-0.381-2.988
		c0-0.625,0.083-1.323,0.249-2.095c0.166-0.771,0.371-1.548,0.615-2.329c0.244-0.781,0.517-1.542,0.82-2.285
		c0.303-0.742,0.586-1.406,0.85-1.992s0.493-1.064,0.688-1.436c0.195-0.371,0.322-0.586,0.381-0.645l-0.615-0.088
		c-0.333,0.215-0.894,0.762-1.685,1.641s-1.685,1.988-2.681,3.325c-0.996,1.338-2.026,2.842-3.091,4.512
		c-1.065,1.67-2.026,3.394-2.886,5.171c-0.43,0.879-0.781,1.646-1.055,2.3c-0.274,0.655-0.542,1.191-0.806,1.611
		c-0.264,0.42-0.552,0.737-0.864,0.952c-0.312,0.215-0.713,0.322-1.201,0.322c-0.645,0-1.153-0.186-1.523-0.557
		c-0.371-0.371-0.655-0.864-0.85-1.479c-0.195-0.615-0.322-1.313-0.381-2.095c-0.059-0.781-0.088-1.582-0.088-2.402
		c0-1.308,0.015-3.022,0.044-5.142c0.029-2.119,0.122-4.468,0.278-7.046c0.156-2.578,0.381-5.292,0.674-8.145
		c0.293-2.852,0.708-5.669,1.245-8.452c0.537-2.783,1.211-5.439,2.021-7.969c0.81-2.529,1.797-4.756,2.959-6.68
		c1.162-1.923,2.524-3.452,4.087-4.585c1.562-1.132,3.359-1.699,5.391-1.699c1.055,0,1.919,0.157,2.593,0.469
		c0.674,0.312,1.211,0.752,1.611,1.318c0.4,0.567,0.678,1.245,0.835,2.036c0.156,0.791,0.234,1.675,0.234,2.651
		c0,1.446-0.205,3.047-0.615,4.805s-0.952,3.584-1.626,5.479c-0.674,1.895-1.44,3.813-2.3,5.757
		c-0.86,1.944-1.739,3.828-2.637,5.654c-0.898,1.827-1.783,3.55-2.651,5.171c-0.869,1.622-1.636,3.047-2.3,4.277L-597.208-893.396z
		 M-594.601-911.502c1.152-2.988,1.987-5.508,2.505-7.559c0.517-2.051,0.776-3.564,0.776-4.541c0-1.484-0.195-2.227-0.586-2.227
		c-0.508,0-1.26,0.831-2.256,2.49c-0.996,1.66-2.168,4.072-3.516,7.236c-0.333,1.074-0.64,2.188-0.923,3.34
		c-0.283,1.153-0.538,2.3-0.762,3.442c-0.225,1.143-0.43,2.266-0.615,3.369c-0.186,1.104-0.347,2.153-0.483,3.149
		c-0.333,2.325-0.586,4.6-0.762,6.826c0.527-1.23,1.103-2.568,1.729-4.014c0.625-1.445,1.24-2.875,1.846-4.292
		c0.605-1.416,1.176-2.754,1.714-4.014C-595.397-909.553-594.952-910.623-594.601-911.502z"/>
	<path fill="#F9F9F9" d="M-567.384-875.174c-1.836,0-3.442-0.332-4.819-0.996c-1.377-0.664-2.524-1.557-3.442-2.681
		c-0.918-1.123-1.607-2.421-2.065-3.896c-0.459-1.475-0.688-3.022-0.688-4.644c0-1.094,0.107-2.251,0.322-3.472
		c0.215-1.22,0.542-2.417,0.981-3.589s0.991-2.29,1.655-3.354c0.664-1.064,1.44-2.002,2.329-2.812
		c0.889-0.81,1.885-1.455,2.988-1.934c1.103-0.479,2.329-0.718,3.677-0.718c1.094,0,2.109,0.176,3.047,0.527
		s1.753,0.845,2.446,1.479c0.693,0.635,1.235,1.402,1.626,2.3c0.391,0.898,0.586,1.904,0.586,3.018c0,1.211-0.298,2.422-0.894,3.633
		c-0.596,1.211-1.421,2.354-2.476,3.428c-1.055,1.074-2.31,2.032-3.765,2.871c-1.455,0.84-3.032,1.494-4.731,1.963
		c0.293,0.527,0.581,0.967,0.864,1.318c0.283,0.352,0.571,0.625,0.864,0.82c0.293,0.195,0.601,0.333,0.923,0.41
		c0.322,0.078,0.669,0.117,1.04,0.117c1.172,0,2.407-0.234,3.706-0.703c1.299-0.469,2.563-1.055,3.794-1.758s2.392-1.469,3.486-2.3
		c1.094-0.83,2.021-1.616,2.783-2.358l3.779,3.926c-1.719,1.777-3.545,3.35-5.479,4.717c-0.84,0.586-1.743,1.162-2.71,1.729
		c-0.967,0.567-1.982,1.069-3.047,1.509c-1.065,0.439-2.168,0.791-3.311,1.055S-566.212-875.174-567.384-875.174z M-571.281-888.943
		c0.703,0,1.469-0.18,2.3-0.542c0.83-0.361,1.601-0.825,2.314-1.392c0.713-0.566,1.313-1.182,1.802-1.846
		c0.488-0.664,0.732-1.308,0.732-1.934c0-0.879-0.161-1.601-0.483-2.168c-0.322-0.566-0.718-0.85-1.187-0.85
		c-0.84,0-1.558,0.157-2.153,0.469c-0.596,0.312-1.094,0.718-1.494,1.216c-0.4,0.498-0.723,1.065-0.967,1.699
		c-0.245,0.635-0.43,1.274-0.557,1.919c-0.127,0.645-0.21,1.27-0.249,1.875C-571.261-889.89-571.281-889.372-571.281-888.943z"/>
	<path fill="#F9F9F9" d="M-516.7-920.349c0,0.664-0.161,1.646-0.483,2.944c-0.322,1.299-0.728,2.798-1.216,4.497
		c-0.488,1.699-1.016,3.545-1.582,5.537c-0.567,1.992-1.094,4.014-1.582,6.064c-0.488,2.051-0.894,4.068-1.216,6.05
		c-0.322,1.982-0.483,3.823-0.483,5.522c0,1.387,0.092,2.681,0.278,3.882c0.186,1.201,0.473,2.246,0.864,3.135
		c0.391,0.889,0.879,1.587,1.465,2.095c0.586,0.508,1.279,0.762,2.08,0.762c0.801,0,1.577-0.234,2.329-0.703
		c0.751-0.469,1.479-1.113,2.183-1.934s1.377-1.797,2.021-2.93c0.645-1.132,1.264-2.358,1.86-3.677
		c0.596-1.318,1.157-2.705,1.685-4.16c0.527-1.455,1.025-2.925,1.494-4.409c1.641-5.234,3.095-11.181,4.365-17.842
		c0.234-1.074,0.513-1.973,0.835-2.695c0.322-0.722,0.708-1.299,1.157-1.729c0.449-0.429,0.971-0.732,1.567-0.908
		c0.596-0.176,1.284-0.264,2.065-0.264c0.742,0,1.352,0.069,1.831,0.205c0.479,0.137,0.859,0.322,1.143,0.557
		c0.283,0.234,0.483,0.518,0.601,0.85c0.117,0.333,0.176,0.703,0.176,1.113c0,0.137-0.078,0.708-0.234,1.714
		c-0.157,1.006-0.356,2.295-0.601,3.867c-0.245,1.572-0.508,3.354-0.791,5.347c-0.283,1.992-0.547,4.039-0.791,6.138
		c-0.245,2.1-0.444,4.175-0.601,6.226c-0.157,2.051-0.234,3.936-0.234,5.654c0,1.758,0.063,3.345,0.19,4.761
		c0.127,1.417,0.341,2.622,0.645,3.618c0.303,0.996,0.698,1.758,1.187,2.285c0.488,0.527,1.094,0.791,1.816,0.791
		c1.25,0,2.388-0.488,3.413-1.465c1.025-0.977,1.963-2.28,2.812-3.911c0.85-1.63,1.611-3.52,2.285-5.669
		c0.674-2.148,1.27-4.395,1.787-6.738c0.517-2.344,0.967-4.707,1.348-7.09c0.381-2.383,0.698-4.633,0.952-6.753
		c0.253-2.119,0.454-4.023,0.601-5.713c0.146-1.689,0.249-3.013,0.308-3.97c0.059-0.996,0.239-1.797,0.542-2.402
		c0.303-0.605,0.688-1.074,1.157-1.406c0.469-0.332,1-0.552,1.597-0.659c0.596-0.107,1.206-0.161,1.831-0.161
		c0.488,0,0.933,0.054,1.333,0.161c0.4,0.107,0.747,0.293,1.04,0.557s0.517,0.615,0.674,1.055c0.156,0.439,0.234,1.001,0.234,1.685
		c0,1.895-0.122,3.94-0.366,6.138c-0.245,2.197-0.547,4.399-0.908,6.606c-0.362,2.208-0.752,4.355-1.172,6.445
		c-0.42,2.09-0.811,3.975-1.172,5.654c-0.362,1.68-0.664,3.096-0.908,4.248c-0.245,1.153-0.366,1.885-0.366,2.197
		c0,0.762,0.107,1.411,0.322,1.948c0.215,0.538,0.502,0.981,0.864,1.333c0.361,0.352,0.791,0.605,1.289,0.762
		c0.498,0.157,1.03,0.234,1.597,0.234c0.566,0,1.147-0.132,1.743-0.396c0.596-0.264,1.167-0.63,1.714-1.099
		c0.546-0.469,1.05-1.03,1.509-1.685c0.458-0.654,0.845-1.381,1.157-2.183l0.498,6.064c-1.446,1.66-2.935,2.969-4.468,3.926
		c-1.534,0.957-2.974,1.436-4.321,1.436c-0.645,0-1.25-0.103-1.816-0.308c-0.567-0.205-1.069-0.522-1.509-0.952
		c-0.439-0.429-0.806-0.986-1.099-1.67c-0.293-0.684-0.498-1.494-0.615-2.432c-0.977,1.816-2.026,3.453-3.149,4.907
		c-1.124,1.455-2.314,2.695-3.574,3.721s-2.578,1.816-3.955,2.373s-2.798,0.835-4.263,0.835c-1.856,0-3.433-0.488-4.731-1.465
		c-1.299-0.977-2.354-2.304-3.164-3.984c-0.811-1.68-1.402-3.652-1.772-5.918c-0.371-2.266-0.557-4.677-0.557-7.236
		c0-0.938,0.048-1.816,0.146-2.637c0.098-0.82,0.176-1.553,0.234-2.197c-0.703,4.453-1.587,8.179-2.651,11.177
		c-1.065,2.999-2.314,5.405-3.75,7.222s-3.076,3.11-4.922,3.882c-1.846,0.771-3.892,1.157-6.138,1.157
		c-1.289,0-2.52-0.425-3.691-1.274s-2.202-2.114-3.091-3.794c-0.889-1.68-1.602-3.784-2.139-6.313
		c-0.538-2.529-0.806-5.483-0.806-8.862c0-2.07,0.117-4.194,0.352-6.372c0.234-2.178,0.571-4.36,1.011-6.548
		c0.439-2.187,0.981-4.355,1.626-6.504c0.645-2.148,1.377-4.238,2.197-6.27c0.488-1.132,0.977-2.017,1.465-2.651
		c0.488-0.634,0.986-1.103,1.494-1.406c0.508-0.303,1.021-0.483,1.538-0.542c0.517-0.059,1.04-0.088,1.567-0.088
		c0.429,0,0.82,0.029,1.172,0.088s0.649,0.181,0.894,0.366c0.244,0.186,0.429,0.45,0.557,0.791
		C-516.764-921.399-516.7-920.935-516.7-920.349z"/>
	<path fill="#F9F9F9" d="M-457.872-893.396c0.801-1.055,1.699-2.187,2.695-3.398c0.996-1.211,2.031-2.339,3.105-3.384
		c1.074-1.044,2.143-1.914,3.208-2.607c1.064-0.693,2.065-1.04,3.003-1.04c0.234,0,0.498,0.044,0.791,0.132s0.571,0.249,0.835,0.483
		s0.483,0.562,0.659,0.981c0.176,0.42,0.264,0.962,0.264,1.626c0,1.329-0.186,2.622-0.557,3.882c-0.371,1.26-0.776,2.52-1.216,3.779
		s-0.84,2.544-1.201,3.853c-0.362,1.309-0.542,2.676-0.542,4.102c0,0.781,0.117,1.406,0.352,1.875s0.537,0.703,0.908,0.703
		c0.469,0,0.967-0.098,1.494-0.293c0.527-0.195,1.055-0.449,1.582-0.762c0.527-0.312,1.044-0.669,1.553-1.069
		c0.508-0.4,0.986-0.815,1.436-1.245c1.074-0.996,2.128-2.128,3.164-3.398l0.498,7.793c-0.352,0.274-0.796,0.615-1.333,1.025
		c-0.538,0.41-1.133,0.845-1.787,1.304c-0.655,0.459-1.362,0.923-2.124,1.392s-1.528,0.884-2.3,1.245
		c-0.772,0.362-1.543,0.659-2.314,0.894c-0.772,0.234-1.509,0.352-2.212,0.352c-1.074,0-2.007-0.288-2.798-0.864
		c-0.791-0.576-1.44-1.308-1.948-2.197c-0.508-0.889-0.889-1.86-1.143-2.915c-0.254-1.055-0.381-2.051-0.381-2.988
		c0-0.625,0.083-1.323,0.249-2.095c0.166-0.771,0.371-1.548,0.615-2.329c0.244-0.781,0.517-1.542,0.82-2.285
		c0.303-0.742,0.586-1.406,0.85-1.992s0.493-1.064,0.688-1.436c0.195-0.371,0.322-0.586,0.381-0.645l-0.615-0.088
		c-0.333,0.215-0.894,0.762-1.685,1.641s-1.685,1.988-2.681,3.325c-0.996,1.338-2.026,2.842-3.091,4.512
		c-1.065,1.67-2.026,3.394-2.886,5.171c-0.43,0.879-0.781,1.646-1.055,2.3c-0.274,0.655-0.542,1.191-0.806,1.611
		c-0.264,0.42-0.552,0.737-0.864,0.952c-0.312,0.215-0.713,0.322-1.201,0.322c-0.645,0-1.153-0.186-1.523-0.557
		c-0.371-0.371-0.655-0.864-0.85-1.479c-0.195-0.615-0.322-1.313-0.381-2.095c-0.059-0.781-0.088-1.582-0.088-2.402
		c0-1.308,0.015-3.022,0.044-5.142c0.029-2.119,0.122-4.468,0.278-7.046c0.156-2.578,0.381-5.292,0.674-8.145
		c0.293-2.852,0.708-5.669,1.245-8.452c0.537-2.783,1.211-5.439,2.021-7.969c0.81-2.529,1.797-4.756,2.959-6.68
		c1.162-1.923,2.524-3.452,4.087-4.585c1.562-1.132,3.359-1.699,5.391-1.699c1.055,0,1.919,0.157,2.593,0.469
		c0.674,0.312,1.211,0.752,1.611,1.318c0.4,0.567,0.678,1.245,0.835,2.036c0.156,0.791,0.234,1.675,0.234,2.651
		c0,1.446-0.205,3.047-0.615,4.805s-0.952,3.584-1.626,5.479c-0.674,1.895-1.44,3.813-2.3,5.757
		c-0.86,1.944-1.739,3.828-2.637,5.654c-0.898,1.827-1.783,3.55-2.651,5.171c-0.869,1.622-1.636,3.047-2.3,4.277L-457.872-893.396z
		 M-455.265-911.502c1.152-2.988,1.987-5.508,2.505-7.559c0.517-2.051,0.776-3.564,0.776-4.541c0-1.484-0.195-2.227-0.586-2.227
		c-0.508,0-1.26,0.831-2.256,2.49c-0.996,1.66-2.168,4.072-3.516,7.236c-0.333,1.074-0.64,2.188-0.923,3.34
		c-0.283,1.153-0.538,2.3-0.762,3.442c-0.225,1.143-0.43,2.266-0.615,3.369c-0.186,1.104-0.347,2.153-0.483,3.149
		c-0.333,2.325-0.586,4.6-0.762,6.826c0.527-1.23,1.103-2.568,1.729-4.014c0.625-1.445,1.24-2.875,1.846-4.292
		c0.605-1.416,1.176-2.754,1.714-4.014C-456.061-909.553-455.616-910.623-455.265-911.502z"/>
	<path fill="#F9F9F9" d="M-419.962-897.117c0.566,1.133,0.991,2.329,1.274,3.589c0.283,1.26,0.425,2.466,0.425,3.618
		c0,1.153-0.127,2.314-0.381,3.486c-0.254,1.172-0.62,2.305-1.099,3.398c-0.479,1.094-1.065,2.12-1.758,3.076
		c-0.693,0.957-1.484,1.787-2.373,2.49c-0.889,0.703-1.86,1.26-2.915,1.67s-2.178,0.615-3.369,0.615
		c-1.719,0-3.189-0.376-4.409-1.128c-1.221-0.751-2.222-1.733-3.003-2.944c-0.781-1.211-1.353-2.578-1.714-4.102
		c-0.362-1.523-0.542-3.066-0.542-4.629c0-2.148,0.322-4.155,0.967-6.021c0.645-1.865,1.567-3.486,2.769-4.863
		s2.67-2.461,4.409-3.252c1.738-0.791,3.691-1.187,5.859-1.187c1.855,0,3.593,0.289,5.215,0.864
		c1.621,0.576,3.139,1.348,4.556,2.314c1.416,0.967,2.734,2.076,3.955,3.325c1.22,1.25,2.358,2.539,3.413,3.867l-0.557,4.131
		c-0.527-0.703-1.241-1.465-2.139-2.285c-0.898-0.82-1.851-1.621-2.856-2.402c-1.006-0.781-1.997-1.519-2.974-2.212
		c-0.977-0.693-1.816-1.274-2.52-1.743L-419.962-897.117z M-429.015-880.799c0.664,0,1.308-0.337,1.934-1.011
		c0.625-0.674,1.172-1.523,1.641-2.549s0.845-2.158,1.128-3.398c0.283-1.24,0.425-2.427,0.425-3.56c0-0.898-0.069-1.733-0.205-2.505
		c-0.137-0.771-0.342-1.44-0.615-2.007c-0.274-0.566-0.625-1.015-1.055-1.348c-0.43-0.332-0.948-0.498-1.553-0.498
		c-0.801,0-1.563,0.342-2.285,1.025c-0.723,0.684-1.358,1.558-1.904,2.622c-0.547,1.065-0.977,2.241-1.289,3.53
		c-0.312,1.289-0.469,2.53-0.469,3.721c0,0.82,0.078,1.592,0.234,2.314c0.156,0.723,0.4,1.353,0.732,1.89
		c0.332,0.538,0.771,0.967,1.318,1.289C-430.431-880.96-429.777-880.799-429.015-880.799z"/>
	<path fill="#F9F9F9" d="M-405.841-875.174c-1.055,0-2.036-0.464-2.944-1.392c-0.908-0.927-1.699-2.172-2.373-3.735
		c-0.674-1.562-1.201-3.374-1.582-5.435c-0.381-2.061-0.571-4.223-0.571-6.489c0-1.738,0.127-3.628,0.381-5.669
		c0.253-2.041,0.625-4.146,1.113-6.313c0.488-2.168,1.069-4.346,1.743-6.533c0.674-2.187,1.436-4.287,2.285-6.299
		c0.85-2.011,1.772-3.892,2.769-5.64c0.996-1.748,2.041-3.271,3.135-4.57c1.094-1.299,2.236-2.319,3.428-3.062
		c1.191-0.742,2.402-1.113,3.633-1.113c0.839,0,1.533,0.19,2.08,0.571c0.546,0.381,0.977,0.884,1.289,1.509
		c0.312,0.625,0.532,1.333,0.659,2.124c0.127,0.791,0.19,1.597,0.19,2.417c0,1.836-0.21,3.706-0.63,5.61
		c-0.42,1.904-0.986,3.819-1.699,5.742c-0.713,1.924-1.538,3.853-2.476,5.786s-1.915,3.853-2.93,5.757
		c-1.016,1.904-2.036,3.779-3.062,5.625s-1.988,3.647-2.886,5.405c-0.098,0.195-0.201,0.45-0.308,0.762
		c-0.107,0.312-0.21,0.649-0.308,1.011c-0.098,0.362-0.195,0.747-0.293,1.157c-0.098,0.41-0.176,0.811-0.234,1.201v0.41
		c0,0.508,0.054,1.001,0.161,1.479c0.107,0.479,0.239,0.908,0.396,1.289c0.156,0.381,0.322,0.684,0.498,0.908
		c0.176,0.225,0.341,0.337,0.498,0.337c0.371,0,0.795-0.078,1.274-0.234c0.479-0.156,0.986-0.366,1.523-0.63
		c0.537-0.264,1.088-0.566,1.655-0.908c0.566-0.341,1.113-0.688,1.641-1.04c1.23-0.82,2.52-1.768,3.867-2.842l2.402,6.152
		c-1.739,1.25-3.457,2.363-5.156,3.34c-0.743,0.41-1.509,0.816-2.3,1.216c-0.791,0.4-1.587,0.757-2.388,1.069
		c-0.801,0.312-1.582,0.562-2.344,0.747C-404.464-875.266-405.177-875.174-405.841-875.174z M-405.812-898.611
		c0.879-1.562,1.812-3.32,2.798-5.273c0.986-1.953,1.919-3.965,2.798-6.035c0.879-2.07,1.641-4.135,2.285-6.196
		c0.645-2.061,1.055-3.979,1.23-5.757c0-0.566-0.015-1.05-0.044-1.45c-0.029-0.4-0.122-0.601-0.278-0.601
		c-0.567,0-1.177,0.366-1.831,1.099c-0.655,0.732-1.309,1.724-1.963,2.974c-0.655,1.25-1.279,2.706-1.875,4.365
		c-0.596,1.66-1.128,3.428-1.597,5.303s-0.84,3.804-1.113,5.786C-405.676-902.415-405.812-900.486-405.812-898.611z"/>
	<path fill="#F9F9F9" d="M-385.626-875.174c-1.836,0-3.442-0.332-4.819-0.996c-1.377-0.664-2.524-1.557-3.442-2.681
		c-0.918-1.123-1.607-2.421-2.065-3.896c-0.459-1.475-0.688-3.022-0.688-4.644c0-1.094,0.107-2.251,0.322-3.472
		c0.215-1.22,0.542-2.417,0.981-3.589s0.991-2.29,1.655-3.354c0.664-1.064,1.44-2.002,2.329-2.812
		c0.889-0.81,1.885-1.455,2.988-1.934c1.103-0.479,2.329-0.718,3.677-0.718c1.094,0,2.109,0.176,3.047,0.527
		s1.753,0.845,2.446,1.479c0.693,0.635,1.235,1.402,1.626,2.3c0.391,0.898,0.586,1.904,0.586,3.018c0,1.211-0.298,2.422-0.894,3.633
		c-0.596,1.211-1.421,2.354-2.476,3.428c-1.055,1.074-2.31,2.032-3.765,2.871c-1.455,0.84-3.032,1.494-4.731,1.963
		c0.293,0.527,0.581,0.967,0.864,1.318c0.283,0.352,0.571,0.625,0.864,0.82c0.293,0.195,0.601,0.333,0.923,0.41
		c0.322,0.078,0.669,0.117,1.04,0.117c1.172,0,2.407-0.234,3.706-0.703c1.299-0.469,2.563-1.055,3.794-1.758s2.392-1.469,3.486-2.3
		c1.094-0.83,2.021-1.616,2.783-2.358l3.779,3.926c-1.719,1.777-3.545,3.35-5.479,4.717c-0.84,0.586-1.743,1.162-2.71,1.729
		c-0.967,0.567-1.982,1.069-3.047,1.509c-1.065,0.439-2.168,0.791-3.311,1.055S-384.454-875.174-385.626-875.174z M-389.523-888.943
		c0.703,0,1.469-0.18,2.3-0.542c0.83-0.361,1.601-0.825,2.314-1.392c0.713-0.566,1.313-1.182,1.802-1.846
		c0.488-0.664,0.732-1.308,0.732-1.934c0-0.879-0.161-1.601-0.483-2.168c-0.322-0.566-0.718-0.85-1.187-0.85
		c-0.84,0-1.558,0.157-2.153,0.469c-0.596,0.312-1.094,0.718-1.494,1.216c-0.4,0.498-0.723,1.065-0.967,1.699
		c-0.245,0.635-0.43,1.274-0.557,1.919c-0.127,0.645-0.21,1.27-0.249,1.875C-389.504-889.89-389.523-889.372-389.523-888.943z"/>
</g>
</svg>
