<?xml version="1.0" encoding="utf-8"?>
<!-- Generator: Adobe Illustrator 17.0.0, SVG Export Plug-In . SVG Version: 6.00 Build 0)  -->
<!DOCTYPE svg PUBLIC "-//W3C//DTD SVG 1.1//EN" "http://www.w3.org/Graphics/SVG/1.1/DTD/svg11.dtd">
<svg version="1.1" id="Calque_1" xmlns="http://www.w3.org/2000/svg" xmlns:xlink="http://www.w3.org/1999/xlink" x="0px" y="0px"
	 width="45.24px" height="110.526px" viewBox="-14.501 108.702 45.24 110.526"
	 enable-background="new -14.501 108.702 45.24 110.526" xml:space="preserve">
<g id="Calque_1_1_">
</g>
<g id="Calque_2">
	<polygon fill="#FDCD2D" points="6.125,191.954 10.188,191.954 8.128,205.84 	"/>
	<polyline fill="#FDCD2D" points="2.513,191.954 5.005,205.719 8.082,206.25 8.082,191.954 2.513,191.954 	"/>
	<path fill="#E84830" d="M1.997,191.954c0,0-1.432,13.516,6.123,27.274c0-11.909-0.007-13.388-0.007-13.388
		s-5.129-7.624-4.993-13.868C1.997,191.954,1.997,191.954,1.997,191.954z"/>
	<polyline fill="#EAB51F" points="13.728,191.954 11.236,205.719 8.159,206.25 8.159,191.954 13.728,191.954 	"/>
	<path fill="#D33F2F" d="M14.243,191.954c0,0,1.432,13.516-6.123,27.274c0-11.909,0.007-13.388,0.007-13.388
		s5.129-7.624,4.993-13.868C14.243,191.954,14.243,191.954,14.243,191.954z"/>
	<polygon fill="#EAE4CC" points="-4.724,172.286 -14.501,182.093 -13.231,202.298 -9.085,202.298 -5.879,189.184 -1.538,187.741 	
		"/>
	<polygon fill="#EAE4CC" points="20.962,172.286 30.739,182.093 29.469,202.298 25.323,202.298 22.117,189.184 17.776,187.741 	"/>
	<rect x="3.352" y="130.5" fill="#E84830" width="9.5" height="61.454"/>
	<path fill="#E84830" d="M-4.932,130.5c-3.986,11.48-3.242,20.253-3.242,20.253c0.563,10.928,3.474,31.655,6.949,41.201
		c6.225,0,9.345,0,9.345,0L8.102,130.5H-4.932z"/>
	<polygon fill="#EAE4CC" points="8.127,108.702 3.352,130.5 12.852,130.5 	"/>
	<path fill="#D3CCB8" d="M8.12,130.5l0.006-21.798c6.717,7.382,10.686,15.056,13.027,21.798H8.12z"/>
	<path fill="#EAE4CC" d="M8.102,130.5l-0.006-21.798C1.378,116.084-2.591,123.758-4.932,130.5H8.102z"/>
	<path fill="#D33F2F" d="M21.154,130.5c3.986,11.48,3.242,20.253,3.242,20.253c-0.563,10.928-3.474,31.655-6.949,41.201
		c-6.225,0-9.345,0-9.345,0L8.12,130.5H21.154z"/>
	<path fill="#EAE4CC" d="M8.102,148.851c-2.116,0-3.838-1.722-3.838-3.838s1.722-3.838,3.838-3.838v-0.287
		c-2.278,0-4.125,1.847-4.125,4.125s1.847,4.125,4.125,4.125V148.851z"/>
	<path fill="#EAE4CC" d="M8.102,141.785c-1.783,0-3.228,1.445-3.228,3.228s1.445,3.228,3.228,3.228V141.785z"/>
	<path fill="#D3CCB8" d="M8.102,148.851c2.116,0,3.838-1.722,3.838-3.838s-1.722-3.838-3.838-3.838v-0.287
		c2.278,0,4.125,1.847,4.125,4.125s-1.847,4.125-4.125,4.125V148.851z"/>
	<path fill="#D3CCB8" d="M8.102,141.785c1.783,0,3.228,1.445,3.228,3.228s-1.445,3.228-3.228,3.228V141.785z"/>
	<path fill="#EAE4CC" d="M8.102,168.851c-2.116,0-3.838-1.722-3.838-3.838s1.722-3.838,3.838-3.838v-0.287
		c-2.278,0-4.125,1.847-4.125,4.125s1.847,4.125,4.125,4.125V168.851z"/>
	<path fill="#EAE4CC" d="M8.102,161.785c-1.783,0-3.228,1.445-3.228,3.228s1.445,3.228,3.228,3.228V161.785z"/>
	<path fill="#D3CCB8" d="M8.102,168.851c2.116,0,3.838-1.722,3.838-3.838s-1.722-3.838-3.838-3.838v-0.287
		c2.278,0,4.125,1.847,4.125,4.125s-1.847,4.125-4.125,4.125V168.851z"/>
	<path fill="#D3CCB8" d="M8.102,161.785c1.783,0,3.228,1.445,3.228,3.228s-1.445,3.228-3.228,3.228V161.785z"/>
</g>
</svg>
