<?xml version="1.0" encoding="utf-8"?>
<!-- Generator: Adobe Illustrator 17.0.0, SVG Export Plug-In . SVG Version: 6.00 Build 0)  -->
<!DOCTYPE svg PUBLIC "-//W3C//DTD SVG 1.1//EN" "http://www.w3.org/Graphics/SVG/1.1/DTD/svg11.dtd">
<svg version="1.1" id="Calque_1" xmlns="http://www.w3.org/2000/svg" xmlns:xlink="http://www.w3.org/1999/xlink" x="0px" y="0px"
	 width="377.432px" height="377.432px" viewBox="0 0 377.432 377.432" enable-background="new 0 0 377.432 377.432"
	 xml:space="preserve">
<g>
	<circle fill="#E84D18" cx="188.669" cy="188.61" r="105.099"/>
	<path fill="#CA3E17" d="M188.669,83.511c-2.216,0-4.415,0.077-6.597,0.212c51.861,17.923,89.111,67.171,89.111,125.125
		c0,21.432-5.1,41.67-14.143,59.578c22.481-19.275,36.728-47.88,36.728-79.816C293.768,130.565,246.714,83.511,188.669,83.511z"/>
	<g>
		<circle fill="#CA3E17" cx="210.21" cy="128.582" r="11.123"/>
		<path fill="#A13216" d="M212.67,137.051c-6.712-0.405-12.033-5.449-13.054-11.824c-0.27,0.854-0.453,1.75-0.509,2.685
			c-0.37,6.132,4.301,11.403,10.433,11.773c3.399,0.205,6.529-1.142,8.71-3.425C216.513,136.88,214.627,137.169,212.67,137.051z"/>
	</g>
	<g>
		<circle fill="#CA3E17" cx="159.571" cy="98.581" r="5.767"/>
		<path fill="#A13216" d="M160.847,102.972c-3.48-0.21-6.239-2.825-6.768-6.13c-0.14,0.443-0.235,0.907-0.264,1.392
			c-0.192,3.179,2.23,5.912,5.409,6.104c1.762,0.106,3.385-0.592,4.516-1.776C162.839,102.883,161.861,103.033,160.847,102.972z"/>
	</g>
	<g>
		<circle fill="#CA3E17" cx="146.418" cy="151.97" r="18.915"/>
		<path fill="#A13216" d="M156.626,162.958c-10.507,4.512-22.444,0.913-28.865-7.992c0.243,1.504,0.649,3.004,1.277,4.468
			c4.122,9.599,15.245,14.039,24.844,9.918c5.32-2.284,9.046-6.722,10.618-11.857C162.334,159.763,159.688,161.643,156.626,162.958z
			"/>
	</g>
	<g>
		<circle fill="#CA3E17" cx="108.968" cy="188.61" r="5.324"/>
		<path fill="#A13216" d="M109.847,192.739c-3.19-0.427-5.554-3.021-5.82-6.1c-0.159,0.398-0.277,0.819-0.337,1.264
			c-0.391,2.914,1.656,5.594,4.57,5.984c1.615,0.216,3.156-0.318,4.278-1.331C111.688,192.791,110.777,192.863,109.847,192.739z"/>
	</g>
	<g>
		<circle fill="#CA3E17" cx="150.258" cy="262.959" r="6.489"/>
		<path fill="#A13216" d="M152.518,267.582c-3.899,0.437-7.46-1.931-8.684-5.493c-0.07,0.518-0.086,1.051-0.025,1.594
			c0.399,3.562,3.61,6.125,7.172,5.726c1.974-0.221,3.639-1.308,4.665-2.838C154.71,267.1,153.654,267.454,152.518,267.582z"/>
	</g>
	<g>
		<circle fill="#CA3E17" cx="191.538" cy="246.524" r="9.519"/>
		<path fill="#A13216" d="M191.491,254.225c-5.182-2.032-8.085-7.361-7.264-12.642c-0.43,0.604-0.803,1.262-1.086,1.984
			c-1.856,4.734,0.478,10.077,5.212,11.933c2.624,1.029,5.432,0.766,7.733-0.475C194.561,255.071,193.002,254.817,191.491,254.225z"
			/>
	</g>
	<g>
		<circle fill="#CA3E17" cx="229.043" cy="259.373" r="13"/>
		<path fill="#A13216" d="M231.748,269.319c-7.835-0.609-13.951-6.61-15.017-14.079c-0.333,0.993-0.564,2.035-0.649,3.127
			c-0.556,7.158,4.796,13.412,11.954,13.968c3.967,0.308,7.652-1.203,10.247-3.826C236.242,269.197,234.032,269.497,231.748,269.319
			z"/>
	</g>
	<g>
		<circle fill="#CA3E17" cx="253.394" cy="213.022" r="7.77"/>
		<path fill="#A13216" d="M258.119,216.975c-4.05,2.379-9.1,1.525-12.175-1.774c0.176,0.601,0.419,1.191,0.75,1.755
			c2.173,3.7,6.934,4.938,10.635,2.765c2.051-1.204,3.341-3.204,3.718-5.378C260.281,215.38,259.299,216.282,258.119,216.975z"/>
	</g>
	<path fill="#942E14" d="M121.141,226.175c-0.262,0.108-0.385,0.396-0.3,0.699l1.966,7.343l3.75,6.464
		c0.153,0.275,0.444,0.39,0.706,0.281c0.253-0.105,0.377-0.39,0.299-0.694l0,0l-0.001-0.001c0,0,0,0,0.001,0.001l-1.747-7.296
		l-3.97-6.515C121.686,226.186,121.393,226.07,121.141,226.175z M124.722,220.236c-0.167-0.281-0.467-0.399-0.731-0.29
		c-0.266,0.11-0.397,0.414-0.312,0.722c0.001,0.003,3.428,11.77,3.428,11.77l5.79,10.5c0.157,0.281,0.465,0.403,0.732,0.292
		c0.263-0.109,0.391-0.405,0.311-0.721l-3.156-11.593L124.722,220.236z M139.843,201.811c-0.506,0.209-0.752,0.796-0.559,1.332
		l7.593,21.121l6.523,12.981c0.242,0.513,0.83,0.753,1.335,0.543c0.503-0.208,0.748-0.795,0.561-1.331l0.002,0.004l-4.432-13.848
		l-9.684-20.256C140.934,201.844,140.346,201.603,139.843,201.811z M132.772,213.171c-0.388,0.161-0.577,0.602-0.436,1.029
		l4.576,14.183l6.602,12.822c0.2,0.399,0.646,0.577,1.035,0.417c0.384-0.159,0.573-0.6,0.436-1.025l-4.24-13.799l-6.939-13.208
		C133.602,213.191,133.156,213.012,132.772,213.171z M164.95,233.559c0.627-0.26,0.927-0.976,0.685-1.634l-4.486-13.56
		l-12.377-27.181c-0.294-0.637-1.012-0.931-1.639-0.672c-0.632,0.262-0.934,0.98-0.686,1.636c0.001,0.001,10.562,27.93,10.562,27.93
		l6.304,12.814C163.598,233.524,164.319,233.82,164.95,233.559z M185.887,224.964c0.863-0.357,1.281-1.362,0.935-2.243l0.004,0.009
		l-0.004-0.009l-4.621-13.062l-13.856-31.574c-0.376-0.866-1.384-1.283-2.247-0.926c-0.864,0.358-1.283,1.364-0.935,2.244
		l12.58,32.088c0.008,0.02,5.9,12.555,5.9,12.555C184.016,224.907,185.024,225.322,185.887,224.964z M175.331,229.276
		c0.751-0.311,1.107-1.164,0.809-1.941l0.004,0.009l-4.549-13.301l-12.317-27.44c-0.338-0.76-1.193-1.111-1.944-0.8
		c-0.756,0.313-1.113,1.165-0.811,1.94l10.773,28.081l6.093,12.658C173.72,229.237,174.575,229.589,175.331,229.276z
		 M149.645,239.766c0.446-0.185,0.66-0.692,0.499-1.176l-4.359-13.88l-6.456-12.247c-0.227-0.457-0.735-0.662-1.183-0.477
		c-0.453,0.188-0.666,0.694-0.499,1.179l4.228,13.163l6.584,12.957C148.684,239.745,149.192,239.954,149.645,239.766z
		 M139.369,243.16c0.326-0.135,0.484-0.502,0.374-0.874l-3.999-13.424l-6.858-12.809c-0.187-0.341-0.558-0.489-0.884-0.354
		c-0.33,0.137-0.487,0.505-0.374,0.875c0.001,0.001,4.359,13.843,4.359,13.843l6.498,12.386
		C138.666,243.148,139.038,243.298,139.369,243.16z M162.959,184.538c-0.816,0.338-1.201,1.257-0.874,2.094l10.416,27.039
		l5.994,12.604c0.356,0.813,1.277,1.191,2.094,0.853c0.814-0.337,1.196-1.253,0.871-2.092l0.004,0.011l-4.587-13.187l-11.825-26.461
		C164.692,184.581,163.774,184.201,162.959,184.538z M159.835,235.708c0.564-0.233,0.838-0.886,0.623-1.483l-4.469-13.727
		l-11.571-25.024c-0.272-0.576-0.925-0.843-1.489-0.609c-0.569,0.236-0.842,0.887-0.624,1.484
		c0.001,0.001,9.619,25.832,9.619,25.832l6.425,12.923C158.612,235.675,159.266,235.943,159.835,235.708z M170.878,229.666
		l-0.003-0.007l-4.524-13.447l-12.691-28.14c-0.315-0.699-1.103-1.023-1.792-0.738c-0.693,0.287-1.022,1.072-0.747,1.789
		l11.01,28.834l6.208,12.757c0.309,0.693,1.097,1.016,1.788,0.73c0.69-0.286,1.016-1.07,0.747-1.784L170.878,229.666z
		 M225.963,172.288c-2.113,0.875-3.952,2.136-5.469,3.666c-6.98-13.39-23.147-19.468-37.364-13.583
		c-3.479,1.44-6.586,3.528-9.101,5.926c-0.977,0.932-1.095,1.524-0.734,2.428l20.259,48.943c0.403,0.939,1.46,1.422,2.42,1.134
		c0.041-0.012,42.48-17.554,42.755-17.668c8.516-3.525,12.562-13.288,9.037-21.805C244.24,172.812,234.479,168.763,225.963,172.288z
		 M170.125,171.987c-0.926,0.383-1.372,1.459-0.999,2.399l13.684,35.026l5.916,12.319c0.393,0.916,1.468,1.36,2.394,0.977
		c0.924-0.382,1.37-1.456,0.997-2.396l0.006,0.015l-4.463-12.922l-15.137-34.428C172.124,172.051,171.049,171.605,170.125,171.987z"
		/>
	<path fill="#FFFFFF" d="M124.014,220.429c-0.262,0.108-0.385,0.396-0.3,0.699l1.966,7.343l3.75,6.464
		c0.153,0.275,0.444,0.39,0.706,0.281c0.253-0.105,0.377-0.39,0.299-0.694l0,0l-0.001-0.001c0,0,0,0,0.001,0.001l-1.747-7.296
		l-3.97-6.515C124.559,220.44,124.266,220.325,124.014,220.429z M127.595,214.49c-0.167-0.281-0.467-0.399-0.731-0.29
		c-0.266,0.11-0.397,0.414-0.312,0.722c0.001,0.003,3.428,11.77,3.428,11.77l5.79,10.5c0.157,0.281,0.465,0.403,0.732,0.292
		c0.263-0.109,0.391-0.405,0.311-0.721l-3.156-11.593L127.595,214.49z M142.716,196.065c-0.506,0.209-0.752,0.796-0.559,1.332
		l7.593,21.121l6.523,12.981c0.242,0.513,0.83,0.753,1.335,0.543c0.503-0.208,0.748-0.795,0.561-1.331l0.002,0.004l-4.432-13.848
		l-9.684-20.256C143.807,196.098,143.219,195.857,142.716,196.065z M135.645,207.426c-0.388,0.161-0.577,0.602-0.436,1.029
		l4.576,14.183l6.602,12.822c0.2,0.399,0.646,0.577,1.035,0.417c0.384-0.159,0.573-0.6,0.436-1.025l-4.24-13.799l-6.939-13.208
		C136.474,207.445,136.029,207.266,135.645,207.426z M167.823,227.813c0.627-0.26,0.927-0.976,0.685-1.634l-4.486-13.56
		l-12.377-27.181c-0.294-0.637-1.012-0.931-1.639-0.672c-0.632,0.262-0.933,0.98-0.686,1.636c0.001,0.001,10.562,27.93,10.562,27.93
		l6.304,12.814C166.471,227.779,167.192,228.074,167.823,227.813z M188.76,219.219c0.863-0.357,1.281-1.362,0.935-2.243l0.004,0.009
		l-0.004-0.009l-4.621-13.062l-13.856-31.574c-0.376-0.866-1.384-1.283-2.247-0.926c-0.864,0.358-1.283,1.364-0.935,2.244
		l12.58,32.088c0.008,0.02,5.9,12.555,5.9,12.555C186.889,219.161,187.897,219.576,188.76,219.219z M178.204,223.53
		c0.751-0.311,1.107-1.164,0.809-1.941l0.004,0.009l-4.549-13.301l-12.317-27.44c-0.338-0.76-1.193-1.111-1.944-0.8
		c-0.756,0.313-1.113,1.165-0.811,1.94l10.773,28.081l6.093,12.658C176.593,223.491,177.448,223.843,178.204,223.53z
		 M152.518,234.02c0.446-0.185,0.66-0.692,0.499-1.176l-4.359-13.88l-6.456-12.247c-0.227-0.457-0.735-0.662-1.183-0.477
		c-0.453,0.188-0.666,0.694-0.499,1.179l4.228,13.163l6.584,12.957C151.557,234,152.065,234.208,152.518,234.02z M142.242,237.415
		c0.326-0.135,0.484-0.502,0.374-0.874l-3.999-13.424l-6.858-12.809c-0.187-0.341-0.558-0.489-0.884-0.354
		c-0.33,0.137-0.487,0.505-0.374,0.875c0.001,0.001,4.359,13.843,4.359,13.843l6.498,12.386
		C141.539,237.403,141.911,237.552,142.242,237.415z M165.832,178.792c-0.816,0.338-1.201,1.257-0.874,2.094l10.416,27.039
		l5.994,12.604c0.356,0.813,1.277,1.191,2.094,0.853c0.814-0.337,1.196-1.253,0.871-2.092l0.004,0.011l-4.587-13.187l-11.825-26.461
		C167.565,178.835,166.646,178.455,165.832,178.792z M162.708,229.962c0.564-0.233,0.838-0.886,0.623-1.483l-4.469-13.727
		l-11.571-25.024c-0.272-0.576-0.925-0.843-1.489-0.609c-0.569,0.236-0.842,0.887-0.624,1.484
		c0.001,0.001,9.619,25.832,9.619,25.832l6.425,12.923C161.485,229.93,162.139,230.197,162.708,229.962z M173.751,223.92
		l-0.003-0.007l-4.524-13.447l-12.691-28.14c-0.315-0.699-1.103-1.023-1.792-0.738c-0.693,0.287-1.022,1.072-0.747,1.789
		l11.01,28.834l6.208,12.757c0.309,0.693,1.097,1.016,1.788,0.73c0.69-0.286,1.016-1.07,0.747-1.784L173.751,223.92z
		 M228.836,166.543c-2.113,0.875-3.952,2.136-5.469,3.666c-6.98-13.39-23.147-19.468-37.364-13.583
		c-3.479,1.44-6.586,3.529-9.101,5.926c-0.977,0.932-1.095,1.524-0.734,2.428l20.259,48.943c0.403,0.939,1.46,1.422,2.42,1.134
		c0.041-0.012,42.48-17.554,42.755-17.668c8.516-3.525,12.562-13.288,9.037-21.805S237.351,163.018,228.836,166.543z
		 M172.998,166.241c-0.926,0.383-1.372,1.459-0.999,2.399l13.684,35.026l5.916,12.319c0.393,0.916,1.468,1.36,2.394,0.977
		c0.924-0.382,1.37-1.456,0.996-2.396l0.006,0.015l-4.463-12.922l-15.137-34.428C174.997,166.305,173.921,165.859,172.998,166.241z"
		/>
	<path fill="#F6A03A" d="M63.518,316.222c-38.94,0.001-54.214-13.994-60.042-26.771c-7.229-15.853-1.493-35.292,17.048-57.781
		c14.325-17.373,35.705-35.983,61.83-53.817l16.914,24.777c-23.481,16.029-43.226,33.121-55.597,48.125
		c-13.136,15.933-13.766,24.349-12.9,26.248c2.835,6.219,19.858,11.442,50.523,8.211c34.141-3.596,76.282-16.22,118.659-35.547
		c42.378-19.327,79.54-42.869,104.639-66.291c22.545-21.038,29.761-37.313,26.925-43.532c-0.434-0.951-5.193-4.79-20.551-6.192
		c-14.354-1.311-33.896-0.026-55.024,3.616l-5.096-29.563c16.722-2.883,41.197-5.904,62.848-3.928
		c23.78,2.171,38.961,10.118,45.118,23.62c6.774,14.854,6.418,40.43-33.752,77.915c-27.403,25.571-67.412,51.018-112.658,71.651
		c-45.244,20.635-90.69,34.161-127.965,38.087C76.8,315.853,69.845,316.222,63.518,316.222z"/>
	<path fill="#F18718" d="M63.517,311.195C24.578,311.196,9.304,297.2,3.477,284.423c-7.243-15.881-0.572-35.769,19.827-59.109
		c15.039-17.208,37.786-36.56,64.051-54.489l16.914,24.777c-24.228,16.539-44.96,34.103-58.376,49.454
		c-14.948,17.104-15.73,25.584-15.121,26.919c2.836,6.219,19.855,11.442,50.523,8.211c34.141-3.597,76.281-16.221,118.659-35.547
		c42.378-19.327,79.539-42.869,104.639-66.291c22.417-20.918,29.679-37.128,26.972-43.425c-1.073-1.363-7.797-5.289-25.275-6.463
		c-15.511-1.043-35.162,0.301-55.347,3.78l-5.096-29.563c23.75-4.095,46.927-5.492,65.253-3.937
		c25.497,2.165,41.55,10.115,47.713,23.628c6.774,14.854,6.418,40.429-33.752,77.915c-27.403,25.57-67.413,51.018-112.658,71.651
		c-45.245,20.635-90.69,34.16-127.965,38.087C76.8,310.824,69.844,311.195,63.517,311.195z"/>
	<path fill="#E84D18" d="M98.054,135.342c-9.202,15.62-14.484,33.826-14.484,53.267c0,12.908,2.332,25.269,6.589,36.693h7.896
		V135.342z"/>
	<path fill="#E84D18" d="M97.14,178.195c-6.229,8.366-8.573,15.917-5.984,21.7c1.719,3.839,5.471,6.574,10.836,8.251l7.129-3.192
		L97.14,178.195z"/>
	<path fill="#CA3E17" d="M289.494,158.873c-12.828-43.562-53.11-75.363-100.825-75.363c-2.216,0-4.415,0.077-6.597,0.212
		c36.036,12.454,65.013,40.036,79.344,75.151H289.494z"/>
</g>
</svg>
