<?xml version="1.0" encoding="utf-8"?>
<!-- Generator: Adobe Illustrator 17.0.0, SVG Export Plug-In . SVG Version: 6.00 Build 0)  -->
<!DOCTYPE svg PUBLIC "-//W3C//DTD SVG 1.1//EN" "http://www.w3.org/Graphics/SVG/1.1/DTD/svg11.dtd">
<svg version="1.1" id="Calque_1" xmlns="http://www.w3.org/2000/svg" xmlns:xlink="http://www.w3.org/1999/xlink" x="0px" y="0px"
	 width="183.679px" height="183.679px" viewBox="0 0 183.679 183.679" enable-background="new 0 0 183.679 183.679"
	 xml:space="preserve">
<g>
	<circle fill="#96191E" cx="91.839" cy="91.839" r="91.839"/>
	<path fill="#7B1619" d="M162.063,32.659c1.625,8.166,2.483,16.609,2.483,25.252c0,58.567-39.118,107.992-92.65,123.589
		c6.422,1.422,13.093,2.178,19.943,2.178c50.721,0,91.839-41.118,91.839-91.839C183.679,69.29,175.547,48.643,162.063,32.659z"/>
	<g>
		<circle fill="#7B1619" cx="32.707" cy="70.435" r="12.514"/>
		<path fill="#701517" d="M33.661,80.311c-7.336-1.848-12.166-8.534-11.966-15.794c-0.477,0.888-0.865,1.84-1.123,2.862
			c-1.688,6.702,2.377,13.503,9.078,15.191c3.714,0.936,7.455,0.099,10.344-1.969C37.945,80.923,35.799,80.849,33.661,80.311z"/>
	</g>
	<g>
		<circle fill="#7B1619" cx="127.61" cy="37.958" r="6.862"/>
		<path fill="#701517" d="M129.404,43.095c-4.148-0.029-7.592-2.961-8.431-6.855c-0.138,0.535-0.221,1.093-0.225,1.671
			c-0.026,3.79,3.025,6.884,6.815,6.91c2.1,0.015,3.984-0.918,5.253-2.396C131.766,42.863,130.613,43.103,129.404,43.095z"/>
	</g>
	<g>
		<circle fill="#7B1619" cx="50.047" cy="138.336" r="10.255"/>
		<path fill="#701517" d="M52.728,146.012c-6.199-0.043-11.345-4.425-12.599-10.243c-0.206,0.8-0.331,1.633-0.337,2.496
			c-0.039,5.663,4.52,10.286,10.183,10.326c3.139,0.022,5.954-1.372,7.851-3.581C56.258,145.666,54.535,146.024,52.728,146.012z"/>
	</g>
	<g>
		<circle fill="#7B1619" cx="76.619" cy="30.464" r="8.768"/>
		<path fill="#701517" d="M78.912,37.027c-5.3-0.037-9.7-3.784-10.772-8.758c-0.177,0.684-0.283,1.396-0.288,2.134
			c-0.034,4.842,3.865,8.795,8.707,8.829c2.684,0.019,5.091-1.174,6.712-3.062C81.93,36.731,80.457,37.037,78.912,37.027z"/>
	</g>
	<g>
		<circle fill="#7B1619" cx="130.891" cy="113.544" r="7.395"/>
		<path fill="#701517" d="M128.463,118.881c-3.21-3.112-3.708-7.96-1.463-11.618c-0.506,0.314-0.986,0.686-1.42,1.133
			c-2.843,2.932-2.77,7.614,0.162,10.457c1.625,1.576,3.787,2.252,5.876,2.046C130.475,120.459,129.399,119.788,128.463,118.881z"/>
	</g>
	<g>
		<circle fill="#7B1619" cx="96.096" cy="140.616" r="5.844"/>
		<path fill="#701517" d="M95.93,145.246c-3.282-1.307-5.106-4.699-4.567-8.048c-0.275,0.382-0.514,0.798-0.696,1.255
			c-1.194,2.998,0.269,6.397,3.267,7.591c1.662,0.662,3.445,0.505,4.909-0.275C97.875,145.793,96.886,145.627,95.93,145.246z"/>
	</g>
	<g>
		<circle fill="#7B1619" cx="26.327" cy="111.108" r="4.959"/>
		<path fill="#701517" d="M24.699,114.687c-2.153-2.087-2.487-5.338-0.981-7.791c-0.339,0.211-0.661,0.46-0.952,0.76
			c-1.906,1.967-1.858,5.106,0.109,7.013c1.09,1.057,2.54,1.51,3.941,1.372C26.048,115.746,25.326,115.296,24.699,114.687z"/>
	</g>
	<g>
		<circle fill="#701517" cx="175.297" cy="86.327" r="5.287"/>
		<path fill="#621315" d="M173.562,90.143c-2.295-2.225-2.651-5.692-1.046-8.307c-0.362,0.225-0.705,0.491-1.015,0.81
			c-2.033,2.097-1.981,5.444,0.116,7.477c1.162,1.127,2.708,1.61,4.202,1.463C175.001,91.272,174.231,90.792,173.562,90.143z"/>
	</g>
	<g>
		<circle fill="#701517" cx="158.958" cy="132.997" r="7.619"/>
		<path fill="#621315" d="M158.192,138.989c-4.106-2.086-6.072-6.707-4.974-10.991c-0.403,0.463-0.762,0.976-1.053,1.547
			c-1.906,3.751-0.41,8.337,3.341,10.243c2.079,1.056,4.413,1.064,6.407,0.226C160.653,139.93,159.389,139.597,158.192,138.989z"/>
	</g>
	<path fill="#591114" d="M90.61,52.983c-22.235,0-33.447,15.942-33.447,29.236c0,8.049,3.047,15.21,9.584,17.879
		c1.072,0.438,2.032,0.015,2.343-1.172c0.216-0.822,0.728-2.894,0.956-3.756c0.313-1.174,0.192-1.585-0.673-2.609
		c-1.885-2.223-3.089-5.101-3.089-9.178c0-11.827,8.849-22.415,23.042-22.415c12.568,0,19.473,7.679,19.473,17.935
		c0,13.494-5.972,24.883-14.837,24.883c-4.896,0-8.561-4.049-7.386-9.015c1.407-5.929,4.131-12.327,4.131-16.607
		c0-3.831-2.056-7.026-6.312-7.026c-5.005,0-9.025,5.178-9.025,12.114c0,4.417,1.493,7.405,1.493,7.405s-5.122,21.701-6.02,25.502
		c-1.788,7.569-0.269,16.848-0.14,17.785c0.075,0.556,0.789,0.688,1.112,0.267c0.461-0.603,6.423-7.962,8.449-15.315
		c0.573-2.082,3.292-12.864,3.292-12.864c1.626,3.102,6.378,5.833,11.432,5.833c15.045,0,25.251-13.716,25.251-32.074
		C120.239,65.912,108.481,52.983,90.61,52.983z"/>
	<path fill="#FFFFFF" d="M93.748,51.1c-22.235,0-33.447,15.942-33.447,29.236c0,8.049,3.047,15.21,9.584,17.879
		c1.072,0.438,2.032,0.015,2.343-1.172c0.216-0.822,0.728-2.894,0.956-3.756c0.313-1.174,0.192-1.585-0.673-2.609
		c-1.885-2.223-3.089-5.101-3.089-9.178c0-11.827,8.849-22.415,23.042-22.415c12.568,0,19.473,7.679,19.473,17.935
		c0,13.494-5.972,24.883-14.837,24.883c-4.896,0-8.561-4.049-7.386-9.015c1.407-5.929,4.131-12.327,4.131-16.607
		c0-3.831-2.056-7.026-6.312-7.026c-5.005,0-9.025,5.178-9.025,12.114c0,4.417,1.493,7.405,1.493,7.405s-5.122,21.701-6.02,25.502
		c-1.788,7.569-0.269,16.848-0.14,17.785c0.075,0.556,0.789,0.688,1.112,0.267c0.461-0.603,6.423-7.962,8.449-15.315
		c0.573-2.082,3.292-12.864,3.292-12.864c1.626,3.102,6.378,5.833,11.432,5.833c15.045,0,25.251-13.716,25.251-32.074
		C123.377,64.029,111.619,51.1,93.748,51.1z"/>
</g>
</svg>
