<?xml version="1.0" encoding="utf-8"?>
<!-- Generator: Adobe Illustrator 17.0.0, SVG Export Plug-In . SVG Version: 6.00 Build 0)  -->
<!DOCTYPE svg PUBLIC "-//W3C//DTD SVG 1.1//EN" "http://www.w3.org/Graphics/SVG/1.1/DTD/svg11.dtd">
<svg version="1.1" id="Calque_1" xmlns="http://www.w3.org/2000/svg" xmlns:xlink="http://www.w3.org/1999/xlink" x="0px" y="0px"
	 width="61.667px" height="61.5px" viewBox="-296.474 268.193 61.667 61.5" enable-background="new -296.474 268.193 61.667 61.5"
	 xml:space="preserve">
<polygon fill="#212121" points="-296.474,289.693 -284.974,275.36 -257.474,268.193 -250.14,277.193 -236.807,278.526 
	-234.807,308.193 -240.307,320.193 -253.807,329.693 -274.807,325.193 -287.807,311.193 -289.14,297.193 "/>
<polygon fill="#353535" points="-287.807,311.193 -276.307,299.693 -261.807,311.193 -274.807,325.193 "/>
<polygon fill="#212121" points="-253.807,329.693 -240.307,320.193 -234.807,308.193 -247.807,308.193 -253.807,316.693 
	-261.807,311.193 -274.807,325.193 "/>
<polygon fill="#565656" points="-276.307,299.693 -287.807,311.193 -289.14,297.193 -296.474,289.693 -284.974,275.36 
	-279.64,277.693 "/>
<polygon fill="#3D3D3D" points="-264.474,275.36 -279.64,277.693 -276.307,299.693 -262.807,298.36 "/>
<polygon fill="#212121" points="-257.474,268.193 -250.14,277.193 -262.807,298.36 -264.474,275.36 "/>
<polygon fill="#191919" points="-284.974,275.36 -257.474,268.193 -264.474,275.36 -279.64,277.693 "/>
<polygon fill="#3D3D3D" points="-255.409,285.998 -244.807,289.526 -248.974,303.526 -262.807,298.36 "/>
<polygon fill="#565656" points="-250.14,277.193 -236.807,278.526 -244.807,289.526 -255.409,285.998 "/>
<polygon fill="#191919" points="-262.807,298.36 -261.807,311.193 -276.307,299.693 "/>
<polygon fill="#353535" points="-248.974,303.526 -247.807,308.193 -253.807,316.693 -261.807,311.193 -262.807,298.36 "/>
<polygon fill="#191919" points="-244.807,289.526 -234.807,308.193 -247.807,308.193 -249.474,303.526 "/>
<polygon fill="#212121" points="-236.807,278.526 -234.807,308.193 -244.807,289.526 "/>
</svg>
