<?xml version="1.0" encoding="utf-8"?>
<!-- Generator: Adobe Illustrator 17.0.0, SVG Export Plug-In . SVG Version: 6.00 Build 0)  -->
<!DOCTYPE svg PUBLIC "-//W3C//DTD SVG 1.1//EN" "http://www.w3.org/Graphics/SVG/1.1/DTD/svg11.dtd">
<svg version="1.1" id="Calque_1" xmlns="http://www.w3.org/2000/svg" xmlns:xlink="http://www.w3.org/1999/xlink" x="0px" y="0px"
	 width="194.118px" height="194.118px" viewBox="0 0 194.118 194.118" enable-background="new 0 0 194.118 194.118"
	 xml:space="preserve">
<g>
	<circle fill="#D21717" cx="97.059" cy="97.059" r="97.059"/>
	<path fill="#AC1917" d="M97.876,0c42.982,15.11,73.798,56.053,73.798,104.201c0,32.667-14.188,62.016-36.734,82.235
		c34.781-14.759,59.177-49.223,59.177-89.387C194.118,43.718,151.103,0.44,97.876,0z"/>
	<g>
		<circle fill="#AC1917" cx="69.59" cy="167.681" r="11.642"/>
		<path fill="#9D1915" d="M72.165,176.545c-7.025-0.424-12.594-5.704-13.663-12.375c-0.282,0.894-0.474,1.831-0.533,2.81
			c-0.387,6.418,4.501,11.935,10.92,12.323c3.557,0.215,6.833-1.196,9.117-3.584C76.188,176.366,74.213,176.669,72.165,176.545z"/>
	</g>
	<g>
		<circle fill="#AC1917" cx="127.163" cy="155" r="9.054"/>
		<path fill="#9D1915" d="M131.662,160.594c-5.171,1.796-10.747-0.329-13.51-4.8c0.065,0.726,0.207,1.456,0.457,2.177
			c1.641,4.724,6.8,7.223,11.524,5.582c2.618-0.909,4.548-2.901,5.474-5.299C134.496,159.263,133.169,160.071,131.662,160.594z"/>
	</g>
	<g>
		<circle fill="#AC1917" cx="20.352" cy="104.77" r="6.016"/>
		<path fill="#9D1915" d="M23.341,108.487c-3.435,1.193-7.14-0.219-8.976-3.189c0.043,0.483,0.138,0.968,0.304,1.446
			c1.09,3.138,4.518,4.799,7.656,3.709c1.739-0.604,3.022-1.928,3.637-3.521C25.224,107.603,24.343,108.139,23.341,108.487z"/>
	</g>
	<g>
		<circle fill="#AC1917" cx="38.376" cy="59.39" r="12.003"/>
		<path fill="#9D1915" d="M39.291,68.863c-7.037-1.772-11.67-8.186-11.478-15.15c-0.457,0.852-0.83,1.765-1.077,2.745
			c-1.619,6.429,2.28,12.953,8.708,14.572c3.563,0.897,7.151,0.095,9.922-1.889C43.4,69.451,41.342,69.38,39.291,68.863z"/>
	</g>
	<g>
		<circle fill="#AC1917" cx="78.005" cy="49.649" r="5.955"/>
		<path fill="#9D1915" d="M78.459,54.348c-3.491-0.879-5.79-4.061-5.695-7.516c-0.227,0.423-0.412,0.876-0.534,1.362
			c-0.803,3.189,1.131,6.426,4.32,7.229c1.768,0.445,3.548,0.047,4.922-0.937C80.498,54.64,79.477,54.605,78.459,54.348z"/>
	</g>
	<g>
		<circle fill="#AC1917" cx="35.867" cy="145.943" r="3.741"/>
		<path fill="#9D1915" d="M35.469,148.882c-2.008-1.04-2.956-3.316-2.401-5.415c-0.199,0.226-0.378,0.476-0.523,0.756
			c-0.95,1.835-0.233,4.092,1.602,5.042c1.017,0.526,2.163,0.539,3.145,0.135C36.674,149.354,36.055,149.186,35.469,148.882z"/>
	</g>
	<g>
		<circle fill="#AC1917" cx="108.543" cy="24.75" r="11.507"/>
		<path fill="#9D1915" d="M111.385,33.42c-6.954-0.183-12.632-5.211-13.913-11.766c-0.249,0.893-0.407,1.825-0.432,2.793
			c-0.167,6.353,4.847,11.639,11.201,11.806c3.521,0.093,6.71-1.411,8.886-3.847C115.352,33.108,113.412,33.473,111.385,33.42z"/>
	</g>
	<g>
		<circle fill="#AC1917" cx="124.458" cy="56.016" r="7.613"/>
		<path fill="#9D1915" d="M127.941,60.946c-4.433,1.237-9.002-0.839-11.086-4.735c0.016,0.613,0.098,1.233,0.27,1.851
			c1.13,4.05,5.329,6.417,9.379,5.288c2.245-0.626,3.969-2.197,4.871-4.161C130.39,59.977,129.233,60.585,127.941,60.946z"/>
	</g>
	<g>
		<circle fill="#9D1915" cx="185.36" cy="85.475" r="6.666"/>
		<path fill="#891812" d="M185.632,90.754c-3.86-1.158-6.271-4.831-5.992-8.69c-0.275,0.461-0.504,0.958-0.666,1.496
			c-1.058,3.526,0.943,7.243,4.469,8.301c1.954,0.586,3.965,0.23,5.552-0.802C187.897,91.182,186.757,91.091,185.632,90.754z"/>
	</g>
	<g>
		<circle fill="#9D1915" cx="164.511" cy="41.176" r="3.608"/>
		<path fill="#891812" d="M163.61,43.891c-1.719-1.343-2.212-3.67-1.311-5.561c-0.229,0.179-0.443,0.384-0.63,0.623
			c-1.227,1.57-0.95,3.838,0.62,5.065c0.87,0.68,1.954,0.896,2.957,0.688C164.668,44.553,164.111,44.283,163.61,43.891z"/>
	</g>
	<g>
		<circle fill="#9D1915" cx="181.153" cy="121.749" r="4.206"/>
		<path fill="#891812" d="M183.077,124.473c-2.449,0.683-4.973-0.463-6.124-2.616c0.009,0.339,0.054,0.681,0.149,1.022
			c0.624,2.237,2.944,3.545,5.181,2.921c1.24-0.346,2.192-1.214,2.691-2.299C184.43,123.938,183.791,124.274,183.077,124.473z"/>
	</g>
	<path fill="#7D1710" d="M87.146,123.315l-2.679-9.531c0,0-6.023,5.74-14.327,5.086c-7.347-0.578-12.061-7.377-11.257-17.598
		c1.03-13.096,7.999-17.261,14.495-16.75c9.369,0.737,11.872,7.04,13.817,15.014l2.57,10.915
		c2.594,10.595,8.329,19.402,26.748,20.851c13.203,1.039,22.465-2.303,23.303-12.95c0.678-8.624-3.868-13.482-12.857-16.332
		l-6.697-2.027c-4.6-1.433-5.834-3.459-5.582-6.653c0.285-3.62,3.326-5.523,8.012-5.155c5.111,0.402,7.728,2.537,7.794,7.148
		l10.747-0.44c-0.098-9.649-6.389-14.108-17.249-14.962c-9.582-0.754-19.236,2.129-20.149,13.734
		c-0.57,7.24,2.584,12.095,11.252,14.92l7.107,2.273c5.329,1.705,6.963,4.083,6.72,7.171c-0.31,3.939-4.268,5.235-11.508,4.665
		c-10.754-0.846-14.781-6.841-16.725-14.814l-2.676-10.923C94.622,82.765,87.89,77.094,73.728,75.979
		c-15.651-1.231-24.735,8.017-26.058,24.839c-1.273,16.184,6.345,25.567,21.251,26.74C80.952,128.505,87.146,123.315,87.146,123.315
		L87.146,123.315z"/>
	<path fill="#FFFFFF" d="M89.799,119.999l-2.679-9.531c0,0-6.023,5.74-14.327,5.086c-7.347-0.578-12.061-7.377-11.257-17.598
		c1.03-13.096,7.999-17.261,14.495-16.75c9.369,0.737,11.872,7.04,13.817,15.014l2.57,10.915
		c2.594,10.595,8.329,19.402,26.748,20.851c13.203,1.039,22.465-2.303,23.303-12.95c0.678-8.624-3.868-13.482-12.857-16.332
		l-6.697-2.027c-4.6-1.433-5.834-3.459-5.582-6.653c0.285-3.62,3.326-5.523,8.012-5.155c5.111,0.402,7.728,2.537,7.794,7.148
		l10.747-0.44c-0.098-9.649-6.389-14.108-17.249-14.962c-9.582-0.754-19.236,2.129-20.149,13.734
		c-0.57,7.24,2.584,12.095,11.252,14.92l7.107,2.273c5.329,1.705,6.963,4.083,6.72,7.171c-0.31,3.939-4.268,5.235-11.508,4.665
		c-10.754-0.846-14.781-6.841-16.725-14.814l-2.676-10.923c-3.382-14.193-10.114-19.865-24.275-20.979
		c-15.651-1.231-24.735,8.017-26.058,24.839c-1.273,16.184,6.345,25.567,21.251,26.74C83.605,125.189,89.799,119.999,89.799,119.999
		L89.799,119.999z"/>
</g>
</svg>
