<?xml version="1.0" encoding="utf-8"?>
<!-- Generator: Adobe Illustrator 17.0.0, SVG Export Plug-In . SVG Version: 6.00 Build 0)  -->
<!DOCTYPE svg PUBLIC "-//W3C//DTD SVG 1.1//EN" "http://www.w3.org/Graphics/SVG/1.1/DTD/svg11.dtd">
<svg version="1.1" id="Calque_1" xmlns="http://www.w3.org/2000/svg" xmlns:xlink="http://www.w3.org/1999/xlink" x="0px" y="0px"
	 width="237.386px" height="237.386px" viewBox="0 0 237.386 237.386" enable-background="new 0 0 237.386 237.386"
	 xml:space="preserve">
<g>
	<circle fill="#25AAE2" cx="118.693" cy="118.693" r="118.693"/>
	<path fill="#008DC3" d="M141.449,2.188c40.836,22.791,68.457,66.419,68.457,116.505s-27.621,93.714-68.457,116.505
		c54.665-10.616,95.937-58.736,95.937-116.505S196.113,12.804,141.449,2.188z"/>
	<g>
		<circle fill="#008DC3" cx="35.911" cy="154.987" r="14.427"/>
		<path fill="#0081B3" d="M39.758,165.759c-8.721,0-16.004-6.114-17.824-14.287c-0.283,1.127-0.449,2.3-0.449,3.515
			c0,7.968,6.459,14.427,14.427,14.427c4.416,0,8.363-1.989,11.009-5.114C44.72,165.238,42.3,165.759,39.758,165.759z"/>
	</g>
	<g>
		<circle fill="#008DC3" cx="89.423" cy="203.277" r="8.981"/>
		<path fill="#0081B3" d="M88.572,210.347c-4.858-2.424-7.215-7.854-5.958-12.913c-0.471,0.549-0.89,1.157-1.227,1.833
			c-2.215,4.438-0.412,9.832,4.026,12.047c2.46,1.227,5.211,1.217,7.554,0.211C91.481,211.436,89.988,211.054,88.572,210.347z"/>
	</g>
	<g>
		<circle fill="#008DC3" cx="120.204" cy="32.577" r="8.473"/>
		<path fill="#0081B3" d="M123.343,38.516c-5.07,0.731-9.815-2.214-11.558-6.812c-0.07,0.679-0.069,1.375,0.033,2.081
			c0.668,4.632,4.963,7.845,9.595,7.177c2.567-0.37,4.695-1.857,5.971-3.895C126.183,37.797,124.82,38.303,123.343,38.516z"/>
	</g>
	<g>
		<circle fill="#008DC3" cx="37.4" cy="109.372" r="5.984"/>
		<path fill="#0081B3" d="M39.616,113.566c-3.58,0.516-6.932-1.563-8.163-4.811c-0.049,0.479-0.048,0.971,0.023,1.47
			c0.471,3.271,3.505,5.54,6.776,5.069c1.813-0.261,3.315-1.311,4.217-2.751C41.622,113.059,40.66,113.416,39.616,113.566z"/>
	</g>
	<g>
		<circle fill="#008DC3" cx="196.848" cy="113.831" r="4.458"/>
		<path fill="#0081B3" d="M196.618,117.358c-2.474-1.07-3.789-3.697-3.303-6.239c-0.218,0.285-0.41,0.597-0.559,0.942
			c-0.977,2.26,0.063,4.884,2.322,5.862c1.253,0.542,2.616,0.462,3.75-0.1C198.09,117.819,197.339,117.67,196.618,117.358z"/>
	</g>
	<g>
		<circle fill="#008DC3" cx="145.714" cy="203.779" r="6.99"/>
		<path fill="#0081B3" d="M147.04,209.16c-4.204-0.428-7.414-3.733-7.89-7.761c-0.192,0.529-0.33,1.087-0.389,1.672
			c-0.391,3.84,2.405,7.271,6.246,7.662c2.128,0.217,4.128-0.548,5.557-1.925C149.457,209.152,148.265,209.285,147.04,209.16z"/>
	</g>
	<g>
		<circle fill="#008DC3" cx="173.174" cy="149.899" r="2.692"/>
		<path fill="#0081B3" d="M175.022,150.967c-1.241,1.053-3.015,1.062-4.26,0.12c0.096,0.194,0.214,0.381,0.36,0.554
			c0.962,1.133,2.661,1.272,3.794,0.31c0.628-0.533,0.949-1.293,0.949-2.057C175.665,150.294,175.383,150.66,175.022,150.967z"/>
	</g>
	<g>
		<circle fill="#008DC3" cx="62.416" cy="53.885" r="12.078"/>
		<path fill="#0081B3" d="M60.016,63.155c-6.041-4.101-8.21-11.76-5.629-18.278c-0.726,0.648-1.393,1.382-1.964,2.224
			c-3.746,5.519-2.31,13.03,3.209,16.777c3.059,2.076,6.728,2.554,10.03,1.634C63.698,65.127,61.777,64.351,60.016,63.155z"/>
	</g>
	<g>
		<path fill="#04688F" d="M175.35,71.757c-2.41,5.554-5.755,10.779-10.034,15.676l0.57,2.94c1.63,8.401,1.706,17.212,0.225,26.434
			c-1.481,9.222-4.593,17.888-9.338,26.001c-4.748,8.112-11.146,15.203-19.191,21.265c-8.051,6.067-17.885,10.225-29.504,12.479
			c-7.142,1.386-14.165,1.696-21.068,0.928c-6.902-0.766-13.58-2.412-20.026-4.941c1.004-0.048,1.999-0.17,2.979-0.36
			c0.979-0.19,2.029-0.394,3.151-0.611c12.042-2.336,21.778-7.93,29.214-16.782c-5.626,0.948-10.894,0.19-15.803-2.273
			c-4.911-2.459-8.623-6.064-11.14-10.805c1.76,0.094,3.34,0.005,4.742-0.267c1.259-0.244,2.403-0.537,3.425-0.882
			c1.023-0.34,2.066-0.761,3.134-1.261c-6.127-0.12-11.555-2.079-16.289-5.884c-4.733-3.802-7.696-8.783-8.891-14.945l-0.041-0.21
			c1.842,0.514,3.765,0.87,5.762,1.061c2.001,0.193,4.185,0.059,6.57-0.404c-4.078-1.532-7.447-3.928-10.112-7.191
			c-2.668-3.259-4.435-7.128-5.305-11.611c-0.869-4.479-0.578-8.965,0.876-13.463c7.821,6.621,16.667,11.406,26.538,14.356
			c9.868,2.956,20.096,3.619,30.68,2.003c-0.746-1.599-1.308-3.377-1.689-5.339c-0.679-3.498-0.663-6.954,0.059-10.362
			c0.718-3.409,2.01-6.492,3.871-9.25c1.863-2.759,4.169-5.093,6.922-7.01c2.75-1.913,5.877-3.211,9.378-3.89
			c3.781-0.733,7.354-0.663,10.721,0.208c3.363,0.873,6.465,2.271,9.312,4.187c2.717-0.963,5.366-2.273,7.95-3.939
			c2.584-1.663,4.941-3.356,7.078-5.078c-1.101,6.316-3.915,11.656-8.44,16.021c2.604-0.796,5.028-1.772,7.273-2.937
			C171.153,74.46,173.299,73.173,175.35,71.757z"/>
	</g>
	<g>
		<path fill="#FFFFFF" d="M172.917,68.513c-2.41,5.554-5.755,10.779-10.034,15.676l0.57,2.94c1.63,8.401,1.706,17.212,0.225,26.434
			s-4.593,17.888-9.338,26.001c-4.748,8.112-11.146,15.203-19.191,21.265c-8.051,6.067-17.885,10.225-29.504,12.479
			c-7.142,1.386-14.165,1.696-21.068,0.928c-6.902-0.766-13.58-2.412-20.026-4.941c1.004-0.048,1.999-0.17,2.979-0.36
			c0.979-0.19,2.029-0.394,3.151-0.611c12.042-2.336,21.778-7.93,29.214-16.782c-5.626,0.948-10.894,0.19-15.803-2.273
			c-4.911-2.459-8.623-6.064-11.14-10.805c1.76,0.094,3.34,0.005,4.742-0.267c1.259-0.244,2.403-0.537,3.425-0.882
			c1.023-0.34,2.066-0.761,3.134-1.261c-6.127-0.12-11.555-2.079-16.289-5.884c-4.733-3.802-7.696-8.783-8.891-14.945l-0.041-0.21
			c1.842,0.514,3.765,0.87,5.762,1.061c2.001,0.193,4.185,0.059,6.57-0.404c-4.078-1.532-7.447-3.928-10.112-7.191
			c-2.668-3.259-4.435-7.128-5.305-11.611c-0.869-4.479-0.578-8.965,0.876-13.463c7.821,6.621,16.667,11.406,26.538,14.356
			c9.868,2.956,20.096,3.619,30.68,2.003c-0.746-1.599-1.308-3.377-1.689-5.339c-0.679-3.498-0.663-6.954,0.059-10.362
			c0.718-3.409,2.01-6.492,3.871-9.25c1.864-2.759,4.169-5.093,6.922-7.01c2.75-1.913,5.877-3.211,9.378-3.89
			c3.781-0.733,7.354-0.663,10.721,0.208c3.363,0.873,6.465,2.271,9.312,4.187c2.717-0.963,5.366-2.273,7.949-3.939
			c2.584-1.663,4.941-3.356,7.079-5.078c-1.101,6.316-3.915,11.656-8.44,16.021c2.604-0.796,5.028-1.772,7.273-2.937
			C168.72,71.216,170.865,69.928,172.917,68.513z"/>
	</g>
</g>
</svg>
