<?xml version="1.0" encoding="utf-8"?>
<!-- Generator: Adobe Illustrator 17.0.0, SVG Export Plug-In . SVG Version: 6.00 Build 0)  -->
<!DOCTYPE svg PUBLIC "-//W3C//DTD SVG 1.1//EN" "http://www.w3.org/Graphics/SVG/1.1/DTD/svg11.dtd">
<svg version="1.1" id="Calque_1" xmlns="http://www.w3.org/2000/svg" xmlns:xlink="http://www.w3.org/1999/xlink" x="0px" y="0px"
	 width="89px" height="81.333px" viewBox="-477.807 525.86 89 81.333" enable-background="new -477.807 525.86 89 81.333"
	 xml:space="preserve">
<polygon fill="#3D3D3D" points="-434.474,525.86 -459.14,532.193 -471.14,544.193 -477.807,558.86 -477.807,577.526 
	-460.807,599.193 -438.474,607.193 -404.474,602.193 -392.474,581.526 -388.807,560.193 -404.14,547.526 -410.974,547.526 
	-413.64,539.667 -417.807,532.193 "/>
<polygon fill="#565656" points="-459.14,532.193 -448.14,545.526 -436.14,547.526 -417.807,532.193 -434.474,525.86 "/>
<polygon fill="#3D3D3D" points="-459.14,560.193 -477.807,577.526 -477.807,558.86 -471.14,544.193 -459.14,532.193 "/>
<polygon fill="#353535" points="-442.14,573.526 -436.14,547.526 -448.14,545.526 -459.14,532.193 -459.14,560.193 "/>
<polygon fill="#565656" points="-429.474,596.526 -442.14,573.526 -459.14,560.193 -477.807,577.526 -460.807,599.193 
	-438.474,607.193 "/>
<polygon fill="#353535" points="-417.807,587.526 -420.14,578.86 -442.14,573.526 -429.474,596.526 "/>
<polygon fill="#212121" points="-438.474,607.193 -429.474,596.526 -417.807,587.526 -407.807,585.026 -401.807,562.526 
	-388.807,560.193 -392.474,581.526 -404.474,602.193 "/>
<polygon fill="#565656" points="-420.14,578.86 -401.807,562.526 -407.807,585.026 -417.807,587.526 "/>
<polygon fill="#212121" points="-442.14,573.526 -436.14,547.526 -426.744,539.667 "/>
<polygon fill="#212121" points="-417.807,532.193 -413.64,539.667 -426.744,539.667 "/>
<polygon fill="#3D3D3D" points="-409.807,547.526 -413.64,539.667 -426.744,539.667 -442.14,573.526 -420.14,578.86 
	-401.807,562.526 -417.807,554.86 "/>
<polygon fill="#565656" points="-404.14,547.526 -409.807,547.526 -417.807,554.86 -401.807,562.526 -388.807,560.193 "/>
</svg>
