<?xml version="1.0" encoding="utf-8"?>
<!-- Generator: Adobe Illustrator 17.0.0, SVG Export Plug-In . SVG Version: 6.00 Build 0)  -->
<!DOCTYPE svg PUBLIC "-//W3C//DTD SVG 1.1//EN" "http://www.w3.org/Graphics/SVG/1.1/DTD/svg11.dtd">
<svg version="1.1" id="Calque_1" xmlns="http://www.w3.org/2000/svg" xmlns:xlink="http://www.w3.org/1999/xlink" x="0px" y="0px"
	 width="90.823px" height="108.245px" viewBox="-823.38 203.643 90.823 108.245"
	 enable-background="new -823.38 203.643 90.823 108.245" xml:space="preserve">
<g id="Calque_1_1_">
</g>
<rect x="-779.411" y="203.647" fill="#FFFFFF" width="3.114" height="74.366"/>
<rect x="-811.38" y="310.763" fill="#062231" width="28" height="1.125"/>
<rect x="-772.645" y="310.763" fill="#04151C" width="28" height="1.125"/>
<path fill="#FFFFFF" d="M-778,203.643c-11.881,0-21.571,9.368-22.095,21.12h-0.025v12.75c-23.24,0-23.26,14.25-23.26,14.25v13.75
	c0,0,1,8.25,7.25,8.25s6-8,6-8s1,1.75,3,0s-1.5-3-2-6.25s9.01-5.75,9.01-5.75v47.547c-0.879-0.029-2.167-0.047-4.01-0.047
	c-9.75,0-7.25,9.5-7.25,9.5h28c0,0,0-19.5,0-25.75s5.38-7,5.38-7v-30.13c0.049,0,0.097-0.003,0.146-0.004v-44.233
	C-777.903,203.646-777.951,203.643-778,203.643z"/>
<path fill="#D3D3D3" d="M-739.807,217.555c-6.25,0-6,8-6,8s-1-1.75-3,0s1.5,3,2,6.25c0.473,3.078-8.024,5.481-8.927,5.728v-0.019
	v-9.237c0.093-0.825,0.146-1.663,0.146-2.513c0-12.217-9.903-22.12-22.12-22.12c-0.049,0-0.097,0.003-0.146,0.004v21.116v23.116
	v30.134c0,0,5.38,0.75,5.38,7s0,25.75,0,25.75h28c0,0,2.5-9.5-7.25-9.5c-1.843,0-3.131,0.018-4.01,0.047v-47.507
	c23.155-0.035,23.177-14.248,23.177-14.248v-13.75C-732.557,225.805-733.557,217.555-739.807,217.555z"/>
<rect x="-778.547" y="210.103" fill="#E89A3D" width="2.377" height="31.244"/>
<path fill="#E89A3D" d="M-778,210.103c-0.035,0-0.069-0.003-0.103-0.003c-8.65,0-15.663,7.012-15.663,15.663
	s7.012,15.663,15.663,15.663c0.035,0,0.069-0.002,0.103-0.003V210.103z"/>
<path fill="#FFFFFF" d="M-781.662,215.305c-2.526-1.241-5.581-0.2-6.822,2.326s-0.2,5.581,2.326,6.822
	c0.01,0.005,0.02,0.009,0.031,0.014c0,0-1.901-3.773-0.783-6.063C-785.793,216.115-781.657,215.308-781.662,215.305z"/>
<path fill="#D48E3A" d="M-777.854,241.423c0.035,0,0.069,0.003,0.103,0.003c8.65,0,15.663-7.012,15.663-15.663
	S-769.1,210.1-777.75,210.1c-0.035,0-0.069,0.002-0.103,0.003V241.423z"/>
<path fill="#FFFFFF" d="M-777.854,241.423"/>
<path fill="none" stroke="#062231" stroke-linecap="round" stroke-miterlimit="10" d="M-795.13,240.165
	c0,0,2.554,9.181,17.276,9.181"/>
<path fill="none" stroke="#04151C" stroke-linecap="round" stroke-miterlimit="10" d="M-760.724,240.165
	c0,0-2.554,9.181-17.276,9.181"/>
<rect x="-789.008" y="260.013" fill="#231F20" width="12.128" height="9.75"/>
<rect x="-778" y="260.013" fill="#111010" width="11.008" height="9.75"/>
</svg>
