<?xml version="1.0" encoding="utf-8"?>
<!-- Generator: Adobe Illustrator 17.0.0, SVG Export Plug-In . SVG Version: 6.00 Build 0)  -->
<!DOCTYPE svg PUBLIC "-//W3C//DTD SVG 1.1//EN" "http://www.w3.org/Graphics/SVG/1.1/DTD/svg11.dtd">
<svg version="1.1" id="Calque_1" xmlns="http://www.w3.org/2000/svg" xmlns:xlink="http://www.w3.org/1999/xlink" x="0px" y="0px"
	 width="1730.926px" height="1730.926px" viewBox="0 0 1730.926 1730.926" enable-background="new 0 0 1730.926 1730.926"
	 xml:space="preserve">
<g>
	<path fill="#FFFFFF" d="M865.463,1265.517c-230.991,0-448.178-41.508-611.555-116.879C90.173,1073.099,0,972.534,0,865.463
		s90.173-207.636,253.908-283.174c163.377-75.371,380.564-116.879,611.555-116.879s448.18,41.508,611.555,116.879
		c163.735,75.539,253.908,176.103,253.908,283.174s-90.173,207.636-253.908,283.174
		C1313.642,1224.008,1096.454,1265.517,865.463,1265.517z M865.463,468.319c-475.614,0-862.553,178.157-862.553,397.144
		s386.94,397.144,862.553,397.144s862.553-178.157,862.553-397.144S1341.076,468.319,865.463,468.319z"/>
	<path fill="#FFFFFF" d="M865.463,1730.926c-107.07,0-207.636-90.174-283.173-253.909
		c-75.371-163.374-116.881-380.562-116.881-611.554s41.51-448.18,116.881-611.554C657.827,90.174,758.393,0,865.463,0
		s207.636,90.174,283.173,253.909c75.371,163.374,116.881,380.562,116.881,611.554s-41.51,448.18-116.881,611.554
		C1073.099,1640.752,972.533,1730.926,865.463,1730.926z M865.463,2.909c-218.987,0-397.144,386.938-397.144,862.553
		s178.158,862.553,397.144,862.553s397.144-386.938,397.144-862.553S1084.45,2.909,865.463,2.909z"/>
	<path fill="#FFFFFF" d="M428.349,1539.906c-74.577,0-133.409-21.017-174.86-62.469c-75.71-75.709-83.059-210.582-20.695-379.773
		c62.23-168.821,186.453-351.746,349.788-515.081C701.684,463.483,832.931,363.85,962.139,294.457
		c126-67.668,243.722-103.437,340.439-103.437c74.577,0,133.407,21.017,174.859,62.469c75.71,75.709,83.059,210.582,20.694,379.773
		c-62.229,168.821-186.453,351.746-349.788,515.083c-119.101,119.101-250.349,218.731-379.557,288.124
		C642.787,1504.137,525.065,1539.906,428.349,1539.906z M1302.578,193.929c-198.784,0-480.592,153.364-717.939,390.712
		C421.596,747.686,297.611,930.236,235.524,1098.67c-61.95,168.065-54.84,301.847,20.021,376.71
		c40.886,40.886,99.025,61.616,172.803,61.616c198.782,0,480.589-153.362,717.937-390.709
		c336.309-336.309,483.94-735.894,329.094-890.742C1434.494,214.66,1376.355,193.929,1302.578,193.929z"/>
	<path fill="#FFFFFF" d="M1302.577,1539.906c-96.719,0-214.438-35.766-340.431-103.429
		c-129.205-69.39-260.455-169.023-379.564-288.132c-163.336-163.337-287.56-346.262-349.788-515.083
		c-62.365-169.19-55.016-304.064,20.695-379.773c41.452-41.452,100.282-62.469,174.859-62.469
		c96.72,0,214.439,35.766,340.432,103.432c129.205,69.387,260.456,169.023,379.564,288.132
		c163.336,163.334,287.559,346.26,349.788,515.081c62.365,169.19,55.016,304.064-20.694,379.773
		C1435.985,1518.889,1377.154,1539.906,1302.577,1539.906z M428.347,193.929c-73.777,0-131.915,20.73-172.802,61.616
		C100.7,410.393,248.33,809.978,584.64,1146.288c237.349,237.347,519.155,390.709,717.937,390.709
		c73.778,0,131.917-20.73,172.803-61.616c74.861-74.862,81.971-208.644,20.021-376.71
		c-62.086-168.435-186.072-350.985-349.115-514.029C908.939,347.294,627.131,193.929,428.347,193.929z"/>
</g>
</svg>
