<?xml version="1.0" encoding="utf-8"?>
<!-- Generator: Adobe Illustrator 17.1.0, SVG Export Plug-In . SVG Version: 6.00 Build 0)  -->
<!DOCTYPE svg PUBLIC "-//W3C//DTD SVG 1.1//EN" "http://www.w3.org/Graphics/SVG/1.1/DTD/svg11.dtd">
<svg version="1.1" id="Calque_1" xmlns="http://www.w3.org/2000/svg" xmlns:xlink="http://www.w3.org/1999/xlink" x="0px" y="0px"
	 viewBox="0 0 490.9 490.9" enable-background="new 0 0 490.9 490.9" xml:space="preserve">
<g>
	<circle fill="#E62E37" cx="245.4" cy="245.4" r="245.4"/>
	<path fill="#D01A27" d="M429.1,82.7c1.4,12.3,2.3,24.8,2.3,37.4c0,175.4-142.2,317.5-317.5,317.5c-7.4,0-14.7-0.3-21.9-0.8
		c42,33.7,95.4,54,153.5,54c135.5,0,245.4-109.9,245.4-245.4C490.9,183,467.5,126.1,429.1,82.7z"/>
	<g>
		<circle fill="#D01A27" cx="171.5" cy="131.8" r="47.4"/>
		<path fill="#BD1824" d="M184.2,167.2c-28.7,0-52.6-20.1-58.6-47c-0.9,3.7-1.5,7.6-1.5,11.6c0,26.2,21.2,47.4,47.4,47.4
			c14.5,0,27.5-6.5,36.2-16.8C200.5,165.5,192.5,167.2,184.2,167.2z"/>
	</g>
	<g>
		<circle fill="#BD1824" cx="281.6" cy="450.9" r="18.4"/>
		<path fill="#A41920" d="M281.3,465.4c-10.4-4-16.3-14.5-14.7-25.1c-0.8,1.2-1.6,2.5-2.1,4c-3.6,9.5,1.1,20.1,10.6,23.7
			c5.3,2,10.9,1.4,15.4-1.1C287.4,467.1,284.3,466.6,281.3,465.4z"/>
	</g>
	<g>
		<circle fill="#BD1824" cx="376.5" cy="375.3" r="23.2"/>
		<path fill="#A41920" d="M385.7,391.2c-13.8,2.5-27.1-5-32.3-17.4c-0.1,1.9,0,3.8,0.3,5.7c2.3,12.6,14.4,20.9,27,18.6
			c7-1.3,12.6-5.6,15.9-11.3C393.3,388.9,389.7,390.5,385.7,391.2z"/>
	</g>
	<g>
		<circle fill="#BD1824" cx="465.8" cy="193.1" r="12.8"/>
		<path fill="#A41920" d="M465.1,203.2c-7-3.1-10.7-10.7-9.3-17.9c-0.6,0.8-1.2,1.7-1.6,2.7c-2.9,6.4,0.1,14,6.5,16.8
			c3.6,1.6,7.5,1.4,10.7-0.2C469.3,204.6,467.2,204.1,465.1,203.2z"/>
	</g>
	<g>
		<circle fill="#BD1824" cx="471.9" cy="226.6" r="7"/>
		<path fill="#A41920" d="M471.5,232.2c-3.9-1.7-5.9-5.9-5.1-9.9c-0.3,0.4-0.7,0.9-0.9,1.5c-1.6,3.6,0,7.7,3.6,9.3
			c2,0.9,4.1,0.8,5.9-0.1C473.8,232.9,472.7,232.7,471.5,232.2z"/>
	</g>
	<g>
		<circle fill="#BD1824" cx="352.5" cy="434.9" r="10.3"/>
		<path fill="#A41920" d="M356.5,442c-6.1,1.1-12-2.2-14.3-7.7c-0.1,0.8,0,1.7,0.1,2.5c1,5.6,6.4,9.3,12,8.3c3.1-0.6,5.6-2.5,7.1-5
			C360,441,358.3,441.6,356.5,442z"/>
	</g>
	<g>
		<circle fill="#D01A27" cx="158.3" cy="374.7" r="27.2"/>
		<path fill="#BD1824" d="M164.3,395.4c-16.4-1-29.4-13.3-31.9-28.9c-0.7,2.1-1.1,4.3-1.2,6.6c-0.9,15,10.5,27.9,25.5,28.8
			c8.3,0.5,16-2.8,21.3-8.4C173.7,395,169.1,395.7,164.3,395.4z"/>
	</g>
	<g>
		<circle fill="#D01A27" cx="348.1" cy="86.2" r="15.7"/>
		<path fill="#BD1824" d="M347.1,98.7c-8.7-3.9-13.1-13.3-11.3-22.2c-0.8,1-1.5,2.1-2,3.3c-3.6,7.9-0.1,17.2,7.8,20.8
			c4.4,2,9.2,1.8,13.2-0.1C352.2,100.4,349.6,99.8,347.1,98.7z"/>
	</g>
	<g>
		<circle fill="#D01A27" cx="307.1" cy="176.4" r="9.4"/>
		<path fill="#BD1824" d="M304.3,183.3c-4.2-3.8-5.1-9.9-2.5-14.7c-0.6,0.4-1.2,0.9-1.7,1.5c-3.4,3.9-3.1,9.8,0.8,13.3
			c2.1,1.9,4.9,2.6,7.6,2.3C307,185.2,305.6,184.4,304.3,183.3z"/>
	</g>
	<g>
		<circle fill="#D01A27" cx="75.3" cy="117.2" r="7.2"/>
		<path fill="#BD1824" d="M76.2,122.8c-4.3-0.8-7.3-4.4-7.5-8.6c-0.2,0.5-0.4,1.1-0.5,1.7c-0.7,3.9,1.9,7.7,5.8,8.4
			c2.2,0.4,4.3-0.2,5.9-1.5C78.7,123,77.5,123,76.2,122.8z"/>
	</g>
	<g>
		<circle fill="#D01A27" cx="248.6" cy="67.4" r="17.5"/>
		<path fill="#BD1824" d="M255,79.6c-10.5,1.5-20.3-4.6-23.9-14.1c-0.1,1.4-0.1,2.8,0.1,4.3c1.4,9.6,10.3,16.2,19.8,14.8
			c5.3-0.8,9.7-3.8,12.3-8.1C260.9,78.2,258.1,79.2,255,79.6z"/>
	</g>
	<g opacity="0.8">
		<path fill="#E62F38" d="M331.8,254c1-1.8,1.8-3.4,2.4-4.7c2.1-4.4,3.7-8.1,4.7-11.1c1-3,1.6-5.3,1.7-6.8c0.2-2.2,0-3.4-0.6-3.4
			c-0.8-0.1-2,1.1-3.7,3.5c-1.7,2.4-3.8,5.9-6.2,10.5c-0.6,1.6-1.2,3.2-1.8,4.9c-0.6,1.7-1.1,3.4-1.6,5.1c-0.5,1.7-0.9,3.4-1.3,5
			c-0.4,1.6-0.8,3.2-1.1,4.7c-0.8,3.5-1.4,6.9-2,10.2c0.9-1.8,2-3.8,3.1-5.9c1.1-2.1,2.2-4.2,3.3-6.3
			C329.8,257.8,330.8,255.8,331.8,254z"/>
		<path fill="#E62F38" d="M157.7,281.7c1.2-0.6,2.3-1.4,3.4-2.4c1-0.9,1.9-1.9,2.5-3c0.7-1.1,1-2.1,0.9-3c-0.1-1.3-0.4-2.4-1-3.2
			c-0.5-0.8-1.2-1.2-1.9-1.2c-1.3,0.1-2.3,0.4-3.2,0.9s-1.6,1.2-2.1,2c-0.6,0.8-1,1.7-1.3,2.7c-0.3,1-0.5,2-0.6,3
			c-0.1,1-0.2,1.9-0.2,2.9c0,0.9,0,1.7,0.1,2.4C155.3,282.7,156.5,282.3,157.7,281.7z"/>
		<path fill="#E62F38" d="M377.7,275.6c-0.6-0.6-1.3-0.9-2.2-1c-1.2-0.1-2.4,0.2-3.6,1.1c-1.2,0.9-2.3,2.1-3.3,3.6
			c-1,1.5-1.9,3.2-2.6,5.1c-0.7,1.9-1.2,3.7-1.4,5.5c-0.1,1.2-0.2,2.4-0.1,3.5c0.1,1.1,0.4,2.1,0.8,3c0.4,0.9,1,1.6,1.8,2.2
			c0.8,0.6,1.7,0.9,2.9,1.1c1,0.1,2-0.3,3.1-1.2c1.1-0.9,2-2.1,2.9-3.5c0.9-1.5,1.7-3.1,2.3-4.9c0.7-1.8,1.1-3.6,1.3-5.3
			c0.2-1.4,0.2-2.6,0.1-3.8c-0.1-1.2-0.3-2.2-0.6-3.1C378.7,276.9,378.3,276.2,377.7,275.6z"/>
		<path fill="#E62F38" d="M111.7,263.3c0.7-2.2,1.3-4.3,1.9-6.3c0.6-2,1.1-3.7,1.5-5.1c1.2-4.7,2.1-8.6,2.5-11.8
			c0.4-3.2,0.6-5.5,0.4-7c-0.2-2.2-0.7-3.3-1.2-3.3c-0.8,0.1-1.8,1.5-3,4.1c-1.2,2.7-2.6,6.5-4.1,11.5c-0.3,1.7-0.6,3.4-0.8,5.2
			s-0.4,3.6-0.6,5.3c-0.1,1.8-0.3,3.5-0.4,5.2c-0.1,1.7-0.2,3.3-0.2,4.8c-0.1,3.6-0.1,7,0,10.4c0.6-1.9,1.2-4.1,1.9-6.3
			C110.4,267.8,111.1,265.6,111.7,263.3z"/>
		<path fill="#2E0D10" d="M100.9,242.5c0.7-3.1,1.6-6,2.6-8.5c-0.6-0.3-1.4-0.6-2.4-0.6c-6.2-0.1-12.2,0.1-17.8,0.7
			c-5.6,0.5-11,1.2-16.1,2.1c-3.7,0.6-7.4,1.3-10.8,2.1c-3.5,0.8-6.7,1.6-9.7,2.6c-3,1-5.7,2.1-8.1,3.4c-2.4,1.3-4.4,2.7-6,4.3
			c-1.6,1.6-2.8,3.4-3.5,5.4c-0.7,2-0.9,4.2-0.4,6.7c0.2,1,0.7,1.9,1.3,2.7c0.6,0.6,1.4,1.2,2.4,1.6c1.1,0.4,2.5,0.5,4.2,0.2
			s3.1-0.8,3.9-1.5c0.9-0.7,1.4-1.5,1.8-2.2s0.5-1.4,0.5-2c0-0.6,0-0.9-0.1-1c-0.2-1.1-0.1-2.1,0.4-3c0.4-0.9,1.1-1.7,2-2.5
			c0.9-0.7,1.9-1.4,3.2-2c1.2-0.6,2.6-1.1,4.1-1.6c1.5-0.5,3-1,4.6-1.4c1.6-0.4,3.1-0.8,4.7-1.2c-0.9,5.9-1.7,11.2-2.5,16
			c-0.8,4.8-1.5,9.2-2.2,13.1s-1.3,7.6-1.9,10.9c-0.6,3.3-1,6.4-1.4,9.4c-0.4,2.9-0.7,5.7-0.9,8.4s-0.3,5.4-0.2,8.1
			c-0.1,0.7-0.1,1.3,0,1.9c0.3,1.8,1,2.9,2.3,3.5c1.2,0.6,2.7,0.8,4.3,0.5c0.6-0.1,1.1-0.4,1.7-0.8c0.6-0.4,1.1-1,1.6-1.7
			s0.9-1.5,1.3-2.4c0.3-0.9,0.5-1.9,0.6-2.9c0.2-2.3,0.5-5,0.8-8.1c0.4-3.2,0.7-6.6,1.1-10.3c0.4-3.7,0.8-7.6,1.2-11.7
			c0.4-4.1,0.8-8.2,1.1-12.3s0.6-8.1,0.8-12c0.2-3.9,0.3-7.5,0.3-10.9c3-0.3,5.9-0.6,8.8-0.8c2.9-0.2,5.6-0.3,8.3-0.5
			c2.7-0.1,5.3-0.3,7.8-0.5C96.7,243.1,98.8,242.8,100.9,242.5z"/>
		<path fill="#2E0D10" d="M100.8,242.9c-0.8,4-1.4,8.1-1.7,12.4c-0.4,4.3-0.5,8.6-0.5,13c0,4.4,0.1,8.5,0.3,12.4
			c0.2,3.9,0.4,7.5,0.7,10.7c0.3,3.2,0.6,5.8,0.8,7.8c0.1,1.2,0.3,2.4,0.5,3.6c0.2,1.2,0.5,2.2,0.9,3.1c0.4,0.9,0.9,1.6,1.5,2.1
			c0.6,0.5,1.4,0.7,2.4,0.6c0.7-0.1,1.3-0.3,1.8-0.7s0.8-0.9,1.1-1.6c0.3-0.7,0.6-1.5,0.9-2.6s0.7-2.2,1.2-3.6
			c1-2.8,2.2-5.6,3.5-8.3c1.3-2.7,2.6-5.1,3.9-7.3s2.5-4,3.5-5.5c1.1-1.5,1.8-2.4,2.3-2.8l0.9,0c-0.1,0.1-0.2,0.4-0.5,1
			c-0.2,0.6-0.5,1.4-0.8,2.3c-0.3,0.9-0.6,2-0.9,3.1c-0.3,1.2-0.6,2.4-0.9,3.6c-0.2,1.2-0.4,2.4-0.5,3.6c-0.1,1.2-0.1,2.3,0,3.2
			c0.1,1.4,0.5,2.9,1.1,4.4c0.6,1.5,1.3,3,2.2,4.2s2,2.3,3.3,3c1.3,0.7,2.7,1,4.4,0.8c1.1-0.1,2.2-0.4,3.3-0.9
			c1.1-0.5,2.2-1.1,3.3-1.7c1.1-0.7,2.2-1.4,3.3-2.3c1.1-0.8,2.1-1.6,3-2.5c0.7-0.6,1.4-1.2,2-1.8c-0.7-1.1-1.4-2.2-1.9-3.5
			c-0.7-1.8-1.1-3.7-1.4-5.6c-0.2,0.3-0.4,0.6-0.7,0.9c-0.6,0.7-1.3,1.4-2,2.1c-0.7,0.7-1.4,1.3-2.2,1.9c-0.7,0.6-1.5,1-2.3,1.4
			c-0.8,0.4-1.5,0.6-2.2,0.7c-0.6,0.1-1.1-0.2-1.5-0.9c-0.4-0.7-0.7-1.6-0.8-2.8c-0.2-2.1-0.2-4.2,0.1-6.3c0.3-2,0.7-4,1.2-6
			c0.5-2,0.9-3.9,1.2-5.9c0.3-2,0.4-3.9,0.2-5.9c-0.1-1-0.3-1.8-0.7-2.4c-0.3-0.6-0.7-1.1-1.2-1.4s-0.9-0.5-1.3-0.6
			c-0.5-0.1-0.9-0.1-1.2-0.1c-1.4,0.2-2.9,0.8-4.4,2.1c-1.5,1.2-3,2.7-4.4,4.5c-1.5,1.8-2.8,3.6-4.1,5.6s-2.5,3.8-3.5,5.6l-0.9-0.5
			c0.8-2,1.7-4.2,2.8-6.8c1-2.6,2.1-5.3,3.2-8.2c1.1-2.9,2.1-5.9,3-9c1-3.1,1.8-6.1,2.5-9.1c0.7-3,1.2-5.8,1.5-8.5s0.4-5.2,0.1-7.4
			c-0.2-1.5-0.4-2.8-0.8-4c-0.4-1.2-0.9-2.1-1.6-2.9s-1.6-1.4-2.7-1.7c-1.1-0.4-2.4-0.5-4-0.3c-3.1,0.3-5.7,1.5-7.9,3.5
			c-2.2,2-4,4.5-5.4,7.6c-0.2,0.5-0.4,1.1-0.6,1.6c-1.1,2.6-2,5.4-2.6,8.5C100.8,242.6,100.8,242.8,100.8,242.9z M107.7,266
			c0-1.5,0.1-3.1,0.2-4.8c0.1-1.7,0.2-3.4,0.4-5.2c0.2-1.8,0.3-3.5,0.6-5.3s0.5-3.5,0.8-5.2c1.5-5,2.9-8.8,4.1-11.5
			c1.2-2.7,2.2-4,3-4.1c0.6-0.1,1,1,1.2,3.3c0.2,1.5,0,3.8-0.4,7c-0.4,3.2-1.3,7.1-2.5,11.8c-0.4,1.4-0.9,3.1-1.5,5.1
			c-0.6,2-1.2,4.1-1.9,6.3c-0.7,2.2-1.4,4.5-2.1,6.8c-0.7,2.3-1.4,4.4-1.9,6.3C107.6,273.1,107.6,269.6,107.7,266z"/>
		<path fill="#2E0D10" d="M147.1,296.4c0.5,0.8,1,1.5,1.7,2.1c1.5,1.6,3.4,2.8,5.5,3.7c2.2,0.9,4.6,1.2,7.4,1c1.8-0.1,3.5-0.5,5.2-1
			c1.7-0.5,3.3-1.2,4.9-2s3-1.7,4.4-2.6s2.7-1.9,3.9-2.9c2.8-2.3,5.4-4.9,7.8-7.7l-6.2-5.5c-1.1,1.2-2.4,2.5-4,3.9
			c-1.6,1.4-3.2,2.7-5,3.9c-1.8,1.2-3.6,2.2-5.6,3.1c-1.9,0.9-3.8,1.3-5.5,1.5c-0.6,0-1.1,0-1.6-0.1c-0.5-0.1-1-0.3-1.4-0.5
			c-0.5-0.3-0.9-0.6-1.4-1.1s-0.9-1.1-1.5-1.9c2.5-0.9,4.8-2.1,7-3.5s3.9-3,5.4-4.8c1.5-1.7,2.6-3.6,3.4-5.5c0.8-1.9,1.1-3.8,1-5.6
			c-0.1-1.7-0.5-3.2-1.2-4.5c-0.7-1.3-1.6-2.4-2.7-3.3s-2.4-1.5-3.9-2c-1.5-0.4-3-0.6-4.7-0.5c-2,0.1-3.9,0.6-5.5,1.5
			c-1.6,0.8-3.1,1.9-4.3,3.3c-1.3,1.3-2.3,2.8-3.2,4.5c-0.9,1.7-1.6,3.4-2.1,5.3c-0.5,1.8-0.9,3.7-1.1,5.5c-0.2,1.9-0.2,3.6-0.1,5.3
			c0,0.5,0.1,0.9,0.2,1.4c0.2,1.9,0.7,3.8,1.4,5.6C145.7,294.2,146.4,295.3,147.1,296.4z M154.3,277.6c0.1-1,0.3-2,0.6-3
			c0.3-1,0.7-1.9,1.3-2.7c0.5-0.8,1.3-1.5,2.1-2s1.9-0.9,3.2-0.9c0.7-0.1,1.3,0.3,1.9,1.2c0.5,0.8,0.9,1.9,1,3.2
			c0.1,0.9-0.2,2-0.9,3c-0.7,1.1-1.5,2.1-2.5,3c-1,0.9-2.1,1.7-3.4,2.4c-1.2,0.6-2.4,1-3.4,1.1c0-0.7-0.1-1.4-0.1-2.4
			C154.2,279.5,154.2,278.5,154.3,277.6z"/>
		<path fill="#2E0D10" d="M311.6,284.2c-0.1,0-0.1,0.1-0.2,0.2c-0.8,0.7-1.7,1.2-2.6,1.6s-1.8,0.6-2.7,0.6s-1.7-0.1-2.4-0.4
			c-0.8-0.2-1.4-0.6-1.9-1.2c-0.5-0.5-1-1.2-1.3-2s-0.5-1.8-0.5-3c0-0.5,0.2-1.6,0.6-3.3c0.4-1.7,0.9-3.9,1.5-6.4s1.2-5.4,1.9-8.6
			c0.7-3.2,1.3-6.4,1.9-9.8c0.6-3.3,1.1-6.7,1.5-10c0.4-3.3,0.6-6.4,0.7-9.3c0-1-0.1-1.9-0.3-2.6c-0.2-0.7-0.6-1.2-1-1.6
			c-0.4-0.4-1-0.7-1.6-0.9c-0.6-0.2-1.3-0.3-2-0.3c-0.9,0-1.9,0.1-2.8,0.2c-0.9,0.2-1.7,0.5-2.4,1c-0.7,0.5-1.3,1.2-1.8,2.1
			c-0.5,0.9-0.8,2.1-0.9,3.6c-0.1,1.5-0.3,3.5-0.5,6c-0.3,2.6-0.6,5.5-1,8.7c-0.4,3.2-0.9,6.6-1.6,10.2c-0.6,3.6-1.3,7.2-2.2,10.7
			c-0.8,3.6-1.8,6.9-2.8,10.2c-1.1,3.2-2.3,6.1-3.6,8.6c-1.3,2.5-2.8,4.4-4.3,5.9c-1.6,1.5-3.3,2.2-5.2,2.2c-1.1,0-2-0.4-2.7-1.2
			c-0.7-0.8-1.3-2-1.8-3.5c-0.4-1.5-0.7-3.4-0.9-5.5c-0.2-2.2-0.2-4.6-0.2-7.2c0-2.6,0.2-5.5,0.5-8.6c0.3-3.1,0.6-6.3,1-9.4
			c0.4-3.2,0.9-6.3,1.3-9.3c0.5-3,0.9-5.7,1.3-8.1c0.4-2.4,0.7-4.3,1-5.9c0.3-1.5,0.4-2.4,0.4-2.6c0-0.6-0.1-1.2-0.2-1.7
			c-0.2-0.5-0.5-0.9-0.9-1.3c-0.4-0.4-1-0.6-1.7-0.9c-0.7-0.2-1.6-0.3-2.8-0.3c-1.2,0-2.2,0.1-3.1,0.4c-0.9,0.3-1.7,0.7-2.4,1.3
			c-0.7,0.6-1.3,1.5-1.8,2.6c-0.5,1.1-0.9,2.4-1.3,4.1c-2.1,10.1-4.4,19.1-7,27c-0.7,2.2-1.5,4.5-2.3,6.7c-0.8,2.2-1.7,4.3-2.6,6.3
			c-0.9,2-1.9,3.8-2.9,5.5c-1,1.7-2,3.2-3.1,4.4c-1.1,1.2-2.2,2.2-3.4,2.9c-1.1,0.7-2.3,1-3.6,1c-1.2,0-2.3-0.4-3.1-1.2
			c-0.9-0.8-1.6-1.8-2.2-3.2c-0.6-1.4-1-2.9-1.3-4.8c-0.3-1.8-0.4-3.8-0.3-5.9c0-2.6,0.3-5.4,0.8-8.4c0.5-3,1.2-6.1,2-9.2
			c0.8-3.1,1.6-6.2,2.5-9.2c0.9-3,1.7-5.8,2.5-8.4c0.8-2.6,1.4-4.8,1.9-6.8c0.5-2,0.8-3.5,0.8-4.5c0-0.9-0.1-1.6-0.3-2.1
			c-0.2-0.5-0.5-0.9-0.8-1.2c-0.4-0.3-0.8-0.5-1.3-0.6c-0.5-0.1-1.1-0.1-1.8-0.2c-0.8,0-1.6,0-2.4,0.1c-0.8,0.1-1.6,0.3-2.3,0.8
			c-0.8,0.5-1.5,1.2-2.3,2.1c-0.8,1-1.5,2.3-2.3,4c-1.3,3.1-2.4,6.2-3.5,9.5c-1,3.2-1.9,6.5-2.6,9.8c-0.7,3.3-1.3,6.6-1.7,9.9
			c-0.4,3.3-0.6,6.5-0.7,9.7c-0.1,5.1,0.3,9.6,1.1,13.5c0.8,3.9,1.8,7.1,3.1,9.6c1.3,2.6,2.9,4.5,4.6,5.8s3.6,2,5.6,2
			c3.4,0,6.5-0.5,9.3-1.6c2.8-1.1,5.3-3.1,7.5-5.8c2.2-2.7,4.2-6.4,5.8-10.9c1.7-4.5,3.1-10.2,4.2-16.9c-0.1,1-0.2,2.1-0.4,3.3
			c-0.2,1.2-0.3,2.6-0.3,4c-0.1,3.9,0.2,7.5,0.7,11c0.5,3.4,1.4,6.5,2.6,9s2.8,4.6,4.7,6.1c2,1.5,4.3,2.3,7.2,2.3
			c2.2,0,4.4-0.4,6.5-1.2c2.1-0.8,4.1-2,6-3.5c1.9-1.5,3.8-3.4,5.5-5.6c1.7-2.2,3.4-4.7,4.9-7.4c0.2,1.4,0.5,2.7,0.9,3.7
			c0.4,1,1,1.9,1.6,2.6c0.7,0.7,1.4,1.2,2.3,1.5c0.9,0.3,1.8,0.5,2.8,0.5c2,0,4.2-0.7,6.6-2.1c0.5-0.3,1-0.7,1.5-1.1
			c0.2-1.9,0.4-4.4,0.7-7.5C311.5,284.7,311.6,284.4,311.6,284.2z"/>
		<path fill="#2E0D10" d="M354.8,290.2c-0.7,0.6-1.5,1.1-2.3,1.7c-0.8,0.5-1.6,1-2.5,1.4c-0.8,0.4-1.7,0.7-2.5,1
			c-0.8,0.2-1.6,0.3-2.3,0.3c-0.6,0-1-0.4-1.3-1.2c-0.3-0.7-0.4-1.7-0.3-2.9c0.2-2.2,0.6-4.2,1.3-6.1c0.7-1.9,1.5-3.8,2.3-5.7
			c0.8-1.9,1.6-3.7,2.3-5.6c0.7-1.9,1.2-3.8,1.3-5.8c0.1-1,0-1.8-0.2-2.5c-0.2-0.7-0.5-1.2-0.9-1.6c-0.4-0.4-0.8-0.7-1.2-0.8
			c-0.4-0.2-0.8-0.3-1.2-0.3c-1.4-0.1-3,0.3-4.7,1.2c-1.7,0.9-3.4,2.1-5.2,3.6s-3.5,3-5.1,4.7c-1.7,1.7-3.1,3.3-4.5,4.8l-0.8-0.7
			c1.2-1.8,2.5-3.8,4-6.2c1.5-2.4,3.1-4.8,4.6-7.5c1.6-2.7,3.1-5.4,4.7-8.2c1.5-2.8,2.9-5.6,4.2-8.4c1.3-2.8,2.3-5.5,3.1-8.1
			c0.8-2.6,1.3-5,1.5-7.2c0.1-1.5,0.1-2.8,0-4c-0.1-1.2-0.5-2.3-1-3.2c-0.5-0.9-1.3-1.6-2.3-2.2c-1-0.6-2.3-0.9-3.9-1
			c-3.1-0.2-5.9,0.4-8.4,1.9c-2.5,1.5-4.7,3.7-6.7,6.4c-2,2.8-3.8,6-5.3,9.8c-1.5,3.7-2.9,7.7-4,11.8c-1.1,4.1-2.1,8.4-2.9,12.6
			c-0.8,4.3-1.5,8.4-2,12.2c-0.5,3.5-0.9,6.8-1.2,9.8c0,0.3-0.1,0.6-0.1,0.9c-0.3,3.1-0.5,5.5-0.7,7.5c0,0.1,0,0.2,0,0.3
			c-0.1,1.2-0.1,2.5-0.2,3.6c0,1.2,0.1,2.3,0.3,3.2c0.2,1,0.6,1.7,1.1,2.3c0.5,0.6,1.3,0.9,2.2,1c0.7,0.1,1.4-0.1,1.9-0.3
			c0.5-0.3,1-0.7,1.4-1.3c0.5-0.6,0.9-1.4,1.4-2.3c0.5-1,1.1-2.1,1.9-3.4c1.5-2.6,3.2-5.1,5-7.5c1.8-2.4,3.6-4.5,5.2-6.5
			s3.2-3.5,4.5-4.7c1.3-1.2,2.2-2,2.7-2.3l0.9,0.2c-0.1,0.1-0.3,0.4-0.7,0.9s-0.7,1.2-1.2,2.1c-0.5,0.9-1,1.8-1.5,2.9
			s-1.1,2.2-1.5,3.4c-0.5,1.2-0.9,2.3-1.2,3.5c-0.3,1.1-0.6,2.2-0.6,3.1c-0.1,1.4,0,2.9,0.2,4.6c0.3,1.6,0.7,3.1,1.4,4.5
			c0.7,1.4,1.5,2.6,2.7,3.6c1.1,1,2.5,1.5,4.1,1.6c1.1,0.1,2.2,0,3.4-0.3c1.2-0.3,2.4-0.6,3.6-1.1c1.2-0.5,2.4-1,3.6-1.6
			c1.2-0.6,2.3-1.2,3.4-1.8c0.5-0.3,0.9-0.6,1.4-0.9c-0.7-1.7-1.2-3.5-1.5-5.5C354.7,292.7,354.8,291.4,354.8,290.2z M325.4,266.1
			c-1.1,2.1-2.1,4.1-3.1,5.9c0.5-3.3,1.2-6.8,2-10.2c0.3-1.5,0.7-3.1,1.1-4.7c0.4-1.6,0.9-3.3,1.3-5c0.5-1.7,1-3.4,1.6-5.1
			c0.6-1.7,1.2-3.4,1.8-4.9c2.4-4.6,4.5-8.1,6.2-10.5c1.7-2.4,2.9-3.6,3.7-3.5c0.6,0,0.8,1.2,0.6,3.4c-0.1,1.5-0.7,3.7-1.7,6.8
			c-1,3-2.6,6.8-4.7,11.1c-0.6,1.3-1.4,2.9-2.4,4.7c-1,1.8-2,3.8-3.1,5.9C327.6,261.9,326.5,264,325.4,266.1z"/>
		<path fill="#2E0D10" d="M387.7,282.4c-0.2-2-0.6-3.8-1.3-5.6l0.4-0.4c1,0.8,2.1,1.9,3.5,3.1c0.3,0.3,0.6,0.6,0.9,0.9
			c1.1-1.9,2.1-3.8,3.1-5.7c-0.5-0.5-1-1.1-1.5-1.6c-2-1.7-4.1-3.1-6.5-4.3c-2.3-1.2-4.9-1.9-7.7-2.2c-3.3-0.4-6.3-0.1-9,0.7
			c-2.8,0.9-5.2,2.2-7.2,4.1c-2.1,1.9-3.7,4.1-5,6.8c-1.3,2.7-2.2,5.7-2.5,8.9c-0.1,1.1,0,2.1,0,3.2c0,1.3-0.2,2.6,0,3.9
			c0.2,2,0.7,3.8,1.5,5.5c0.1,0.3,0.2,0.7,0.4,1c1,2,2.3,3.6,4,5s3.9,2.2,6.4,2.5c1.8,0.2,3.5,0.1,5.2-0.3c0.9-0.2,1.7-0.7,2.5-1.1
			c4.5-6.5,8.8-13.3,12.9-20.2C387.8,285.1,387.9,283.8,387.7,282.4z M379.5,284.8c-0.2,1.7-0.6,3.5-1.3,5.3
			c-0.6,1.8-1.4,3.5-2.3,4.9c-0.9,1.5-1.9,2.6-2.9,3.5c-1.1,0.9-2.1,1.3-3.1,1.2c-1.1-0.1-2.1-0.5-2.9-1.1c-0.8-0.6-1.4-1.3-1.8-2.2
			c-0.4-0.9-0.7-1.9-0.8-3c-0.1-1.1-0.1-2.3,0.1-3.5c0.2-1.8,0.7-3.6,1.4-5.5c0.7-1.9,1.6-3.6,2.6-5.1c1-1.5,2.1-2.7,3.3-3.6
			c1.2-0.9,2.4-1.3,3.6-1.1c0.9,0.1,1.7,0.5,2.2,1s1,1.3,1.3,2.2s0.5,2,0.6,3.1C379.7,282.2,379.6,283.4,379.5,284.8z"/>
	</g>
	<g opacity="0.8">
		<path fill="#D01A27" d="M419.7,262c1.8-2.9,3.4-5.8,4.8-8.8s2.5-5.7,3.2-8.4c0.1-0.8,0.2-1.6,0.3-2.2c0-0.6-0.1-0.9-0.3-1
			c-0.9-0.1-1.9,0.3-3,1.2c-1.1,1-2.4,2.3-3.6,4s-2.5,3.8-3.8,6.1c-1.3,2.4-2.5,4.9-3.6,7.6c-1.1,2.7-2.1,5.5-3,8.4
			c-0.9,2.9-1.5,5.8-1.9,8.6c1.7-2.1,3.5-4.6,5.4-7.3C416.1,267.7,417.9,264.9,419.7,262z"/>
		<path fill="#2E0D10" d="M394.4,283.2c0.6,0.6,1.1,1.2,1.7,1.8c0.4-2.2,0.9-4.5,1.6-7c-1-1.3-2.2-2.4-3.3-3.5
			c-1,1.9-2.1,3.8-3.1,5.7C392.3,281.2,393.4,282.2,394.4,283.2z"/>
		<path fill="#2E0D10" d="M377,305.7c1.5-0.9,2.8-2,4-3.3c1.2-1.3,2.3-2.8,3.2-4.3s1.7-3.2,2.3-4.9c0.6-1.7,1-3.4,1.2-5.2
			c0.1-0.5,0-1,0-1.5c-4,6.9-8.3,13.6-12.9,20.1C375.6,306.3,376.3,306.1,377,305.7z"/>
		<g>
			<path fill="#2E0D10" d="M437.3,234.9c-0.3-1-0.9-1.9-1.6-2.6c-0.7-0.7-1.7-1.1-3-1.3c-1.8-0.3-3.8,0-5.7,0.8
				c-2,0.8-3.9,2.1-5.8,3.8c-1.9,1.7-3.9,3.8-5.7,6.1c-1.9,2.4-3.7,5-5.4,7.8c-1.7,2.8-3.4,5.8-4.9,8.9c-1.5,3.1-2.9,6.3-4.1,9.4
				c-1.2,3.1-2.3,6.2-3.1,9.2c-0.1,0.3-0.1,0.6-0.2,0.9c-0.7,2.5-1.2,4.8-1.6,7c0,0.2-0.1,0.4-0.1,0.5c-0.5,3.4-0.7,6.7-0.6,9.9
				c0.1,3.2,0.5,6,1.1,8.5s1.6,4.5,2.7,6.1c1.1,1.6,2.5,2.5,4.1,2.8c1,0.2,2.1,0.2,3.3,0.1c1.2-0.1,2.4-0.3,3.7-0.6
				c1.3-0.3,2.5-0.6,3.8-1.1c1.3-0.4,2.5-0.9,3.7-1.3c1-0.4,2.1-1,3.2-1.4c-0.6-1.5-1.1-3.1-1.3-4.8c-0.2-1.7-0.1-3.4,0-5.1
				c-0.7,0.3-1.4,0.8-2,1.1c-0.9,0.4-1.8,0.8-2.7,1.2c-0.9,0.4-1.8,0.7-2.7,1c-0.9,0.3-1.7,0.5-2.4,0.6c-0.8,0.1-1.4,0.1-2,0.1
				c-0.2,0-0.5-0.2-0.7-0.6c-0.2-0.4-0.4-0.9-0.5-1.5c-0.1-0.6-0.3-1.3-0.3-2s0-1.5,0.1-2.3l0.1-0.6c0.2-0.6,0.4-1.2,0.6-1.7
				s0.5-1.1,0.7-1.7c0.2-0.5,0.5-1,0.7-1.4c0.2-0.4,0.4-0.8,0.6-1.1c1.7-2.4,3.6-4.9,5.6-7.5c2-2.5,3.9-5.1,5.9-7.7
				c2-2.6,3.9-5.3,5.7-8c1.9-2.7,3.5-5.4,5-8.1c1.5-2.7,2.8-5.5,3.9-8.2c1.1-2.8,1.8-5.5,2.2-8.3c0.2-1.2,0.3-2.5,0.3-3.7
				C437.8,237,437.6,235.9,437.3,234.9z M421.1,247c1.3-1.7,2.5-3.1,3.6-4c1.1-0.9,2.1-1.4,3-1.2c0.2,0,0.3,0.4,0.3,1
				c-0.1,0.6-0.1,1.3-0.3,2.2c-0.7,2.6-1.7,5.4-3.2,8.4s-3.1,5.9-4.8,8.8c-1.8,2.9-3.7,5.7-5.6,8.4c-1.9,2.7-3.7,5.1-5.4,7.3
				c0.4-2.8,1.1-5.7,1.9-8.6c0.9-2.9,1.9-5.7,3-8.4"/>
		</g>
		<path fill="#2E0D10" d="M419.7,303.8c0.2,1.7,0.7,3.3,1.3,4.8c0.2,0.5,0.4,1.1,0.7,1.6c1.1,1.9,2.5,3.6,4.4,5
			c1.9,1.4,4.2,2.3,6.9,2.8c1.7,0.3,3.5,0.4,5.3,0.4s3.5-0.3,5.2-0.7s3.4-0.8,5-1.4s3.1-1.2,4.5-1.8c3.3-1.5,6.4-3.3,9.5-5.5
			L458,302c-1.3,0.9-2.9,1.8-4.8,2.8c-1.9,0.9-3.8,1.8-5.8,2.5c-2,0.7-4.1,1.2-6.1,1.6s-4,0.3-5.7,0c-0.6-0.1-1.1-0.3-1.5-0.5
			c-0.5-0.2-0.9-0.5-1.3-0.9c-0.4-0.4-0.7-0.9-1.1-1.5c-0.3-0.6-0.6-1.3-0.9-2.2c2.7-0.2,5.2-0.8,7.6-1.6c2.4-0.8,4.5-1.9,6.4-3.2
			c1.9-1.3,3.4-2.8,4.6-4.4c1.2-1.6,2-3.4,2.3-5.2c0.3-1.7,0.3-3.2,0-4.7c-0.3-1.4-0.9-2.7-1.8-3.9c-0.9-1.1-1.9-2.1-3.2-2.9
			c-1.3-0.8-2.8-1.3-4.4-1.6c-2-0.4-3.9-0.4-5.7,0.1c-1.8,0.4-3.4,1.1-5,2.1c-1.5,1-3,2.1-4.3,3.6c-1.3,1.4-2.4,2.9-3.4,4.6
			c-1,1.6-1.8,3.3-2.5,5.1c-0.7,1.8-1.1,3.5-1.4,5.1c-0.1,0.7-0.2,1.3-0.2,2C419.6,300.4,419.5,302.1,419.7,303.8z M433.8,288.6
			c0.5-0.9,1.2-1.6,1.9-2.3c0.7-0.6,1.6-1.1,2.6-1.4c1-0.3,2.1-0.3,3.3-0.1c0.7,0.1,1.2,0.7,1.5,1.6s0.4,2.1,0.1,3.4
			c-0.2,0.9-0.7,1.8-1.6,2.7c-0.9,0.9-2,1.6-3.2,2.3s-2.5,1.1-3.8,1.4c-1.3,0.3-2.5,0.4-3.6,0.2c0.1-0.6,0.3-1.4,0.5-2.3"/>
	</g>
	<g>
		<path fill="none" d="M331.8,248.4c1-1.8,1.8-3.4,2.4-4.7c2.1-4.4,3.7-8.1,4.7-11.1c1-3,1.6-5.3,1.7-6.8c0.2-2.2,0-3.4-0.6-3.4
			c-0.8-0.1-2,1.1-3.7,3.5c-1.7,2.4-3.8,5.9-6.2,10.5c-0.6,1.6-1.2,3.2-1.8,4.9c-0.6,1.7-1.1,3.4-1.6,5.1c-0.5,1.7-0.9,3.4-1.3,5
			c-0.4,1.6-0.8,3.2-1.1,4.7c-0.8,3.5-1.4,6.9-2,10.2c0.9-1.8,2-3.8,3.1-5.9c1.1-2.1,2.2-4.2,3.3-6.3
			C329.8,252.2,330.8,250.3,331.8,248.4z"/>
		<path fill="none" d="M157.7,276.1c1.2-0.6,2.3-1.4,3.4-2.4c1-0.9,1.9-1.9,2.5-3c0.7-1.1,1-2.1,0.9-3c-0.1-1.3-0.4-2.4-1-3.2
			c-0.5-0.8-1.2-1.2-1.9-1.2c-1.3,0.1-2.3,0.4-3.2,0.9s-1.6,1.2-2.1,2c-0.6,0.8-1,1.7-1.3,2.7c-0.3,1-0.5,2-0.6,3
			c-0.1,1-0.2,1.9-0.2,2.9c0,0.9,0,1.7,0.1,2.4C155.3,277.1,156.5,276.8,157.7,276.1z"/>
		<path fill="none" d="M386.9,270.7l-0.4,0.4c0.7,1.8,1.1,3.7,1.3,5.6c0.1,1.4,0.1,2.7,0,4.1c1.2-2,2.4-4.1,3.6-6.2
			c-0.3-0.3-0.6-0.6-0.9-0.9C389,272.6,387.8,271.6,386.9,270.7z"/>
		<path fill="none" d="M377.7,270c-0.6-0.6-1.3-0.9-2.2-1c-1.2-0.1-2.4,0.2-3.6,1.1c-1.2,0.9-2.3,2.1-3.3,3.6
			c-1,1.5-1.9,3.2-2.6,5.1c-0.7,1.9-1.2,3.7-1.4,5.5c-0.1,1.2-0.2,2.4-0.1,3.5c0.1,1.1,0.4,2.1,0.8,3c0.4,0.9,1,1.6,1.8,2.2
			c0.8,0.6,1.7,0.9,2.9,1.1c1,0.1,2-0.3,3.1-1.2c1.1-0.9,2-2.1,2.9-3.5c0.9-1.5,1.7-3.1,2.3-4.9c0.7-1.8,1.1-3.6,1.3-5.3
			c0.2-1.4,0.2-2.6,0.1-3.8c-0.1-1.2-0.3-2.2-0.6-3.1C378.7,271.4,378.3,270.6,377.7,270z"/>
		<path fill="none" d="M111.7,257.8c0.7-2.2,1.3-4.3,1.9-6.3c0.6-2,1.1-3.7,1.5-5.1c1.2-4.7,2.1-8.6,2.5-11.8c0.4-3.2,0.6-5.5,0.4-7
			c-0.2-2.2-0.7-3.3-1.2-3.3c-0.8,0.1-1.8,1.5-3,4.1c-1.2,2.7-2.6,6.5-4.1,11.5c-0.3,1.7-0.6,3.4-0.8,5.2s-0.4,3.6-0.6,5.3
			c-0.1,1.8-0.3,3.5-0.4,5.2c-0.1,1.7-0.2,3.3-0.2,4.8c-0.1,3.6-0.1,7,0,10.4c0.6-1.9,1.2-4.1,1.9-6.3
			C110.4,262.3,111.1,260,111.7,257.8z"/>
		<path fill="#FCFCFC" d="M100.9,236.9c0.7-3.1,1.6-6,2.6-8.5c-0.6-0.3-1.4-0.6-2.4-0.6c-6.2-0.1-12.2,0.1-17.8,0.7
			c-5.6,0.5-11,1.2-16.1,2.1c-3.7,0.6-7.4,1.3-10.8,2.1c-3.5,0.8-6.7,1.6-9.7,2.6c-3,1-5.7,2.1-8.1,3.4c-2.4,1.3-4.4,2.7-6,4.3
			c-1.6,1.6-2.8,3.4-3.5,5.4c-0.7,2-0.9,4.2-0.4,6.7c0.2,1,0.7,1.9,1.3,2.7c0.6,0.6,1.4,1.2,2.4,1.6c1.1,0.4,2.5,0.5,4.2,0.2
			s3.1-0.8,3.9-1.5c0.9-0.7,1.4-1.5,1.8-2.2c0.3-0.8,0.5-1.4,0.5-2c0-0.6,0-0.9-0.1-1c-0.2-1.1-0.1-2.1,0.4-3c0.4-0.9,1.1-1.7,2-2.5
			c0.9-0.7,1.9-1.4,3.2-2c1.2-0.6,2.6-1.1,4.1-1.6c1.5-0.5,3-1,4.6-1.4c1.6-0.4,3.1-0.8,4.7-1.2c-0.9,5.9-1.7,11.2-2.5,16
			c-0.8,4.8-1.5,9.2-2.2,13.1c-0.7,4-1.3,7.6-1.9,10.9c-0.6,3.3-1,6.4-1.4,9.4c-0.4,2.9-0.7,5.7-0.9,8.4s-0.3,5.4-0.2,8.1
			c-0.1,0.7-0.1,1.3,0,1.9c0.3,1.8,1,2.9,2.3,3.5c1.2,0.6,2.7,0.8,4.3,0.5c0.6-0.1,1.1-0.4,1.7-0.8c0.6-0.4,1.1-1,1.6-1.7
			s0.9-1.5,1.3-2.4c0.3-0.9,0.5-1.9,0.6-2.9c0.2-2.3,0.5-5,0.8-8.1c0.4-3.2,0.7-6.6,1.1-10.3c0.4-3.7,0.8-7.6,1.2-11.7
			c0.4-4.1,0.8-8.2,1.1-12.3s0.6-8.1,0.8-12c0.2-3.9,0.3-7.5,0.3-10.9c3-0.3,5.9-0.6,8.8-0.8c2.9-0.2,5.6-0.3,8.3-0.5
			c2.7-0.1,5.3-0.3,7.8-0.5C96.7,237.5,98.8,237.3,100.9,236.9z"/>
		<path fill="#FCFCFC" d="M100.8,237.3c-0.8,4-1.4,8.1-1.7,12.4c-0.4,4.3-0.5,8.6-0.5,13c0,4.4,0.1,8.5,0.3,12.4
			c0.2,3.9,0.4,7.5,0.7,10.7c0.3,3.2,0.6,5.8,0.8,7.8c0.1,1.2,0.3,2.4,0.5,3.6c0.2,1.2,0.5,2.2,0.9,3.1c0.4,0.9,0.9,1.6,1.5,2.1
			c0.6,0.5,1.4,0.7,2.4,0.6c0.7-0.1,1.3-0.3,1.8-0.7s0.8-0.9,1.1-1.6c0.3-0.7,0.6-1.5,0.9-2.6s0.7-2.2,1.2-3.6
			c1-2.8,2.2-5.6,3.5-8.3c1.3-2.7,2.6-5.1,3.9-7.3s2.5-4,3.5-5.5c1.1-1.5,1.8-2.4,2.3-2.8l0.9,0c-0.1,0.1-0.2,0.4-0.5,1
			c-0.2,0.6-0.5,1.4-0.8,2.3c-0.3,0.9-0.6,2-0.9,3.1c-0.3,1.2-0.6,2.4-0.9,3.6c-0.2,1.2-0.4,2.4-0.5,3.6c-0.1,1.2-0.1,2.3,0,3.2
			c0.1,1.4,0.5,2.9,1.1,4.4c0.6,1.5,1.3,3,2.2,4.2s2,2.3,3.3,3c1.3,0.7,2.7,1,4.4,0.8c1.1-0.1,2.2-0.4,3.3-0.9
			c1.1-0.5,2.2-1.1,3.3-1.7c1.1-0.7,2.2-1.4,3.3-2.3c1.1-0.8,2.1-1.6,3-2.5c0.7-0.6,1.4-1.2,2-1.8c-0.7-1.1-1.4-2.2-1.9-3.5
			c-0.7-1.8-1.1-3.7-1.4-5.6c-0.2,0.3-0.4,0.6-0.7,0.9c-0.6,0.7-1.3,1.4-2,2.1c-0.7,0.7-1.4,1.3-2.2,1.9c-0.7,0.6-1.5,1-2.3,1.4
			c-0.8,0.4-1.5,0.6-2.2,0.7c-0.6,0.1-1.1-0.2-1.5-0.9c-0.4-0.7-0.7-1.6-0.8-2.8c-0.2-2.1-0.2-4.2,0.1-6.3c0.3-2,0.7-4,1.2-6
			c0.5-2,0.9-3.9,1.2-5.9c0.3-2,0.4-3.9,0.2-5.9c-0.1-1-0.3-1.8-0.7-2.4c-0.3-0.6-0.7-1.1-1.2-1.4s-0.9-0.5-1.3-0.6
			c-0.5-0.1-0.9-0.1-1.2-0.1c-1.4,0.2-2.9,0.8-4.4,2.1c-1.5,1.2-3,2.7-4.4,4.5c-1.5,1.8-2.8,3.6-4.1,5.6s-2.5,3.8-3.5,5.6l-0.9-0.5
			c0.8-2,1.7-4.2,2.8-6.8c1-2.6,2.1-5.3,3.2-8.2c1.1-2.9,2.1-5.9,3-9c1-3.1,1.8-6.1,2.5-9.1c0.7-3,1.2-5.8,1.5-8.5s0.4-5.2,0.1-7.4
			c-0.2-1.5-0.4-2.8-0.8-4c-0.4-1.2-0.9-2.1-1.6-2.9s-1.6-1.4-2.7-1.7c-1.1-0.4-2.4-0.5-4-0.3c-3.1,0.3-5.7,1.5-7.9,3.5
			c-2.2,2-4,4.5-5.4,7.6c-0.2,0.5-0.4,1.1-0.6,1.6c-1.1,2.6-2,5.4-2.6,8.5C100.8,237.1,100.8,237.2,100.8,237.3z M107.7,260.5
			c0-1.5,0.1-3.1,0.2-4.8c0.1-1.7,0.2-3.4,0.4-5.2c0.2-1.8,0.3-3.5,0.6-5.3s0.5-3.5,0.8-5.2c1.5-5,2.9-8.8,4.1-11.5
			c1.2-2.7,2.2-4,3-4.1c0.6-0.1,1,1,1.2,3.3c0.2,1.5,0,3.8-0.4,7c-0.4,3.2-1.3,7.1-2.5,11.8c-0.4,1.4-0.9,3.1-1.5,5.1
			c-0.6,2-1.2,4.1-1.9,6.3c-0.7,2.2-1.4,4.5-2.1,6.8c-0.7,2.3-1.4,4.4-1.9,6.3C107.6,267.5,107.6,264,107.7,260.5z"/>
		<path fill="#FCFCFC" d="M147.1,290.8c0.5,0.8,1,1.5,1.7,2.1c1.5,1.6,3.4,2.8,5.5,3.7c2.2,0.9,4.6,1.2,7.4,1c1.8-0.1,3.5-0.5,5.2-1
			c1.7-0.5,3.3-1.2,4.9-2s3-1.7,4.4-2.6s2.7-1.9,3.9-2.9c2.8-2.3,5.4-4.9,7.8-7.7l-6.2-5.5c-1.1,1.2-2.4,2.5-4,3.9
			c-1.6,1.4-3.2,2.7-5,3.9c-1.8,1.2-3.6,2.2-5.6,3.1c-1.9,0.9-3.8,1.3-5.5,1.5c-0.6,0-1.1,0-1.6-0.1c-0.5-0.1-1-0.3-1.4-0.5
			c-0.5-0.3-0.9-0.6-1.4-1.1s-0.9-1.1-1.5-1.9c2.5-0.9,4.8-2.1,7-3.5s3.9-3,5.4-4.8c1.5-1.7,2.6-3.6,3.4-5.5c0.8-1.9,1.1-3.8,1-5.6
			c-0.1-1.7-0.5-3.2-1.2-4.5c-0.7-1.3-1.6-2.4-2.7-3.3s-2.4-1.5-3.9-2c-1.5-0.4-3-0.6-4.7-0.5c-2,0.1-3.9,0.6-5.5,1.5
			c-1.6,0.8-3.1,1.9-4.3,3.3c-1.3,1.3-2.3,2.8-3.2,4.5c-0.9,1.7-1.6,3.4-2.1,5.3c-0.5,1.8-0.9,3.7-1.1,5.5c-0.2,1.9-0.2,3.6-0.1,5.3
			c0,0.5,0.1,0.9,0.2,1.4c0.2,1.9,0.7,3.8,1.4,5.6C145.7,288.6,146.4,289.7,147.1,290.8z M154.3,272c0.1-1,0.3-2,0.6-3
			c0.3-1,0.7-1.9,1.3-2.7c0.5-0.8,1.3-1.5,2.1-2s1.9-0.9,3.2-0.9c0.7-0.1,1.3,0.3,1.9,1.2c0.5,0.8,0.9,1.9,1,3.2
			c0.1,0.9-0.2,2-0.9,3c-0.7,1.1-1.5,2.1-2.5,3c-1,0.9-2.1,1.7-3.4,2.4c-1.2,0.6-2.4,1-3.4,1.1c0-0.7-0.1-1.4-0.1-2.4
			C154.2,273.9,154.2,273,154.3,272z"/>
		<path fill="#FCFCFC" d="M311.6,278.6c-0.1,0-0.1,0.1-0.2,0.2c-0.8,0.7-1.7,1.2-2.6,1.6s-1.8,0.6-2.7,0.6s-1.7-0.1-2.4-0.4
			c-0.8-0.2-1.4-0.6-1.9-1.2c-0.5-0.5-1-1.2-1.3-2s-0.5-1.8-0.5-3c0-0.5,0.2-1.6,0.6-3.3c0.4-1.7,0.9-3.9,1.5-6.4s1.2-5.4,1.9-8.6
			c0.7-3.2,1.3-6.4,1.9-9.8c0.6-3.3,1.1-6.7,1.5-10c0.4-3.3,0.6-6.4,0.7-9.3c0-1-0.1-1.9-0.3-2.6c-0.2-0.7-0.6-1.2-1-1.6
			c-0.4-0.4-1-0.7-1.6-0.9c-0.6-0.2-1.3-0.3-2-0.3c-0.9,0-1.9,0.1-2.8,0.2c-0.9,0.2-1.7,0.5-2.4,1c-0.7,0.5-1.3,1.2-1.8,2.1
			c-0.5,0.9-0.8,2.1-0.9,3.6c-0.1,1.5-0.3,3.5-0.5,6c-0.3,2.6-0.6,5.5-1,8.7c-0.4,3.2-0.9,6.6-1.6,10.2c-0.6,3.6-1.3,7.2-2.2,10.7
			c-0.8,3.6-1.8,6.9-2.8,10.2c-1.1,3.2-2.3,6.1-3.6,8.6c-1.3,2.5-2.8,4.4-4.3,5.9c-1.6,1.5-3.3,2.2-5.2,2.2c-1.1,0-2-0.4-2.7-1.2
			c-0.7-0.8-1.3-2-1.8-3.5c-0.4-1.5-0.7-3.4-0.9-5.5c-0.2-2.2-0.2-4.6-0.2-7.2c0-2.6,0.2-5.5,0.5-8.6c0.3-3.1,0.6-6.3,1-9.4
			c0.4-3.2,0.9-6.3,1.3-9.3c0.5-3,0.9-5.7,1.3-8.1c0.4-2.4,0.7-4.3,1-5.9c0.3-1.5,0.4-2.4,0.4-2.6c0-0.6-0.1-1.2-0.2-1.7
			c-0.2-0.5-0.5-0.9-0.9-1.3c-0.4-0.4-1-0.6-1.7-0.9c-0.7-0.2-1.6-0.3-2.8-0.3c-1.2,0-2.2,0.1-3.1,0.4c-0.9,0.3-1.7,0.7-2.4,1.3
			c-0.7,0.6-1.3,1.5-1.8,2.6c-0.5,1.1-0.9,2.4-1.3,4.1c-2.1,10.1-4.4,19.1-7,27c-0.7,2.2-1.5,4.5-2.3,6.7c-0.8,2.2-1.7,4.3-2.6,6.3
			c-0.9,2-1.9,3.8-2.9,5.5c-1,1.7-2,3.2-3.1,4.4c-1.1,1.2-2.2,2.2-3.4,2.9c-1.1,0.7-2.3,1-3.6,1c-1.2,0-2.3-0.4-3.1-1.2
			c-0.9-0.8-1.6-1.8-2.2-3.2c-0.6-1.4-1-2.9-1.3-4.8s-0.4-3.8-0.3-5.9c0-2.6,0.3-5.4,0.8-8.4c0.5-3,1.2-6.1,2-9.2
			c0.8-3.1,1.6-6.2,2.5-9.2c0.9-3,1.7-5.8,2.5-8.4c0.8-2.6,1.4-4.8,1.9-6.8c0.5-2,0.8-3.5,0.8-4.5c0-0.9-0.1-1.6-0.3-2.1
			c-0.2-0.5-0.5-0.9-0.8-1.2c-0.4-0.3-0.8-0.5-1.3-0.6c-0.5-0.1-1.1-0.1-1.8-0.2c-0.8,0-1.6,0-2.4,0.1c-0.8,0.1-1.6,0.3-2.3,0.8
			c-0.8,0.5-1.5,1.2-2.3,2.1c-0.8,1-1.5,2.3-2.3,4c-1.3,3.1-2.4,6.2-3.5,9.5c-1,3.2-1.9,6.5-2.6,9.8c-0.7,3.3-1.3,6.6-1.7,9.9
			c-0.4,3.3-0.6,6.5-0.7,9.7c-0.1,5.1,0.3,9.6,1.1,13.5c0.8,3.9,1.8,7.1,3.1,9.6c1.3,2.6,2.9,4.5,4.6,5.8s3.6,2,5.6,2
			c3.4,0,6.5-0.5,9.3-1.6c2.8-1.1,5.3-3.1,7.5-5.8c2.2-2.7,4.2-6.4,5.8-10.9c1.7-4.5,3.1-10.2,4.2-16.9c-0.1,1-0.2,2.1-0.4,3.3
			c-0.2,1.2-0.3,2.6-0.3,4c-0.1,3.9,0.2,7.5,0.7,11c0.5,3.4,1.4,6.5,2.6,9s2.8,4.6,4.7,6.1c2,1.5,4.3,2.3,7.2,2.3
			c2.2,0,4.4-0.4,6.5-1.2c2.1-0.8,4.1-2,6-3.5c1.9-1.5,3.8-3.4,5.5-5.6c1.7-2.2,3.4-4.7,4.9-7.4c0.2,1.4,0.5,2.7,0.9,3.7
			c0.4,1,1,1.9,1.6,2.6c0.7,0.7,1.4,1.2,2.3,1.5c0.9,0.3,1.8,0.5,2.8,0.5c2,0,4.2-0.7,6.6-2.1c0.5-0.3,1-0.7,1.5-1.1
			c0.2-1.9,0.4-4.4,0.7-7.5C311.5,279.2,311.6,278.9,311.6,278.6z"/>
		<path fill="#FCFCFC" d="M354.8,284.6c-0.7,0.6-1.5,1.1-2.3,1.7c-0.8,0.5-1.6,1-2.5,1.4c-0.8,0.4-1.7,0.7-2.5,1
			c-0.8,0.2-1.6,0.3-2.3,0.3c-0.6,0-1-0.4-1.3-1.2c-0.3-0.7-0.4-1.7-0.3-2.9c0.2-2.2,0.6-4.2,1.3-6.1c0.7-1.9,1.5-3.8,2.3-5.7
			c0.8-1.9,1.6-3.7,2.3-5.6c0.7-1.9,1.2-3.8,1.3-5.8c0.1-1,0-1.8-0.2-2.5c-0.2-0.7-0.5-1.2-0.9-1.6c-0.4-0.4-0.8-0.7-1.2-0.8
			c-0.4-0.2-0.8-0.3-1.2-0.3c-1.4-0.1-3,0.3-4.7,1.2c-1.7,0.9-3.4,2.1-5.2,3.6s-3.5,3-5.1,4.7c-1.7,1.7-3.1,3.3-4.5,4.8l-0.8-0.7
			c1.2-1.8,2.5-3.8,4-6.2c1.5-2.4,3.1-4.8,4.6-7.5c1.6-2.7,3.1-5.4,4.7-8.2c1.5-2.8,2.9-5.6,4.2-8.4c1.3-2.8,2.3-5.5,3.1-8.1
			c0.8-2.6,1.3-5,1.5-7.2c0.1-1.5,0.1-2.8,0-4c-0.1-1.2-0.5-2.3-1-3.2c-0.5-0.9-1.3-1.6-2.3-2.2c-1-0.6-2.3-0.9-3.9-1
			c-3.1-0.2-5.9,0.4-8.4,1.9c-2.5,1.5-4.7,3.7-6.7,6.4c-2,2.8-3.8,6-5.3,9.8c-1.5,3.7-2.9,7.7-4,11.8c-1.1,4.1-2.1,8.4-2.9,12.6
			c-0.8,4.3-1.5,8.4-2,12.2c-0.5,3.5-0.9,6.8-1.2,9.8c0,0.3-0.1,0.6-0.1,0.9c-0.3,3.1-0.5,5.5-0.7,7.5c0,0.1,0,0.2,0,0.3
			c-0.1,1.2-0.1,2.5-0.2,3.6c0,1.2,0.1,2.3,0.3,3.2c0.2,1,0.6,1.7,1.1,2.3c0.5,0.6,1.3,0.9,2.2,1c0.7,0.1,1.4-0.1,1.9-0.3
			c0.5-0.3,1-0.7,1.4-1.3c0.5-0.6,0.9-1.4,1.4-2.3c0.5-1,1.1-2.1,1.9-3.4c1.5-2.6,3.2-5.1,5-7.5c1.8-2.4,3.6-4.5,5.2-6.5
			s3.2-3.5,4.5-4.7c1.3-1.2,2.2-2,2.7-2.3l0.9,0.2c-0.1,0.1-0.3,0.4-0.7,0.9s-0.7,1.2-1.2,2.1c-0.5,0.9-1,1.8-1.5,2.9
			s-1.1,2.2-1.5,3.4c-0.5,1.2-0.9,2.3-1.2,3.5c-0.3,1.1-0.6,2.2-0.6,3.1c-0.1,1.4,0,2.9,0.2,4.6c0.3,1.6,0.7,3.1,1.4,4.5
			c0.7,1.4,1.5,2.6,2.7,3.6c1.1,1,2.5,1.5,4.1,1.6c1.1,0.1,2.2,0,3.4-0.3c1.2-0.3,2.4-0.6,3.6-1.1c1.2-0.5,2.4-1,3.6-1.6
			c1.2-0.6,2.3-1.2,3.4-1.8c0.5-0.3,0.9-0.6,1.4-0.9c-0.7-1.7-1.2-3.5-1.5-5.5C354.7,287.2,354.8,285.9,354.8,284.6z M325.4,260.5
			c-1.1,2.1-2.1,4.1-3.1,5.9c0.5-3.3,1.2-6.8,2-10.2c0.3-1.5,0.7-3.1,1.1-4.7c0.4-1.6,0.9-3.3,1.3-5c0.5-1.7,1-3.4,1.6-5.1
			c0.6-1.7,1.2-3.4,1.8-4.9c2.4-4.6,4.5-8.1,6.2-10.5c1.7-2.4,2.9-3.6,3.7-3.5c0.6,0,0.8,1.2,0.6,3.4c-0.1,1.5-0.7,3.7-1.7,6.8
			c-1,3-2.6,6.8-4.7,11.1c-0.6,1.3-1.4,2.9-2.4,4.7c-1,1.8-2,3.8-3.1,5.9C327.6,256.3,326.5,258.4,325.4,260.5z"/>
		<path fill="#FCFCFC" d="M387.7,276.8c-0.2-2-0.6-3.8-1.3-5.6l0.4-0.4c1,0.8,2.1,1.9,3.5,3.1c0.3,0.3,0.6,0.6,0.9,0.9
			c1.1-1.9,2.1-3.8,3.1-5.7c-0.5-0.5-1-1.1-1.5-1.6c-2-1.7-4.1-3.1-6.5-4.3c-2.3-1.2-4.9-1.9-7.7-2.2c-3.3-0.4-6.3-0.1-9,0.7
			c-2.8,0.9-5.2,2.2-7.2,4.1c-2.1,1.9-3.7,4.1-5,6.8c-1.3,2.7-2.2,5.7-2.5,8.9c-0.1,1.1,0,2.1,0,3.2c0,1.3-0.2,2.6,0,3.9
			c0.2,2,0.7,3.8,1.5,5.5c0.1,0.3,0.2,0.7,0.4,1c1,2,2.3,3.6,4,5s3.9,2.2,6.4,2.5c1.8,0.2,3.5,0.1,5.2-0.3c0.9-0.2,1.7-0.7,2.5-1.1
			c4.5-6.5,8.8-13.3,12.9-20.2C387.8,279.6,387.9,278.2,387.7,276.8z M379.5,279.2c-0.2,1.7-0.6,3.5-1.3,5.3
			c-0.6,1.8-1.4,3.5-2.3,4.9c-0.9,1.5-1.9,2.6-2.9,3.5c-1.1,0.9-2.1,1.3-3.1,1.2c-1.1-0.1-2.1-0.5-2.9-1.1c-0.8-0.6-1.4-1.3-1.8-2.2
			c-0.4-0.9-0.7-1.9-0.8-3c-0.1-1.1-0.1-2.3,0.1-3.5c0.2-1.8,0.7-3.6,1.4-5.5c0.7-1.9,1.6-3.6,2.6-5.1c1-1.5,2.1-2.7,3.3-3.6
			c1.2-0.9,2.4-1.3,3.6-1.1c0.9,0.1,1.7,0.5,2.2,1s1,1.3,1.3,2.2s0.5,2,0.6,3.1C379.7,276.6,379.6,277.9,379.5,279.2z"/>
	</g>
	<g>
		<path fill="#D01A27" d="M419.7,256.4c1.8-2.9,3.4-5.8,4.8-8.8s2.5-5.7,3.2-8.4c0.1-0.8,0.2-1.6,0.3-2.2c0-0.6-0.1-0.9-0.3-1
			c-0.9-0.1-1.9,0.3-3,1.2c-1.1,1-2.4,2.3-3.6,4s-2.5,3.8-3.8,6.1c-1.3,2.4-2.5,4.9-3.6,7.6c-1.1,2.7-2.1,5.5-3,8.4
			c-0.9,2.9-1.5,5.8-1.9,8.6c1.7-2.1,3.5-4.6,5.4-7.3C416.1,262.2,417.9,259.4,419.7,256.4z"/>
		<path fill="#CECECE" d="M394.4,277.7c0.6,0.6,1.1,1.2,1.7,1.8c0.4-2.2,0.9-4.5,1.6-7c-1-1.3-2.2-2.4-3.3-3.5
			c-1,1.9-2.1,3.8-3.1,5.7C392.3,275.6,393.4,276.6,394.4,277.7z"/>
		<path fill="#CECECE" d="M377,300.1c1.5-0.9,2.8-2,4-3.3c1.2-1.3,2.3-2.8,3.2-4.3s1.7-3.2,2.3-4.9c0.6-1.7,1-3.4,1.2-5.2
			c0.1-0.5,0-1,0-1.5c-4,6.9-8.3,13.6-12.9,20.1C375.6,300.7,376.3,300.5,377,300.1z"/>
		<g>
			<path fill="#CECECE" d="M437.3,229.3c-0.3-1-0.9-1.9-1.6-2.6c-0.7-0.7-1.7-1.1-3-1.3c-1.8-0.3-3.8,0-5.7,0.8
				c-2,0.8-3.9,2.1-5.8,3.8c-1.9,1.7-3.9,3.8-5.7,6.1c-1.9,2.4-3.7,5-5.4,7.8c-1.7,2.8-3.4,5.8-4.9,8.9c-1.5,3.1-2.9,6.3-4.1,9.4
				c-1.2,3.1-2.3,6.2-3.1,9.2c-0.1,0.3-0.1,0.6-0.2,0.9c-0.7,2.5-1.2,4.8-1.6,7c0,0.2-0.1,0.4-0.1,0.5c-0.5,3.4-0.7,6.7-0.6,9.9
				c0.1,3.2,0.5,6,1.1,8.5s1.6,4.5,2.7,6.1c1.1,1.6,2.5,2.5,4.1,2.8c1,0.2,2.1,0.2,3.3,0.1c1.2-0.1,2.4-0.3,3.7-0.6
				c1.3-0.3,2.5-0.6,3.8-1.1c1.3-0.4,2.5-0.9,3.7-1.3c1-0.4,2.1-1,3.2-1.4c-0.6-1.5-1.1-3.1-1.3-4.8c-0.2-1.7-0.1-3.4,0-5.1
				c-0.7,0.3-1.4,0.8-2,1.1c-0.9,0.4-1.8,0.8-2.7,1.2c-0.9,0.4-1.8,0.7-2.7,1c-0.9,0.3-1.7,0.5-2.4,0.6c-0.8,0.1-1.4,0.1-2,0.1
				c-0.2,0-0.5-0.2-0.7-0.6c-0.2-0.4-0.4-0.9-0.5-1.5c-0.1-0.6-0.3-1.3-0.3-2s0-1.5,0.1-2.3l0.1-0.6c0.2-0.6,0.4-1.2,0.6-1.7
				c0.2-0.6,0.5-1.1,0.7-1.7c0.2-0.5,0.5-1,0.7-1.4c0.2-0.4,0.4-0.8,0.6-1.1c1.7-2.4,3.6-4.9,5.6-7.5c2-2.5,3.9-5.1,5.9-7.7
				c2-2.6,3.9-5.3,5.7-8c1.9-2.7,3.5-5.4,5-8.1c1.5-2.7,2.8-5.5,3.9-8.2c1.1-2.8,1.8-5.5,2.2-8.3c0.2-1.2,0.3-2.5,0.3-3.7
				C437.8,231.4,437.6,230.3,437.3,229.3z M421.1,241.4c1.3-1.7,2.5-3.1,3.6-4c1.1-0.9,2.1-1.4,3-1.2c0.2,0,0.3,0.4,0.3,1
				c-0.1,0.6-0.1,1.3-0.3,2.2c-0.7,2.6-1.7,5.4-3.2,8.4s-3.1,5.9-4.8,8.8c-1.8,2.9-3.7,5.7-5.6,8.4c-1.9,2.7-3.7,5.1-5.4,7.3
				c0.4-2.8,1.1-5.7,1.9-8.6c0.9-2.9,1.9-5.7,3-8.4"/>
		</g>
		<path fill="#CECECE" d="M419.7,298.2c0.2,1.7,0.7,3.3,1.3,4.8c0.2,0.5,0.4,1.1,0.7,1.6c1.1,1.9,2.5,3.6,4.4,5
			c1.9,1.4,4.2,2.3,6.9,2.8c1.7,0.3,3.5,0.4,5.3,0.4s3.5-0.3,5.2-0.7s3.4-0.8,5-1.4s3.1-1.2,4.5-1.8c3.3-1.5,6.4-3.3,9.5-5.5
			l-4.6-6.9c-1.3,0.9-2.9,1.8-4.8,2.8c-1.9,0.9-3.8,1.8-5.8,2.5c-2,0.7-4.1,1.2-6.1,1.6s-4,0.3-5.7,0c-0.6-0.1-1.1-0.3-1.5-0.5
			c-0.5-0.2-0.9-0.5-1.3-0.9c-0.4-0.4-0.7-0.9-1.1-1.5c-0.3-0.6-0.6-1.3-0.9-2.2c2.7-0.2,5.2-0.8,7.6-1.6c2.4-0.8,4.5-1.9,6.4-3.2
			c1.9-1.3,3.4-2.8,4.6-4.4c1.2-1.6,2-3.4,2.3-5.2c0.3-1.7,0.3-3.2,0-4.7c-0.3-1.4-0.9-2.7-1.8-3.9c-0.9-1.1-1.9-2.1-3.2-2.9
			c-1.3-0.8-2.8-1.3-4.4-1.6c-2-0.4-3.9-0.4-5.7,0.1c-1.8,0.4-3.4,1.1-5,2.1c-1.5,1-3,2.1-4.3,3.6c-1.3,1.4-2.4,2.9-3.4,4.6
			c-1,1.6-1.8,3.3-2.5,5.1c-0.7,1.8-1.1,3.5-1.4,5.1c-0.1,0.7-0.2,1.3-0.2,2C419.6,294.9,419.5,296.6,419.7,298.2z M433.8,283
			c0.5-0.9,1.2-1.6,1.9-2.3c0.7-0.6,1.6-1.1,2.6-1.4c1-0.3,2.1-0.3,3.3-0.1c0.7,0.1,1.2,0.7,1.5,1.6s0.4,2.1,0.1,3.4
			c-0.2,0.9-0.7,1.8-1.6,2.7c-0.9,0.9-2,1.6-3.2,2.3s-2.5,1.1-3.8,1.4c-1.3,0.3-2.5,0.4-3.6,0.2c0.1-0.6,0.3-1.4,0.5-2.3"/>
	</g>
</g>
</svg>
