<?xml version="1.0" encoding="utf-8"?>
<!-- Generator: Adobe Illustrator 17.0.0, SVG Export Plug-In . SVG Version: 6.00 Build 0)  -->
<!DOCTYPE svg PUBLIC "-//W3C//DTD SVG 1.1//EN" "http://www.w3.org/Graphics/SVG/1.1/DTD/svg11.dtd">
<svg version="1.1" id="Calque_1" xmlns="http://www.w3.org/2000/svg" xmlns:xlink="http://www.w3.org/1999/xlink" x="0px" y="0px"
	 width="95px" height="92.667px" viewBox="-349.64 364.86 95 92.667" enable-background="new -349.64 364.86 95 92.667"
	 xml:space="preserve">
<polygon fill="#212121" points="-319.64,373.36 -303.64,364.86 -292.64,375.693 -279.64,378.526 -263.307,398.526 -254.64,422.86 
	-273.14,447.193 -303.807,457.526 -326.807,453.86 -349.64,439.026 -346.807,403.86 -346.683,403.504 -339.474,382.86 "/>
<polygon fill="#565656" points="-330.64,420.193 -349.64,439.026 -346.807,403.86 "/>
<polygon fill="#191919" points="-339.474,382.86 -325.64,383.36 -311.807,383.86 -303.64,364.86 "/>
<polygon fill="#353535" points="-324.14,405.693 -309.974,412.36 -311.807,383.86 -327.81,383.281 "/>
<polygon fill="#3D3D3D" points="-339.474,382.86 -346.807,403.86 -324.14,405.693 -327.81,383.281 "/>
<polygon fill="#353535" points="-330.64,420.193 -317.307,420.193 -324.14,405.693 -346.807,403.86 "/>
<polygon fill="#353535" points="-326.807,453.86 -307.14,439.026 -330.64,420.193 -349.64,439.026 "/>
<polygon fill="#191919" points="-303.807,457.526 -307.14,439.026 -326.807,453.86 "/>
<polygon fill="#212121" points="-317.307,420.193 -307.14,439.026 -330.64,420.193 "/>
<polygon fill="#191919" points="-309.974,412.36 -317.307,420.193 -324.14,405.693 "/>
<polygon fill="#565656" points="-307.14,439.026 -296.474,423.193 -287.807,412.943 -309.974,412.36 -317.307,420.193 
	-330.64,420.193 "/>
<polygon fill="#353535" points="-303.807,457.526 -273.14,447.193 -295.779,422.371 -307.14,439.026 "/>
<polygon fill="#212121" points="-303.64,364.86 -292.64,375.693 -309.974,412.36 -311.807,383.86 "/>
<polygon fill="#353535" points="-254.64,422.86 -281.14,394.276 -263.307,398.526 "/>
<polygon fill="#3D3D3D" points="-279.64,378.526 -281.14,394.276 -263.307,398.526 "/>
<polygon fill="#3D3D3D" points="-273.14,447.193 -287.807,412.943 -295.779,422.371 "/>
<polygon fill="#3D3D3D" points="-287.807,412.943 -309.974,412.36 -298.707,388.526 -281.14,394.276 "/>
<polygon fill="#191919" points="-281.14,394.276 -298.707,388.526 -292.64,375.693 -279.64,378.526 "/>
</svg>
