<?xml version="1.0" encoding="utf-8"?>
<!-- Generator: Adobe Illustrator 17.0.0, SVG Export Plug-In . SVG Version: 6.00 Build 0)  -->
<!DOCTYPE svg PUBLIC "-//W3C//DTD SVG 1.1//EN" "http://www.w3.org/Graphics/SVG/1.1/DTD/svg11.dtd">
<svg version="1.1" id="Calque_1" xmlns="http://www.w3.org/2000/svg" xmlns:xlink="http://www.w3.org/1999/xlink" x="0px" y="0px"
	 width="410.869px" height="410.869px" viewBox="0 0 410.869 410.869" enable-background="new 0 0 410.869 410.869"
	 xml:space="preserve">
<g>
	<circle fill="#3C5A9C" cx="204.629" cy="205.434" r="146.333"/>
	<g>
		<path fill="#304A80" d="M321.651,117.568c0.163,3.324,0.25,6.667,0.25,10.031c0,109.474-87.52,198.5-196.407,200.942
			c22.816,14.697,49.979,23.227,79.135,23.227c80.818,0,146.333-65.516,146.333-146.333
			C350.963,172.461,340.053,142.037,321.651,117.568z"/>
	</g>
	<g>
		<circle fill="#304A80" cx="110.099" cy="194.98" r="20.536"/>
		<path fill="#2C4374" d="M115.576,210.314c-12.415,0-22.781-8.704-25.373-20.338c-0.402,1.605-0.64,3.275-0.64,5.004
			c0,11.342,9.194,20.536,20.536,20.536c6.286,0,11.904-2.831,15.671-7.28C122.639,209.572,119.195,210.314,115.576,210.314z"/>
	</g>
	<g>
		<circle fill="#304A80" cx="152.776" cy="285.799" r="13.649"/>
		<path fill="#2C4374" d="M155.796,296.192c-8.237-0.497-14.765-6.687-16.019-14.509c-0.331,1.048-0.556,2.147-0.625,3.294
			c-0.454,7.525,5.277,13.993,12.802,14.447c4.17,0.252,8.011-1.402,10.689-4.202C160.512,295.982,158.197,296.337,155.796,296.192z
			"/>
	</g>
	<g>
		<circle fill="#304A80" cx="270.129" cy="100.445" r="9.374"/>
		<path fill="#2C4374" d="M269.523,107.852c-5.163-2.335-7.838-7.906-6.727-13.232c-0.469,0.592-0.882,1.242-1.207,1.961
			c-2.134,4.717-0.039,10.271,4.678,12.404c2.614,1.182,5.484,1.062,7.887-0.08C272.6,108.872,271.028,108.533,269.523,107.852z"/>
	</g>
	<g>
		<circle fill="#304A80" cx="261.944" cy="231.689" r="15.898"/>
		<path fill="#2C4374" d="M264.863,243.951c-9.553-1.048-16.796-8.621-17.808-17.792c-0.445,1.201-0.769,2.466-0.915,3.797
			c-0.958,8.728,5.342,16.579,14.069,17.537c4.837,0.531,9.4-1.174,12.674-4.279C270.361,243.976,267.648,244.257,264.863,243.951z"
			/>
	</g>
	<g>
		<circle fill="#2C4374" cx="293.901" cy="280.682" r="5.601"/>
		<path fill="#263B65" d="M292.239,284.8c-2.531-2.249-3.067-5.902-1.487-8.743c-0.373,0.254-0.724,0.552-1.037,0.904
			c-2.055,2.312-1.847,5.852,0.465,7.907c1.281,1.139,2.94,1.58,4.514,1.355C293.813,285.929,292.977,285.456,292.239,284.8z"/>
	</g>
	<g>
		<circle fill="#304A80" cx="253.055" cy="152.248" r="4.409"/>
		<path fill="#2C4374" d="M253.634,155.696c-2.624-0.468-4.486-2.699-4.595-5.255c-0.146,0.324-0.259,0.668-0.324,1.033
			c-0.428,2.397,1.169,4.687,3.566,5.115c1.328,0.237,2.623-0.149,3.586-0.948C255.155,155.805,254.399,155.832,253.634,155.696z"/>
	</g>
	<g>
		<circle fill="#304A80" cx="125.494" cy="117.568" r="13.215"/>
		<path fill="#2C4374" d="M130.39,126.831c-7.907,1.14-15.309-3.452-18.028-10.624c-0.109,1.059-0.107,2.144,0.052,3.246
			c1.041,7.224,7.741,12.236,14.965,11.195c4.004-0.577,7.322-2.896,9.313-6.075C134.82,125.71,132.694,126.499,130.39,126.831z"/>
	</g>
	<g>
		<path fill="#1D2D4D" d="M185.248,190.422l-2.909-15.201c-1.069-5.589-1.113-11.014-0.124-16.275
			c0.984-5.255,2.794-9.995,5.43-14.213c2.632-4.212,5.978-7.8,10.032-10.748c4.052-2.948,8.611-4.908,13.678-5.878l24.634-4.714
			l5.766,30.136l-24.634,4.714c-1.4,0.268-2.575,1.445-3.535,3.528c-0.959,2.086-1.188,4.44-0.686,7.061l3.009,15.723l30.661-5.867
			l5.866,30.658l-30.661,5.867l14.241,74.424l-30.661,5.867l-14.241-74.424l-24.632,4.713l-5.866-30.658L185.248,190.422z"/>
	</g>
	<g>
		<path fill="#FFFFFF" d="M181.209,187.68l-2.909-15.201c-1.069-5.589-1.113-11.014-0.124-16.275
			c0.984-5.255,2.794-9.995,5.43-14.213c2.632-4.212,5.978-7.8,10.032-10.748c4.052-2.948,8.611-4.908,13.678-5.878l24.634-4.714
			l5.766,30.136l-24.634,4.714c-1.4,0.268-2.575,1.445-3.535,3.528c-0.959,2.086-1.188,4.44-0.686,7.061l3.009,15.723l30.661-5.867
			l5.866,30.658l-30.661,5.867l14.241,74.424l-30.661,5.867l-14.241-74.424l-24.632,4.713l-5.866-30.658L181.209,187.68z"/>
	</g>
	<path fill="none" stroke="#3E789C" stroke-width="3" stroke-miterlimit="10" d="M64.401,241.689
		c-37.256,22.238-65.932,44.194-61.417,56.496c8.348,22.744,101.414,9.506,207.867-29.568s185.983-89.188,177.635-111.933
		c-3.953-10.77-29.38-13.225-63.751-8.935"/>
	<path fill="none" stroke="#3E789C" stroke-width="3" stroke-miterlimit="10" d="M64.401,231.689
		c-37.256,22.238-65.932,44.194-61.417,56.496c8.348,22.744,101.414,9.506,207.867-29.568s185.983-89.188,177.635-111.933
		c-3.953-10.77-29.38-13.225-63.751-8.935"/>
	<path fill="none" stroke="#ACD1F0" stroke-width="3" stroke-miterlimit="10" d="M64.401,229.689
		c-37.256,22.238-65.932,44.194-61.417,56.496c8.348,22.744,101.414,9.506,207.867-29.568s185.983-89.188,177.635-111.933
		c-3.953-10.77-29.38-13.225-63.751-8.935"/>
	<path fill="none" stroke="#ACD1F0" stroke-width="3" stroke-miterlimit="10" d="M64.401,239.689
		c-37.256,22.238-65.932,44.194-61.417,56.496c8.348,22.744,101.414,9.506,207.867-29.568s185.983-89.188,177.635-111.933
		c-3.953-10.77-29.38-13.225-63.751-8.935"/>
	<path fill="#304A80" d="M316.398,174.444h31.269c-4.527-20.986-13.549-40.299-26.016-56.877c0.163,3.324,0.25,6.667,0.25,10.031
		C321.901,143.731,319.987,159.413,316.398,174.444z"/>
	<path fill="#3C5A9C" d="M68.401,151.897c-6.522,16.582-10.105,34.641-10.105,53.538c0,14.897,2.233,29.271,6.37,42.814h3.735
		V151.897z"/>
</g>
</svg>
