<?xml version="1.0" encoding="utf-8"?>
<!-- Generator: Adobe Illustrator 17.0.0, SVG Export Plug-In . SVG Version: 6.00 Build 0)  -->
<!DOCTYPE svg PUBLIC "-//W3C//DTD SVG 1.1//EN" "http://www.w3.org/Graphics/SVG/1.1/DTD/svg11.dtd">
<svg version="1.1" id="Calque_1" xmlns="http://www.w3.org/2000/svg" xmlns:xlink="http://www.w3.org/1999/xlink" x="0px" y="0px"
	 width="660.454px" height="726.335px" viewBox="-243.612 -289.507 660.454 726.335"
	 enable-background="new -243.612 -289.507 660.454 726.335" xml:space="preserve">
<g display="none">
	<path display="inline" fill="#FFFFFF" d="M137.162,82.47c3.183,2.024,6.941,3.473,11.283,3.762s8.682,0,12.732-1.155
		c4.051-1.447,7.523-3.765,10.127-6.367c2.604-2.894,4.051-6.365,4.34-10.418c0.291-3.472,0-7.233-1.443-10.996
		c-1.158-3.762-2.896-6.944-5.498-9.838c-2.604-2.604-5.209-4.341-8.104-5.209c-4.918-1.445-9.838-1.157-15.047,0.29
		c-4.631,1.446-8.102,3.473-10.707,6.077c-2.604,3.472-4.629,6.945-5.498,10.417c-0.867,3.762-0.578,8.392,0.869,13.312
		C131.373,76.683,133.688,79.867,137.162,82.47L137.162,82.47z"/>
	<path display="inline" d="M78.709,52.375c-2.025,0.482-4.051,0.965-6.077,1.447c-2.315,0.868-4.051,1.736-5.498,2.604
		c-2.604,2.024-4.63,4.34-6.077,7.233c-1.446,2.895-2.024,6.077-2.024,9.26c0,3.186,0.867,6.077,2.314,8.684
		c1.446,2.893,3.762,4.918,6.655,6.363c3.184,1.736,6.656,2.314,10.128,1.736c3.761-0.289,6.945-1.736,9.549-4.341
		c2.892-2.604,4.628-6.366,4.917-10.706c0.291-4.341-0.867-8.104-3.471-11.286c-1.736-2.314-3.764-3.763-5.788-4.341
		c-2.025-0.579-4.051-0.579-6.656,0c-2.025,0.289-4.051,1.157-5.787,2.604c-0.823,0.771-1.498,1.542-2.025,2.314
		c-0.192-0.096-0.386-0.193-0.578-0.289c0.289-2.604,1.735-4.919,4.34-6.656c2.313-1.445,5.208-2.313,8.392-2.604
		c3.763-0.29,6.945,0.868,10.128,3.183c2.604,2.315,4.918,5.209,6.365,8.682c1.447,3.762,2.025,7.523,1.736,11.284
		c-0.289,4.055-1.736,7.525-3.763,10.707c-2.604,3.764-6.076,6.656-10.417,8.684c-6.076,2.604-12.442,2.312-18.81-0.869
		c-6.655-3.183-10.706-7.812-12.731-14.467c-1.446-5.498-1.157-10.708,0.868-16.207c2.314-5.498,5.787-9.549,10.707-12.154
		c2.604-1.447,5.208-2.025,7.812-2.025C74.079,51.219,76.104,51.508,78.709,52.375L78.709,52.375z M96.069,35.014
		c0.869,3.279,1.736,6.56,2.605,9.838c0.867,3.762,2.025,6.655,3.473,9.26c0.098-0.193,0.191-0.386,0.289-0.579
		c0.674-5.498,1.352-10.995,2.025-16.494c0.19,0,0.385,0,0.578,0c2.024,6.077,3.184,10.996,3.473,14.18
		c0.289,4.63-0.867,7.812-3.473,9.838c-1.156,0.867-2.604,1.156-4.052,0.579c-1.446-0.29-2.895-1.158-3.762-2.604
		c-1.447-2.894-2.313-5.788-2.604-8.971C94.334,46.878,94.914,41.669,96.069,35.014L96.069,35.014z M74.657,75.235
		c1.254,0.938,2.343,1.354,3.423,1.011c0.669-0.894,2.015-3.538,0.049-4.191c-0.868-0.579-1.736-0.579-2.604,0
		C74.657,72.921,74.368,73.79,74.657,75.235L74.657,75.235z M106.487,103.304c0.578,2.313,1.158,4.631,1.736,6.944
		c1.062,4.822,2.121,9.646,3.186,14.47c-0.193,0.096-0.389,0.192-0.58,0.288c-1.543-2.12-3.086-4.243-4.629-6.364
		c-1.062-2.799-2.123-5.597-3.186-8.394c-0.867,3.763-2.023,8.683-4.051,14.181c-0.193,0.289-0.387,0.577-0.58,0.866
		c-0.191,0.289-0.385,0.578-0.578,0.869c-1.736-0.285-3.473-1.057-5.209-2.895c0.098,0,0.193,0,0.291,0
		c-0.193-7.43-0.387-14.854-0.58-22.281c1.062,2.797,2.121,5.594,3.186,8.393c0.865-3.184,1.445-5.498,2.312-7.233
		c0.869-2.313,2.025-3.474,3.762-3.474c1.158,0,2.025,0.289,2.896,1.158C105.33,100.701,105.91,101.858,106.487,103.304
		L106.487,103.304z M130.217,91.729c-0.965,1.446-1.93,2.894-2.896,4.34c-1.061,2.123-2.119,4.244-3.182,6.367
		c-0.58,1.446-0.869,2.894-1.158,4.918c-0.289,2.315,0,3.765,0.289,4.631c0.578,0.869,1.447,1.736,2.604,2.025
		c1.642,0.387,3.279,0.771,4.92,1.157c1.543,0.289,3.086,0.578,4.631,0.867c0.097,0.193,0.191,0.387,0.289,0.58
		c-2.123,0.771-4.243,1.543-6.366,2.314c-2.604,0.576-4.629,0.576-6.654,0c-2.313-0.867-4.051-2.025-5.498-4.053
		c-2.024-2.896-2.315-6.078-1.157-9.262c2.024-6.076,5.498-10.705,10.418-13.601c0.866-0.578,1.444-0.867,2.024-0.867
		C128.771,91.151,129.349,91.44,130.217,91.729L130.217,91.729z M149.024,87.39c-2.029,1.728-3.762,4.629-4.631,8.392
		c-0.096,0.387-0.189,0.771-0.289,1.157c0.193,0.386,0.389,0.771,0.58,1.158c0.096-0.099,0.193-0.193,0.289-0.291
		c1.736-2.024,2.895-3.763,3.762-5.498c0.867-2.024,1.447-3.763,1.736-5.787C150.246,86.748,149.397,87.072,149.024,87.39
		L149.024,87.39z M154.233,90.283c-1.156,2.604-2.895,4.92-4.92,7.233c-0.676,0.578-1.35,1.157-2.023,1.735
		c-1.158,0.869-2.024,1.158-2.896,0.869c-0.189-0.192-0.385-0.387-0.578-0.58c-0.096,1.158-0.191,2.314-0.289,3.474
		c0,3.185,0.578,5.498,1.736,6.944c0.578,0.867,1.158,1.158,2.025,1.158c1.446,0.289,3.184,0,5.209-0.869
		c3.086-1.93,6.172-3.856,9.26-5.787c1.928-1.352,3.856-2.7,5.787-4.051c0.192,0.096,0.387,0.191,0.58,0.289
		c-4.631,5.787-8.394,10.127-11.576,12.732c-1.353,0.771-2.701,1.543-4.051,2.312c-2.896,1.157-5.209,1.446-7.234,1.157
		c-2.604-0.577-4.342-1.735-5.787-3.762c-1.158-2.024-2.023-3.763-2.312-5.498c-0.869-3.185-0.869-6.367-0.58-9.261
		c0.291-2.895,1.156-5.789,2.896-8.971c1.444-2.313,2.894-4.34,4.918-5.787c2.026-1.735,4.342-2.604,6.655-2.895
		c1.158,0,2.025,0.289,2.896,0.578c0.867,0.867,1.158,1.734,1.447,2.604C155.683,85.942,155.394,87.969,154.233,90.283
		L154.233,90.283z M43.116,116.906c-0.965,7.907-1.93,15.817-2.895,23.729c-1.446-3.765-2.313-6.655-2.604-8.394
		c-0.868-8.394-1.157-14.759-0.289-19.388c0.579-3.474,2.024-5.5,4.63-6.367c2.604-0.868,4.919,0,6.944,2.604
		c3.473,3.475,4.919,7.236,4.341,11.287c-0.289,3.184-1.736,6.365-4.052,9.838c0.193,0.193,0.387,0.389,0.579,0.578
		c3.666,2.701,7.331,5.402,10.996,8.104c-0.096,0.191-0.192,0.385-0.289,0.578c-2.701-0.869-5.4-1.736-8.103-2.605
		c-2.894-0.867-5.208-2.313-7.233-4.049c-0.29-0.291-0.869-0.58-1.158-1.447c-0.29-0.869-0.29-2.024,0-3.184
		c0.579-1.158,1.158-2.316,1.736-3.475c1.446-4.34,0.868-7.812-2.026-10.418L43.116,116.906L43.116,116.906z M79.287,108.224
		c-0.29-0.58-0.578-1.158-0.868-1.736c-3.184,5.498-5.498,12.154-6.945,19.968c2.315-0.869,4.051-2.604,4.919-5.209
		c0.193-1.353,0.386-2.701,0.579-4.052c0-1.254,0-2.508,0-3.762c0.386-0.481,0.771-0.965,1.157-1.447
		c0.481-0.192,0.964-0.387,1.447-0.577c0.867,0.289,1.735,0.577,2.024,1.446c1.736,3.856,3.474,7.715,5.209,11.574
		c-0.096,0.096-0.192,0.192-0.289,0.288c-1.446-1.641-2.895-3.278-4.341-4.918c0,0.289,0,0.578,0,0.867
		c-0.29,3.183-1.447,5.787-3.472,8.392c-2.026,2.604-4.341,4.342-7.235,5.787c-2.604,0.68-5.209,0.584-7.812-0.289
		c-1.157-1.445-1.157-3.763,0-6.943c2.025-5.209,4.34-10.129,6.944-14.469c1.158-2.315,2.895-4.92,5.499-8.104
		c0.868-1.156,2.025-1.447,2.895-1.156c0.579,0.289,0.868,0.578,1.156,1.445c-0.097,0.482-0.192,0.965-0.289,1.447L79.287,108.224
		L79.287,108.224z M149.896,25.753c0,2.026,0.867,3.184,2.313,4.053c1.445,0.578,2.896,0.578,3.763-0.29
		c2.313-2.026,2.313-4.052,0.288-6.366C154.539,21.429,149.272,23.273,149.896,25.753L149.896,25.753z M141.213,22.86
		c3.763,1.736,5.498,3.761,5.787,5.787c0,1.735-1.158,3.473-3.186,5.498c-2.121,1.543-4.244,3.087-6.363,4.63
		c-0.771,0.675-1.547,1.351-2.313,2.026c4.241,3.472,8.485,6.944,12.729,10.417c-0.098,0.289-0.191,0.578-0.289,0.867
		c-3.955-1.833-7.91-3.665-11.863-5.499c-3.186-1.445-5.209-2.893-6.077-4.34c-0.578-1.445-0.578-2.604,0.291-3.472
		c2.604-2.701,5.209-5.401,7.812-8.104c0.288-0.289,0.577-0.577,0.866-0.867c-0.578-0.098-1.154-0.193-1.732-0.29
		c-1.735-0.097-3.475-0.192-5.209-0.29c-2.51,0.481-5.018,0.965-7.522,1.446c-0.869,0.29-1.735,0.579-2.604,0.868
		c-0.193,0.193-0.388,0.386-0.578,0.579c-0.193,2.99-0.388,5.98-0.578,8.97c-1.158,14.47-2.896,27.49-5.5,39.354
		c-0.674,1.254-1.35,2.508-2.025,3.762c0-7.233,0-14.469,0-21.703s0-14.468,0-21.703c-0.096-3.183-0.189-6.365-0.289-9.549
		c0-1.446,0.578-2.894,1.447-4.341c0.867-1.447,2.314-2.314,3.762-2.894c2.605-1.446,5.498-2.314,8.684-2.604
		c3.277,0.097,6.56,0.193,9.838,0.29C138.028,21.992,139.767,22.281,141.213,22.86L141.213,22.86z M83.338,18.23
		c-0.579,2.604-0.579,4.63,0.289,6.077c0.29,0.867,0.579,1.156,1.158,1.445c1.157,0.29,2.604,0,4.051-0.867
		c1.447-0.868,3.472-2.025,5.498-4.051c0.099,0,0.191,0,0.289,0c-1.733,4.918-4.629,7.523-8.97,8.103
		c-2.604,0.29-4.341-0.868-5.787-3.761c-1.447-3.185-1.447-6.367-0.289-10.129c1.446-4.34,4.051-6.944,7.812-7.812
		c1.157-0.29,2.202-0.113,2.894,0.579c1.156,0.868,1.445,2.313,0.867,4.341c-0.58,2.313-1.735,4.34-3.472,5.787
		c-0.868,0.868-2.025,1.447-2.894,1.447c-0.579,0-0.868-0.289-1.158-0.579C83.531,18.616,83.435,18.423,83.338,18.23L83.338,18.23z
		 M88.258,10.707c-0.334-0.211-0.938-0.045-1.447,0.579c-1.157,1.158-2.024,2.895-2.894,5.498c0,0.096,0,0.193,0,0.289
		c0.096,0.386,0.192,0.771,0.289,1.158c0.097-0.098,0.192-0.193,0.289-0.29c1.157-0.578,2.025-1.736,2.895-3.184
		C87.968,13.6,88.258,12.154,88.258,10.707L88.258,10.707z M66.844,0c1.447,2.604,2.604,4.919,2.894,6.945
		c0.868,4.34,1.158,8.97,1.158,13.6c0,2.22,0,4.438,0,6.656c0.098,0.868,0.193,1.736,0.29,2.604c0.097,0.29,0.192,0.578,0.289,0.867
		c0.097,0,0.193,0,0.29,0c2.411-0.867,4.823-1.735,7.234-2.604c0.096,0.193,0.192,0.386,0.289,0.579
		c-1.254,1.158-2.508,2.314-3.763,3.473c-1.446,1.446-3.183,2.025-4.63,2.314c-0.481-0.098-0.964-0.193-1.446-0.289
		c-1.157-0.868-2.025-2.315-2.895-4.34c-0.289-1.833-0.578-3.666-0.868-5.498c0.097-3.763,0.193-7.523,0.289-11.286
		c0.194-3.183,0.387-6.366,0.579-9.549C66.652,2.315,66.748,1.158,66.844,0L66.844,0z M22.571,73.21
		c-0.115,0.118-0.806,0.74-0.929,0.855c-0.604,0.565-0.851,1.342-1.097,2.329c0.097,0.097,0.192,0.192,0.29,0.289
		c0.868-0.289,1.447-0.578,1.735-1.158C22.86,74.658,22.86,74.079,22.571,73.21L22.571,73.21z M20.545,77.261
		c-0.29,1.446,0,2.024,0.868,2.313c0.579-0.19,1.157-0.385,1.735-0.578c0.676-0.385,1.352-0.771,2.025-1.158
		c0.096,0.099,0.192,0.193,0.289,0.291c-0.289,0.386-0.578,0.771-0.868,1.156c-1.157,1.447-2.314,2.025-3.472,1.736
		c-1.158-0.289-2.025-1.156-2.314-2.604c-0.29-1.157-0.29-2.312,0-3.474c0.289-1.446,1.157-2.314,2.025-2.895
		c1.446-0.867,2.314-0.867,3.183,0c0.578,0.868,0.525,2,0,3.184c-0.632,1.425-1.736,2.353-3.183,2.062
		C20.738,77.298,20.642,77.261,20.545,77.261L20.545,77.261z M11.865,75.524c-0.869,0.291-1.447,1.158-1.736,2.604
		c-0.193,1.156-0.386,2.314-0.579,3.474c0,0.19,0,0.386,0,0.578c0.096,0.096,0.192,0.19,0.289,0.289c0.097,0,0.193,0,0.29,0
		c0.597-0.234,1.033-0.953,1.446-1.736c0.653-1.446,1.252-2.896,1.446-4.34c0-0.192,0-0.388,0-0.578
		C12.636,75.719,12.25,75.623,11.865,75.524L11.865,75.524z M13.311,68.87c0-0.868,0.29-1.157,0.869-1.157s0.868,0.289,0.868,0.868
		c0.29,1.736,0.579,3.474,0.579,4.919c-0.097,0.965-0.193,1.932-0.289,2.896c0.096,0.578,0.192,1.155,0.289,1.734
		c0.29,1.156,0.579,2.313,0.868,3.475c-0.098,0-0.193,0-0.289,0c-0.387-0.965-0.772-1.932-1.158-2.896
		c-0.193,0.481-0.385,0.965-0.578,1.447c-0.599,1.174-1.44,2.188-2.315,3.184c-1.157,1.445-2.314,1.445-3.473,0.578
		c-0.289-0.289-0.579-0.578-0.868-1.445c-0.289-1.447,0.289-3.186,1.157-4.921c0.868-2.313,2.026-3.184,3.473-2.604
		c0.193,0.096,0.387,0.192,0.579,0.288c0.098-0.578,0.193-1.157,0.289-1.735C13.311,71.956,13.311,70.413,13.311,68.87L13.311,68.87
		z M46.299,42.538c4.147-1.157,8.296-2.314,12.443-3.473c0.096,0.192,0.192,0.385,0.288,0.578
		c-4.629,4.341-8.102,6.944-10.417,8.103c-2.314,1.157-4.34,2.025-6.365,2.604c0.868,5.787,1.735,11.574,2.604,17.361
		c0.29,4.147,0.579,8.295,0.868,12.443c0,4.629-0.29,8.682-0.868,12.152c-0.771,2.123-1.543,4.242-2.314,6.365
		c-0.193-0.098-0.387-0.191-0.579-0.289c-0.965-4.438-1.93-8.875-2.895-13.311c-0.868-8.298-1.735-16.592-2.604-24.887
		c0-3.762,0.289-6.945,0.579-8.971c-0.387,0.098-0.771,0.193-1.158,0.29c-7.234-0.386-14.468-0.771-21.703-1.157
		c6.752-1.93,13.504-3.858,20.256-5.788L46.299,42.538L46.299,42.538z M35.882,84.207c-4.341,2.024-7.523,4.051-10.127,6.365
		c-3.473,3.184-5.499,7.233-6.077,12.442c-0.096,0.868-0.193,1.735-0.29,2.604c2.412-0.289,4.823-0.578,7.234-0.867
		c2.604-0.096,5.209-0.191,7.812-0.289c0,0.387,0,0.771,0,1.156c-2.508,1.641-5.016,3.28-7.523,4.92
		c-2.895,2.024-5.498,3.186-7.813,4.053c0.096,0.771,0.193,1.541,0.289,2.314c0.29,4.918,1.736,12.151,3.762,21.122
		c0.868,3.378,1.736,6.753,2.604,10.13c-0.193,0.096-0.386,0.19-0.579,0.289c-4.919-6.076-8.681-13.021-11.286-21.125
		c-1.157-3.183-2.025-6.365-2.604-9.55c-0.098-0.481-0.193-0.965-0.29-1.444c-3.665,0.09-7.33,0.182-10.996,0.272
		c0-0.121,0-0.24,0-0.36c1.735-1.13,3.473-2.259,5.209-3.386c1.929-1.256,3.857-2.511,5.787-3.765c0-2.604,0.29-5.207,1.157-7.812
		c2.025-6.944,5.498-11.862,10.706-14.758C27.491,83.917,31.831,83.048,35.882,84.207L35.882,84.207z"/>
</g>
<g>
	<g>
		<path fill="#F5DA3F" d="M290.786,23.5c-26.867-9.316-42.217-28.054-47.807-55.963c-6.088-30.394-0.324-57.262,20.406-80.581
			c1.728-1.942,3.863-3.522,5.81-5.27c12.241,5.414,24.47,10.859,36.743,16.199c1.571,0.683,3.388,0.805,5.089,1.187
			c0.172-0.53,0.342-1.061,0.512-1.591c-9.735-8.308-19.473-16.616-29.208-24.923c25.758-15.705,71.407-19.325,95.343-0.264
			c22.036,17.553,34.31,40.693,38.224,68.32c2.91,20.536-0.666,39.768-14.12,56.17c-13.28,16.191-31.013,24.99-51.213,29.283
			c0.631-9.544-3.302-16.018-12.67-18.834c-4.392-4.658-9.906-4.799-15.631-3.75C309.081,5.897,299.509,14.043,290.786,23.5z"/>
		<path fill="#AAAAAA" d="M201.654,180.537c-3.562,2.792-6.316,5.068-9.191,7.183c-19.27,14.158-27.756,34.28-30.354,57.065
			c-1.957,17.16-0.297,34.17,7.465,50.077c9.602,19.679,24.473,32.302,46.71,35.397c21.935,3.054,42.312,0.097,59.116-15.609
			c19.284-18.024,25.392-40.76,22.405-66.384c-1.328-11.397-5.601-21.726-11.904-31.303c-16.428-24.958-48.544-25.7-69.146-11.189
			c-11.256,7.929-18.21,19.462-25.183,30.92c-2.842,4.666-5.414,9.497-8.335,14.111c-0.564,0.892-2.176,1.122-3.303,1.657
			c-0.279-1.075-1.04-2.298-0.767-3.206c4.009-13.284,6.784-27.163,12.568-39.642c10.344-22.311,29.896-32.969,53.595-36.232
			c36.581-5.037,65.431,19.787,77.724,49.646c15.199,36.92,12.033,72.518-11.043,105.378c-14.588,20.774-35.423,32.646-60.43,36.272
			c-33.96,4.926-64.079-3.478-88.406-28.532c-14.411-14.843-21.285-33.287-23.767-53.616c-2.905-23.812,1.197-46.341,12.189-67.557
			c7.487-14.453,18.176-25.891,33.116-32.991C189.818,179.559,195.008,179.02,201.654,180.537z"/>
		<path fill="#FFFFFF" d="M13.469-55.509c0.233-11.464,5.597-19.267,14.078-24.82c19.914-13.038,50.895-17.531,75.211,4.973
			c25.581,23.674,33.725,64.97,19.073,98.56C107.2,56.742,72.992,78.018,37.703,74.622c-57.881-5.568-103.241-61.313-74.47-129.251
			c10.918-25.783,30.278-42.515,58.388-47.864c10.137-1.929,19.995-0.215,30.821,3.589c-6.367,1.66-11.741,3.045-17.107,4.463
			C-2.201-84.53-23.109-56.227-21.273-17.823c1.343,28.098,19.052,50.434,45.651,57.58C51.433,47.027,79.691,36.854,93.7,14.8
			c14.924-23.492,12.144-56.088-6.465-76.737C74.059-76.56,57.666-77.698,40.116-72.947c-9.28,2.512-17.936,6.465-23.412,15.166
			C16.058-56.752,14.568-56.253,13.469-55.509z"/>
		<path fill="#FFFFFF" d="M282.331-127.442c9.735,8.307,19.473,16.615,29.208,24.923c-0.17,0.53-0.34,1.061-0.512,1.591
			c-1.701-0.382-3.518-0.504-5.089-1.187c-12.273-5.34-24.502-10.785-36.743-16.199c-4.074-2.083-8.388-3.811-12.159-6.342
			c-4.188-2.812-8.419-5.898-11.668-9.689c-4.774-5.571-4.509-11.877,0.4-17.263c8.311-9.116,16.957-17.925,25.514-26.813
			c1.323-1.376,2.919-2.491,4.39-3.728c-0.107-0.477-0.215-0.952-0.322-1.426c-4-0.656-7.979-1.639-12.005-1.913
			c-17.214-1.172-33.625,2.449-49.602,8.611c-3.141,1.21-3.938,3.246-4.079,6.416c-2.579,58.04-9.146,115.607-21.26,172.461
			c-1.304,6.118-4.674,11.795-7.086,17.678c-0.569-0.132-1.142-0.264-1.712-0.394c0-9.76,0.048-19.521-0.009-29.28
			c-0.316-54.662-0.586-109.325-1.041-163.985c-0.13-15.589,6.348-26.004,20.597-32.41c23.747-10.675,48.545-11.883,73.537-6.923
			c8.898,1.766,17.684,6.145,25.468,11.014c11.983,7.497,13.227,19.491,3.226,29.443c-7.07,7.036-15.559,12.64-23.37,18.938
			c-4.779,3.854-9.474,7.81-14.654,12.089C270.068-136.74,276.2-132.091,282.331-127.442z"/>
		<path fill="#FFFFFF" d="M-243.612,140.996c12.236-8.283,24.396-16.682,36.767-24.76c2.907-1.897,4.271-3.715,4.604-7.338
			c2.566-27.905,11.454-53.184,33.418-71.899c16.955-14.449,36.572-21.138,59.544-16.103
			c-35.307,15.293-60.229,38.343-61.326,78.984c18.669-1.174,37.224-2.341,55.776-3.508c0.354,0.582,0.711,1.165,1.065,1.749
			c-1.165,1.497-2.028,3.479-3.541,4.418c-17.188,10.665-34.516,21.106-51.654,31.852c-1.224,0.767-1.989,3.545-1.732,5.195
			c3.541,22.783,6.76,45.639,11.183,68.256c3.171,16.221,8.061,32.104,12.062,48.167c0.43,1.727,0.058,3.651-0.562,5.486
			c-22.964-24.292-45.7-70.57-53.895-119.506c-13.736,0-27.542,0-41.348,0C-243.37,141.659-243.491,141.328-243.612,140.996z"/>
		<path fill="#FFFFFF" d="M-85.863,74.092c-13.083-57.816-20.178-116.326-20.689-175.726c-26.389-1.439-53.826-2.938-82.331-4.496
			c1.283-0.833,1.667-1.231,2.125-1.355c27.7-7.533,55.126-16.427,83.196-22.148c25.91-5.281,51.809-10.292,77.188-17.76
			c1.166-0.343,2.374-0.568,3.578-0.745c0.225-0.033,0.521,0.421,0.782,0.652c-7.171,12.316-34.146,30.271-63.378,41.969
			c1.775,10.52,3.323,21.286,5.438,31.938c7.082,35.673,9.422,71.6,6.775,107.888c-0.976,13.388-5.427,25.796-9.577,38.332
			c-0.271,0.814-0.609,1.607-0.916,2.412C-84.402,74.732-85.133,74.412-85.863,74.092z"/>
		<path fill="#AAAAAA" d="M337.895,7.234c9.368,2.818,13.301,9.291,12.67,18.834c-0.785,13.903-8.273,24.854-16.286,35.313
			c-4.425,5.778-9.874,10.925-15.524,15.542c-2.578,2.107-6.812,2.115-10.195,3.35c-1.339,0.489-3.387,1.657-3.449,2.622
			c-0.708,10.925-0.704,21.827,4.852,31.791c0.812,1.457,2.309,2.531,3.488,3.783c2.847,1.398,5.818,4.161,8.515,3.913
			c5.62-0.516,11.83-1.428,16.493-4.298c14.55-8.954,28.493-18.896,42.67-28.454c0.646-0.404,1.289-0.811,1.935-1.217l-0.248,0.104
			l-0.187-0.194c4.189-2.3,8.38-4.6,13.406-7.358c-0.364,1.93-0.209,3.311-0.824,4.051c-13.722,16.506-26.483,33.984-43.771,47.081
			c-9.209,6.976-19.662,11.48-31.65,11.787c-9.821,0.253-17.852-3.863-25.603-9.089c-0.734-0.531-1.471-1.064-2.205-1.598
			l-0.025-0.018c-0.453-1.248-0.805-2.546-1.376-3.737c-3.335-6.945-7.893-13.547-9.889-20.854
			c-8.234-30.137-0.802-57.263,18.29-81.268C308.751,15.034,321.281,6.87,337.895,7.234z M309.457,72.248
			c10.625-8.76,20.922-29.787,20.562-41.657C317.785,35.417,304.026,62.812,309.457,72.248z"/>
		<path fill="#AAAAAA" d="M-113.501,247.853c16.707,62.989,12.913,126.017,18.384,188.046c-4.333,1.94-6.363,0.75-8.201-2.723
			c-11.543-21.807-17.334-45.35-20.559-69.524c-1.833-13.744-2.453-27.675-3.072-41.546c-0.308-6.9,0.614-13.854,0.422-21.065
			c-13.181,21.891-33.314,32.8-58.688,38.655c4.594-6.296,8.503-11.496,12.247-16.812c14.194-20.163,28.033-40.588,42.692-60.405
			C-126.186,256.947-119.731,253.168-113.501,247.853z"/>
		<path fill="#FFFFFF" d="M-80.733,134.188c-3.905,32.127-7.811,64.253-11.716,96.379c-0.413,0.134-0.825,0.267-1.238,0.401
			c-2.696-8.096-6.508-16.006-7.884-24.318c-4.157-25.109-6.198-50.438-2.125-75.792c0.877-5.459,2.668-11.049,5.301-15.892
			c6.579-12.1,19.37-15.083,31.208-7.956c18.15,10.926,28.334,37.288,21.839,59.421c-2.679,9.126-7.795,17.534-12.293,27.338
			c13.55,10.183,28.207,21.199,43.792,32.913c-2.232,0.824-3.221,1.596-3.903,1.384c-18.149-5.639-36.647-10.456-52.573-21.521
			c-10.146-7.05-11.354-14.527-5.737-25.415c3.489-6.763,6.218-14.236,7.569-21.703c1.827-10.099-2.955-18.394-10.17-25.229
			C-79.354,134.194-80.044,134.191-80.733,134.188z"/>
		<path fill="#FFFFFF" d="M54.14,110.089c-1.022-1.676-1.979-3.241-3.323-5.443c-12.475,23.58-20.146,48.118-26.022,74.473
			c10.013-4.762,16.082-11.891,18.266-21.406c1.789-7.794,1.935-16.003,2.398-24.052c0.493-8.54,6.337-13.188,13.048-9.728
			c1.757,0.904,3.515,2.588,4.364,4.351c6.491,13.49,12.774,27.08,19.063,40.667c0.442,0.955,0.411,2.131,0.6,3.204
			c-0.404,0.266-0.809,0.53-1.212,0.796c-5.233-5.638-10.468-11.275-15.947-17.179C61.396,186.743,42.51,204,15.336,213.869
			c-3.166,1.15-6.985,1.08-10.427,0.767c-6.903-0.632-12.256-5.959-12.494-12.861c-0.156-4.485,0.204-9.322,1.747-13.478
			c11.626-31.306,24.967-61.762,46.248-88.016c0.223-0.273,0.441-0.55,0.666-0.822c4.375-5.312,10.096-7.11,13.68-4.3
			C58.259,97.908,58.069,104.409,54.14,110.089z"/>
		<path fill="#FFFFFF" d="M173.564,174.614c-16.981-15.385-22.438-35.391-30.169-53.639c-5.952,18.469-11.84,36.771-17.777,55.055
			c-0.195,0.598-0.902,1.028-1.528,1.709c-6.459-3.339-12.852-6.643-19.005-9.823c-0.847-27.407-1.682-54.438-2.516-81.472
			c0.305-0.079,0.607-0.158,0.911-0.237c3.74,9.141,7.48,18.279,11.713,28.621c1.974-7.132,3.419-13.178,5.348-19.064
			c1.522-4.654,3.048-9.486,5.609-13.592c6.423-10.286,19.407-10.478,24.622,0.372c4.894,10.182,7.968,21.373,10.754,32.396
			c4.483,17.745,8.099,35.711,11.992,53.603C173.862,170.119,173.564,171.838,173.564,174.614z"/>
		<path fill="#FFFFFF" d="M117.654-162.467c6.438,23.254,10.011,47.446,23.097,69.003c2.583-21.08,5.167-42.161,7.75-63.242
			c0.68-0.015,1.358-0.029,2.038-0.045c0.747,2.231,1.676,4.421,2.212,6.702c3.581,15.236,7.559,30.402,10.426,45.774
			c1.767,9.471-0.029,19.041-4.071,27.896c-3.271,7.17-7.928,13.182-16.622,13.738c-9.253,0.593-15.869-4.134-20.499-11.668
			c-9.629-15.674-12.143-32.953-10.387-50.923c1.216-12.443,3.097-24.82,4.68-37.229
			C116.735-162.46,117.195-162.464,117.654-162.467z"/>
		<path fill="#FFFFFF" d="M244.722,48.345c-6.441,10.939-13.119,21.46-18.954,32.428c-5.713,10.739-7.977,22.517-7.891,34.702
			c0.069,10.009,3.468,15.076,13.314,17.581c9.884,2.515,20.013,4.058,30.011,6.139c1.562,0.326,3.003,1.253,4.499,1.901
			c-1.374,1.069-2.593,2.623-4.149,3.131c-8.023,2.618-15.988,5.761-24.239,7.271c-31.635,5.787-55.163-21.69-44.763-52.106
			c6.92-20.24,18.545-37.146,36.847-48.855C234.383,47.345,239.694,45.092,244.722,48.345z"/>
		<path fill="#FFFFFF" d="M6.984-289.507c8.467,11.069,11.866,23.456,12.793,36.341c1.479,20.545,2.096,41.149,3.229,61.722
			c0.278,5.04,1.143,10.047,1.835,15.892c10.126-3.299,19.353-6.305,28.579-9.311c-7.6,10.238-15.371,19.92-28.282,23.158
			c-4.183,1.049-7.562-0.083-10.389-3.376C6.778-174.37,3.704-185.759,3.156-197.34c-0.68-14.375,0.407-28.849,1.058-43.266
			C4.948-256.915,6.045-273.208,6.984-289.507z"/>
		<path fill="#FFFFFF" d="M337.895,7.234c-16.613-0.365-29.144,7.8-38.916,20.089c-19.092,24.004-26.524,51.131-18.29,81.268
			c1.996,7.307,6.554,13.907,9.889,20.854c0.571,1.192,0.923,2.489,1.376,3.737c-11.201-6.824-15.698-18.04-18.862-29.815
			c-7.274-27.073-1.043-51.749,14.162-74.64c1.164-1.752,2.354-3.485,3.534-5.227c8.723-9.456,18.295-17.602,31.478-20.015
			C327.988,2.436,333.503,2.576,337.895,7.234z"/>
		<path fill="#FFFFFF" d="M335.699-211.03c7.027,0.09,13.19,7.29,12.959,15.14c-0.229,7.765-6.703,13.904-14.468,13.72
			c-8.899-0.211-15.959-7.638-15.724-16.544C318.641-205.293,326.826-211.144,335.699-211.03z"/>
		<path fill="#FFFFFF" d="M381.125,89.633c-14.178,9.559-28.12,19.5-42.67,28.454c-4.663,2.87-10.873,3.782-16.493,4.299
			c-2.695,0.247-5.668-2.516-8.516-3.914c9.398,0.86,17.279-3.484,24.629-8.206c15.545-9.985,30.646-20.663,45.963-31.008
			c1.323-0.894,2.902-1.408,4.363-2.1c0.257,0.369,0.511,0.738,0.767,1.107c-2.182,3.353-4.363,6.703-6.543,10.057
			c0,0.002,0.187,0.196,0.187,0.196l0.247-0.104C382.413,88.822,381.77,89.228,381.125,89.633z"/>
		<path fill="#FFFFFF" d="M53.786-18.046c0.032,5.894-3.053,9.796-7.874,9.96c-4.88,0.167-10-4.208-10.123-8.648
			c-0.152-5.513,4.429-9.991,10.102-9.876C50.919-26.508,53.755-23.431,53.786-18.046z"/>
		<path fill="#FFFFFF" d="M291.979,133.198c0.734,0.532,1.471,1.065,2.205,1.598C293.448,134.264,292.713,133.73,291.979,133.198z"
			/>
		<path fill="#AAAAAA" d="M105.686,270.891c-9.185-16.355-21.408-29.957-39.1-37.171c-25.803-10.521-49.688-5.532-71.603,10.781
			c-5.714,4.254-10.642,9.924-18.849,8.69c-0.467-0.07-0.995,0.313-1.503,0.457c-14.625,4.112-24.287,14.123-30.687,27.214
			c-14.808,30.29-15.369,61.391-3.305,92.635c6.792,17.593,18.296,31.618,34.746,41.236c34.49,20.164,80.11,10.281,108.25-15.656
			c23.391-21.56,32.619-49.44,33.75-73.6C117.571,301.668,113.969,285.641,105.686,270.891z M71.233,354.063
			c-9.887,17.174-24.157,29.521-43.724,35.254c-27.473,8.048-52.548-3.118-64.023-29.544c-9.997-23.025-12.483-46.833-4.901-71.116
			c2.622-8.4,6.268-16.403,14.256-22.78c-5.107,14.241-9.877,27.544-14.647,40.848c0.57,0.479,1.142,0.96,1.711,1.439
			c1.479-1.106,3.358-1.933,4.371-3.369c5.978-8.471,10.884-17.874,17.795-25.466c10.617-11.662,23.196-21.265,38.964-25.222
			c23.418-5.876,43.479,3.676,54.93,25.916C89.137,305.608,84.87,330.377,71.233,354.063z"/>
		<path fill="#FFFFFF" d="M309.457,72.248c-5.432-9.436,8.328-36.831,20.562-41.657C330.379,42.461,320.082,63.488,309.457,72.248z"
			/>
		<path fill="#FFFFFF" d="M381.125,89.633c0.645-0.404,1.288-0.811,1.934-1.217C382.414,88.822,381.771,89.228,381.125,89.633z"/>
		<path fill="#FFFFFF" d="M110.559-212.385c-1.544,1.247-3.037,2.698-4.756,3.796c-7.236,4.623-14.201,9.862-21.916,13.493
			c-7.5,3.529-13.335,0.12-14.918-8.055c-1.04-5.373-0.649-11.022-0.899-16.548c0.524-0.196,1.049-0.395,1.571-0.591
			c4.179,3.717,8.407,2.292,12.16-0.171c9.917-6.51,16.28-15.65,17.655-27.532c1.556-13.449-7.116-19.525-19.497-14.02
			c-26.18,11.644-33.675,46.476-22.826,67.303c5.801,11.136,15.845,14.998,27.638,10.698c13.254-4.834,21.732-14.545,26.816-27.455
			C111.629-211.573,111.119-211.896,110.559-212.385z M87.253-249.876c1.164,10.311-5.042,22.354-13.79,26.756
			C69.062-229.778,77.3-245.762,87.253-249.876z"/>
		<path fill="#FFFFFF" d="M-182.715,5.768c-2.031-7.337-2.891-14.626-2.12-22.37c0.633-6.363-0.419-12.966-1.362-19.369
			c-0.274-1.86-2.742-3.398-4.204-5.084c-1.211,2.01-3.331,3.961-3.466,6.041c-0.444,6.821-0.167,13.69-0.167,19.112
			c-4.325,1.422-8.661,1.571-10.881,3.813c-6.855,6.929-9.92,15.771-8.65,25.562c1.087,8.379,7.902,10.918,14.413,5.344
			c3.145-2.691,5.62-6.278,7.964-9.752c1.646-2.438,2.558-5.369,4-8.526c1.614,3.582,2.942,6.528,4.271,9.476
			C-182.36,8.443-182.359,7.057-182.715,5.768z M-195.182-6.059c-1.914,5.577-4.341,10.982-6.667,16.415
			c-0.743,1.737-1.774,3.352-2.675,5.021c-0.695-0.562-1.391-1.127-2.086-1.688c-2-8.306-0.411-16.087,4.616-23.017
			c1.015-1.398,3.832-1.489,5.816-2.185C-195.799-9.679-194.658-7.583-195.182-6.059z"/>
		<path fill="#FFFFFF" d="M-156.486,1.664c-5.148,3.176-11.25,1.46-9.711-6.549c8.438-0.66,13.021-3.914,13.8-11.223
			c0.339-3.184-0.896-7.861-3.156-9.586c-1.92-1.468-7.007-0.725-9.521,0.879c-8.071,5.146-9.673,13.464-8.511,22.339
			c0.916,6.996,5.218,11.167,10.655,11.108c6.505-0.069,12.908-5.385,14.046-11.787C-151.475-1.509-153.962,0.108-156.486,1.664z
			 M-159.512-21.221c2.732,7.519,0.816,11.081-5.645,13.297c-0.49-0.299-0.979-0.597-1.469-0.895
			C-164.443-12.622-162.262-16.425-159.512-21.221z"/>
	</g>
</g>
</svg>
