<?xml version="1.0" encoding="utf-8"?>
<!-- Generator: Adobe Illustrator 16.0.0, SVG Export Plug-In . SVG Version: 6.00 Build 0)  -->
<!DOCTYPE svg PUBLIC "-//W3C//DTD SVG 1.1//EN" "http://www.w3.org/Graphics/SVG/1.1/DTD/svg11.dtd">
<svg version="1.1" id="Calque_1" xmlns="http://www.w3.org/2000/svg" xmlns:xlink="http://www.w3.org/1999/xlink" x="0px" y="0px"
	 width="230.5px" height="577.057px" viewBox="0 0 230.5 577.057" enable-background="new 0 0 230.5 577.057" xml:space="preserve">
<polygon fill="#B39462" points="136.901,449.043 93.599,426.209 50.297,449.043 0,422.52 13.993,395.982 50.297,415.127 
	93.599,392.293 136.901,415.127 180.202,392.293 230.5,418.816 216.505,445.354 180.202,426.209 "/>
<polygon fill="#B39462" points="136.901,513.05 93.599,490.216 50.297,513.05 0,486.526 13.993,459.989 50.297,479.134 
	93.599,456.3 136.901,479.134 180.202,456.3 230.5,482.823 216.505,509.36 180.202,490.216 "/>
<polygon fill="#B39462" points="136.901,577.057 93.599,554.223 50.297,577.057 0,550.533 13.993,523.996 50.297,543.141 
	93.599,520.307 136.901,543.141 180.202,520.307 230.5,546.83 216.505,573.367 180.202,554.223 "/>
<path fill="#B39462" d="M115.25,254.583l45.968,45.968L115.25,346.52l-45.968-45.968L115.25,254.583 M115.25,240.441l-60.11,60.11
	l60.11,60.11l60.11-60.11L115.25,240.441L115.25,240.441z"/>
<path fill="#B39462" d="M115.25,134.363l45.968,45.968l-45.968,45.968l-45.968-45.968L115.25,134.363 M115.25,120.221l-60.11,60.11
	l60.11,60.11l60.11-60.11L115.25,120.221L115.25,120.221z"/>
<path fill="#B39462" d="M115.25,14.142l45.968,45.968l-45.968,45.968L69.281,60.11L115.25,14.142 M115.25,0l-60.11,60.11
	l60.11,60.11l60.11-60.11L115.25,0L115.25,0z"/>
</svg>
