<?xml version="1.0" encoding="utf-8"?>
<!-- Generator: Adobe Illustrator 16.0.0, SVG Export Plug-In . SVG Version: 6.00 Build 0)  -->
<!DOCTYPE svg PUBLIC "-//W3C//DTD SVG 1.1//EN" "http://www.w3.org/Graphics/SVG/1.1/DTD/svg11.dtd">
<svg version="1.1" id="Calque_1" xmlns="http://www.w3.org/2000/svg" xmlns:xlink="http://www.w3.org/1999/xlink" x="0px" y="0px"
	 width="230.5px" height="577.057px" viewBox="0 0 230.5 577.057" enable-background="new 0 0 230.5 577.057" xml:space="preserve">
<path fill="#B39462" d="M93.6,403.598l38.638,20.375l4.664,2.46l4.664-2.46l38.637-20.374l36.788,19.398l-4.665,8.847l-27.458-14.48
	l-4.665-2.46l-4.664,2.46l-38.637,20.374l-38.637-20.374l-4.665-2.459l-4.665,2.459l-38.637,20.375L13.51,418.339l4.665-8.847
	l27.458,14.48l4.665,2.46l4.665-2.46L93.6,403.598 M180.202,392.293l-43.301,22.834L93.6,392.293l-43.302,22.834l-36.304-19.145
	L0,422.52l50.298,26.523L93.6,426.209l43.302,22.834l43.301-22.834l36.304,19.145l13.994-26.537L180.202,392.293L180.202,392.293z"
	/>
<path fill="#B39462" d="M93.6,467.605l38.638,20.374l4.664,2.46l4.664-2.46l38.637-20.374l36.788,19.398l-4.665,8.847l-27.458-14.48
	l-4.665-2.46l-4.664,2.46l-38.637,20.374L98.264,481.37l-4.665-2.46l-4.665,2.46l-38.637,20.374L13.51,482.346l4.665-8.847
	l27.458,14.48l4.665,2.46l4.665-2.46L93.6,467.605 M180.202,456.3l-43.301,22.834L93.6,456.3l-43.302,22.834l-36.304-19.145
	L0,486.526l50.298,26.523L93.6,490.216l43.302,22.834l43.301-22.834l36.304,19.145l13.994-26.537L180.202,456.3L180.202,456.3z"/>
<path fill="#B39462" d="M93.6,531.611l38.638,20.375l4.664,2.46l4.664-2.46l38.637-20.374l36.788,19.398l-4.665,8.847l-27.458-14.48
	l-4.665-2.46l-4.664,2.46l-38.637,20.374l-38.637-20.374l-4.665-2.459l-4.665,2.459l-38.637,20.375L13.51,546.353l4.665-8.847
	l27.458,14.48l4.665,2.46l4.665-2.46L93.6,531.611 M180.202,520.307l-43.301,22.834L93.6,520.307l-43.302,22.834l-36.304-19.145
	L0,550.533l50.298,26.523L93.6,554.223l43.302,22.834l43.301-22.834l36.304,19.145L230.5,546.83L180.202,520.307L180.202,520.307z"
	/>
<g>
	
		<rect x="72.746" y="258.047" transform="matrix(0.7071 0.7071 -0.7071 0.7071 246.2781 6.5355)" fill="#B39462" width="85.009" height="85.009"/>
</g>
<g>
	
		<rect x="72.746" y="137.827" transform="matrix(0.7071 0.7071 -0.7071 0.7071 161.2693 -28.6763)" fill="#B39462" width="85.009" height="85.009"/>
</g>
<g>
	
		<rect x="72.746" y="17.606" transform="matrix(0.7071 0.7071 -0.7071 0.7071 76.2604 -63.8881)" fill="#B39462" width="85.009" height="85.009"/>
</g>
</svg>
