<?xml version="1.0" encoding="utf-8"?>
<!-- Generator: Adobe Illustrator 17.0.2, SVG Export Plug-In . SVG Version: 6.00 Build 0)  -->
<!DOCTYPE svg PUBLIC "-//W3C//DTD SVG 1.1//EN" "http://www.w3.org/Graphics/SVG/1.1/DTD/svg11.dtd">
<svg version="1.1" id="Calque_1" xmlns="http://www.w3.org/2000/svg" xmlns:xlink="http://www.w3.org/1999/xlink" x="0px" y="0px"
	 width="301.289px" height="301.289px" viewBox="1246.765 145.246 301.289 301.289"
	 enable-background="new 1246.765 145.246 301.289 301.289" xml:space="preserve">
<g>
	
		<rect x="1435.202" y="161.779" transform="matrix(-0.7431 -0.6691 0.6691 -0.7431 2345.3926 1368.9888)" fill="#444444" width="0.5" height="145.109"/>
	
		<rect x="1406.52" y="151.326" transform="matrix(0.9994 -0.0349 0.0349 0.9994 -6.957 49.2322)" fill="#444444" width="0.5" height="145.145"/>
	
		<rect x="1386.17" y="151.326" transform="matrix(-0.9994 -0.0349 0.0349 -0.9994 2764.1809 496.0461)" fill="#444444" width="0.5" height="145.145"/>
	
		<rect x="1357.493" y="161.778" transform="matrix(0.7431 -0.6691 0.6691 0.7431 191.9496 968.7051)" fill="#444444" width="0.5" height="145.109"/>
	
		<rect x="1341.907" y="174.865" transform="matrix(-0.788 0.6157 -0.6157 -0.788 2552.1079 -383.934)" fill="#444444" width="0.5" height="145.149"/>
	
		<rect x="1326.654" y="201.274" transform="matrix(0.1392 -0.9903 0.9903 0.1392 871.0165 1549.7217)" fill="#444444" width="0.5" height="145.161"/>
	
		<rect x="1323.11" y="221.333" transform="matrix(-0.2079 0.9781 -0.9781 -0.2079 1885.9678 -939.4496)" fill="#444444" width="0.5" height="145.113"/>
	
		<rect x="1328.403" y="251.386" transform="matrix(-0.5299 -0.848 0.848 -0.5299 1758.026 1622.3632)" fill="#444444" width="0.5" height="145.113"/>
	
		<rect x="1338.617" y="269.006" transform="matrix(0.4695 0.8829 -0.8829 0.4695 1011.8298 -1000.9221)" fill="#444444" width="0.5" height="145.125"/>
	
		<rect x="1338.617" y="269.006" transform="matrix(0.4695 0.8829 -0.8829 0.4695 1011.8298 -1000.9221)" fill="#444444" width="0.5" height="145.125"/>
	
		<rect x="1361.948" y="288.615" transform="matrix(-0.9511 -0.309 0.309 -0.9511 2546.1321 1125.6207)" fill="#444444" width="0.5" height="145.161"/>
	
		<rect x="1381.093" y="295.564" transform="matrix(0.9272 0.3746 -0.3746 0.9272 238.4805 -490.64)" fill="#444444" width="0.5" height="145.149"/>
	
		<rect x="1411.605" y="295.56" transform="matrix(-0.9272 0.3746 -0.3746 -0.9272 2858.8118 180.5895)" fill="#444444" width="0.5" height="145.149"/>
	
		<rect x="1430.724" y="288.624" transform="matrix(0.9511 -0.309 0.309 0.9511 -41.5843 459.8302)" fill="#444444" width="0.5" height="145.161"/>
	
		<rect x="1454.086" y="268.976" transform="matrix(-0.4695 0.8829 -0.8829 -0.4695 2438.7185 -782.1748)" fill="#444444" width="0.5" height="145.125"/>
	
		<rect x="1464.284" y="251.391" transform="matrix(0.5299 -0.848 0.848 0.5299 413.7171 1394.2671)" fill="#444444" width="0.5" height="145.113"/>
	
		<rect x="1469.579" y="221.331" transform="matrix(0.2079 0.9781 -0.9781 0.2079 1451.7029 -1204.925)" fill="#444444" width="0.5" height="145.113"/>
	
		<rect x="1466.03" y="201.262" transform="matrix(-0.1392 -0.9903 0.9903 -0.1392 1399.2021 1763.9662)" fill="#444444" width="0.5" height="145.161"/>
	
		<rect x="1450.764" y="174.856" transform="matrix(0.788 0.6157 -0.6157 0.788 459.973 -840.9175)" fill="#444444" width="0.5" height="145.149"/>
	<path fill="#FFFFFF" d="M1397.547,171.052c21.761,0,43.293,5.791,62.269,16.746c28.872,16.669,49.525,43.585,58.154,75.788
		s4.201,65.839-12.469,94.711c-11.162,19.334-27.268,35.317-46.576,46.223c-18.774,10.604-40.094,16.209-61.654,16.209
		c-21.761,0-43.293-5.791-62.269-16.746c-28.872-16.669-49.525-43.585-58.154-75.788s-4.201-65.839,12.469-94.711
		c11.162-19.334,27.268-35.317,46.576-46.223C1354.668,176.657,1375.987,171.052,1397.547,171.052 M1397.547,148.052
		c-51.088,0-100.769,26.509-128.149,73.932c-40.818,70.698-16.595,161.1,54.104,201.917c23.276,13.438,48.695,19.828,73.769,19.828
		c51.088,0,100.769-26.509,128.149-73.932c40.818-70.698,16.595-161.1-54.104-201.917
		C1448.041,154.442,1422.622,148.052,1397.547,148.052L1397.547,148.052z"/>
	<path fill="#464646" d="M1397.548,159.552c23.776,0,47.297,6.324,68.018,18.287c31.533,18.205,54.088,47.601,63.512,82.77
		c9.424,35.17,4.588,71.905-13.618,103.438c-12.189,21.113-29.783,38.571-50.88,50.486c-20.496,11.577-43.772,17.696-67.31,17.696
		c-23.776,0-47.297-6.324-68.018-18.287c-31.533-18.205-54.088-47.6-63.512-82.771s-4.588-71.905,13.618-103.437
		c12.189-21.113,29.783-38.571,50.88-50.486C1350.734,165.671,1374.01,159.552,1397.548,159.552 M1397.548,147.552
		c-51.26,0-101.11,26.599-128.582,74.182c-40.956,70.937-16.651,161.645,54.287,202.6c23.354,13.484,48.859,19.895,74.018,19.895
		c51.26,0,101.11-26.599,128.582-74.182c40.956-70.937,16.651-161.645-54.287-202.6
		C1448.212,153.963,1422.707,147.552,1397.548,147.552L1397.548,147.552z"/>
	<path fill="#212121" d="M1397.55,153.246c24.88,0,49.49,6.616,71.169,19.133c32.991,19.047,56.59,49.802,66.45,86.599
		s4.8,75.231-14.248,108.222c-12.753,22.089-31.162,40.354-53.237,52.823c-21.442,12.111-45.791,18.512-70.415,18.512
		c-24.88,0-49.49-6.616-71.169-19.132c-32.991-19.047-56.59-49.802-66.45-86.599s-4.8-75.231,14.248-108.222
		c12.753-22.089,31.162-40.354,53.237-52.823C1348.577,159.648,1372.926,153.246,1397.55,153.246 M1397.55,145.246
		c-52.057,0-102.682,27.012-130.581,75.335c-41.592,72.04-16.91,164.157,55.131,205.75c23.717,13.693,49.619,20.204,75.169,20.204
		c52.057,0,102.682-27.012,130.581-75.335c41.592-72.04,16.91-164.157-55.13-205.75
		C1449.002,151.757,1423.1,145.246,1397.55,145.246L1397.55,145.246z"/>
	<g>
		<path fill="#464646" d="M1408.004,289.304c-0.454-0.787-2.538,0.63-3.65-0.614c-1.112-1.245,0.39-3.191-0.337-3.686
			c-0.739-0.503-1.963,1.647-3.554,1.035c-1.59-0.612-1.024-3.042-1.904-3.175c-0.875-0.132-0.82,2.255-2.757,2.47
			s-2.233-2.3-3.093-2.034c-0.833,0.258,0.199,2.475-1.407,3.425c-1.606,0.95-3.03-1.086-3.669-0.494
			c-0.661,0.612,1.36,2.089,0.215,3.696c-1.145,1.607-3.195,0.328-3.517,1.152c-0.324,0.828,2.024,1.579,1.798,3.236
			c-0.226,1.657-2.74,1.669-2.674,2.56c0.065,0.877,2.498,0.455,3.023,2.135c0.525,1.68-1.747,2.681-1.293,3.468
			s2.578-0.566,3.65,0.614c1.072,1.18-0.39,3.191,0.337,3.686c0.739,0.503,2.123-1.564,3.554-1.035s1.024,3.042,1.904,3.175
			c0.875,0.133,0.917-2.356,2.756-2.47s2.233,2.3,3.093,2.034c0.833-0.258-0.152-2.547,1.407-3.425s3.03,1.086,3.67,0.494
			c0.661-0.612-1.302-2.257-0.215-3.696c1.087-1.439,3.195-0.328,3.517-1.152c0.324-0.828-2.093-1.475-1.798-3.236
			s2.74-1.669,2.674-2.56c-0.065-0.877-2.512-0.14-3.023-2.135C1406.2,290.777,1408.459,290.091,1408.004,289.304z
			 M1399.991,301.775c-3.199,1.847-7.289,0.751-9.136-2.448s-0.751-7.289,2.448-9.136s7.289-0.751,9.136,2.448
			S1403.19,299.928,1399.991,301.775z"/>
	</g>
</g>
</svg>
